<?xml version="1.0" standalone="no"?>
<!DOCTYPE svg PUBLIC "-//W3C//DTD SVG 1.1//EN" "http://www.w3.org/Graphics/SVG/1.1/DTD/svg11.dtd" >
<svg xmlns="http://www.w3.org/2000/svg">
<metadata>Generated by IcoMoon</metadata>
<defs>
<font id="icomoon-page-5-" horiz-adv-x="1024">
<font-face units-per-em="1024" ascent="960" descent="-64" />
<missing-glyph horiz-adv-x="1024" />
<glyph unicode="&#x20;" horiz-adv-x="512" d="" />
<glyph unicode="&#xe900;" glyph-name="page-5-Amazon-VPC-1" d="M490.285 263.21h-286.505c-112.146 0-197.892 74.902-203.622 177.837 0 4.298 0 9.21 0 14.122-1.742 42.707 11.051 84.742 36.291 119.238 25.239 34.493 61.432 59.408 102.664 70.673 0 5.525 0 10.846 0 16.372 1.032 55.094 18.348 108.651 49.765 153.921s75.531 80.229 126.782 100.471c51.253 20.242 107.349 24.862 161.221 13.279s103.11-38.854 141.514-78.373c26.781-26.507 48.547-57.636 64.256-91.886 22.454 18.038 50.397 27.858 79.2 27.832 59.347 0 122.787-42.362 133.222-136.703 50.432-9.976 95.93-36.912 128.928-76.333l-32.128-25.171c-30.643 35.059-72.819 57.997-118.899 64.669-4.608 0.739-8.822 3.027-11.949 6.49-3.126 3.459-4.976 7.885-5.242 12.541-4.707 78.38-50.547 113.58-93.933 113.58-13.626-0.127-27.034-3.408-39.178-9.586-12.141-6.178-22.688-15.085-30.813-26.022-2.198-2.931-5.142-5.217-8.528-6.621-3.382-1.404-7.082-1.874-10.707-1.361-3.645 0.556-7.069 2.086-9.914 4.427s-5.008 5.407-6.253 8.875c-14.010 39.782-36.736 75.931-66.512 105.802-32.688 33.633-74.573 56.877-120.41 66.823s-93.587 6.15-137.277-10.911c-43.688-17.061-81.375-46.629-108.342-85.004s-42.016-83.851-43.263-130.737c0.029-9.777 0.576-19.545 1.637-29.265 0.493-4.883-0.786-9.782-3.603-13.802s-6.986-6.893-11.745-8.096c-46.454-11.459-124.834-47.066-124.834-155.12-0.204-3.68-0.204-7.37 0-11.050 4.502-81.859 73.059-139.978 163.717-139.978h286.503l-2.045-40.931zM776.79-38.435c-242.71 0-245.574 272.794-245.574 275.453v249.053c-0.016 4.182 1.254 8.269 3.632 11.706 2.378 3.44 5.754 6.070 9.67 7.533l225.11 83.29c4.634 1.638 9.69 1.638 14.323 0l225.11-83.29c3.917-1.462 7.293-4.093 9.67-7.533 2.378-3.437 3.645-7.523 3.632-11.706v-264.4c0-2.662-2.864-260.106-245.574-260.106zM572.144 471.747v-234.73c0-9.619 2.864-234.525 204.646-234.525 201.779 0 204.646 210.173 204.646 219.178v250.077l-204.646 75.923-204.646-75.923zM776.787 38.106c-130.154 0-162.077 165.149-163.715 172.106-0.202 1.219-0.202 2.464 0 3.683v212.013c-0.003 4.099 1.222 8.106 3.52 11.498 2.301 3.395 5.565 6.019 9.373 7.536l143.251 56.483c4.864 1.936 10.282 1.936 15.146 0l143.251-56.483c3.808-1.517 7.072-4.141 9.37-7.536 2.301-3.392 3.526-7.398 3.523-11.498v-212.013c0.099-1.226 0.099-2.458 0-3.683-1.638-6.957-33.562-172.106-163.718-172.106zM654 215.942c3.274-15.555 32.541-136.909 122.787-136.909 90.25 0 119.514 121.152 122.787 136.909v196.051l-122.787 48.294-122.787-48.294v-196.051zM351.894 384l-43.776 16.368v66.848l43.776-15.539v-67.677zM359.923 384l43.776 16.365v66.851l-43.776-15.539v-67.677zM312.617 472.218l44.305 12.995 41.082-13.802-41.082-14.534-44.305 15.341zM299.776 477.395l-43.776 16.362v66.854l43.776-15.539v-67.677zM307.806 477.395l43.778 16.362v66.854l-43.778-15.539v-67.677zM260.499 565.613l44.308 12.992 41.082-13.802-41.082-14.531-44.308 15.341zM401.923 477.395l-43.779 16.362v66.854l43.779-15.539v-67.677zM409.955 477.395l43.779 16.362v66.854l-43.779-15.539v-67.677zM362.65 565.613l44.304 12.992 41.082-13.802-41.082-14.531-44.304 15.341zM454.042 570.794l-43.779 16.355v66.855l43.779-15.537v-67.674zM462.074 570.794l43.776 16.355v66.855l-43.779-15.537v-67.674h0.003zM414.765 659.004l44.307 12.996 41.082-13.799-41.082-14.535-44.307 15.339zM556.195 570.794l-43.779 16.355v66.855l43.779-15.537v-67.674zM564.221 570.794l43.779 16.355v66.855l-43.779-15.537v-67.674zM516.915 659.004l44.307 12.996 41.078-13.799-41.078-14.532-44.307 15.339z" />
<glyph unicode="&#xe901;" glyph-name="page-5-Apache-1" d="M672.128 939.066c-15.974-9.102-42.752-35.216-74.701-72.937v-2.331l27.981-50.096 1.408-0.967c20.582 28.445 41.344 54.163 62.515 76.037 1.587 1.736 2.406 2.505 2.406 2.505-0.794-0.769-1.587-1.736-2.406-2.505-6.784-7.341-27.571-30.578-58.726-77.004l3.584-0.769c0 0 72.909 6.969 108.058 12.772l1.997 1.736c11.187 60.76-10.982 88.611-10.982 88.611s-27.981 43.722-61.133 24.949zM540.518 674.407c8.986 16.070 17.971 31.918 26.957 47.219 9.395 15.872 18.97 31.347 28.749 46.252 0.589 0.769 1.203 1.736 1.587 2.703 9.574 14.707 19.174 28.644 28.954 42.185l-29.363 53.593c-2.202-2.505-4.403-5.233-6.579-7.936-8.397-10.242-17.178-21.080-26.163-32.686-10.189-13.169-20.582-27.082-31.155-41.788-9.779-13.541-19.763-27.851-29.568-42.383-8.397-12.573-16.973-25.346-25.37-38.688-0.41-0.57-0.589-0.967-0.998-1.538v-2.133l36.557-70.234 1.587-0.57c8.218 15.426 16.41 30.901 24.806 46.004zM381.338 330.579c6.579 16.643 13.594 33.482 20.582 50.493 6.784 16.246 13.594 32.688 20.762 49.155 6.989 16.442 14.387 32.883 21.76 49.526 7.578 16.838 15.181 33.651 22.963 50.294 7.782 16.442 15.59 32.883 23.578 49.152 2.79 5.805 5.786 11.805 8.781 17.61 4.992 10.067 10.189 20.112 15.181 29.982 0.205 0.57 0.589 0.967 0.794 1.538l-38.144 72.937c-0.589-0.967-1.203-1.934-1.792-2.901-8.781-14.136-17.766-28.446-26.368-43.152-8.781-14.905-17.382-29.983-25.754-45.286-7.194-12.97-13.978-25.914-20.762-39.085-1.408-2.701-2.586-5.232-3.994-7.936-8.397-16.64-15.77-32.512-22.579-47.987-7.578-17.408-14.387-34.051-20.378-49.923-3.994-10.438-7.398-20.31-10.778-29.981-2.586-8.134-5.197-16.445-7.578-24.579-5.786-19.344-10.573-38.512-14.592-57.856l0.589-2.333 36.557-70.432 1.203-0.57c4.992 13.168 10.189 26.31 15.59 39.853 1.382 3.942 2.97 7.613 4.378 11.482zM322.611 350.122c-4.789-23.411-8.194-46.822-9.986-70.035 0-0.771-0.205-1.539-0.205-2.506-11.981 18.576-43.929 36.554-43.929 36.554 22.963-32.115 40.345-64.032 42.931-95.379-12.186-2.506-28.954 1.165-48.537 7.936 20.172-18.006 35.353-23.014 41.344-24.378-18.586-1.168-37.939-13.542-57.523-27.677 28.569 11.21 51.532 15.674 68.096 12.176-26.163-71.773-52.326-151.107-78.694-235.078 7.987 2.33 12.774 7.539 15.59 14.704 4.582 15.277 35.737 115.123 84.276 246.49 1.408 3.67 2.79 7.539 4.198 11.21 0.41 0.966 0.794 2.131 1.203 3.098 5.194 13.741 10.39 27.853 15.971 42.186 1.203 3.299 2.586 6.573 3.789 9.872v0.198l-38.141 73.133c0.026-0.941-0.179-1.709-0.384-2.502zM630.579 811.571c-8.576-12.772-17.971-27.28-28.16-43.722-0.589-0.769-0.998-1.736-1.587-2.505-8.781-14.309-17.971-29.785-27.75-47.021-8.397-14.706-17.178-30.578-26.368-47.789-7.987-14.905-16.179-30.579-24.576-47.394l1.792-0.768 92.877 9.672 2.202 1.538c28.16 12.573 40.755 23.981 52.915 40.449 3.2 4.439 6.579 9.275 9.779 14.136 9.984 15.103 19.763 31.546 28.365 47.988 8.397 15.872 15.77 31.719 21.581 45.855 3.584 9.102 6.579 17.41 8.576 24.775 1.792 6.572 3.2 12.772 4.198 18.575-37.53-6.448-83.686-12.425-113.843-13.789zM518.554 615.578c-3.2-6.57-6.579-13.341-9.984-20.112-3.584-7.341-7.398-15.104-10.982-22.842-1.792-3.869-3.789-7.936-5.581-11.805-5.786-12.003-11.392-24.378-17.382-37.149-7.194-15.674-14.592-32.115-21.965-48.957-7.194-16.243-14.387-32.883-21.581-50.294-6.989-16.442-13.978-33.478-20.966-50.89-6.4-15.674-12.774-31.546-19.174-48.186-0.41-0.768-0.589-1.536-0.998-2.33-6.4-16.445-12.621-33.184-19.226-50.394-0.205-0.397-0.563-1.389-0.768-1.786l1.382-0.298 27.776 2.899 1.562 0.621c-0.589 0.198-0.973 0.966-1.562 1.165 36.736 4.442 85.683 31.149 117.427 64.035 14.592 15.104 27.75 33.082 40.141 53.99 9.19 15.674 17.587 32.883 25.754 52.054 7.194 16.64 13.978 34.819 20.582 54.362-8.397-4.266-18.176-7.539-28.749-9.674-1.792-0.397-3.789-0.768-5.786-1.165s-3.994-0.57-5.786-0.966c34.355 12.771 55.91 37.523 71.706 67.728-8.986-6-23.757-13.738-41.344-17.606-2.406-0.573-4.787-0.97-7.398-1.366-0.589 0-1.203-0.198-1.792-0.198 11.981 4.838 21.965 10.243 30.746 16.643 1.792 1.363 3.584 2.701 5.402 4.266 2.586 2.33 5.197 4.637 7.578 6.966 1.587 1.539 2.995 3.101 4.582 4.838 3.405 3.869 6.579 8.134 9.574 12.771 0.998 1.363 1.792 2.902 2.79 4.266 1.203 2.131 2.202 4.266 3.2 6.374 4.787 9.274 8.576 17.606 11.571 24.947 1.587 3.67 2.79 6.969 3.994 10.243 0.41 1.165 0.794 2.505 1.408 3.67 1.203 3.472 2.202 6.572 2.995 9.474 1.203 4.067 1.792 7.341 2.202 9.672-1.203-0.967-2.406-1.736-3.994-2.703-10.394-6.002-28.16-11.408-42.547-13.938v0c-1.997-0.397-3.405-0.571-4.992-0.967 0.128 0.124-31.898-3.149-96.102-9.844-0.358-0.323-2.714-5.184-3.712-7.517zM366.95 263.638c-4.992-13.341-10.189-27.082-15.181-41.018 0-0.198-0.205-0.397-0.205-0.573-0.794-1.933-1.408-3.869-2.202-6-3.405-9.475-6.4-17.808-13.184-37.152 11.187-5.034 20.173-18.003 28.749-32.883-0.794 15.277-7.398 29.786-19.968 40.819 55.322-2.33 103.066 11.21 127.616 50.294 2.202 3.472 4.198 7.168 5.99 11.037-11.187-13.738-25.165-19.542-51.123-18.179v0c38.554 16.643 57.728 32.688 74.906 59.2 3.994 6.371 7.987 13.168 11.981 20.707-33.741-33.482-72.704-42.954-113.638-35.786l-30.746-3.299c-0.998-2.134-1.997-4.662-2.995-7.168z" />
<glyph unicode="&#xe902;" d="M401.594 904.14l103.888 55.86v-960l-170.704 83.792v387.83h62.739l4.077 432.517z" />
<glyph unicode="&#xe903;" d="M505.482 960l172.333-85.786 5.706-394.214h-52.557l-1.222-420.947-124.259-59.053v960z" />
<glyph unicode="&#xe904;" d="M574.739 753.715l225.706 58.254v-200.698l-225.706-23.142v165.587z" />
<glyph unicode="&#xe905;" d="M800.445 811.969l63.555-29.526v-180.35l-63.555 9.178v200.698z" />
<glyph unicode="&#xe906;" d="M574.739 588.125l225.706 23.142 63.555-9.178-186.186-19.952h-53.779l-49.296 5.987z" />
<glyph unicode="&#xe907;" d="M215.408 339.158l226.518 25.936v-163.59l-226.518-62.246v199.901z" />
<glyph unicode="&#xe908;" d="M160 354.314l55.407-15.165v-199.898l-55.407 33.914v181.149z" />
<glyph unicode="&#xe909;" d="M160 354.314l55.407-15.162 226.519 25.933-81.482 10.774-200.445-21.546z" />
<glyph unicode="&#xe90a;" glyph-name="page-5-AWS-1" d="M288.564 518.765c0-12.595 1.357-22.81 3.738-30.31 2.714-7.501 6.118-15.667 10.906-24.525 1.715-2.714 2.381-5.453 2.381-7.834 0-3.405-2.048-6.81-6.477-10.214l-21.453-14.31c-3.072-2.048-6.118-3.072-8.858-3.072-3.405 0-6.81 1.715-10.214 4.762-4.762 5.12-8.858 10.547-12.262 16-3.405 5.786-6.81 12.262-10.547 20.096-26.573-31.334-59.93-47.002-100.122-47.002-28.621 0-51.43 8.166-68.122 24.525s-25.19 38.144-25.19 65.382c0 28.954 10.214 52.454 31.002 70.17s48.358 26.573 83.43 26.573c11.571 0 23.501-1.024 36.096-2.714 12.595-1.715 25.549-4.429 39.168-7.501v24.858c0 25.88-5.453 43.928-16 54.501-10.906 10.547-29.286 15.667-55.501 15.667-11.93 0-24.192-1.357-36.787-4.429s-24.858-6.81-36.787-11.571c-5.453-2.381-9.549-3.738-11.93-4.429s-4.096-1.024-5.453-1.024c-4.762 0-7.142 3.405-7.142 10.547v16.691c0 5.453 0.691 9.549 2.381 11.93s4.762 4.762 9.549 7.142c11.93 6.118 26.214 11.238 42.906 15.334 16.691 4.429 34.406 6.477 53.12 6.477 40.525 0 70.17-9.19 89.242-27.597 18.739-18.381 28.262-46.31 28.262-83.788v-110.336h0.666zM150.299 466.976c11.238 0 22.81 2.048 35.072 6.118 12.262 4.096 23.168 11.571 32.358 21.786 5.453 6.477 9.549 13.619 11.571 21.786 2.048 8.166 3.405 18.048 3.405 29.619v14.362c-9.882 2.381-20.429 4.429-31.334 5.786s-21.453 2.048-32.026 2.048c-22.81 0-39.501-4.429-50.739-13.619s-16.691-22.144-16.691-39.168c0-16 4.096-27.93 12.595-36.096 8.218-8.525 20.122-12.621 35.789-12.621zM423.782 430.214c-6.118 0-10.214 1.024-12.954 3.405-2.714 2.048-5.12 6.81-7.142 13.286l-80.026 263.244c-2.048 6.81-3.072 11.238-3.072 13.619 0 5.453 2.714 8.525 8.166 8.525h33.382c6.477 0 10.906-1.024 13.286-3.405 2.714-2.048 4.762-6.81 6.81-13.286l57.216-225.458 53.12 225.458c1.715 6.81 3.738 11.238 6.477 13.286 2.714 2.048 7.501 3.405 13.619 3.405h27.238c6.477 0 10.906-1.024 13.619-3.405 2.714-2.048 5.12-6.81 6.477-13.286l53.811-228.172 58.931 228.172c2.048 6.81 4.429 11.238 6.81 13.286 2.714 2.048 7.142 3.405 13.286 3.405h31.667c5.453 0 8.525-2.714 8.525-8.525 0-1.715-0.333-3.405-0.691-5.453-0.333-2.048-1.024-4.762-2.381-8.525l-82.074-263.269c-2.048-6.81-4.429-11.238-7.142-13.286s-7.142-3.405-12.954-3.405h-29.286c-6.477 0-10.906 1.024-13.619 3.405s-5.12 6.81-6.477 13.619l-52.787 219.672-52.454-219.288c-1.715-6.81-3.738-11.238-6.477-13.619-2.714-2.381-7.501-3.405-13.619-3.405h-29.286zM861.414 420.998c-17.715 0-35.43 2.048-52.454 6.118-17.024 4.096-30.31 8.525-39.168 13.619-5.453 3.072-9.19 6.477-10.547 9.549s-2.048 6.477-2.048 9.549v17.357c0 7.142 2.714 10.547 7.834 10.547 2.048 0 4.096-0.333 6.118-1.024s5.12-2.048 8.525-3.405c11.571-5.12 24.192-9.19 37.453-11.93 13.619-2.714 26.906-4.096 40.525-4.096 21.453 0 38.144 3.738 49.715 11.238s17.715 18.381 17.715 32.358c0 9.549-3.072 17.357-9.19 23.834s-17.715 12.262-34.406 17.715l-49.382 15.334c-24.858 7.834-43.264 19.405-54.502 34.739-11.238 14.976-17.024 31.667-17.024 49.381 0 14.31 3.072 26.906 9.19 37.811s14.31 20.429 24.525 27.93c10.214 7.834 21.786 13.619 35.43 17.715s27.93 5.786 42.906 5.786c7.501 0 15.334-0.333 22.81-1.357 7.834-1.024 14.976-2.381 22.144-3.738 6.81-1.715 13.286-3.405 19.405-5.453s10.906-4.096 14.31-6.118c4.762-2.714 8.166-5.453 10.214-8.525 2.048-2.714 3.072-6.477 3.072-11.238v-16c0-7.142-2.714-10.906-7.834-10.906-2.714 0-7.142 1.357-12.954 4.096-19.405 8.858-41.216 13.286-65.382 13.286-19.405 0-34.739-3.072-45.286-9.549s-16-16.358-16-30.31c0-9.549 3.405-17.714 10.214-24.191s19.405-12.954 37.453-18.739l48.358-15.334c24.525-7.834 42.24-18.739 52.787-32.691s15.667-29.978 15.667-47.693c0-14.643-3.072-27.93-8.858-39.501-6.118-11.571-14.31-21.786-24.858-29.978-10.547-8.525-23.168-14.643-37.811-19.072-15.283-4.71-31.309-7.117-48.666-7.117zM925.773 255.485c-112.051-82.765-274.842-126.694-414.822-126.694-196.172 0-372.914 72.55-506.418 193.101-10.547 9.549-1.024 22.477 11.571 14.976 144.409-83.789 322.508-134.528 506.776-134.528 124.314 0 260.89 25.882 386.56 79.002 18.739 8.55 34.739-12.237 16.333-25.856zM972.442 308.605c-14.31 18.381-94.669 8.858-131.123 4.429-10.906-1.357-12.595 8.166-2.714 15.334 64.026 44.954 169.267 32.026 181.53 17.024 12.262-15.334-3.405-120.55-63.334-170.957-9.19-7.834-18.048-3.738-13.952 6.477 13.594 33.69 43.904 109.645 29.594 127.693z" />
<glyph unicode="&#xe90b;" d="M64 163.677l104.889-124.454 9.431 11.341v796.048l-9.431 12.029-104.889-124.411v-570.553z" />
<glyph unicode="&#xe90c;" d="M168.915 39.226l200.423-101.453 8.336 13.581 0.134 998.017-8.333 10.63-200.56-101.128v-819.646z" />
<glyph unicode="&#xe90d;" d="M959.907 734.23l-104.918 124.411-11.734-3.763 2.33-805.499 9.405-10.157 104.918 124.442v570.566z" />
<glyph unicode="&#xe90e;" d="M654.566-62.227l200.422 101.453v819.646l-200.56 101.128-9.485-12.993 0.134-994.469 9.488-14.765z" />
<glyph unicode="&#xe90f;" d="M369.475 960h284.95v-1022.243h-284.95v1022.243z" />
<glyph unicode="&#xe910;" glyph-name="page-5-bank-1" d="M416 640c-17.6 0-32 14.336-32 32s14.4 32 32 32h64c17.664 0 32 14.336 32 32s-14.336 32-32 32h-32v32c0 17.664-14.336 32-32 32s-32-14.336-32-32v-37.888c-37.184-13.248-64-48.448-64-90.112 0-52.928 43.072-96 96-96 17.6 0 32-14.336 32-32s-14.4-32-32-32h-64c-17.664 0-32-14.336-32-32s14.336-32 32-32h32v-32c0-17.664 14.336-32 32-32s32 14.336 32 32v37.888c37.184 13.248 64 48.448 64 90.112 0 52.928-43.072 96-96 96zM768 960h-704c-35.904 0-64-28.096-64-64v-576c0-35.904 28.096-64 64-64h64v-128c0-12.928 7.808-24.64 19.776-29.568 3.904-1.664 8.128-2.432 12.224-2.432 8.32 0 16.512 3.264 22.656 9.344l150.592 150.656h434.752c35.904 0 64 28.096 64 64v576c0 35.904-28.096 64-64 64zM768 320h-448c-8.512 0-16.64-3.392-22.656-9.344l-105.344-105.408v82.752c0 17.664-14.336 32-32 32h-96v576h704v-576zM960 640h-64c-17.664 0-32-14.336-32-32s14.336-32 32-32h64v-448h-96c-17.664 0-32-14.336-32-32v-50.752l-73.344 73.344c-6.016 6.016-14.144 9.408-22.656 9.408h-416c0 17.664-14.336 32-32 32s-32-14.336-32-32c0-35.904 28.096-64 64-64h402.752l118.656-118.656c6.080-6.080 14.272-9.344 22.592-9.344 4.096 0 8.32 0.768 12.224 2.432 11.968 4.928 19.776 16.64 19.776 29.568v96h64c35.904 0 64 28.096 64 64v448c0 35.904-28.096 64-64 64z" />
<glyph unicode="&#xe911;" glyph-name="page-5-Chat" d="M525.284 813.208h367.437c6.579 0 11.932-5.35 11.932-11.93v-40.141c0-6.579-5.353-11.93-11.932-11.93h-367.437c-6.579 0-11.93 5.35-11.93 11.93v40.141c-0.026 6.579 5.325 11.93 11.93 11.93zM131.276 416.098h367.438c6.579 0 11.93-5.35 11.93-11.93v-40.141c0-6.579-5.35-11.93-11.93-11.93h-367.438c-6.579 0-11.93 5.35-11.93 11.93v40.141c0 6.579 5.35 11.93 11.93 11.93zM641.536 499.661h41.062c2.739 0 5.376-0.947 7.501-2.662l183.654-148.813c7.808-6.323 19.456-0.768 19.456 9.267v130.278c0 6.579 5.35 11.93 11.93 11.93h43.034c41.626 0 75.469 34.099 75.469 76.032v308.275c0 41.933-33.843 76.032-75.469 76.032h-478.31c-41.626 0-75.469-34.099-75.469-76.032v-308.275c0-0.051 0-0.077 0-0.128 0-6.63-5.299-12.006-11.93-12.006h-306.611c-41.626 0-75.469-34.099-75.469-76.058v-308.275c0-41.933 33.843-76.032 75.469-76.032h43.034c6.579 0 11.93-5.35 11.93-11.93v-130.253c0-10.035 11.648-15.59 19.456-9.267l183.654 148.813c2.125 1.715 4.787 2.662 7.501 2.662h212.71c41.626 0 75.469 34.099 75.469 76.032v308.48c0 6.605 5.325 11.93 11.93 11.93zM565.581 179.251c0-6.528-5.248-12.032-11.469-12.032h-235.392c-2.739 0-5.376-0.947-7.501-2.662l-96.947-78.541c-7.808-6.323-19.456-0.768-19.456 9.267v60.006c0 6.579-5.35 11.93-11.93 11.93h-107.034c-6.221 0-11.469 5.504-11.469 12.032v308.275c0 6.528 5.248 12.058 11.469 12.058h478.285c6.221 0 11.469-5.504 11.469-12.058l-0.026-308.275zM959.616 575.693c0-6.528-5.248-12.032-11.469-12.032h-107.034c-6.579 0-11.93-5.35-11.93-11.93v-60.006c0-10.035-11.648-15.59-19.456-9.267l-96.947 78.566c-2.125 1.715-4.787 2.662-7.501 2.662h-235.392c-6.221 0-11.469 5.504-11.469 12.032v308.25c0 6.528 5.248 12.032 11.469 12.032h478.285c6.221 0 11.469-5.504 11.469-12.032l-0.026-308.275z" />
<glyph unicode="&#xe912;" glyph-name="page-5-design-1" d="M890.985 688h-23.447l12.717 37.833c1.538 0.339 3.072 0.702 4.602 1.111 27.189 7.285 49.916 24.724 63.991 49.102s17.815 52.778 10.528 79.968l-27.273 101.798-101.796-27.276c-27.191-7.286-49.918-24.724-63.994-49.102-14.078-24.378-17.815-52.78-10.528-79.968 0.41-1.53 0.862-3.042 1.335-4.544l-96.096-108.922h-72.036v35.637l70.204 236.363h-298.206v-41.004c-37.263 26.376-84.843 41.004-125.717 41.004h-114.489l72.206-243.095v-28.905h-62c-38.598 0-70-31.403-70-69.999v-480c0-38.598 31.402-70.001 70-70.001h290v-72h-55.733c-2.357 0-4.267-1.909-4.267-4.267v-51.467c0-2.357 1.909-4.267 4.267-4.267h291.467c2.357 0 4.267 1.909 4.267 4.267v51.467c0 2.357-1.909 4.267-4.267 4.267h-55.733v72h289.999c38.598 0 70.001 31.403 70.001 70.001v480c0 38.596-31.401 69.999-70.001 69.999zM818.274 851.434c6.061 10.5 15.846 18.008 27.558 21.146l43.84 11.748 11.748-43.84c3.138-11.71 1.53-23.942-4.533-34.44s-15.849-18.008-27.558-21.146c-11.706-3.138-23.932-1.528-34.43 4.528-10.492 6.062-18.022 15.86-21.161 27.566-3.138 11.708-1.525 23.94 4.535 34.438zM791.503 745.201l26.767-15.456-44.855-133.451-75.057 43.334 93.146 105.572zM679.906 581.001l51.962-30.001-163.388-282.999h-69.284l180.71 313.001zM608.087 628l-3.236-3.665 23.093-13.335-146.957-254.539v201.538h17.999c42.752 0 78.611 29.973 87.733 70.001h21.367zM282.987 618.001c-16.544 0-30.001 13.457-30.001 29.999v50.001h276v-50.001c0-16.542-13.457-29.999-30.001-29.999h-215.998zM420.986 557.999v-289.999h-60v289.999h60zM235.268 900c46.074 0 108.911-28.754 125.41-70.002l7.987-19.998h52.32v90h157.794l-42.178-142h-293.231l-42.177 142h34.075zM120.986 618.001c0 5.513 4.486 9.999 10 9.999h64.268c9.122-40.028 44.981-70.001 87.733-70.001h17.999v-289.999h-180v350.001zM540.986-4h-60v72h60v-72zM900.986 138.001c0-5.515-4.486-10.001-10.001-10.001h-759.999c-5.514 0-10 4.486-10 10.001v69.999h780v-69.999zM900.986 268h-263.226l146.067 253.001 23.093-13.335 40.448 120.335h43.616c5.515 0 10.001-4.486 10.001-9.999v-350.001z" />
<glyph unicode="&#xe913;" glyph-name="page-5eWAY" d="M114.697 319.585c-28.93 0-51.92 8.266-68.968 24.797-16.79 16.532-25.701 40.038-26.735 70.518l-0.387 9.686c0 32.288 8.395 57.731 25.185 76.33 17.048 18.598 40.554 27.897 70.518 27.897 30.739 0 54.374-9.299 70.905-27.897 16.79-18.598 25.185-43.395 25.185-74.392v-8.137c0-2.583-0.904-4.779-2.712-6.587s-4.133-2.712-6.974-2.712h-128.637v-3.1c0.517-14.465 4.391-26.476 11.624-36.034 7.491-9.299 17.694-13.949 30.609-13.949 14.723 0 26.735 5.941 36.034 17.823 2.325 2.841 4.133 4.52 5.424 5.037 1.292 0.775 3.487 1.162 6.587 1.162h34.096c2.325 0 4.262-0.646 5.812-1.937 1.808-1.292 2.712-3.1 2.712-5.424 0-6.199-3.745-13.561-11.236-22.085-7.232-8.266-17.694-15.498-31.384-21.698s-29.576-9.299-47.658-9.299zM156.93 442.022v0.775c0 15.24-3.875 27.38-11.624 36.421-7.491 9.299-17.823 13.949-30.997 13.949s-23.506-4.65-30.997-13.949c-7.491-9.041-11.236-21.181-11.236-36.421v-0.775h84.854zM294.292 323.459c-7.489 0-12.139 3.875-13.949 11.624l-45.719 248.362-0.387 3.1c0 2.325 0.775 4.262 2.325 5.812s3.487 2.325 5.812 2.325h34.87c3.36 0 5.812-0.646 7.362-1.937 1.55-1.033 2.585-2.971 3.1-5.812l32.159-174.357 34.484 112.363c2.585 6.458 6.847 9.686 12.786 9.686h21.31c3.36 0 6.072-1.033 8.137-3.1 2.067-1.808 3.487-4.004 4.262-6.587l34.871-112.363 31.772 174.357c0.775 5.166 4.392 7.749 10.849 7.749h34.871c2.067 0 3.875-0.775 5.424-2.325s2.325-3.487 2.325-5.812c0-1.292-0.127-2.325-0.387-3.1l-45.72-248.362c-0.515-3.616-2.065-6.458-4.65-8.524-2.325-2.067-5.424-3.1-9.299-3.1h-26.347c-3.614 0-6.587 0.904-8.912 2.712-2.325 2.067-3.875 4.391-4.65 6.974l-43.395 128.637-43.395-128.637c-2.065-6.458-6.587-9.686-13.561-9.686h-26.347zM538.425 323.459c-2.325 0-4.262 0.775-5.812 2.325s-2.325 3.487-2.325 5.812l0.775 3.487 92.99 249.911c2.585 6.458 7.234 9.687 13.949 9.687h42.621c6.717 0 11.366-3.229 13.949-9.687l92.99-249.911 0.775-3.487c0-2.325-0.902-4.262-2.712-5.812-1.55-1.55-3.357-2.325-5.424-2.325h-34.484c-5.424 0-9.169 2.454-11.236 7.362l-17.823 46.883h-114.688l-17.823-46.883c-2.065-4.908-5.812-7.362-11.236-7.362h-34.484zM615.529 422.649h87.566l-43.783 119.338-43.783-119.338zM875.191 323.459c-2.582 0-4.777 0.904-6.587 2.712-1.807 1.808-2.712 4.004-2.712 6.587v87.178l-91.828 162.346c-0.775 2.325-1.162 3.745-1.162 4.262 0 2.325 0.775 4.262 2.325 5.812 1.81 1.55 3.747 2.325 5.812 2.325h34.871c4.91 0 8.912-2.454 12.011-7.362l65.093-112.363 65.481 112.363c1.035 1.808 2.455 3.487 4.262 5.037 2.067 1.55 4.522 2.325 7.362 2.325h34.871c2.325 0 4.262-0.775 5.812-2.325s2.325-3.487 2.325-5.812c0-1.55-0.387-2.971-1.162-4.262l-91.44-162.346v-87.178c0-2.841-0.902-5.166-2.712-6.974-1.807-1.55-4.132-2.325-6.974-2.325h-35.646z" />
<glyph unicode="&#xe914;" d="M0 205.488c5.542 2.918 11.231 5.542 16.761 7.994 25.323 11.229 51.749 19.811 77.877 27.056 46.052 12.768 92.996 21.565 139.777 28.134 70.278 9.872 141.14 14.71 211.786 16.544 47.859 1.242 95.738 1.146 143.59-0.342 68.73-2.134 137.658-7.184 206.010-17.091 45.555-6.605 91.254-15.363 136.090-27.955 25.475-7.155 51.229-15.606 75.92-26.608 5.344-2.381 10.832-4.922 16.189-7.744-0.33 0.31-0.637 0.595-0.909 0.838-5.382 4.794-11.008 9.216-16.678 13.389-23.251 17.107-48.614 30.976-73.696 42.64-44.016 20.461-90.010 35.165-135.898 46.176-68.547 16.442-138.528 24.938-208.118 28.448-47.002 2.371-94.077 2.538-141.091 0.57-71.552-2.995-143.548-11.133-214.084-27.517-47.154-10.954-94.442-25.728-139.69-46.493-25.759-11.818-51.821-25.926-75.694-43.405-5.82-4.262-11.595-8.784-17.116-13.69-0.304-0.269-0.65-0.592-1.025-0.944h-0.001z" />
<glyph unicode="&#xe915;" d="M445.811 592.266c-3.622 0-6.56-2.938-6.56-6.56 0-3.626 2.938-6.563 6.56-6.563h63.392c3.622 0 6.56 2.938 6.56 6.563 0 3.622-2.938 6.56-6.56 6.56h-63.392z" />
<glyph unicode="&#xe916;" d="M521.309 592.25c-3.626 0-6.563-2.938-6.563-6.56 0-3.626 2.938-6.563 6.563-6.563h78.634c3.622 0 6.563 2.938 6.563 6.563 0 3.622-2.941 6.56-6.563 6.56h-78.634z" />
<glyph unicode="&#xe917;" d="M535.325 580.086l18.685-54.928-24.848-70.486-44.39 125.488-31.856-0.214 52.474-150.877c0.698-2.864 3.286-4.992 6.374-4.992h15.725c2.755-0.054 5.357 1.638 6.32 4.371l-0.013 0.022 27.021 76.65 25.795-76.083c0.71-2.848 3.293-4.96 6.368-4.96h16.346c2.742-0.058 5.338 1.616 6.314 4.333l55.795 155.101c1.216 3.386-0.976 4.704-4.374 5.917s-6.71 1.866-7.93-1.523l-45.757-127.139-41.293 119.322h-36.755z" />
<glyph unicode="&#xe918;" d="M634.285 592.25c-3.622 0-6.563-2.938-6.563-6.56 0-3.626 2.941-6.563 6.563-6.563h39.341c3.622 0 6.56 2.938 6.56 6.563 0 3.622-2.938 6.56-6.56 6.56h-39.341z" />
<glyph unicode="&#xe919;" d="M784.093 431.642c3.424 0 6.198 2.768 6.198 6.182 0 3.411-2.774 6.179-6.198 6.179h-7.12v103.331c0 2.534-0.298 5.114-0.893 7.734-1.229 5.395-3.654 10.592-7.133 14.902-3.955 4.896-8.854 8.554-14.419 11.456-9.504 4.922-18.518 6.902-28.861 7.418-5.427 0.368-11.446 0.051-16.762-0.624-7.869-0.995-14.634-2.941-22.118-5.475-3.571-1.21-7.136-2.534-10.691-3.971-2.426-0.838-4.163-3.136-4.163-5.84v-44.838c0-3.414 2.774-6.182 6.198-6.182h5.875c2.608-0.048 5.062 1.558 5.968 4.147l-0.016 0.006c1.549 4.442 3.117 8.797 4.704 13.072 1.971 5.299 4.067 10.429 6.125 15.654 4.518 11.485 8.426 21.408 20.698 21.811 1.030-0.010 2.038-0.035 3.024-0.074 6.294-0.381 10.090-2.406 12.23-5.658 2.762-4.195 3.568-10.765 3.568-18.717v-25.437c-1.373-0.672-2.781-1.28-4.224-1.814-4.726-1.754-11.069-3.024-15.946-4.006-2.525-0.509-5.613-1.082-9.219-1.712-2.8-0.493-5.987-1.107-9.51-1.824-3.325-0.675-6.413-1.341-9.293-2-3.334-0.765-6.486-1.728-9.462-2.893-3.027-1.187-5.885-2.579-8.579-4.176-13.053-8.666-18.88-21.197-18.88-36.451h-0.026c0-6.858 1.126-13.046 3.392-18.57 4.704-11.482 14.323-19.398 25.987-23.258 5.773-1.91 12.118-2.867 19.037-2.867 2.848 0 5.645 0.205 8.387 0.605 3.53 0.518 8.166 1.638 11.594 3.050 1.357 0.557 2.739 1.232 4.118 1.994 1.904 1.053 3.869 2.323 5.821 3.738 2.064 1.501 3.997 3.059 5.728 4.614 0.365 0.323 0.723 0.653 1.075 0.982v-4.307c0-3.414 2.778-6.182 6.202-6.182 12.538 0 25.050 0 37.584 0v0zM696.752 454.746c-0.886 3.936-1.331 8.864-1.331 14.79 0 5.686 0.365 10.486 1.091 14.384 1.072 5.766 3.034 10.067 7.382 14.010 3.846 3.491 9.197 5.478 14.048 7.037 8.269 2.659 13.949 2.89 22.288 6.755l0.627 0.294c0.032-8.285-0.099-15.638-0.237-23.462-0.154-8.509-0.314-17.53-0.314-26.435v0c0-0.582-0.752-1.926-1.987-3.702-1.805-2.589-4.41-5.44-7.37-8.093-1.6-1.437-3.197-2.742-4.714-3.84-1.488-1.082-3.024-2.074-4.56-2.922-0.966-0.531-1.907-0.995-2.81-1.363-9.61-3.955-19.782 2.17-22.115 12.547z" />
<glyph unicode="&#xe91a;" d="M926.042 583.626c1.187 3.402-0.445 5.245-3.853 6.429-3.411 1.187-7.315 1.264-8.502-2.138l-58.211-166.637c-0.064-0.189-0.122-0.378-0.17-0.57-1.325-3.93-2.688-7.61-4.080-11.027-2.173-5.338-4.73-10.861-8.077-15.6-1.987-2.816-4.598-5.702-7.594-7.517-3.782-2.294-6.010-0.614-8.784 2.653-7.466 8.8-13.645 37.341-16.038 45.907-0.586 3.014-3.248 5.29-6.442 5.29h-6.858c-3.626 0-6.563-2.928-6.563-6.541h0.029l-0.003-48.746c-0.157-1.782 0.416-3.626 1.734-5.037l0.013 0.010c3.114-3.331 7.251-5.792 12.4-7.382 4.691-1.45 10.214-2.176 16.56-2.176 2.394 0 4.79 0.157 7.194 0.47 1.926 0.253 3.766 0.608 5.52 1.062 4.419 1.136 6.019 2.144 8.003 3.347 4.717 2.858 8.381 6.669 11.542 11.149 3.936 5.574 6.95 11.914 9.51 18.205 1.398 3.43 2.848 7.36 4.339 11.795 0.058 0.134 0.109 0.269 0.157 0.406l-0.019 0.010 58.192 166.637z" />
<glyph unicode="&#xe91b;" d="M883.44 592.314c-3.622 0-6.56-2.938-6.56-6.563 0-3.622 2.938-6.56 6.56-6.56h50.726c3.622 0 6.56 2.938 6.56 6.56 0 3.626-2.938 6.563-6.56 6.563h-50.726z" />
<glyph unicode="&#xe91c;" d="M782.374 592.314c-3.626 0-6.563-2.938-6.563-6.563 0-3.622 2.938-6.56 6.563-6.56h67.837c3.626 0 6.563 2.938 6.563 6.56 0 3.626-2.938 6.563-6.563 6.563h-67.837z" />
<glyph unicode="&#xe91d;" d="M874.333 471.776l-45.517 108.288h-39.293l66.704-160.138 18.106 51.85zM868.669 419.293c0.074 0.186 0.141 0.374 0.198 0.566l-0.198-0.566z" />
<glyph unicode="&#xe91e;" d="M428.301 518.541c0-94.979-77.248-171.981-172.519-171.981s-172.508 77.002-172.508 171.981c0 94.992 77.236 171.99 172.508 171.99s172.519-76.998 172.519-171.99z" />
<glyph unicode="&#xe91f;" d="M399.187 518.534c0-78.95-64.211-142.957-143.405-142.957s-143.396 64.006-143.396 142.957c0 78.963 64.203 142.966 143.396 142.966s143.405-64.003 143.405-142.966z" />
<glyph unicode="&#xe920;" d="M287.297 563.174c3.35-3.949 9.961-10.006 9.922-25.165h-79.643c-0.144 12.723 4.191 21.347 12.094 28.522 7.138 6.467 15.749 9.808 26.867 9.808 11.691 0 24.304-5.507 30.761-13.165v0zM185.455 592.496c-16.906-17.123-26.588-44.432-26.588-75.434 0-29.958 10.85-58.234 27.564-74.848 16.716-16.598 44.617-23.885 73.177-23.885 22.618 0 45.772 5.693 60.336 16.070 14.561 10.397 27.316 26.47 32.692 45.299l-56.373 0.755c-3.551-8.461-5.561-11.181-13.988-17.334-4.355-3.165-11.043-3.978-23.148-3.978-16.227 0-25.814 5.904-32.616 13.098-7.136 7.555-10.666 12.419-10.851 32.374h139.139c0.134 3.699-0.067 12.534-0.067 14.403 0 30.41-10.982 58.752-27.546 75.501-16.526 16.758-43.364 24.17-69.435 24.17-26.954 0-55.398-9.078-72.297-26.192v0z" />
<glyph unicode="&#xe921;" glyph-name="page-5-Group-179" d="M378.509 277.333c-3.13 0-5.788 1.094-7.979 3.285s-3.285 4.849-3.285 7.979v24.405c0 8.762 3.91 16.113 11.733 22.059l73.216 72.747c22.214 17.521 39.268 31.759 51.157 42.709 12.203 11.264 21.276 21.589 27.221 30.976s8.917 18.618 8.917 27.691c0 14.705-3.91 26.283-11.733 34.731s-19.712 12.672-35.669 12.672c-15.644 0-28.004-4.693-37.077-14.080-8.762-9.073-14.236-20.964-16.427-35.669-0.939-3.755-2.816-6.571-5.632-8.448-2.502-1.564-5.318-2.347-8.448-2.347h-42.24c-2.816 0-5.163 0.939-7.040 2.816s-2.816 4.224-2.816 7.040c0.625 18.46 5.632 35.669 15.019 51.627 9.7 16.271 23.467 29.254 41.301 38.955 17.835 10.012 38.799 15.019 62.891 15.019 25.030 0 46.308-4.38 63.829-13.141 17.521-8.448 30.662-20.181 39.424-35.2s13.141-32.070 13.141-51.157c0-20.964-5.946-40.049-17.835-57.259-11.578-16.896-29.724-35.044-54.443-54.443l-65.237-66.176h132.821c3.441 0 6.257-1.094 8.448-3.285s3.285-5.007 3.285-8.448v-33.792c0-3.441-1.094-6.257-3.285-8.448-2.191-1.877-5.007-2.816-8.448-2.816h-224.811zM676.591 277.333c-3.13 0-5.788 1.094-7.979 3.285s-3.285 4.849-3.285 7.979v47.403c0 3.13 1.094 5.788 3.285 7.979s4.849 3.285 7.979 3.285h47.403c3.13 0 5.788-1.094 7.979-3.285s3.285-4.849 3.285-7.979v-47.403c0-3.13-1.094-5.788-3.285-7.979-1.877-2.191-4.538-3.285-7.979-3.285h-47.403z" />
<glyph unicode="&#xe922;" glyph-name="page-5-investment-model-1" d="M526.438 608.16v17.997c0 14.187-11.497 25.685-25.685 25.685s-25.685-11.499-25.685-25.685v-18.611c-45.709-11.994-79.561-54.071-79.561-104 0-49.916 33.854-91.981 79.561-103.968v-107.974c-22.274 11.281-43.405 32.207-51.021 41.203-9.131 10.857-25.329 12.26-36.19 3.125-10.857-9.126-12.256-25.329-3.127-36.188 4.881-5.801 43.036-49.73 90.34-63.149v-19.061c0-14.189 11.499-25.685 25.685-25.685 14.189 0 25.685 11.497 25.685 25.685v18.138c46.711 11.294 81.551 53.826 81.551 104.45 0 50.618-34.839 93.141-81.551 104.435v110.057c23.206-8.689 44.23-26.479 52.145-34.658 9.809-10.231 26.046-10.579 36.288-0.787 10.251 9.805 10.618 26.063 0.813 36.32-4.659 4.862-41.555 42.095-89.248 52.672zM446.876 503.546c0 21.024 11.394 39.356 28.188 48.951v-97.875c-16.794 9.589-28.188 27.915-28.188 48.924zM556.612 340.117c0-21.818-12.305-40.719-30.178-49.973v99.934c17.877-9.248 30.178-28.141 30.178-49.961zM913.090 253.451c-27.767 0-53.165-10.285-72.644-27.211l-73.35 48.898c24.068 43.529 37.796 93.538 37.796 146.705 0 63.712-19.708 122.897-53.321 171.821l49.487 39.595c17.312-11.181 37.901-17.702 60.002-17.702 61.154 0 110.908 49.756 110.908 110.914s-49.749 110.915-110.908 110.915c-61.158 0-110.916-49.754-110.916-110.915 0-20.407 5.564-39.535 15.219-55.981l-46.336-37.075c-55.313 57.058-132.719 92.582-218.274 92.582-74.665 0-143.115-27.059-196.105-71.868l-98.437 97.54c9.901 16.593 15.61 35.963 15.61 56.648 0 61.158-49.751 110.912-110.906 110.912-61.162 0-110.916-49.754-110.916-110.912 0-61.155 49.754-110.913 110.916-110.913 21.891 0 42.309 6.404 59.518 17.397l97.905-97.013c-44.727-52.971-71.727-121.363-71.727-195.949 0-64.751 20.35-124.828 54.976-174.204l-92.901-77.419c-11.13 5.722-23.73 8.975-37.079 8.975-44.877 0-81.385-36.508-81.385-81.38 0-44.875 36.507-81.382 81.385-81.382 44.871 0 81.375 36.508 81.375 81.382 0 12.759-2.959 24.838-8.212 35.599l89.738 74.786c55.172-55.844 131.738-90.505 216.25-90.505 39.742 0 77.719 7.671 112.553 21.6l22.891-45.775c-12.474-12.382-20.213-29.521-20.213-48.439 0-37.662 30.637-68.303 68.297-68.303s68.299 30.641 68.299 68.303c0 37.658-30.639 68.294-68.299 68.294-0.192 0-0.373-0.026-0.563-0.026l-24.497 48.99c30.353 18.607 57.201 42.387 79.319 70.106l71.913-47.938c-5.314-12.956-8.267-27.121-8.267-41.967 0-61.154 49.751-110.908 110.91-110.908s110.908 49.749 110.908 110.908c-0.006 61.158-49.758 110.914-110.916 110.914zM861.060 786.012c32.828 0 59.537-26.713 59.537-59.546s-26.709-59.541-59.537-59.541c-32.834 0-59.546 26.709-59.546 59.541s26.711 59.546 59.546 59.546zM121.604 67.804c-16.548 0-30.014 13.461-30.014 30.010s13.466 30.012 30.014 30.012c16.545 0 30.004-13.463 30.004-30.012s-13.459-30.010-30.004-30.010zM701.207 45.073c0-9.338-7.595-16.93-16.928-16.93-9.331 0-16.924 7.595-16.924 16.93s7.593 16.926 16.924 16.926c9.333 0 16.928-7.59 16.928-16.926zM110.916 748.778c-32.833 0-59.545 26.709-59.545 59.539 0 32.833 26.713 59.542 59.545 59.542 32.826 0 59.535-26.709 59.535-59.542 0-32.829-26.709-59.539-59.535-59.539zM500.753 169.062c-139.379 0-252.774 113.395-252.774 252.781s113.393 252.783 252.774 252.783c139.375 0 252.77-113.395 252.77-252.783-0.002-139.383-113.395-252.781-252.77-252.781zM913.090 82.995c-32.828 0-59.537 26.709-59.537 59.539 0 32.832 26.709 59.546 59.537 59.546 32.83 0 59.539-26.714 59.539-59.546 0-32.83-26.709-59.539-59.539-59.539z" />
<glyph unicode="&#xe923;" d="M884.915 466.56c0-202.877-159.795-367.341-356.918-367.341-197.117 0-356.913 164.464-356.913 367.341 0 202.881 159.796 367.346 356.913 367.346 197.123 0 356.918-164.469 356.918-367.349z" />
<glyph unicode="&#xe924;" d="M283.547 717.153c-62.622-64.472-101.373-153.489-101.373-251.969 0-98.448 38.751-187.478 101.373-251.946 62.654-64.454 148.997-104.234 244.456-104.234s181.808 39.776 244.461 104.234c62.614 64.464 101.373 153.491 101.373 251.946 0 98.48-38.762 187.497-101.373 251.969-62.653 64.446-148.998 104.219-244.461 104.229-95.459-0.006-181.802-39.783-244.456-104.229zM267.701 197.648c-66.554 68.486-107.701 163.13-107.701 267.536 0 104.422 41.147 199.062 107.694 267.553 66.539 68.508 158.642 110.964 260.302 110.95 101.664 0.013 193.776-42.443 260.301-110.95 66.563-68.491 107.715-163.14 107.702-267.553 0.010-104.403-41.139-199.046-107.702-267.536-66.525-68.499-158.637-110.957-260.301-110.957-101.658 0-193.763 42.458-260.296 110.957z" />
<glyph unicode="&#xe925;" d="M678.246 464.522l-54.39-8.208-73.424-8.211-47.587-1.366-46.23 1.366-35.354 10.947-31.27 34.202-24.474 69.776-5.44 15.053-32.634 10.941-19.035 31.469-13.598 45.148 14.956 39.678 35.354 12.313 28.554-13.686 13.594-30.097 16.317 2.739 5.44 6.836-5.44 31.469-1.357 39.678 8.157 54.723-0.314 31.259 24.79 39.879 43.507 31.469 76.144 32.835 84.301-12.313 73.424-53.357 33.99-54.727 21.76-39.675 5.437-98.506-16.317-84.828-29.91-75.245-28.554-39.677z" />
<glyph unicode="&#xe926;" d="M631.987 227.834l-194.435-8.211v-32.835l16.317-114.922-8.157-9.581-135.971 46.518-9.516 16.419-13.598 154.598-31.272 93.034-6.801 21.888 108.777 75.245 33.99 13.683 29.917-36.938 25.834-23.261 29.91-9.574 13.6-4.106 16.314-71.142 12.24-15.050 31.27 10.944-21.754-42.413 118.294-56.093-14.96-8.208z" />
<glyph unicode="&#xe927;" d="M309.767 705.313l35.353 12.313 28.554-13.686 13.597-30.097 16.314 2.739 4.080 16.418-8.157 31.463 8.157 75.252-6.8 41.044 24.474 28.731 53.030 42.41-14.954 20.522-74.787-36.94-31.27-24.627-17.677-38.306-27.192-36.94-8.158-43.783 5.437-46.515z" />
<glyph unicode="&#xe928;" d="M365.514 833.921c0 0 20.394 50.619 101.974 75.245 81.584 24.626 4.080 17.79 4.080 17.79l-88.381-34.211-33.99-34.198-14.96-27.365 31.277 2.739zM324.72 714.893c0 0-28.552 95.771 80.218 109.453l-4.077 16.418-74.781-17.79-21.754-71.141 5.437-46.515 14.957 9.575z" />
<glyph unicode="&#xe929;" d="M368.227 587.651l17.805 17.357c0 0 8.035-0.938 9.392-10.512 1.357-9.584 5.437-95.776 63.907-142.294 5.331-4.243-43.51 6.848-43.51 6.848l-43.514 68.4-4.080 60.202zM618.422 613.645c0 0 3.171 41.47 14.275 38.282 11.098-3.188 11.098-14.359 11.098-14.359s-26.96-17.546-25.373-23.923zM731.274 765.508c0 0-22.419-4.761-24.474-24.627-2.067-19.869 24.474-4.104 28.55-2.732l-4.077 27.358zM566.749 764.138c0 0-29.91-4.104-29.91-23.257 0-19.149 33.99-17.787 43.51-9.578l-13.6 32.836zM381.83 675.21c0 0-51.67 31.469-57.107 1.372-5.444-30.103-17.681-51.991 8.157-83.46l-17.68 5.475-16.316 42.411-5.436 41.044 31.276 32.839 35.347-2.739 20.394-16.418 1.366-20.522v-0.003zM406.304 761.403c0 0 23.11 120.4 140.045 143.654 96.278 19.146 146.845-4.104 165.885-25.992 0 0-85.661 102.607-167.242 71.141-81.581-31.463-141.408-88.925-140.051-125.864 2.317-62.912 1.363-62.939 1.363-62.939zM721.754 865.386c0 0-39.427 1.366-40.79-34.208 0 0-0.003-5.47 2.72-10.941 0 0 31.28 35.571 50.307 16.418z" />
<glyph unicode="&#xe92a;" d="M549.069 816.536c0 0-6.787 54.602-53.034 22.857-29.907-20.522-27.187-49.253-21.754-54.724 5.443-5.477 3.962-16.496 8.102-8.931 4.134 7.565 2.771 32.192 17.731 39.028 14.947 6.843 39.459 14.484 48.954 1.77z" />
<glyph unicode="&#xe92b;" d="M421.229 446.746l-127.808-57.462c0 0 53.027-212.064 25.832-277.734l-19.031 6.835-1.364 80.723-35.348 153.229-14.959 42.416 133.251 90.294 39.427-38.301zM434.374 329.45l18.131-22.256v-82.086h-21.754c0 0-2.723 57.459-2.723 64.301 0 6.838 2.723 31.466 2.723 31.466l3.622 8.576zM434.832 212.787l-61.187-2.733 17.674-12.314 43.514-6.838z" />
<glyph unicode="&#xe92c;" d="M644.25 226.474l50.298 1.37 12.234-125.869-51.654-6.838-10.877 131.338z" />
<glyph unicode="&#xe92d;" d="M657.85 226.461l76.138 4.102c0 0 31.277 79.354 31.277 83.459 0 4.102 27.194 114.922 27.194 114.922l-61.184 64.301-12.237 10.944-32.634-32.835v-127.238l-28.554-117.654z" />
<glyph unicode="&#xe92e;" d="M691.84 236.038l-47.59-9.578 6.8-38.314c17.674-8.208 47.59 13.686 47.59 13.686l-6.8 34.205zM693.2 475.456l95.184-71.142 2.714 32.835-72.058 67.040-25.84-28.733z" />
<glyph unicode="&#xe92f;" d="M482.045-43.072l-28.15 114.944-14 84.81-2.317 62.95 127.408 6.822 79.264 0.013-7.2-143.667 12.237-110.819-1.363-20.522-103.331-8.208-62.547 13.677z" />
<glyph unicode="&#xe930;" d="M626.573 227.837c0 0-6.8-142.285 13.597-243.53 0 0-40.794-25.997-100.621-32.835l114.218 4.106 13.597 8.208-16.314 224.371-4.080 47.891z" />
<glyph unicode="&#xe931;" d="M709.11 112.902l53.027 15.053 100.618 5.469 14.96 46.522-27.197 80.717-31.27 4.102-43.51-13.677-41.747-20.512-22.16 4.093-17.274-6.826z" />
<glyph unicode="&#xe932;" d="M708.154 140.272c0 0 35.347 16.416 40.79 15.046l-14.957 75.251 17.677 6.835c0 0 12.237-71.139 12.237-79.347 0 0 76.141-4.106 82.941-4.106 0 0 16.317 31.466 12.24 64.301l14.954-43.779 1.36-24.627-21.754-32.835-24.477-5.472-40.79 1.37-13.597 17.782-47.584-6.835-14.96-5.478z" />
<glyph unicode="&#xe933;" d="M654.704 237.395l-29.904 76.611-31.264 45.149c0 0 6.794 19.158 16.31 19.158h31.267l29.901-10.947-2.714-50.621-13.597-79.35z" />
<glyph unicode="&#xe934;" d="M660.547 263.402c0 0-38.058 73.875-38.058 84.819 0 0 6.794 16.416 16.31 12.314 9.514-4.106 29.904-15.046 29.904-15.046v25.994l-46.214 9.581-31.267-4.106 53.014-125.869 10.874-1.373z" />
<glyph unicode="&#xe935;" d="M494.262 443.978l-37.658 4.122-35.344 10.947v-12.314l17.27-19.168 54.371-24.627z" />
<glyph unicode="&#xe936;" d="M433.501 439.891c0 0 42.138-17.789 55.734-13.683l1.347-16.4-38.051 8.192-23.107 16.416 4.077 5.475z" />
<glyph unicode="&#xe937;" d="M708.944 373.664c-23.066 0.682-43.901 3.44-62.147 8.618 1.242 7.53-1.082 14.918 0.784 20.342 5.082 3.686 13.61 3.629 21.293 4.493-6.65 3.29-15.984 4.586-23.654 2.691-0.182 5.226-2.512 8.461-3.923 12.55 12.97 4.662 43.581 35.2 60.803 25.085 8.205-4.81 11.693-32.282 12.33-45.638 0.531-11.091-0.995-22.272-5.482-28.141z" />
<glyph unicode="&#xe938;" d="M598.611 411.606c-0.061-1.757-0.138-3.526-0.205-5.299-7.2-4.762-18.826-4.704-26.733-8.704 11.654-0.515 20.822-3.338 28.758-7.322l-0.512-13.27c-13.2-9.094-25.258-22.64-40.8-31.171-7.35-4.035-33.142-14.416-40.957-12.579-4.422 1.034-4.822 6.557-6.592 11.77-3.766 11.146-12.442 28.893-13.203 45.69-0.957 21.2-3.088 56.733 19.616 52.365 18.314-3.514 39.619-12.006 53.798-19.805 8.666-4.762 13.68-10.656 26.829-11.674z" />
<glyph unicode="&#xe939;" d="M611.754 386.31c-2.022 11.546-4.349 14.845-3.446 24.925 30.611 20.534 36.355-35.283 3.443-24.925z" />
<glyph unicode="&#xe93a;" d="M611.754 386.31c-2.022 11.546-4.349 14.845-3.446 24.925 30.611 20.534 36.355-35.283 3.443-24.925h0.003z" />
<glyph unicode="&#xe93b;" d="M656.080 376.944c0 0-9.52 13.68-2.714 17.786 6.794 4.106 13.597-0.003 17.677 6.838 4.077 6.838 0 10.941 1.357 19.152 1.363 8.208 8.166 9.581 14.96 10.947 6.797 1.366 25.837 4.102 28.554-2.739l-8.16 24.627-16.317 5.475-51.67-30.102-2.714-15.046v-30.102l19.027-6.835zM513.312 331.795c-1.635 21.347-3.36 42.672-5.286 64.003-2.874 31.85 7.603 26.294 35.043 26.294 4.192 0 25.805-5.030 27.35-8.211 7.418-15.242-12.4-11.853 8.547-23.344 17.674-9.699 48.909 5.888 41.766 27.45-3.997 4.794-20.829 1.494-26.861 4.637l-31.866 16.624c-13.517 7.059-44.749 17.338-59.162 7.478-36.506-24.986 2.307-87.405 15.331-113.469z" />
<glyph unicode="&#xe93c;" d="M549.091 816.541c-37.059 8.685-55.472-15.607-66.704-40.798-10.032 2.446-6.038 16.172-3.504 23.165 6.634 18.355 33.366 42.788 55.206 39.475 9.398-1.422 22.118-10.070 15.002-21.842zM729.661 774.075l1.76-0.066c8.371-17.508 15.619-36.053 26.179-51.506-7.072-16.585-53.584-31.262-52.87-1.481 10.058 4.423 27.421 0.903 36.339 6.554-5.152 14.237-12.592 26.36-11.408 46.498zM568.067 773.622c7.946-14.658 10.534-30.058 21.827-41.136 5.088-4.988 14.979-11.065 10.074-24.935-1.146-3.27-9.517-10.563-14.358-11.995-17.658-5.244-58.803-1.084-44.87 21.071 14.611-0.686 34.234-9.542 45.149 1.12-8.378 13.485-23.318 40.157-17.821 55.876zM723.030 624.656c-26.586-17.19-56.234-35.875-99.798-31.539-9.309 8.144-12.858 26.266-3.814 38.234 4.71-8.144 1.75-23.12 14.867-25.376 24.72-4.256 53.491 15.216 71.277 22.026 11.021 18.704-0.957 25.583-10.886 37.62-20.33 24.666-47.61 55.236-46.621 92.159 8.221 5.996 8.928-9.154 10.109-11.913 10.618-25.001 37.338-56.982 56.842-78.381 4.787-5.27 12.672-10.327 13.549-13.811 2.531-10.14-6.579-22.279-5.52-29.019h-0.003zM372.522 642.747c-8.33 4.788-10.317 25.868-20.099 26.465-13.978 0.857-11.43-27.342-11.376-43.836-9.622 8.787-11.315 35.86-4.246 49.76-8.061 3.98-11.661-4.393-16.125-7.342 5.744 41.987 61.043 19.471 51.85-25.047h-0.003zM739.958 607.171c-12.374-23.706-29.882-49.808-66.198-50.566-0.736 7.651-1.306 19.302 0.042 23.917 27.763 2.678 44.902 16.896 66.157 26.65zM565.974 591.802c23.162-12.259 65.731-13.574 97.213-12.643 1.686-6.941 1.648-15.514 1.715-23.981-40.474-2.029-88.317 8.045-98.928 36.624zM561.571 568.95c16.019-40.467 71.069-35.808 117.491-34.691-2.042-5.254-6.474-11.459-11.978-13.706-14.88-6.090-55.91-10.71-76.566 0.33-13.098 7.002-21.507 22.832-28.688 32.112-3.462 4.483-20.72 15.933-0.259 15.958z" />
<glyph unicode="&#xe93d;" d="M721.082 345.738c-18.794-32.39-36.768-65.664-59.066-94.237 9.347 27.664 13.347 73.955 14.758 109.251 19.555 9.206 36.298-2.077 44.307-15.014z" />
<glyph unicode="&#xe93e;" d="M822.227 229.312c-21.040-4.24-35.821-24.819-56.346-23.498 11.28 16.006 31.046 22.752 56.346 23.498zM831.507 196.176c-17.146-1.83-37.286-4.621-54.678-3.181 8.23 12.659 39.952 8.291 54.678 3.181zM837.45 167.603c-19.27-0.422-43.226-0.035-61.539 1.51 10.832 11.715 49.040 4.349 61.539-1.51z" />
<glyph unicode="&#xe93f;" d="M684.819 89.424c2.758-24.362 12.355-49.043 11.155-75.722-10.653-3.616-16.778-6.781-31.056-6.765-1.008 22.675-4.022 57.338-3.12 78.954 7.024-0.47 17.379 5.046 23.021 3.533z" />
<glyph unicode="&#xe940;" d="M653.725 448.435c-9.674-6.358-17.917-14.301-27.21-21.088-20.611-1.027-31.856 1.434-46.998 13.347 0.25 0.954 1.77 0.525 1.827 1.702 22.061-9.891 50.106 4.038 72.381 6.042z" />
<glyph unicode="&#xe941;" d="M537.901 297.078c6.061 26.432 29.811 40.125 51.379 54.688 22.262-28.435 35.798-65.008 50.707-100.298-35.226 10.688-71.216 28.029-102.086 45.61z" />
<glyph unicode="&#xe942;" d="M661.782 85.882c-0.902-21.616 2.112-56.275 3.12-78.954 14.285-0.019 20.403 3.142 31.066 6.765 1.203 26.678-8.397 51.363-11.162 75.722-5.645 1.514-16-4.003-23.024-3.533zM439.418 208.803c9.418-87.107 23.053-160.33 48.067-237.469 55.526-16.96 122.458-18.438 171.533-3.133-9.005 43.536-5.075 96.538-10.339 142.998-3.971 34.922-1.942 70.054-7.386 105.683-59.469 12.445-143.52 2.906-201.875-8.080zM655.347 216.326c-0.499-37.405 1.664-74.307 4.502-111.763 14.282 2.154 23.968 3.594 37.229 6.518-4.304 36.061-3.776 76.64-12.55 108.538-10.138-0.093-19.069 0.118-29.178-3.293h-0.003zM727.776 222.362c-6.778 1.562-14.666 0.064-21.139-0.064 3.043-30.499 10.426-64.154 13.021-96.163 10.189-0.317 15.629 4.515 24.010 6.141 0.448 28.099-2.448 66.813-15.891 90.086zM837.437 121.546c21.232 5.184 34.579 31.35 28.643 58.227-3.987 18.058-11.085 52.061-18.682 63.616-5.613 8.538-20.829 19.728-32.979 11.904-19.77-12.739-54.595-16.435-69.005-31.85 7.226-24.218 9.469-57.478 12.451-88.163 24.694-1.555 55.075 6.835 75.613-2.070-14.339-4.669-32.944-4.704-45.328-11.514 10.128-4.918 33.827-3.926 49.286-0.15zM639.997 251.469c-14.912 35.286-28.461 71.859-50.723 100.294-21.574-14.563-45.331-28.253-51.395-54.688 30.88-17.581 66.88-34.922 102.118-45.606zM676.758 360.742c-1.414-35.29-5.414-81.584-14.765-109.242 22.301 28.566 40.285 61.837 59.082 94.23-8.010 12.944-24.758 24.227-44.317 15.014v-0.003zM635.085 375.645c-8.448 0.918-15.619-9.773-26.608-5.149-2.512-2.8-4.8-5.837-7.366-8.57 24.262-29.421 35.286-71.162 54.029-105.741 10.054 33.213 8.893 69.597 11.11 105.85-13.818-0.877-21.482 12.576-31.165 13.61zM608.291 411.232c-0.906-10.077 1.424-13.379 3.446-24.928 32.912-10.352 27.165 45.466-3.446 24.925v0.003zM571.786 423.29c-14.182 7.798-35.494 16.294-53.814 19.808-22.71 4.374-20.579-31.171-19.616-52.368 0.755-16.794 9.43-34.544 13.203-45.693 1.77-5.206 2.166-10.733 6.592-11.766 7.818-1.834 33.613 8.547 40.97 12.582 15.546 8.528 27.606 22.070 40.81 31.168 0.173 4.426 0.339 8.848 0.515 13.274-7.939 3.974-17.11 6.803-28.765 7.315 7.904 4.006 19.533 3.949 26.739 8.71 0.064 1.773 0.141 3.536 0.202 5.296-13.152 1.011-18.166 6.906-26.835 11.674zM436.307 448.054c-11.773-12.026 33.014-28.413 47.28-29.302-0.080 7.616 4.307 14.784 3.427 20.243-16.944 2.992-39.2 1.018-50.71 9.059h0.003zM581.325 442.41c-0.058-1.178-1.578-0.749-1.827-1.709 15.146-11.91 26.397-14.371 47.011-13.344 9.296 6.787 17.539 14.726 27.219 21.085-22.285-2-50.336-15.93-72.403-6.032zM714.435 401.792c-0.637 13.363-4.125 40.832-12.333 45.638-17.226 10.125-47.846-20.422-60.816-25.085 1.408-4.083 3.738-7.322 3.914-12.55 7.677 1.898 17.018 0.602 23.667-2.691-7.686-0.864-16.214-0.81-21.299-4.49-1.869-5.421 0.454-12.81-0.784-20.342 18.25-5.181 39.094-7.939 62.166-8.618 4.483 5.878 6.013 17.059 5.482 28.141l0.003-0.003zM416.49 436.422c-3.696 2.653-28.704 35.392-32.128 34.032-45.251-17.955-87.563-49.008-125.377-78.374 36.052-77.834 50.607-173.197 53.175-265.104 41.297-19.44 77.572-47.456 133.611-50.381-6.486 46.166-12.41 87.357-16.086 130.819-14.083 5.978-34.282-0.269-47.459 1.856-0.106 15.974 20.128 7.002 21.811 17.741 1.27 8.128-11.136 8.742-7.098 21.539 10.307-3.77 15.715-12.086 26.698-15.216 10.042 22.099-0.138 61.2 1.306 79.67 0.275 3.466 1.722 19.206 9.44 16.451 6.835-2.445-0.387-41.875 0.358-59.357 0.682-16.106-1.933-31.686 4.55-41.802 54.154 7.421 109.178 12.214 167.77 13.83-12.89 5.568-28.202 10.829-44.989 20.352-9.104 5.162-37.795 15.907-40.422 24.605-4.186 13.859 10.992 21.245 13.59 33.126-27.331-15.005-32.669 14.374-39.133 35.187-5.856 18.851-9.197 32.934-10.63 43.805-23.546 11.296-48.72 22.736-68.986 37.219zM690.518 466.496c37.702 18.394 44.499-68.755 29.718-96.829 2.285-8.371 10.141-11.578 13.347-19.107-21.040-37.923-44.406-73.328-65.875-110.803 15.971 10.006 38.781 1.792 57.574 9.274 6.867 2.736 11.837 18.557 17.040 31.213 14.304 34.829 29.318 78.733 36.006 111.968 1.507 7.571 5.619 24.070 4.698 30.81-1.645 12.067-17.914 21.014-26.189 28.477-15.251 13.782-24.851 25.907-40.758 38.794-6.445-9.571-20.288-16.006-25.562-23.795zM330.259 802.924c-17.97-19.885-14.207-57.16-12.030-83.674 32.475 20.562 75.573-1.619 75.166-36.585 15.504 0.417 5.792 19.488 2.989 31.771-9.165 40.125 15.443 83.717 1.117 120.411-27.814-2.124-50.662-13.554-67.242-31.923zM458.806 918.363c-40.666-11.597-92.794-41.333-109.504-78.099 12.941 1.894 21.923 8.462 34.688 9.273 4.829 0.315 11.146-2.033 16.691-0.647 11.050 2.758 20.371 27.687 28.71 36.963 8.125 9.059 17.894 12.931 24.582 21.189 4.291 2.085 10.64 1.937 10.886 8.429-1.862 2.003-3.824 3.53-6.054 2.893zM670.525 907.455c-42.214 23.96-113.67 41.986-158.573 19.468-36.23-18.184-85.21-48.258-101.91-86.37 15.597-36.786-4.621-70.484-5.91-107.825-0.685-19.866 9.296-37.212 10.061-58.841-5.344-8.866-21.645-9.956-32.938-9.348-3.798 19.133-10.448 40.64-30.035 42.801-27.709 3.051-47.962-20.026-49.225-44.14-1.491-28.358 21.644-75.356 54.438-72.095 12.662 1.261 15.782 14.035 29.578 13.904 7.478-15.018-11.539-19.734-13.498-30.474-0.509-2.774 1.581-13.619 2.79-18.707 5.955-24.758 19.235-56.803 32.304-75.658 16.582-23.917 49.178-27.517 84.237-29.862 6.259 13.574 29.328 12.454 44.358 8.902-18.013 7.181-34.762 24.586-48.64 39.987-15.939 17.67-32.086 36.63-32.902 59.731 30.128-42.051 55.018-78.787 109.795-97.28 41.453-13.99 89.866 6.41 121.709 28.915 13.216 9.357 21.104 24.198 30.496 37.782 35.146 50.874 51.552 123.493 47.949 193.869-1.485 29.030-1.424 57.954-11.098 77.482-10.118 20.423-44.333 38.69-64.362 20.22-3.712 19.856 16.656 32.143 40.576 24.991-17.053 22.164-34.954 48.78-59.2 62.548zM749.171 252.525c32.989 16.499 94.624 44.413 115.306-0.064 7.632-16.394 16.582-44.102 20.538-61.030 5.581-23.872-6.051-74.058-30.445-82.067-21.539-7.075-46.675-6.65-72.621-1.398-3.056 2.557-6.458 7.011-8.838 11.658-18.525 0.723-35.875-1.005-50.512-8.666 1.389-13.782-7.878-15.997-16.566-18.835-6.442-25.699 12.886-59.261 8.259-82.694-3.299-16.691-23.712-19.274-38.717-22.397-0.49-9.277 0.659-17.021 1.683-24.867-3.427-12.723-18.816-19.962-33.402-21.734-47.958-5.795-120.794-8.406-166.925 8.291-12.874 31.776-23.018 70.432-33.741 106.707-44.998-4.835-81.395 19.536-115.699 35.501-11.88 5.542-28.317 8.598-32.748 18.109-4.304 9.216-2.545 26.867-3.612 43.546-2.715 42.589-5.042 83.674-16.218 127.28-5.019 19.571-13.771 36.842-19.873 55.696-5.639 17.475-15.491 39.075-18.066 56.499-3.808 25.83 20.36 27.267 35.814 38.461 23.897 17.306 42.651 26.88 68.524 42.499 7.667 4.63 30.774 16.336 33.405 21.731 5.222 10.691-8.973 25.763-12.768 34.147-6.003 13.251-9.133 24.512-9.994 37.594-21.709 3.446-38.161 16.451-48.101 31.104-16.444 24.256-27.849 69.136-13.621 103.275 1.116 2.686 6.683 7.972 7.505 12.1 1.615 8.13-3.051 18.946-3.338 27.591-1.494 44.367 7.46 82.594 37.142 95.978 12.051 48.307 55.181 64.367 95.821 88.373 15.19 8.974 31.933 14.707 49.229 21.11 62.035 22.972 157.21 18.647 208.698-20.535 21.834-16.615 56.726-51.696 69.21-77.094 32.966-67.050 30.624-179.117 7.568-260.679-3.098-10.954-7.597-27.050-13.875-40.208-4.374-9.184-17.981-27.565-16.33-35.677 1.702-8.381 31.021-30.781 37.302-36.88 11.325-10.986 32.829-25.571 34.57-39.437 1.872-14.755-6.461-34.938-10.688-49.181-14.099-47.52-27.872-91.443-43.875-133.805z" />
<glyph unicode="&#xe943;" d="M529.117 581.44c1.786 2.397 11.622 6.035 25.386-0.634 0 0-16.31-2.733-14.95-30.112l-6.797 1.373c-0.003 0-7.030 24.816-3.638 29.373z" />
<glyph unicode="&#xe944;" d="M648.326 346.179c0-1.994-0.79-3.907-2.192-5.318s-3.302-2.202-5.283-2.202c-1.984 0-3.885 0.79-5.286 2.202s-2.189 3.325-2.189 5.318c0 1.997 0.787 3.91 2.189 5.322s3.302 2.202 5.286 2.202c1.981 0 3.882-0.79 5.283-2.202s2.192-3.325 2.192-5.322zM655.802 311.293c0-1.997-0.79-3.91-2.192-5.322-1.405-1.411-3.306-2.205-5.29-2.202-1.984 0-3.885 0.794-5.286 2.205-1.402 1.414-2.189 3.328-2.189 5.325s0.79 3.91 2.192 5.322c1.402 1.411 3.306 2.202 5.29 2.202 1.981 0 3.882-0.794 5.283-2.208 1.402-1.411 2.189-3.325 2.189-5.322z" />
<glyph unicode="&#xe945;" glyph-name="page-5-monetization-1" d="M784.809 350.202c-4.043 1.429-8.164 2.914-12.288 4.452v72.241c8.209-2.573 12.416-6.705 12.913-7.219 7.268-8.228 19.834-9.065 28.126-1.835 8.329 7.255 9.199 19.887 1.941 28.215-7.108 8.16-21.939 18.421-42.98 21.758v12.186c0 11.044-8.956 20-20 20s-20-8.956-20-20v-14.447c-1.653-0.422-3.319-0.873-5.013-1.382-24.89-7.497-43.477-28.757-48.514-55.484-4.614-24.48 3.305-48.149 20.668-61.764 8.474-6.65 18.861-12.74 32.86-19.1v-93.009c-10.688 1.265-18.4 4.548-30.724 12.612-9.246 6.048-21.638 3.454-27.686-5.788-6.046-9.244-3.456-21.638 5.788-27.686 20.565-13.455 34.953-17.967 52.625-19.33v-14.622c0-11.044 8.956-20 20-20s20 8.956 20 20v16.482c35.625 8.542 58.479 38.746 63.486 68.533 6.468 38.466-13.63 71.904-51.2 85.186zM724.348 378.396c-5.481 4.299-7.853 13.282-6.044 22.882 1.434 7.612 5.892 16.529 14.219 21.662v-50.11c-2.991 1.811-5.751 3.665-8.175 5.566zM796.563 271.646c-2.131-12.668-10.3-26.025-24.043-32.879v73.321c26.876-10.114 25.216-33.451 24.043-40.442zM290.001 780h80c16.567 0 29.999 13.432 29.999 30s-13.431 30-29.999 30h-80c-16.57 0-30.001-13.432-30.001-30s13.431-30 30.001-30zM180 780c16.569 0 30 13.431 30 30s-13.431 30-30 30c-16.569 0-30-13.431-30-30s13.431-30 30-30zM754.001 600c-33.043 0-64.713-5.978-94.001-16.89v266.89c0 60.654-49.346 110-110.001 110h-439.999c-60.654 0-110-49.346-110-110v-804.001c0-60.653 49.346-109.999 110-109.999h439.999c60.655 0 110.001 49.346 110.001 109.999v30.891c29.289-10.912 60.958-16.89 94.001-16.89 148.877 0 269.999 121.122 269.999 270.001 0 148.877-121.122 269.999-269.999 269.999zM110 900h439.999c27.571 0 50.001-22.43 50.001-50v-298.356c-70.059-48.826-116-129.963-116-221.643 0-87.049 41.419-164.593 105.57-214.001h-529.57v734c0 27.57 22.43 50 50 50zM549.999-4h-439.999c-27.57 0-50 22.43-50 49.999v10.001h540v-10.001c0-27.569-22.43-49.999-50.001-49.999zM754.001 120c-115.795 0-210.001 94.206-210.001 210.001 0 115.793 94.206 209.999 210.001 209.999 115.793 0 209.999-94.206 209.999-209.999 0-115.795-94.206-210.001-209.999-210.001zM210 348c0-11.063 6.090-21.229 15.843-26.451 4.437-2.374 9.301-3.548 14.155-3.548 5.82 0 11.625 1.692 16.642 5.039l180 120c8.346 5.564 13.361 14.931 13.361 24.96 0 10.031-5.013 19.398-13.361 24.96l-180 120c-9.203 6.138-21.041 6.711-30.797 1.491-9.754-5.22-15.843-15.386-15.843-26.451v-240zM269.999 531.947l95.917-63.947-95.917-63.945v127.891z" />
<glyph unicode="&#xe946;" glyph-name="page-5-num1" d="M480.798 277.333c-3.13 0-5.79 1.094-7.979 3.285-2.191 2.191-3.285 4.849-3.285 7.979v242.176l-70.869-54.443c-1.877-1.564-4.224-2.347-7.040-2.347-3.755 0-6.729 1.564-8.917 4.693l-20.181 26.283c-1.566 2.191-2.347 4.38-2.347 6.571 0 3.755 1.719 6.884 5.163 9.387l105.131 81.664c3.441 2.191 7.351 3.285 11.733 3.285h42.24c3.127 0 5.788-1.094 7.979-3.285 2.189-2.191 3.285-4.849 3.285-7.979v-306.005c0-3.13-1.097-5.788-3.285-7.979-2.191-2.191-4.851-3.285-7.979-3.285h-43.648zM607.923 277.333c-3.127 0-5.788 1.094-7.979 3.285-2.189 2.191-3.285 4.849-3.285 7.979v47.403c0 3.13 1.097 5.788 3.285 7.979 2.191 2.191 4.851 3.285 7.979 3.285h47.403c3.13 0 5.79-1.094 7.979-3.285 2.191-2.191 3.285-4.849 3.285-7.979v-47.403c0-3.13-1.094-5.788-3.285-7.979-1.877-2.191-4.535-3.285-7.979-3.285h-47.403z" />
<glyph unicode="&#xe947;" glyph-name="page-5-num2" d="M378.509 277.333c-3.13 0-5.788 1.094-7.979 3.285s-3.285 4.849-3.285 7.979v24.405c0 8.762 3.91 16.113 11.733 22.059l73.216 72.747c22.214 17.521 39.268 31.759 51.157 42.709 12.203 11.264 21.276 21.589 27.221 30.976s8.917 18.618 8.917 27.691c0 14.705-3.91 26.283-11.733 34.731s-19.712 12.672-35.669 12.672c-15.644 0-28.004-4.693-37.077-14.080-8.762-9.073-14.236-20.964-16.427-35.669-0.939-3.755-2.816-6.571-5.632-8.448-2.502-1.564-5.318-2.347-8.448-2.347h-42.24c-2.816 0-5.163 0.939-7.040 2.816s-2.816 4.224-2.816 7.040c0.625 18.46 5.632 35.669 15.019 51.627 9.7 16.271 23.467 29.254 41.301 38.955 17.835 10.012 38.799 15.019 62.891 15.019 25.030 0 46.308-4.38 63.829-13.141 17.521-8.448 30.662-20.181 39.424-35.2s13.141-32.070 13.141-51.157c0-20.964-5.946-40.049-17.835-57.259-11.578-16.896-29.724-35.044-54.443-54.443l-65.237-66.176h132.821c3.441 0 6.257-1.094 8.448-3.285s3.285-5.007 3.285-8.448v-33.792c0-3.441-1.094-6.257-3.285-8.448-2.191-1.877-5.007-2.816-8.448-2.816h-224.811zM676.591 277.333c-3.13 0-5.788 1.094-7.979 3.285s-3.285 4.849-3.285 7.979v47.403c0 3.13 1.094 5.788 3.285 7.979s4.849 3.285 7.979 3.285h47.403c3.13 0 5.788-1.094 7.979-3.285s3.285-4.849 3.285-7.979v-47.403c0-3.13-1.094-5.788-3.285-7.979-1.877-2.191-4.538-3.285-7.979-3.285h-47.403z" />
<glyph unicode="&#xe948;" glyph-name="page-5-num3" d="M490.035 272.64c-27.846 0-51.469 4.38-70.869 13.141-19.085 8.762-33.478 19.712-43.179 32.853-9.387 13.455-14.391 27.221-15.019 41.301 0 2.816 0.939 5.163 2.816 7.040s4.224 2.816 7.040 2.816h43.179c6.884 0 11.578-3.13 14.080-9.387 6.884-22.214 27.535-33.323 61.952-33.323 19.087 0 33.95 4.38 44.587 13.141 10.953 8.762 16.427 21.276 16.427 37.547s-5.005 28.004-15.019 35.2c-9.698 7.509-24.092 11.264-43.179 11.264h-48.341c-3.127 0-5.788 1.094-7.979 3.285-2.189 2.191-3.285 4.849-3.285 7.979v20.181c0 5.946 2.035 10.639 6.101 14.080l83.541 81.664h-133.76c-3.441 0-6.257 1.094-8.448 3.285-2.189 2.191-3.285 4.849-3.285 7.979v31.445c0 3.441 1.097 6.257 3.285 8.448 2.191 2.191 5.007 3.285 8.448 3.285h201.813c3.443 0 6.259-1.094 8.448-3.285 2.191-2.191 3.285-5.007 3.285-8.448v-28.629c0-5.318-2.033-9.7-6.101-13.141l-80.725-83.072 5.632-0.469c30.037-2.502 53.818-11.578 71.339-27.221 17.835-15.644 26.752-38.016 26.752-67.115 0-20.651-5.632-38.641-16.896-53.973-10.95-15.332-26.283-27.221-45.995-35.669-19.398-8.134-41.613-12.203-66.645-12.203zM679.113 277.333c-3.13 0-5.79 1.094-7.979 3.285-2.191 2.191-3.285 4.849-3.285 7.979v47.403c0 3.13 1.094 5.788 3.285 7.979 2.189 2.191 4.849 3.285 7.979 3.285h47.403c3.127 0 5.788-1.094 7.979-3.285 2.189-2.191 3.285-4.849 3.285-7.979v-47.403c0-3.13-1.097-5.788-3.285-7.979-1.877-2.191-4.538-3.285-7.979-3.285h-47.403z" />
<glyph unicode="&#xe949;" glyph-name="page-5-num4" d="M515.573 277.333c-3.127 0-5.788 1.094-7.979 3.285-2.189 2.191-3.285 4.849-3.285 7.979v60.075h-148.779c-3.127 0-5.788 1.094-7.979 3.285-2.189 2.191-3.285 4.849-3.285 7.979v32.384c0 5.007 1.722 9.7 5.163 14.080l138.453 191.488c1.566 2.502 3.913 4.38 7.040 5.632 3.13 1.564 6.571 2.347 10.325 2.347h51.627c3.443 0 6.101-1.094 7.979-3.285 2.191-1.877 3.285-4.538 3.285-7.979v-190.080h42.24c3.443 0 6.101-1.094 7.979-3.285 2.191-1.877 3.285-4.538 3.285-7.979v-33.323c0-3.13-1.094-5.788-3.285-7.979-1.877-2.191-4.535-3.285-7.979-3.285h-42.24v-60.075c0-3.13-1.094-5.788-3.285-7.979-1.877-2.191-4.535-3.285-7.979-3.285h-41.301zM410.443 402.645h95.275v134.699l-95.275-134.699zM671.196 277.333c-3.13 0-5.79 1.094-7.979 3.285-2.191 2.191-3.285 4.849-3.285 7.979v47.403c0 3.13 1.094 5.788 3.285 7.979 2.189 2.191 4.849 3.285 7.979 3.285h47.403c3.127 0 5.788-1.094 7.979-3.285 2.189-2.191 3.285-4.849 3.285-7.979v-47.403c0-3.13-1.097-5.788-3.285-7.979-1.877-2.191-4.538-3.285-7.979-3.285h-47.403z" />
<glyph unicode="&#xe94a;" glyph-name="page-5-Rails1" d="M112.397-54.528h499.788c0 0-110.848 251.776-82.662 482.867 28.186 231.116 210.432 336.332 313.779 347.596s159.718-52.608 159.718-52.608l22.554 33.818c0 0-148.429 150.323-336.333 133.402-187.878-16.922-317.542-140.928-398.336-291.225-80.794-150.323-127.77-255.539-159.718-413.363s-18.79-240.486-18.79-240.486zM12.814 197.251l97.715-7.526-16.922-97.715-92.058 11.264 11.264 93.978zM166.875 403.92l26.317 73.293-86.426 33.818-28.186-78.925 88.294-28.186zM289.012 655.7l50.713 60.134-65.765 43.213-52.582-58.24 67.635-45.107zM422.413 888.692l45.082-54.477 62.006 35.686-45.085 50.739-62.003-31.949zM642.24 950.687l11.264-54.477 77.030 1.869-7.526 48.845-80.768 3.763zM903.411 892.453l-1.869-33.818 52.582-28.186 11.264 16.922-61.978 45.082zM892.122 747.75v-28.186l50.739-5.632v22.554l-50.739 11.264zM730.56 723.326l24.422-45.082 35.686 28.186-7.526 30.054-52.582-13.158zM653.504 665.094l37.581-56.371-22.554-39.45-54.477 60.134 39.45 35.686zM578.368 509.139l-24.422-48.845 63.872-54.477 15.027 62.003-54.477 41.318zM552.051 338.157l-3.763-65.766 78.928-33.818-3.763 62.003-71.402 37.581zM574.605 105.171l18.79-67.635 99.584-5.632-35.686 73.267h-82.688z" />
<glyph unicode="&#xe94b;" glyph-name="page-5-user-1" d="M512 960c-281.939 0-512-230.099-512-512 0-284.51 232.753-512 512-512 135.97 0 264.649 53.395 361.623 150.377 96.973 96.969 150.377 225.397 150.377 361.623 0 281.939-230.099 512-512 512zM781.999 85.717c-18.912-14.129-38.974-26.79-59.998-37.869v98.153c0 16.567-13.434 29.999-30.001 29.999s-30.001-13.431-30.001-29.999v-124.384c-46.961-16.57-97.438-25.617-149.999-25.617s-103.038 9.047-149.999 25.617v124.384c0 16.567-13.434 29.999-30.001 29.999s-30.001-13.431-30.001-29.999v-98.153c-21.024 11.078-41.086 23.74-59.998 37.869v60.284c0 83.812 67.29 152 149.999 152 5.397 0 233.515 0 240 0 82.709 0 149.999-68.188 149.999-152v-60.284zM362.001 508c0 82.709 67.29 150.001 149.999 150.001 81.043 0 147.283-64.608 149.918-145.024-2.56-81.847-65.188-150.752-141.807-154.763-86.543-4.527-158.11 64.023-158.11 149.786zM842.001 139.475c0 123.806-88.128 206.56-187.486 217.303 3.913 3.834 7.71 7.838 11.377 12.015 35.106 40.013 56.109 92.67 56.109 149.393 0 2.101-0.218 4.154-0.629 6.133-8.356 108.198-99.070 193.679-209.372 193.679-115.793 0-210.001-94.206-210.001-209.999 0-57.798 22.955-111.567 64.646-151.55-97.815-11.938-184.645-93.905-184.645-216.975-75.624 80.836-122 189.359-122 308.525 0 249.233 202.767 452 452 452s452-202.767 452-452c0-119.166-46.377-227.689-121.999-308.525z" />
<glyph unicode="&#xe94c;" glyph-name="page-5-ux" d="M10.667 901.104c-5.891 0-10.667-4.776-10.667-10.667v-884.878c0-5.892 4.776-10.667 10.667-10.667h1002.667c5.89 0 10.667 4.774 10.667 10.667v884.878c0 5.891-4.777 10.667-10.667 10.667h-1002.667zM669.724 841.104c3.612 0 5.591-4.208 3.285-6.989l-103.902-125.362c-2.027-2.447-5.037-3.861-8.213-3.861h-496.627c-2.356 0-4.267 1.911-4.267 4.267v127.679c0 2.356 1.91 4.267 4.267 4.267h605.457zM964 59.159c0-2.357-1.909-4.267-4.267-4.267h-895.467c-2.356 0-4.267 1.909-4.267 4.267v581.466c0 2.357 1.91 4.267 4.267 4.267h524.828c3.177 0 6.187 1.414 8.213 3.861l156.224 188.491c2.027 2.445 5.039 3.86 8.213 3.86h197.988c2.357 0 4.267-1.91 4.267-4.267v-777.678zM128.666 792.25c0 5.891 4.776 10.667 10.667 10.667h38.667c5.891 0 10.667-4.776 10.667-10.667v-39.001c0-5.891-4.776-10.666-10.667-10.666h-38.667c-5.891 0-10.667 4.775-10.667 10.666v39.001zM239.334 792.25c0 5.891 4.774 10.667 10.667 10.667h38.667c5.89 0 10.667-4.776 10.667-10.667v-39.001c0-5.891-4.777-10.666-10.667-10.666h-38.667c-5.892 0-10.667 4.775-10.667 10.666v39.001zM349.999 792.25c0 5.891 4.777 10.667 10.667 10.667h38.669c5.89 0 10.667-4.776 10.667-10.667v-39.001c0-5.891-4.777-10.666-10.667-10.666h-38.669c-5.89 0-10.667 4.775-10.667 10.666v39.001zM409.197 308.994c0-28.122-22.878-50.999-51.002-50.999-28.122 0-50.999 22.878-50.999 50.999v176.335c0 5.89-4.774 10.667-10.667 10.667h-38.667c-5.89 0-10.667-4.777-10.667-10.667v-176.335c0-61.205 49.794-110.999 110.999-110.999 61.207 0 111.002 49.794 111.002 110.999v176.335c0 5.89-4.777 10.667-10.667 10.667h-38.667c-5.892 0-10.667-4.777-10.667-10.667v-176.335zM702.050 496.994c-3.874 0-7.445-2.101-9.327-5.487l-36.599-65.916c-4.064-7.317-14.588-7.317-18.652 0l-36.597 65.914c-1.879 3.388-5.451 5.489-9.325 5.489h-44.228c-8.132 0-13.274-8.734-9.327-15.844l71.614-128.977c1.788-3.221 1.788-7.136 0-10.355l-71.614-128.979c-3.947-7.108 1.195-15.844 9.327-15.844h44.228c3.874 0 7.445 2.101 9.325 5.489l36.597 65.914c4.064 7.319 14.588 7.319 18.652 0l36.599-65.914c1.882-3.388 5.453-5.489 9.327-5.489h44.228c8.132 0 13.274 8.736 9.325 15.846l-71.614 128.977c-1.788 3.219-1.788 7.134 0 10.355l71.614 128.977c3.949 7.11-1.193 15.844-9.325 15.844h-44.228z" />
<glyph unicode="&#xe94d;" glyph-name="page-5-websocket1" d="M769.766 253.754h127.13v305.229l-143.232 143.205-89.882-89.881 105.984-105.984v-252.57zM897.203 190.035h-443.392l-105.984 105.984 44.954 44.954 87.552-87.552h180.122l-177.459 177.766 45.261 45.286 177.434-177.434v180.096l-87.194 87.219 44.595 44.595-220.365 221.362h-442.726l126.797-126.797v-0.333h262.963l92.902-92.876-135.859-135.834-92.902 92.902v72.114h-127.13v-124.773l220.032-220.032-89.549-89.549 143.206-143.206h623.539l-126.797 126.106z" />
</font>
</defs>
</svg>
