<?xml version="1.0" standalone="no"?>
<!DOCTYPE svg PUBLIC "-//W3C//DTD SVG 1.1//EN" "http://www.w3.org/Graphics/SVG/1.1/DTD/svg11.dtd" >
<svg xmlns="http://www.w3.org/2000/svg">
<metadata>Generated by IcoMoon</metadata>
<defs>
<font id="icomoon-page-44-1" horiz-adv-x="1024">
<font-face units-per-em="1024" ascent="960" descent="-64" />
<missing-glyph horiz-adv-x="1024" />
<glyph unicode="&#x20;" horiz-adv-x="512" d="" />
<glyph unicode="&#xe900;" glyph-name="agent-1" d="M144 247.985c-79.408 0-144-64.591-144-143.999 0-8.847 7.152-16.001 16-16.001s16 7.153 16 16.001c0 61.744 50.256 111.999 112 111.999 8.848 0 16 7.153 16 16.001s-7.152 15.999-16 15.999zM239.999 247.97l-95.999 0.015c-8.832 0-16-7.152-16-15.999 0-8.833 7.152-16.001 16-16.001l95.999-0.015c8.833 0 16.001 7.152 16.001 15.999 0 8.833-7.152 16.001-16.001 16.001zM559.999 247.967l-95.999 0.032c-8.833 0-16.001-7.152-16.001-15.999 0-8.833 7.152-16.001 16.001-16.001l95.999-0.032c8.833 0 16.001 7.152 16.001 16.001 0 8.831-7.152 15.999-16.001 15.999zM32 103.986c0 8.847-7.168 15.999-16 15.999-8.848 0-16-7.168-16-15.999l0.016-111.985c0-8.847 7.168-15.999 16-15.999 8.848 0 16 7.168 16 15.999l-0.016 111.985zM32.016-8.033v0.032c0 8.849-7.152 16.001-16 16.001s-16-7.152-16-16.001c0-17.648 14.352-32 32-32 8.848 0 16 7.152 16 15.985 0 8.847-7.152 15.983-16 15.983zM608-8h-575.984c-8.848 0-16-7.152-16-15.999 0-8.849 7.152-16.001 16-16.001h575.984c8.849 0 16.001 7.152 16.001 16.001 0 8.847-7.152 15.999-16.001 15.999zM239.999 339.664c-8.847 0-15.999-7.152-15.999-15.999v-91.696c0-8.847 7.152-15.999 15.999-15.999 8.849 0 16.001 7.152 16.001 15.999v91.696c0 8.847-7.152 15.999-16.001 15.999zM464.001 339.664c-8.849 0-16.001-7.152-16.001-15.999v-91.664c0-8.847 7.152-16.001 16.001-16.001 8.847 0 15.999 7.153 15.999 16.001v91.664c0 8.847-7.152 15.999-15.999 15.999zM592.001 551.986c-8.849 0-16.001-7.152-16.001-16.001 0-123.519-100.479-224-224-224-123.519 0-224 100.481-224 224 0 8.849-7.152 16.001-16 16.001s-16-7.152-16-16.001c0-141.151 114.847-256 256-256s256 114.849 256 256c0 8.849-7.152 16.001-15.999 16.001zM112 728c-8.848 0-16-7.152-16-15.999v-176.017c0-8.847 7.152-15.999 16-15.999s16 7.152 16 15.999v176.017c0 8.847-7.152 15.999-16 15.999zM592.001 743.968c-8.849 0-16.001-7.152-16.001-16.001v-191.984c0-8.847 7.152-15.999 16.001-15.999 8.847 0 15.999 7.152 15.999 15.999v191.984c0 8.849-7.152 16.001-15.999 16.001zM480 855.968c-8.847 0-15.999-7.152-15.999-16s7.152-16 15.999-16c52.944 0 96-43.057 96-96 0-8.847 7.152-15.999 16.001-15.999 8.847 0 15.999 7.152 15.999 15.999 0 70.577-57.424 128-128 128zM480 936c-8.847 0-15.999-7.152-15.999-16v-80.032c0-8.848 7.152-16 15.999-16s15.999 7.152 15.999 16v80.032c0 8.848-7.152 16-15.999 16zM480 936h-160c-8.847 0-16.001-7.152-16.001-16s7.153-16 16.001-16h160c8.847 0 15.999 7.152 15.999 16s-7.152 16-15.999 16zM320 936c-123.519 0-224-100.48-224-224 0-8.849 7.152-16.001 16-16.001s16 7.152 16 16.001c0 105.872 86.129 192 192 192 8.847 0 16.001 7.152 16.001 16s-7.153 16-16.001 16zM603.312 643.312l-64 64c-6.255 6.255-16.368 6.255-22.623 0-6.257-6.257-6.257-16.368 0-22.625l64-64c3.119-3.12 7.216-4.688 11.312-4.688s8.192 1.568 11.311 4.688c6.257 6.257 6.257 16.368 0 22.625zM541.712 704.208c-4.528 7.551-14.288 10.048-21.936 5.519-0.768-0.464-77.6-45.727-167.777-45.727s-167.007 45.264-167.791 45.744c-7.633 4.529-17.408 2.032-21.937-5.519-4.528-7.585-2.080-17.392 5.489-21.937 3.423-2.048 84.944-50.287 184.24-50.287s180.816 48.239 184.225 50.273c7.567 4.544 10.015 14.351 5.487 21.936zM187.312 707.312c-6.255 6.255-16.368 6.255-22.623 0l-64-64c-6.256-6.257-6.256-16.368 0-22.625 3.12-3.12 7.216-4.688 11.312-4.688s8.192 1.568 11.312 4.688l64 64c6.257 6.257 6.257 16.368 0 22.625zM296.88 213.314l-47.999 31.968c-7.392 4.896-17.311 2.913-22.192-4.432-4.912-7.36-2.913-17.295 4.431-22.192l48.001-31.968c2.736-1.808 5.824-2.687 8.863-2.687 5.168 0 10.256 2.496 13.328 7.12 4.912 7.36 2.913 17.295-4.432 22.192zM366.304 239.168c-3.967 7.904-13.584 11.088-21.472 7.152l-64-32c-7.904-3.951-11.105-13.568-7.152-21.472 2.816-5.616 8.464-8.847 14.336-8.847 2.401 0 4.848 0.543 7.136 1.695l64 32c7.904 3.953 11.105 13.568 7.152 21.472zM477.313 240.849c-4.896 7.345-14.832 9.329-22.193 4.432l-47.999-31.968c-7.345-4.896-9.345-14.832-4.432-22.192 3.072-4.624 8.16-7.12 13.328-7.12 3.040 0 6.128 0.879 8.863 2.687l48.001 31.968c7.344 4.896 9.343 14.832 4.432 22.192zM423.168 214.306l-64 32.001c-7.904 3.935-17.503 0.752-21.472-7.153-3.953-7.904-0.752-17.519 7.152-21.472l64-32c2.288-1.135 4.737-1.679 7.136-1.679 5.872 0 11.52 3.231 14.336 8.831 3.953 7.904 0.752 17.521-7.152 21.472zM352.48 152h-0.176c-8.833 0-15.904-7.152-15.904-15.999 0-8.849 7.232-16.001 16.080-16.001 8.833 0 16.001 7.152 16.001 16.001 0 8.847-7.168 15.999-16.001 15.999zM352.48 72h-0.176c-8.833 0-15.904-7.152-15.904-16.001 0-8.847 7.232-15.999 16.080-15.999 8.833 0 16.001 7.152 16.001 15.999 0 8.849-7.168 16.001-16.001 16.001zM797.888 399.935c-4.384 7.664-14.159 10.385-21.823 5.952l-224-128c-7.664-4.384-10.337-14.16-5.952-21.824 2.943-5.168 8.335-8.063 13.903-8.063 2.689 0 5.424 0.671 7.921 2.111l224 128c7.664 4.384 10.335 14.16 5.951 21.824zM1015.935 277.887l-223.999 128c-7.68 4.432-17.456 1.712-21.824-5.952-4.384-7.664-1.712-17.44 5.952-21.824l224-128c2.496-1.439 5.231-2.111 7.92-2.111 5.568 0 10.96 2.895 13.903 8.063 4.384 7.664 1.713 17.44-5.952 21.824zM797.888 335.935c-4.384 7.664-14.159 10.369-21.823 5.952l-224-128c-7.664-4.384-10.337-14.16-5.952-21.824 2.943-5.168 8.335-8.063 13.903-8.063 2.689 0 5.424 0.671 7.921 2.111l224 128c7.664 4.384 10.335 14.16 5.951 21.824zM1015.935 213.887l-223.999 128c-7.68 4.416-17.456 1.712-21.824-5.952-4.384-7.664-1.712-17.44 5.952-21.824l224-128c2.496-1.439 5.231-2.111 7.92-2.111 5.568 0 10.96 2.895 13.903 8.063 4.384 7.664 1.713 17.44-5.952 21.824zM559.999 280c-8.847 0-15.999-7.152-15.999-15.999v-64c0-8.849 7.152-16.001 15.999-16.001 8.849 0 16.001 7.152 16.001 16.001v64c0 8.847-7.152 15.999-16.001 15.999zM1007.999 280c-8.847 0-15.999-7.152-15.999-15.999v-64c0-8.849 7.152-16.001 15.999-16.001 8.849 0 16.001 7.152 16.001 16.001v64c0 8.847-7.152 15.999-16.001 15.999zM592.001 234.303c-8.849 0-16.001-7.152-16.001-15.999v-242.305c0-8.847 7.152-15.999 16.001-15.999 8.847 0 15.999 7.152 15.999 15.999v242.305c0 8.847-7.152 15.999-15.999 15.999zM976.001-8h-384c-8.849 0-16.001-7.152-16.001-15.999 0-8.849 7.152-16.001 16.001-16.001h384c8.847 0 15.999 7.152 15.999 16.001 0 8.847-7.152 15.999-15.999 15.999zM991.984 218.304c0 8.847-7.168 15.999-15.999 15.999-8.849 0-16.001-7.168-16.001-15.999l0.016-242.305c0-8.847 7.168-15.999 15.999-15.999 8.849 0 16.001 7.168 16.001 15.999l-0.016 242.305zM832 168h-96c-8.847 0-15.999-7.152-15.999-16.001v-175.999c0-8.849 7.152-16.001 15.999-16.001h96c8.847 0 16.001 7.152 16.001 16.001v175.999c0 8.849-7.153 16.001-16.001 16.001zM815.999-8h-64v144.001h64v-144.001zM768.48 88h-0.176c-8.833 0-15.904-7.152-15.904-15.999 0-8.849 7.232-16.001 16.080-16.001 8.833 0 16.001 7.152 16.001 16.001 0 8.847-7.168 15.999-16.001 15.999z" />
<glyph unicode="&#xe901;" glyph-name="air-conditioning-1" d="M647.922 760.94c-172.552 0-312.937-140.384-312.937-312.94 0-77.021 28.234-151.040 79.506-208.425 6.468-7.238 17.576-7.864 24.818-1.397s7.864 17.576 1.397 24.818c-45.504 50.93-70.564 116.634-70.564 185.004 0 153.172 124.615 277.786 277.785 277.786 153.174 0 277.787-124.614 277.787-277.786 0-153.174-124.617-277.787-277.787-277.787-58.311 0-114.11 17.863-161.374 51.655-7.893 5.644-18.87 3.817-24.519-4.080-5.644-7.893-3.822-18.87 4.076-24.519 53.26-38.081 116.134-58.208 181.817-58.208 172.556 0 312.938 140.386 312.938 312.938 0 172.554-140.386 312.94-312.943 312.94zM834.925 843.448h-763.707c-39.272 0-71.218-31.946-71.218-71.216v-490.001c0-9.703 7.87-17.576 17.576-17.576s17.576 7.873 17.576 17.576v490.001c0 19.888 16.178 36.064 36.064 36.064h763.709c9.703 0 17.576 7.87 17.576 17.576 0 9.708-7.868 17.576-17.576 17.576zM952.787 843.448h-56.922c-9.708 0-17.576-7.87-17.576-17.576s7.868-17.576 17.576-17.576h56.922c19.886 0 36.065-16.178 36.065-36.064v-648.463c0-19.886-16.179-36.065-36.065-36.065h-881.566c-19.888 0-36.064 16.179-36.064 36.065v99.873c0 9.708-7.87 17.576-17.576 17.576s-17.576-7.868-17.576-17.576v-99.873c0-39.272 31.946-71.217 71.218-71.217h881.564c39.272 0 71.221 31.945 71.221 71.217v648.463c-0.004 39.27-31.953 71.216-71.221 71.216zM850.932 539.587c-32.219 20.964-72.434 24.184-107.561 8.618l-53.813-23.826c-6.554 3.588-13.525 6.3-20.767 8.081v152.447c0 9.706-7.873 17.576-17.576 17.576-38.425 0-73.884-19.234-94.843-51.45-20.967-32.22-24.187-72.438-8.618-107.575l23.81-53.776c-3.592-6.562-6.308-13.545-8.094-20.799l-152.42-0.004c-9.705 0-17.575-7.868-17.575-17.576 0-38.441 19.238-73.908 51.465-94.867 18.706-12.169 40.104-18.354 61.641-18.354 15.557 0 31.187 3.228 45.92 9.761l53.768 23.818c6.574-3.6 13.554-6.328 20.808-8.114v-152.424c0-9.708 7.868-17.576 17.576-17.576 38.42 0 73.875 19.235 94.839 51.454 20.967 32.227 24.195 72.45 8.622 107.59l-23.814 53.789c3.584 6.558 6.291 13.525 8.073 20.767h152.445c9.708 0 17.576 7.868 17.576 17.576-0.004 38.441-19.239 73.904-51.462 94.867zM538.255 379.982c-24.216-10.74-51.937-8.528-74.146 5.919-17.191 11.182-29.024 28.353-33.493 47.825h131.498c2.208-13.193 7.442-25.661 15.188-36.454l-39.047-17.289zM585.839 631.858c11.178 17.186 28.34 29.008 47.8 33.482v-131.517c-13.201-2.208-25.67-7.438-36.454-15.176l-17.289 39.047c-10.732 24.226-8.511 51.95 5.943 74.164zM645.792 396.194c-0.119 0.008-0.242 0.012-0.36 0.016-9.937 0.442-19.468 3.74-27.558 9.544-0.18 0.123-0.356 0.25-0.537 0.369-13.341 9.757-21.283 25.362-21.283 41.873 0 0.729 0.012 1.462 0.053 2.191 0.008 0.102 0.012 0.205 0.016 0.307 0.463 9.986 3.76 19.526 9.572 27.628 9.716 13.623 25.498 21.762 42.213 21.762 0.725 0 1.45-0.012 2.175-0.057 0.106-0.008 0.213-0.012 0.324-0.016 9.97-0.459 19.501-3.76 27.615-9.581 13.636-9.703 21.774-25.489 21.774-42.23 0-0.721-0.012-1.442-0.057-2.146-0.008-0.111-0.012-0.221-0.016-0.328-0.459-9.961-3.756-19.505-9.548-27.607-9.728-13.64-25.53-21.778-42.263-21.778-0.717-0.004-1.421 0.008-2.122 0.053zM710.025 264.167c-11.178-17.187-28.336-29.012-47.796-33.485v131.523c13.197 2.212 25.67 7.447 36.454 15.188l17.289-39.043c10.74-24.228 8.516-51.962-5.947-74.183zM733.737 462.295c-2.212 13.214-7.447 25.69-15.188 36.475l39.059 17.293c24.22 10.736 51.945 8.511 74.158-5.939 17.187-11.182 29.016-28.353 33.489-47.825l-131.518-0.004zM279.125 727.45h-182.784c-9.706 0-17.576-7.87-17.576-17.576s7.87-17.576 17.576-17.576h182.784c9.706 0 17.576 7.87 17.576 17.576s-7.866 17.576-17.576 17.576zM279.125 465.576h-182.784c-9.706 0-17.576-7.873-17.576-17.576 0-9.708 7.87-17.576 17.576-17.576h182.784c9.706 0 17.576 7.868 17.576 17.576 0 9.703-7.866 17.576-17.576 17.576zM279.125 290.992h-182.784c-9.706 0-17.576-7.868-17.576-17.576s7.87-17.576 17.576-17.576h182.784c9.706 0 17.576 7.868 17.576 17.576s-7.866 17.576-17.576 17.576zM279.125 378.282h-182.784c-9.706 0-17.576-7.868-17.576-17.576s7.87-17.576 17.576-17.576h182.784c9.706 0 17.576 7.868 17.576 17.576s-7.866 17.576-17.576 17.576zM279.125 203.698h-182.784c-9.706 0-17.576-7.868-17.576-17.576 0-9.703 7.87-17.576 17.576-17.576h182.784c9.706 0 17.576 7.873 17.576 17.576 0 9.708-7.866 17.576-17.576 17.576zM279.129 552.865h-19.918c-9.706 0-17.576-7.872-17.576-17.575 0-9.708 7.87-17.576 17.576-17.576h19.918c9.706 0 17.576 7.868 17.576 17.576 0 9.703-7.866 17.575-17.576 17.575zM200.621 552.865h-104.28c-9.706 0-17.576-7.872-17.576-17.575 0-9.708 7.87-17.576 17.576-17.576h104.28c9.706 0 17.576 7.868 17.576 17.576 0 9.703-7.87 17.575-17.576 17.575zM279.125 640.158h-182.784c-9.706 0-17.576-7.87-17.576-17.576s7.87-17.576 17.576-17.576h182.784c9.706 0 17.576 7.87 17.576 17.576 0 9.708-7.866 17.576-17.576 17.576z" />
<glyph unicode="&#xe902;" glyph-name="alarm-1" d="M512 848.922c11.047 0 20.001 8.956 20.001 20v71.078c0 11.046-8.954 20-20.001 20s-20.001-8.954-20.001-20v-71.078c0-11.046 8.954-20 20.001-20zM690.602 804.934c3.789-3.292 8.462-4.906 13.115-4.906 5.587 0 11.149 2.33 15.102 6.876l49.758 57.236c7.25 8.336 6.365 20.968-1.97 28.216s-20.967 6.364-28.217-1.97l-49.758-57.236c-7.246-8.336-6.365-20.968 1.97-28.216zM845.242 641.989c3.383 0 6.812 0.862 9.957 2.67l65.798 37.87c9.576 5.51 12.87 17.736 7.361 27.31-5.509 9.572-17.736 12.866-27.312 7.358l-65.798-37.87c-9.576-5.51-12.87-17.736-7.361-27.31 3.703-6.43 10.433-10.028 17.355-10.028zM981.279 488.133h-75.977c-11.047 0-20.001-8.958-20.001-20.001s8.954-20.001 20.001-20.001h75.977c11.047 0 20.001 8.958 20.001 20.001 0 11.047-8.954 20.001-20.001 20.001zM305.181 806.904c3.956-4.548 9.514-6.876 15.102-6.876 4.652 0 9.326 1.616 13.114 4.906 8.336 7.248 9.218 19.88 1.972 28.216l-49.762 57.236c-7.248 8.336-19.88 9.214-28.216 1.97-8.336-7.248-9.218-19.88-1.972-28.216l49.762-57.236zM103 682.53l65.8-37.87c3.144-1.81 6.574-2.67 9.958-2.67 6.92 0 13.652 3.598 17.352 10.028 5.51 9.574 2.216 21.8-7.358 27.31l-65.8 37.87c-9.576 5.514-21.802 2.218-27.31-7.358-5.51-9.574-2.216-21.8 7.358-27.31zM138.7 468.132c0 11.043-8.954 20.001-20 20.001h-75.98c-11.046 0-20-8.958-20-20.001s8.954-20.001 20-20.001h75.98c11.046 0 20 8.958 20 20.001zM878.735 74.088v25.174c0 38.687-28.365 70.865-65.389 76.837v328.61c0 165.917-134.988 300.901-300.904 300.901h-0.881c-165.919 0-300.903-134.984-300.903-300.901v-328.61c-37.024-5.972-65.39-38.154-65.39-76.837v-25.178c-23.984-7.213-41.504-29.503-41.504-55.804v-62.284c0-11.043 8.954-19.997 20-19.997h297.824c11.047 0 20.001 8.954 20.001 19.997 0 11.047-8.954 20.001-20.001 20.001h-277.824v42.283c0 10.072 8.194 18.264 18.264 18.264h699.945c10.072 0 18.264-8.192 18.264-18.264v-42.283h-277.828c-11.043 0-19.997-8.954-19.997-20.001 0-11.043 8.954-19.997 19.997-19.997h297.828c11.047 0 20.001 8.954 20.001 19.997v62.284c0 26.305-17.523 48.591-41.505 55.808zM250.659 504.709c0 143.861 117.040 260.901 260.903 260.901h0.881c143.864 0 260.903-117.042 260.903-260.901v-327.619h-203.919v148.763c31.039 19.603 50.491 54.456 50.491 92.074 0 59.351-48.411 107.643-107.917 107.643s-107.917-48.292-107.917-107.643c0-37.618 19.456-72.471 50.491-92.074v-148.763h-203.915v327.619zM483.078 355.758c-23.327 10.961-38.994 35.942-38.994 62.169 0 37.298 30.466 67.641 67.916 67.641s67.92-30.343 67.92-67.641c0-26.227-15.671-51.208-38.998-62.169-7.016-3.293-11.493-10.346-11.493-18.1v-160.563h-34.853v160.563c0 7.754-4.477 14.807-11.497 18.1zM223.097 137.093h577.806c20.861 0 37.831-16.97 37.831-37.831v-22.716h-653.465v22.716c0 20.861 16.968 37.831 37.828 37.831zM530.1-36.36c-3.166 7.729-11.117 12.739-19.452 12.321-8.237-0.41-15.524-6.005-18.047-13.853-2.626-8.151 0.406-17.396 7.397-22.36 6.746-4.792 15.843-4.923 22.741-0.373 7.848 5.181 10.969 15.606 7.361 24.265z" />
<glyph unicode="&#xe903;" glyph-name="Amazon-VPC-1" d="M490.285 263.21h-286.505c-112.146 0-197.892 74.902-203.622 177.837 0 4.298 0 9.21 0 14.122-1.742 42.707 11.051 84.742 36.291 119.238 25.239 34.493 61.432 59.408 102.664 70.673 0 5.525 0 10.846 0 16.372 1.032 55.094 18.348 108.651 49.765 153.921s75.531 80.229 126.782 100.471c51.253 20.242 107.349 24.862 161.221 13.279s103.11-38.854 141.514-78.373c26.781-26.507 48.547-57.636 64.256-91.886 22.454 18.038 50.397 27.858 79.2 27.832 59.347 0 122.787-42.362 133.222-136.703 50.432-9.976 95.93-36.912 128.928-76.333l-32.128-25.171c-30.643 35.059-72.819 57.997-118.899 64.669-4.608 0.739-8.822 3.027-11.949 6.49-3.126 3.459-4.976 7.885-5.242 12.541-4.707 78.38-50.547 113.58-93.933 113.58-13.626-0.127-27.034-3.408-39.178-9.586-12.141-6.178-22.688-15.085-30.813-26.022-2.198-2.931-5.142-5.217-8.528-6.621-3.382-1.404-7.082-1.874-10.707-1.361-3.645 0.556-7.069 2.086-9.914 4.427s-5.008 5.407-6.253 8.875c-14.010 39.782-36.736 75.931-66.512 105.802-32.688 33.633-74.573 56.877-120.41 66.823s-93.587 6.15-137.277-10.911c-43.688-17.061-81.375-46.629-108.342-85.004s-42.016-83.851-43.263-130.737c0.029-9.777 0.576-19.545 1.637-29.265 0.493-4.883-0.786-9.782-3.603-13.802s-6.986-6.893-11.745-8.096c-46.454-11.459-124.834-47.066-124.834-155.12-0.204-3.68-0.204-7.37 0-11.050 4.502-81.859 73.059-139.978 163.717-139.978h286.503l-2.045-40.931zM776.79-38.435c-242.71 0-245.574 272.794-245.574 275.453v249.053c-0.016 4.182 1.254 8.269 3.632 11.706 2.378 3.44 5.754 6.070 9.67 7.533l225.11 83.29c4.634 1.638 9.69 1.638 14.323 0l225.11-83.29c3.917-1.462 7.293-4.093 9.67-7.533 2.378-3.437 3.645-7.523 3.632-11.706v-264.4c0-2.662-2.864-260.106-245.574-260.106zM572.144 471.747v-234.73c0-9.619 2.864-234.525 204.646-234.525 201.779 0 204.646 210.173 204.646 219.178v250.077l-204.646 75.923-204.646-75.923zM776.787 38.106c-130.157 0-162.080 165.149-163.718 172.106-0.202 1.219-0.202 2.464 0 3.683v212.013c-0.003 4.099 1.222 8.106 3.523 11.498 2.298 3.395 5.562 6.019 9.37 7.536l143.254 56.483c4.861 1.936 10.282 1.936 15.142 0l143.251-56.483c3.808-1.517 7.072-4.141 9.373-7.536 2.298-3.392 3.523-7.398 3.52-11.498v-212.013c0.102-1.226 0.102-2.458 0-3.683-1.635-6.957-33.562-172.106-163.715-172.106zM654 215.942c3.274-15.555 32.538-136.909 122.787-136.909 90.246 0 119.514 121.152 122.787 136.909v196.051l-122.787 48.294-122.787-48.294v-196.051zM351.894 384l-43.776 16.368v66.848l43.776-15.539v-67.677zM359.923 384l43.776 16.365v66.851l-43.776-15.539v-67.677zM312.617 472.218l44.305 12.995 41.082-13.802-41.082-14.534-44.305 15.341zM299.776 477.395l-43.776 16.362v66.854l43.776-15.539v-67.677zM307.806 477.395l43.778 16.362v66.854l-43.778-15.539v-67.677zM260.499 565.613l44.308 12.992 41.082-13.802-41.082-14.531-44.308 15.341zM401.923 477.395l-43.779 16.362v66.854l43.779-15.539v-67.677zM409.955 477.395l43.779 16.362v66.854l-43.779-15.539v-67.677zM362.65 565.613l44.304 12.992 41.082-13.802-41.082-14.531-44.304 15.341zM454.042 570.794l-43.779 16.355v66.855l43.779-15.537v-67.674zM462.074 570.794l43.776 16.355v66.855l-43.779-15.537v-67.674h0.003zM414.765 659.004l44.307 12.996 41.082-13.799-41.082-14.535-44.307 15.339zM556.195 570.794l-43.779 16.355v66.855l43.779-15.537v-67.674zM564.221 570.794l43.779 16.355v66.855l-43.779-15.537v-67.674zM516.915 659.004l44.307 12.996 41.078-13.799-41.078-14.532-44.307 15.339z" />
<glyph unicode="&#xe904;" glyph-name="Android" d="M142.151 628.314c-17.644 0-32.613-6.154-44.919-18.461-12.306-12.304-18.46-27.069-18.46-44.304v-264.614c0-17.664 6.153-32.621 18.46-44.928 12.305-12.307 27.275-18.461 44.919-18.461 17.63 0 32.509 6.154 44.624 18.461 12.091 12.304 18.153 27.264 18.153 44.928v264.614c0 17.235-6.153 32-18.46 44.304-12.307 12.307-27.083 18.461-44.317 18.461zM651.696 865.854l43.693 80.602c2.87 5.336 1.85 9.428-3.069 12.305-5.338 2.481-9.44 1.224-12.307-3.683l-44.304-81.246c-38.982 17.236-80.214 25.87-123.696 25.87-43.488 0-84.726-8.636-123.696-25.87l-44.304 81.246c-2.88 4.907-6.982 6.153-12.307 3.683-4.928-2.89-5.949-6.969-3.069-12.305l43.696-80.602c-44.307-22.595-79.594-54.062-105.849-94.47-26.255-40.43-39.388-84.612-39.388-132.622h569.218c0 47.999-13.136 92.183-39.389 132.622-26.256 40.409-61.341 71.876-105.229 94.47zM399.082 748.617c-4.723-4.736-10.368-7.093-16.928-7.093-6.573 0-12.102 2.357-16.611 7.093-4.512 4.714-6.765 10.335-6.765 16.918 0 6.56 2.253 12.193 6.765 16.918 4.509 4.714 10.051 7.071 16.611 7.071s12.205-2.357 16.928-7.071c4.717-4.736 7.085-10.358 7.085-16.918-0.013-6.571-2.381-12.204-7.085-16.918zM658.461 748.617c-4.522-4.736-10.061-7.093-16.611-7.093-6.576 0-12.218 2.357-16.931 7.093-4.723 4.714-7.082 10.335-7.082 16.918 0 6.56 2.358 12.193 7.082 16.918 4.714 4.714 10.355 7.071 16.931 7.071 6.56 0 12.090-2.357 16.611-7.071 4.515-4.736 6.765-10.358 6.765-16.918 0-6.571-2.253-12.204-6.765-16.918zM229.54 206.774c0-18.89 6.56-34.88 19.682-48 13.133-13.123 29.123-19.683 48-19.683h45.54l0.624-139.706c0-17.642 6.154-32.624 18.461-44.931 12.304-12.307 27.082-18.461 44.304-18.461 17.632 0 32.611 6.154 44.918 18.461s18.461 27.286 18.461 44.931v139.693h84.918v-139.693c0-17.642 6.154-32.624 18.461-44.931s27.274-18.461 44.918-18.461c17.632 0 32.611 6.154 44.918 18.461s18.458 27.286 18.458 44.931v139.693h46.157c18.458 0 34.243 6.563 47.389 19.683 13.12 13.123 19.683 29.114 19.683 48v409.862h-564.892v-409.85zM881.85 628.314c-17.235 0-32-6.064-44.307-18.154-12.307-12.112-18.458-26.992-18.458-44.611v-264.614c0-17.664 6.15-32.621 18.458-44.928s27.082-18.461 44.307-18.461c17.632 0 32.611 6.154 44.918 18.461s18.458 27.264 18.458 44.928v264.614c0 17.622-6.15 32.499-18.458 44.611-12.307 12.090-27.286 18.154-44.918 18.154z" />
<glyph unicode="&#xe905;" glyph-name="Angular-1" d="M506.445 419.13h101.094l-100.326 209.715-88.269-209.715h87.501zM505.702 960l-476.365-169.728 72.806-630.246 403.559-224.026 409.984 227.046 79.206 630.246-489.19 166.707zM711.629 180.045l-65.254 150.861h-266.266l-59.597-148.992-110.874-1.894 296.833 660.429 311.142-662.298-105.984 1.894z" />
<glyph unicode="&#xe906;" glyph-name="Apache-1" d="M672.128 939.066c-15.974-9.102-42.752-35.216-74.701-72.937v-2.331l27.981-50.096 1.408-0.967c20.582 28.445 41.344 54.163 62.515 76.037 1.587 1.736 2.406 2.505 2.406 2.505-0.794-0.769-1.587-1.736-2.406-2.505-6.784-7.341-27.571-30.578-58.726-77.004l3.584-0.769c0 0 72.909 6.969 108.058 12.772l1.997 1.736c11.187 60.76-10.982 88.611-10.982 88.611s-27.981 43.722-61.133 24.949zM540.522 674.407c8.986 16.070 17.971 31.918 26.957 47.219 9.395 15.872 18.97 31.347 28.749 46.252 0.589 0.769 1.203 1.736 1.587 2.703 9.574 14.707 19.174 28.644 28.954 42.185l-29.363 53.593c-2.202-2.505-4.403-5.233-6.579-7.936-8.397-10.242-17.178-21.080-26.163-32.686-10.189-13.169-20.582-27.082-31.155-41.788-9.779-13.541-19.763-27.851-29.568-42.383-8.397-12.573-16.973-25.346-25.37-38.688-0.41-0.57-0.589-0.967-0.998-1.538v-2.133l36.557-70.234 1.587-0.57c8.218 15.426 16.41 30.901 24.806 46.004zM381.341 330.579c6.579 16.643 13.594 33.482 20.582 50.493 6.784 16.246 13.594 32.688 20.762 49.155 6.989 16.442 14.387 32.883 21.76 49.526 7.578 16.838 15.181 33.651 22.963 50.294 7.782 16.442 15.59 32.883 23.578 49.152 2.79 5.805 5.786 11.805 8.781 17.61 4.992 10.067 10.189 20.112 15.181 29.982 0.205 0.57 0.589 0.967 0.794 1.538l-38.144 72.937c-0.589-0.967-1.203-1.934-1.792-2.901-8.781-14.136-17.766-28.446-26.368-43.152-8.781-14.905-17.382-29.983-25.754-45.286-7.194-12.97-13.978-25.914-20.762-39.085-1.408-2.701-2.586-5.232-3.994-7.936-8.397-16.64-15.77-32.512-22.579-47.987-7.578-17.408-14.387-34.051-20.378-49.923-3.994-10.438-7.398-20.31-10.778-29.981-2.586-8.134-5.197-16.445-7.578-24.579-5.786-19.344-10.573-38.512-14.592-57.856l0.589-2.333 36.557-70.432 1.203-0.57c4.992 13.168 10.189 26.31 15.59 39.853 1.382 3.942 2.97 7.613 4.378 11.482zM322.611 350.122c-4.787-23.411-8.192-46.822-9.984-70.035 0-0.771-0.205-1.539-0.205-2.506-11.981 18.576-43.929 36.554-43.929 36.554 22.963-32.115 40.345-64.032 42.931-95.379-12.186-2.506-28.953 1.165-48.537 7.936 20.173-18.006 35.353-23.014 41.344-24.378-18.585-1.168-37.939-13.542-57.523-27.677 28.57 11.21 51.532 15.674 68.096 12.176-26.163-71.773-52.326-151.107-78.694-235.078 7.987 2.33 12.774 7.539 15.59 14.704 4.582 15.277 35.737 115.123 84.275 246.49 1.408 3.67 2.79 7.539 4.198 11.21 0.41 0.966 0.794 2.131 1.203 3.098 5.197 13.741 10.394 27.853 15.974 42.186 1.203 3.299 2.586 6.573 3.789 9.872v0.198l-38.144 73.133c0.026-0.941-0.179-1.709-0.384-2.502zM630.579 811.571c-8.576-12.772-17.971-27.28-28.16-43.722-0.589-0.769-0.998-1.736-1.587-2.505-8.781-14.309-17.971-29.785-27.75-47.021-8.397-14.706-17.178-30.578-26.368-47.789-7.987-14.905-16.179-30.579-24.576-47.394l1.792-0.768 92.877 9.672 2.202 1.538c28.16 12.573 40.755 23.981 52.915 40.449 3.2 4.439 6.579 9.275 9.779 14.136 9.984 15.103 19.763 31.546 28.365 47.988 8.397 15.872 15.77 31.719 21.581 45.855 3.584 9.102 6.579 17.41 8.576 24.775 1.792 6.572 3.2 12.772 4.198 18.575-37.53-6.448-83.686-12.425-113.843-13.789zM518.554 615.578c-3.2-6.57-6.579-13.341-9.984-20.112-3.584-7.341-7.398-15.104-10.982-22.842-1.792-3.869-3.789-7.936-5.581-11.805-5.786-12.003-11.392-24.378-17.382-37.149-7.194-15.674-14.592-32.115-21.965-48.957-7.194-16.243-14.387-32.883-21.581-50.294-6.989-16.442-13.978-33.478-20.966-50.89-6.4-15.674-12.774-31.546-19.174-48.186-0.41-0.768-0.589-1.536-0.998-2.33-6.4-16.445-12.621-33.184-19.226-50.394-0.205-0.397-0.563-1.389-0.768-1.786l1.382-0.298 27.776 2.899 1.562 0.621c-0.589 0.198-0.973 0.966-1.562 1.165 36.736 4.442 85.683 31.149 117.427 64.035 14.592 15.104 27.75 33.082 40.141 53.99 9.19 15.674 17.587 32.883 25.754 52.054 7.194 16.64 13.978 34.819 20.582 54.362-8.397-4.266-18.176-7.539-28.749-9.674-1.792-0.397-3.789-0.768-5.786-1.165s-3.994-0.57-5.786-0.966c34.355 12.771 55.91 37.523 71.706 67.728-8.986-6-23.757-13.738-41.344-17.606-2.406-0.573-4.787-0.97-7.398-1.366-0.589 0-1.203-0.198-1.792-0.198 11.981 4.838 21.965 10.243 30.746 16.643 1.792 1.363 3.584 2.701 5.402 4.266 2.586 2.33 5.197 4.637 7.578 6.966 1.587 1.539 2.995 3.101 4.582 4.838 3.405 3.869 6.579 8.134 9.574 12.771 0.998 1.363 1.792 2.902 2.79 4.266 1.203 2.131 2.202 4.266 3.2 6.374 4.787 9.274 8.576 17.606 11.571 24.947 1.587 3.67 2.79 6.969 3.994 10.243 0.41 1.165 0.794 2.505 1.408 3.67 1.203 3.472 2.202 6.572 2.995 9.474 1.203 4.067 1.792 7.341 2.202 9.672-1.203-0.967-2.406-1.736-3.994-2.703-10.394-6.002-28.16-11.408-42.547-13.938v0c-1.997-0.397-3.405-0.571-4.992-0.967 0.128 0.124-31.898-3.149-96.102-9.844-0.358-0.323-2.714-5.184-3.712-7.517zM366.95 263.638c-4.992-13.341-10.189-27.082-15.181-41.018 0-0.198-0.205-0.397-0.205-0.573-0.794-1.933-1.408-3.869-2.202-6-3.405-9.475-6.4-17.808-13.184-37.152 11.187-5.034 20.173-18.003 28.749-32.883-0.794 15.277-7.398 29.786-19.968 40.819 55.322-2.33 103.066 11.21 127.616 50.294 2.202 3.472 4.198 7.168 5.99 11.037-11.187-13.738-25.165-19.542-51.123-18.179v0c38.554 16.643 57.728 32.688 74.906 59.2 3.994 6.371 7.987 13.168 11.981 20.707-33.741-33.482-72.704-42.954-113.638-35.786l-30.746-3.299c-0.998-2.134-1.997-4.662-2.995-7.168z" />
<glyph unicode="&#xe907;" glyph-name="AWS-1" d="M288.564 518.765c0-12.595 1.357-22.81 3.738-30.31 2.714-7.501 6.118-15.667 10.906-24.525 1.715-2.714 2.381-5.453 2.381-7.834 0-3.405-2.048-6.81-6.477-10.214l-21.453-14.31c-3.072-2.048-6.118-3.072-8.858-3.072-3.405 0-6.81 1.715-10.214 4.762-4.762 5.12-8.858 10.547-12.262 16-3.405 5.786-6.81 12.262-10.547 20.096-26.573-31.334-59.93-47.002-100.122-47.002-28.621 0-51.43 8.166-68.122 24.525s-25.19 38.144-25.19 65.382c0 28.954 10.214 52.454 31.002 70.17s48.358 26.573 83.43 26.573c11.571 0 23.501-1.024 36.096-2.714 12.595-1.715 25.549-4.429 39.168-7.501v24.858c0 25.88-5.453 43.928-16 54.501-10.906 10.547-29.286 15.667-55.501 15.667-11.93 0-24.192-1.357-36.787-4.429s-24.858-6.81-36.787-11.571c-5.453-2.381-9.549-3.738-11.93-4.429s-4.096-1.024-5.453-1.024c-4.762 0-7.142 3.405-7.142 10.547v16.691c0 5.453 0.691 9.549 2.381 11.93s4.762 4.762 9.549 7.142c11.93 6.118 26.214 11.238 42.906 15.334 16.691 4.429 34.406 6.477 53.12 6.477 40.525 0 70.17-9.19 89.242-27.597 18.739-18.381 28.262-46.31 28.262-83.788v-110.336h0.666zM150.299 466.976c11.238 0 22.81 2.048 35.072 6.118 12.262 4.096 23.168 11.571 32.358 21.786 5.453 6.477 9.549 13.619 11.571 21.786 2.048 8.166 3.405 18.048 3.405 29.619v14.362c-9.882 2.381-20.429 4.429-31.334 5.786s-21.453 2.048-32.026 2.048c-22.81 0-39.501-4.429-50.739-13.619s-16.691-22.144-16.691-39.168c0-16 4.096-27.93 12.595-36.096 8.218-8.525 20.122-12.621 35.789-12.621zM423.782 430.214c-6.118 0-10.214 1.024-12.954 3.405-2.714 2.048-5.12 6.81-7.142 13.286l-80.026 263.244c-2.048 6.81-3.072 11.238-3.072 13.619 0 5.453 2.714 8.525 8.166 8.525h33.382c6.477 0 10.906-1.024 13.286-3.405 2.714-2.048 4.762-6.81 6.81-13.286l57.216-225.458 53.12 225.458c1.715 6.81 3.738 11.238 6.477 13.286 2.714 2.048 7.501 3.405 13.619 3.405h27.238c6.477 0 10.906-1.024 13.619-3.405 2.714-2.048 5.12-6.81 6.477-13.286l53.811-228.172 58.931 228.172c2.048 6.81 4.429 11.238 6.81 13.286 2.714 2.048 7.142 3.405 13.286 3.405h31.667c5.453 0 8.525-2.714 8.525-8.525 0-1.715-0.333-3.405-0.691-5.453-0.333-2.048-1.024-4.762-2.381-8.525l-82.074-263.269c-2.048-6.81-4.429-11.238-7.142-13.286s-7.142-3.405-12.954-3.405h-29.286c-6.477 0-10.906 1.024-13.619 3.405s-5.12 6.81-6.477 13.619l-52.787 219.672-52.454-219.288c-1.715-6.81-3.738-11.238-6.477-13.619-2.714-2.381-7.501-3.405-13.619-3.405h-29.286zM861.414 420.998c-17.715 0-35.43 2.048-52.454 6.118-17.024 4.096-30.31 8.525-39.168 13.619-5.453 3.072-9.19 6.477-10.547 9.549s-2.048 6.477-2.048 9.549v17.357c0 7.142 2.714 10.547 7.834 10.547 2.048 0 4.096-0.333 6.118-1.024s5.12-2.048 8.525-3.405c11.571-5.12 24.192-9.19 37.453-11.93 13.619-2.714 26.906-4.096 40.525-4.096 21.453 0 38.144 3.738 49.715 11.238s17.715 18.381 17.715 32.358c0 9.549-3.072 17.357-9.19 23.834s-17.715 12.262-34.406 17.715l-49.382 15.334c-24.858 7.834-43.264 19.405-54.502 34.739-11.238 14.976-17.024 31.667-17.024 49.381 0 14.31 3.072 26.906 9.19 37.811s14.31 20.429 24.525 27.93c10.214 7.834 21.786 13.619 35.43 17.715s27.93 5.786 42.906 5.786c7.501 0 15.334-0.333 22.81-1.357 7.834-1.024 14.976-2.381 22.144-3.738 6.81-1.715 13.286-3.405 19.405-5.453s10.906-4.096 14.31-6.118c4.762-2.714 8.166-5.453 10.214-8.525 2.048-2.714 3.072-6.477 3.072-11.238v-16c0-7.142-2.714-10.906-7.834-10.906-2.714 0-7.142 1.357-12.954 4.096-19.405 8.858-41.216 13.286-65.382 13.286-19.405 0-34.739-3.072-45.286-9.549s-16-16.358-16-30.31c0-9.549 3.405-17.714 10.214-24.191s19.405-12.954 37.453-18.739l48.358-15.334c24.525-7.834 42.24-18.739 52.787-32.691s15.667-29.978 15.667-47.693c0-14.643-3.072-27.93-8.858-39.501-6.118-11.571-14.31-21.786-24.858-29.978-10.547-8.525-23.168-14.643-37.811-19.072-15.283-4.71-31.309-7.117-48.666-7.117zM925.773 255.485c-112.051-82.765-274.842-126.694-414.822-126.694-196.172 0-372.914 72.55-506.418 193.101-10.547 9.549-1.024 22.477 11.571 14.976 144.409-83.789 322.508-134.528 506.776-134.528 124.314 0 260.89 25.882 386.56 79.002 18.739 8.55 34.739-12.237 16.333-25.856zM972.442 308.605c-14.31 18.381-94.669 8.858-131.123 4.429-10.906-1.357-12.595 8.166-2.714 15.334 64.026 44.954 169.267 32.026 181.53 17.024 12.262-15.334-3.405-120.55-63.334-170.957-9.19-7.834-18.048-3.738-13.952 6.477 13.594 33.69 43.904 109.645 29.594 127.693z" />
<glyph unicode="&#xe908;" d="M401.594 904.14l103.888 55.86v-960l-170.704 83.792v387.83h62.739l4.077 432.517z" />
<glyph unicode="&#xe909;" d="M505.482 960l172.333-85.786 5.702-394.214h-52.554l-1.222-420.947-124.259-59.053v960z" />
<glyph unicode="&#xe90a;" d="M574.742 753.715l225.702 58.254v-200.698l-225.702-23.142v165.587z" />
<glyph unicode="&#xe90b;" d="M800.445 811.969l63.555-29.526v-180.35l-63.555 9.178v200.698z" />
<glyph unicode="&#xe90c;" d="M574.742 588.125l225.702 23.142 63.555-9.178-186.182-19.952h-53.779l-49.296 5.987z" />
<glyph unicode="&#xe90d;" d="M215.406 339.158l226.517 25.936v-163.59l-226.517-62.246v199.901z" />
<glyph unicode="&#xe90e;" d="M160 354.314l55.407-15.165v-199.898l-55.407 33.914v181.149z" />
<glyph unicode="&#xe90f;" d="M160 354.314l55.407-15.162 226.519 25.933-81.482 10.774-200.445-21.546z" />
<glyph unicode="&#xe910;" glyph-name="bill-1" d="M875.79 720.2c-6.967 2.283-14.615-0.109-19.042-5.958l-37.548-50.092-34.136 45.308v165.208c-0.057 47.108-38.224 85.275-85.332 85.333h-477.866c-47.109-0.058-85.275-38.225-85.334-85.333v-853.335c0.059-47.108 38.225-85.275 85.334-85.332h477.866c47.108 0.057 85.275 38.224 85.332 85.332v17.068h68.268c18.85 0 34.132 15.282 34.132 34.132v631.468c0 7.35-4.698 13.875-11.674 16.2zM341.332 925.867h238.932v-17.067c0-9.425-7.639-17.067-17.064-17.067h-204.801c-9.425 0-17.067 7.642-17.067 17.067v17.067zM750.932 21.332c0-28.275-22.925-51.2-51.2-51.2h-477.866c-28.275 0-51.2 22.925-51.2 51.2v853.335c0 28.275 22.925 51.2 51.2 51.2h85.333v-17.067c0-28.275 22.925-51.2 51.2-51.2h204.801c28.275 0 51.2 22.925 51.2 51.2v17.067h85.332c28.275 0 51.2-22.925 51.2-51.2v-164.742l-34.324-45.742-37.54 50.058c-3.359 4.083-8.368 6.442-13.66 6.442-5.284 0-10.293-2.358-13.652-6.442l-37.548-50.058-37.36 50.058c-3.215 4.292-8.274 6.825-13.648 6.825s-10.433-2.533-13.652-6.825l-37.548-50.058-37.552 50.058c-3.359 4.083-8.364 6.442-13.648 6.442s-10.293-2.358-13.652-6.442l-37.549-50.058-37.55 50.058c-4.408 5.875-12.075 8.275-19.050 5.95-6.966-2.325-11.667-8.842-11.667-16.191v-631.468c0-18.85 15.283-34.132 34.134-34.132h375.466v-17.068zM853.332 72.532h-477.866v580.268l20.483-27.308c3.217-4.291 8.275-6.825 13.65-6.825s10.433 2.533 13.649 6.825l37.552 50.058 37.548-50.058c3.219-4.291 8.278-6.825 13.652-6.825s10.433 2.533 13.648 6.825l37.552 50.058 37.548-50.058c3.219-4.291 8.278-6.825 13.652-6.825s10.433 2.533 13.648 6.825l37.552 50.058 37.548-50.058c3.359-4.083 8.368-6.441 13.652-6.441s10.289 2.358 13.648 6.441l37.552 50.075 37.548-50.075c3.359-4.075 8.368-6.433 13.652-6.433s10.289 2.358 13.648 6.433l20.484 27.308v-580.268zM341.332 823.465h34.134v-34.134h-34.134v34.134zM409.6 823.465h34.132v-34.134h-34.132v34.134zM477.868 823.465h34.132v-34.134h-34.132v34.134zM546.132 823.465h34.132v-34.134h-34.132v34.134zM443.732 567.465h68.268v-34.133h-68.268v34.133zM546.132 567.465h238.932v-34.133h-238.932v34.133zM443.732 499.2h68.268v-34.132h-68.268v34.132zM546.132 499.2h238.932v-34.132h-238.932v34.132zM648.532 362.668h-17.068v34.132h-34.132v-34.132h-17.068c-18.85 0-34.132-15.286-34.132-34.136v-34.132c0-18.85 15.282-34.132 34.132-34.132h68.268v-34.136h-68.268v17.068h-34.132v-17.068c0-18.85 15.282-34.132 34.132-34.132h17.068v-34.132h34.132v34.132h17.068c18.85 0 34.132 15.282 34.132 34.132v34.136c0 18.85-15.282 34.132-34.132 34.132h-68.268v34.132h68.268v-17.064h34.132v17.064c0 18.85-15.282 34.136-34.132 34.136z" />
<glyph unicode="&#xe911;" glyph-name="chat-1" d="M170.667 525.398h221.866c9.438 0 17.067 7.643 17.067 17.064s-7.629 17.068-17.067 17.068h-221.866c-9.438 0-17.067-7.646-17.067-17.068 0-9.421 7.629-17.064 17.067-17.064zM614.4 457.13h-443.733c-9.438 0-17.067-7.647-17.067-17.068s7.629-17.064 17.067-17.064h443.733c9.437 0 17.068 7.643 17.068 17.064s-7.631 17.068-17.068 17.068zM614.4 354.73h-443.733c-9.438 0-17.067-7.647-17.067-17.068s7.629-17.064 17.067-17.064h443.733c9.437 0 17.068 7.643 17.068 17.064s-7.631 17.068-17.068 17.068zM922.829 916.735l-582.69 1.195c-55.808 0-101.206-45.397-101.206-101.205v-87.45l-137.728-0.29c-55.808 0-101.205-45.397-101.205-101.205v-360.806c0-55.808 45.397-101.188 101.205-101.188h103.595v-170.668c0-7.049 4.335-13.382 10.923-15.921 1.997-0.77 4.079-1.143 6.144-1.143 4.71 0 9.335 1.962 12.629 5.579l165.615 182.186 283.749 1.163c55.808 0 101.208 45.396 101.208 101.188v1.929l89.768-98.75c3.293-3.617 7.922-5.579 12.632-5.579 2.064 0 4.145 0.373 6.144 1.143 6.586 2.544 10.92 8.876 10.92 15.921v170.668h18.264c55.808 0 101.204 45.396 101.204 101.188v360.841c0 55.791-45.38 101.188-101.171 101.205zM750.932 268.186c0-36.983-30.085-67.056-67.138-67.056l-291.329-1.196c-4.779-0.016-9.353-2.048-12.561-5.579l-140.971-155.087v143.602c0 9.421-7.629 17.064-17.066 17.064h-120.662c-36.983 0-67.072 30.089-67.072 67.056v360.807c0 36.983 30.089 67.072 67.106 67.072l154.76 0.324c0.017 0 0.017 0 0.034 0l427.826 0.888c36.983 0 67.072-30.088 67.072-67.072v-360.823zM989.868 454.726c0-36.987-30.089-67.056-67.072-67.056h-35.328c-9.441 0-17.068-7.647-17.068-17.068v-143.598l-85.332 93.864v308.123c0 55.808-45.4 101.206-101.241 101.206l-410.76-0.836v87.381c0 36.984 30.088 67.072 67.038 67.072l582.671-1.194c0.020 0 0.020 0 0.037 0 36.983 0 67.072-30.089 67.072-67.072v-360.822h-0.016z" />
<glyph unicode="&#xe912;" glyph-name="checked-1" d="M994.718 820.040c-15.066 15.090-39.505 15.116-54.571 0.064l-462.985-461.763-167.046 181.425c-14.434 15.668-38.838 16.684-54.532 2.252-15.682-14.436-16.686-38.85-2.252-54.534l194.253-210.961c7.113-7.731 17.071-12.22 27.567-12.437 0.282-0.013 0.555-0.013 0.823-0.013 10.202 0 20.015 4.049 27.247 11.255l491.418 490.13c15.104 15.050 15.13 39.492 0.077 54.582zM985.408 486.592c-21.316 0-38.592-17.276-38.592-38.592 0-239.765-195.051-434.816-434.816-434.816-239.752 0-434.814 195.051-434.814 434.816 0 239.752 195.062 434.814 434.814 434.814 21.316 0 38.592 17.276 38.592 38.592 0 21.318-17.276 38.594-38.592 38.594-282.32 0-512-229.68-512-512 0-282.308 229.68-512 512-512 282.308 0 512 229.692 512 512 0 21.316-17.276 38.592-38.592 38.592z" />
<glyph unicode="&#xe913;" glyph-name="credit-card-1" d="M917.332 789.335h-810.666c-58.794 0-106.666-47.872-106.666-106.668v-469.335c0-58.794 47.872-106.664 106.666-106.664h810.666c58.794 0 106.668 47.87 106.668 106.664v469.335c0 58.796-47.874 106.668-106.668 106.668zM981.332 213.336c0-35.287-28.713-64-64-64h-810.666c-35.286 0-64 28.713-64 64v469.331c0 35.286 28.714 64 64 64h810.666c35.287 0 64-28.714 64-64v-469.331zM1002.668 661.335h-981.334c-11.776 0-21.334-9.558-21.334-21.334v-128.001c0-11.776 9.558-21.332 21.334-21.332h981.334c11.776 0 21.332 9.556 21.332 21.332v128.001c0 11.776-9.556 21.334-21.332 21.334zM981.332 533.336h-938.666v85.333h938.666v-85.333zM405.334 362.664h-256c-11.776 0-21.334-9.556-21.334-21.332s9.558-21.332 21.334-21.332h256c11.778 0 21.334 9.556 21.334 21.332s-9.556 21.332-21.334 21.332zM405.334 277.336h-256c-11.776 0-21.334-9.56-21.334-21.336s9.558-21.332 21.334-21.332h256c11.778 0 21.334 9.556 21.334 21.332s-9.556 21.336-21.334 21.336zM832 405.336h-42.664c-35.287 0-64-28.717-64-64v-42.668c0-35.283 28.713-64 64-64h42.664c35.287 0 64 28.717 64 64v42.668c0 35.283-28.713 64-64 64zM853.336 298.668c0-11.776-9.56-21.336-21.336-21.336h-42.664c-11.776 0-21.336 9.56-21.336 21.336v42.664c0 11.776 9.56 21.336 21.336 21.336h42.664c11.776 0 21.336-9.56 21.336-21.336v-42.664z" />
<glyph unicode="&#xe914;" glyph-name="document-1" d="M341.332 226.136h-34.133c-9.425 0-17.067-7.643-17.067-17.068s7.642-17.068 17.067-17.068h34.133c9.425 0 17.067 7.643 17.067 17.068s-7.641 17.068-17.067 17.068zM819.2 226.136h-409.601c-9.425 0-17.067-7.643-17.067-17.068s7.642-17.068 17.067-17.068h409.601c9.425 0 17.064 7.643 17.064 17.068s-7.639 17.068-17.064 17.068zM341.332 328.536h-34.133c-9.425 0-17.067-7.643-17.067-17.068s7.642-17.068 17.067-17.068h34.133c9.425 0 17.067 7.643 17.067 17.068s-7.641 17.068-17.067 17.068zM819.2 328.536h-409.601c-9.425 0-17.067-7.643-17.067-17.068s7.642-17.068 17.067-17.068h409.601c9.425 0 17.064 7.643 17.064 17.068s-7.639 17.068-17.064 17.068zM341.332 430.936h-34.133c-9.425 0-17.067-7.643-17.067-17.068s7.642-17.068 17.067-17.068h34.133c9.425 0 17.067 7.643 17.067 17.068s-7.641 17.068-17.067 17.068zM819.2 430.936h-409.601c-9.425 0-17.067-7.643-17.067-17.068s7.642-17.068 17.067-17.068h409.601c9.425 0 17.064 7.643 17.064 17.068s-7.639 17.068-17.064 17.068zM341.332 533.336h-34.133c-9.425 0-17.067-7.643-17.067-17.068s7.642-17.068 17.067-17.068h34.133c9.425 0 17.067 7.643 17.067 17.068s-7.641 17.068-17.067 17.068zM819.2 533.336h-409.601c-9.425 0-17.067-7.643-17.067-17.068s7.642-17.068 17.067-17.068h409.601c9.425 0 17.064 7.643 17.064 17.068s-7.639 17.068-17.064 17.068zM341.332 635.735h-34.133c-9.425 0-17.067-7.641-17.067-17.066s7.642-17.067 17.067-17.067h34.133c9.425 0 17.067 7.641 17.067 17.067s-7.641 17.066-17.067 17.066zM819.2 635.735h-409.601c-9.425 0-17.067-7.641-17.067-17.066s7.642-17.067 17.067-17.067h409.601c9.425 0 17.064 7.641 17.064 17.067s-7.639 17.066-17.064 17.066zM938.443 705.075c-0.086 1.495-0.377 2.972-0.868 4.386-0.188 0.546-0.324 1.075-0.565 1.604-0.827 1.856-1.987 3.55-3.412 5l-238.932 238.933c-1.454 1.427-3.146 2.583-5.001 3.413-0.528 0.239-1.061 0.375-1.589 0.563-1.425 0.491-2.912 0.789-4.42 0.887-0.291-0.051-0.614 0.137-0.991 0.137h-477.865c-9.425 0-17.067-7.642-17.067-17.067v-51.2h-85.333c-9.425 0-17.067-7.641-17.067-17.066v-921.599c0-9.425 7.642-17.068 17.067-17.068h716.801c9.425 0 17.064 7.643 17.064 17.068v85.332h85.336c9.425 0 17.064 7.643 17.064 17.068v648.532c0 0.376-0.184 0.7-0.221 1.075zM699.732 901.734l180.666-180.668h-180.666v180.668zM802.132-29.868h-682.666v887.468h68.266v-802.132c0-9.425 7.642-17.068 17.067-17.068h597.333v-68.268zM904.532 72.532h-682.666v853.335h443.734v-221.867c0-9.425 7.639-17.067 17.064-17.067h221.868v-614.401zM409.599 806.4h-102.4c-9.425 0-17.067-7.641-17.067-17.067v-102.4c0-9.425 7.642-17.066 17.067-17.066h102.4c9.426 0 17.065 7.641 17.065 17.066v102.4c0 9.425-7.639 17.067-17.065 17.067zM392.532 704h-68.266v68.267h68.266v-68.267z" />
<glyph unicode="&#xe915;" glyph-name="electrical-appliance-1" d="M304 399.999c-105.872 0-192-86.127-192-192 0-105.869 86.128-192 192-192 105.87 0 192.001 86.131 192.001 192 0 105.873-86.131 192-192.001 192zM304 48.001c-88.224 0-160 71.774-160 159.998s71.776 160.002 160 160.002c88.224 0 159.999-71.778 159.999-160.002s-71.775-159.998-159.999-159.998zM96 496.001h224c8.832 0 16 7.168 16 15.999v64c0 8.832-7.168 16-16 16h-224c-8.832 0-16-7.168-16-16v-64c0-8.831 7.168-15.999 16-15.999zM112 560h192v-32.001h-192v32.001zM384 592h143.999v-32h-143.999v32zM384 527.999h143.999v-31.998h-143.999v31.998zM304 335.999c-70.576 0-128-57.422-128-128 0-70.574 57.424-128 128-128s128.001 57.426 128.001 128c0 70.578-57.425 128-128.001 128zM304 304.001c44.848 0 82.512-30.962 92.992-72.593-20.912 12.722-49.904 10.322-67.616-7.41l-9.376-9.376c-8.416-8.413-23.584-8.413-32 0l-9.376 9.376c-17.712 17.732-46.704 20.115-67.616 7.41 10.48 41.632 48.144 72.593 92.992 72.593zM304 112.001c-45.936 0-84.384 32.449-93.776 75.6l13.776 13.775c8.416 8.417 23.584 8.417 32 0l9.376-9.376c10.32-10.322 24.032-15.999 38.624-15.999s28.32 5.677 38.624 15.999l9.376 9.376c8.416 8.417 23.584 8.417 32 0l13.776-13.775c-9.392-43.151-47.84-75.6-93.776-75.6zM368 784h32v-32h-32v32zM368 720h32v-32h-32v32zM100.65 715.323l64.001 64.002 22.628-22.628-64.002-64.002-22.627 22.628zM196.65 715.323l64.002 64.002 22.628-22.628-64.002-64.002-22.627 22.628zM992.002 944h-480.002c-8.831 0-15.999-7.168-15.999-16v-272h-32.002v176c0 8.832-7.168 16-15.999 16h-384c-8.832 0-16-7.168-16-16v-176h-16c-8.832 0-16-7.168-16-16v-672.002c0-8.831 7.168-15.999 16-15.999h544c8.831 0 15.999 7.168 15.999 15.999v48.001h288.002v-48.001c0-8.831 7.168-15.999 15.999-15.999h64c8.831 0 15.999 7.168 15.999 15.999v48.001h16.003c8.831 0 15.999 7.168 15.999 16.003v895.998c0 8.832-7.168 16-15.999 16zM975.999 912v-32h-448v32h448zM527.999 848h448v-256h-384v48c0 8.832-7.168 16-15.999 16h-48.001v192zM432.001 656h-96.001v160h96.001v-160zM80 816h224v-160h-224v160zM560.001 624v-160.001h-512.001v160.001h512.001zM48-15.999v448h512.001v-448h-512.001zM944.001-15.999h-32.002v31.998h32.002v-31.998zM591.999 48.001v511.999h384v-511.999h-384zM927.998 496.001h-63.996c-8.835 0-16.003-7.168-16.003-16.003v-191.996c0-8.835 7.168-16.003 16.003-16.003h63.996c8.835 0 16.003 7.168 16.003 16.003v191.996c0 8.835-7.168 16.003-16.003 16.003zM911.999 304.001h-31.998v159.998h31.998v-159.998z" />
<glyph unicode="&#xe916;" glyph-name="gas-1" d="M316.588 621.226c2.286-1.115 4.795-1.699 7.339-1.707 6.561 0.016 12.532 3.791 15.36 9.711 34.701 66.977 81.049 127.241 136.874 177.972 6.681 6.509 6.898 17.172 0.487 23.948-6.406 6.776-17.064 7.154-23.937 0.85-58.848-53.627-107.665-117.315-144.161-188.075-4.025-8.489-0.432-18.635 8.038-22.699zM17.067-64h989.865c9.429 0 17.068 7.639 17.068 17.068 0 9.425-7.639 17.064-17.068 17.064h-17.064v170.668c0.033 13.591-5.366 26.632-15.004 36.217l-78.266 78.266c-12.902 13.107-31.838 18.293-49.619 13.578-17.777-4.714-31.658-18.6-36.368-36.381-4.71-17.777 0.479-36.717 13.591-49.611l63.267-63.283v-149.455h-34.136v68.268c-0.053 56.529-45.867 102.343-102.4 102.4h-136.532v68.964c18.141 6.41 35.635 14.533 52.24 24.252 0.582 0.258 1.057 0.651 1.622 0.958 21.615 12.722 41.603 28.021 59.527 45.568 58.696 57.586 91.656 136.43 91.41 218.657 0 241.357-257.978 433.323-287.404 454.418-11.846 8.49-27.783 8.49-39.629 0-28.877-20.719-282.247-209.203-287.282-447.012-1.719-82.153 29.694-161.542 87.16-220.279 19.091-19.669 40.677-36.758 64.205-50.823 0.239-0.139 0.461-0.307 0.717-0.446 16.701-9.978 34.327-18.326 52.634-24.916v-69.341h-136.533c-56.531-0.057-102.344-45.871-102.4-102.4v-68.268h-34.134v149.455l63.266 63.267c13.111 12.894 18.299 31.834 13.589 49.611-4.71 17.781-18.593 31.666-36.37 36.381-17.777 4.71-36.717-0.471-49.616-13.578l-78.268-78.25c-9.629-9.589-15.029-22.626-15.001-36.217v-170.668h-17.067c-9.426 0-17.067-7.639-17.067-17.064 0-9.429 7.641-17.068 17.067-17.068zM916.599 138.719l-68.264 68.264c-6.472 6.697-6.377 17.342 0.205 23.925s17.228 6.676 23.925 0.209l78.27-78.25c3.199-3.199 4.997-7.541 4.997-12.067v-170.668h-34.132v156.52c0 4.526-1.798 8.864-5.001 12.067zM376.883 262.828c-23.958 32.006-36.477 71.131-35.55 111.104 2.577 126.497 112.639 239.564 170.667 290.525 58.95-51.524 170.668-166.195 170.668-294.965 0.053-38.33-12.005-75.698-34.46-106.766-12.919-7.516-26.444-13.939-40.432-19.202 15.487 22.229 23.757 48.685 23.691 75.776 0 88.646-75.71 164.336-108.257 192.754-6.431 5.62-16.028 5.62-22.458 0-31.949-27.939-106.461-102.404-108.219-189.628-0.576-28 7.794-55.456 23.895-78.373-13.672 5.173-26.896 11.452-39.545 18.776zM451.514 254.394c-16.544 18.461-25.428 42.533-24.846 67.314 1.294 65.176 53.539 124.346 85.332 154.403 32.289-30.482 85.332-90.677 85.332-156.844 1.63-46.236-31.896-86.249-77.705-92.742-3.17 0-6.296-0.356-9.486-0.34-22.622 0.819-43.872 11.047-58.626 28.209zM239.019 505.872c4.727 221.236 245.673 400.3 272.879 419.995 27.972-20.036 273.17-202.342 273.17-426.667 0.127-70.754-27.439-138.748-76.8-189.44 5.591 19.419 8.462 39.522 8.532 59.732 0 151.675-135.545 281.602-193.827 330.532-6.349 5.337-15.614 5.337-21.963 0-57.278-48.231-190.756-176.42-193.81-325.412-0.385-21.393 2.411-42.725 8.294-63.3-50.403 52.068-77.933 122.106-76.476 194.56zM443.732 199.934c21.041-4.932 42.549-7.59 64.156-7.934h4.112c22.979 0.074 45.875 2.712 68.268 7.868v-59.068h-136.536v59.134zM204.8 21.332h68.267c9.426 0 17.066 7.643 17.066 17.068s-7.641 17.068-17.066 17.068h-65.843c7.758 30.048 34.809 51.081 65.843 51.2h477.865c31.035-0.119 58.085-21.152 65.843-51.2h-441.308c-9.426 0-17.067-7.643-17.067-17.068s7.641-17.068 17.067-17.068h443.733v-51.2h-614.4v51.2zM68.267 140.8c-0.004 4.53 1.795 8.88 5 12.083l78.268 78.234c6.665 6.664 17.468 6.664 24.132 0 6.651-6.664 6.651-17.453 0-24.117l-68.267-68.264c-3.205-3.203-5.004-7.553-5-12.083v-156.52h-34.133v170.668zM512 840.534c9.425 0 17.064 7.641 17.064 17.067s-7.639 17.067-17.064 17.067c-9.425 0-17.068-7.641-17.068-17.067s7.643-17.067 17.068-17.067z" />
<glyph unicode="&#xe917;" d="M1005.571 505.277c22.861 53.469 22.451 105.814 8.214 147.485-17.331 51.279-88.486 118.356-111.322 91.799-2.957-3.696-43.885 1.095-50.512-7.748-9.581-12.868-4.051-16.974 0.739-21.355 14.374-12.868 51.251-26.913 67.459-70.417 7.011-18.427 23.219-61.602-4.79-87.39-32.086-29.133-67.843-35.757-214.589 100.641-156.058 145.652-366.486 86.241-435.807 63.408-69.678-23.217-101.381-46.077-74.113-99.931 37.235-72.989 25.078-50.512 61.19-110.608 57.494-95.824 183.242 44.243 183.242 44.243-93.632-141.216-174.015-106.912-204.98-57.878-27.378 44.627-49.418 95.824-49.418 95.824-237.15-85.885-173.003-463.702-173.003-463.702h117.726c30.226 138.998 137.521 133.824 155.946 0h89.965c79.395 271.728 249.606 0 249.606 0h101.299c0 144.883-15.114 199.45 59.002 209.443 126.842 17.328 185.814 76.659 224.173 165.91l-0.029 0.275z" />
<glyph unicode="&#xe918;" d="M1023.651 603.693c-21.418-1.827-42.637-5.53-63.408-11.059-0.739-0.739-1.094-1.478-1.834-2.573-9.226-10.323-20.643-20.643-33.949-26.176-1.648-1.002-3.379-1.866-5.174-2.573-1.094-1.094-2.192-2.573-3.696-3.696-32.090-29.13-70.8-35.757-214.592 100.643-154.851 146.747-366.099 85.913-435.805 63.052-69.705-22.861-101.381-45.722-74.113-99.548 37.235-72.989 25.078-50.512 61.19-110.608 57.494-95.824 183.243 44.243 183.243 44.243-93.635-141.216-174.017-106.912-204.981-57.878-27.378 44.627-49.418 95.824-49.418 95.824-237.369-85.885-173.222-463.702-173.222-463.702h117.726c30.225 138.998 137.521 133.824 155.946 0h89.964c79.398 271.728 249.606 0 249.606 0h101.299c0 144.883-15.11 199.45 59.002 209.443 126.486 17.328 185.459 76.33 223.789 165.91 15.114 34.278 20.259 67.843 18.426 98.451v0.246z" />
<glyph unicode="&#xe919;" d="M595.222 565.718l127.565-42.4c-4.054-19.539-40.554-57.146-87.747-41.293-61.939 20.646-39.818 83.693-39.818 83.693z" />
<glyph unicode="&#xe91a;" d="M660.867 494.749c18.022 1.914 31.13 17.581 29.283 34.995-1.85 17.414-17.958 29.978-35.981 28.064-18.019-1.914-31.13-17.581-29.28-34.995 1.85-17.411 17.958-29.978 35.978-28.064z" />
<glyph unicode="&#xe91b;" d="M853.184 715.401c4.051-3.696 9.226-7.009 14.374-10.322 24.694 20.26 56.4 19.904 82.957 30.937-23.958 22.122-61.603 39.069-73.731 24.695-2.957-3.696-17.686-15.113-24.64-23.956-9.581-12.868-4.051-16.974 0.739-21.355h0.301z" />
<glyph unicode="&#xe91c;" d="M52.77 53.622c-1.291 0-2.389 0.452-3.293 1.356s-1.356 2.002-1.356 3.293v106.745h-35.84c-1.292 0-2.389 0.452-3.293 1.356s-1.356 2.066-1.356 3.487v14.53c0 1.421 0.387 2.584 1.162 3.487 0.904 0.904 2.066 1.356 3.487 1.356h98.996c1.421 0 2.583-0.452 3.487-1.356s1.356-2.066 1.356-3.487v-14.53c0-1.421-0.452-2.584-1.356-3.487s-2.066-1.356-3.487-1.356h-35.646v-106.745c0-1.291-0.452-2.39-1.356-3.293-0.775-0.904-1.873-1.356-3.293-1.356h-18.211zM139.93 16.813c-1.034 0-2.002 0.387-2.906 1.162-0.775 0.775-1.162 1.679-1.162 2.712 0 0.904 0.258 1.937 0.775 3.1l15.305 35.84-37.197 87.76c-0.517 1.162-0.775 2.066-0.775 2.712 0.129 1.162 0.581 2.131 1.356 2.906 0.775 0.904 1.744 1.356 2.906 1.356h16.080c2.325 0 4.004-1.227 5.037-3.681l25.766-63.156 26.154 63.156c1.291 2.453 3.1 3.681 5.424 3.681h15.692c1.162 0 2.131-0.387 2.906-1.162s1.162-1.679 1.162-2.712c0-0.904-0.259-1.937-0.775-3.1l-54.826-126.893c-1.034-2.453-2.842-3.681-5.424-3.681h-15.498zM237.994 16.813c-1.291 0-2.39 0.452-3.293 1.356-0.904 0.775-1.356 1.872-1.356 3.293v128.249c0 1.421 0.452 2.518 1.356 3.293 0.904 0.904 2.002 1.356 3.293 1.356h15.498c1.421 0 2.584-0.452 3.487-1.356s1.356-2.002 1.356-3.293v-7.749c6.846 9.558 17.113 14.336 30.803 14.336 13.045 0 23.054-4.133 30.028-12.399 6.974-8.137 10.72-19.114 11.236-32.934 0.129-1.55 0.194-3.875 0.194-6.974s-0.065-5.424-0.194-6.974c-0.387-13.561-4.133-24.539-11.236-32.934-6.974-8.265-16.983-12.399-30.028-12.399-12.915 0-22.795 4.584-29.641 13.755v-43.977c0-1.421-0.452-2.518-1.356-3.293-0.775-0.904-1.872-1.356-3.293-1.356h-16.854zM281.777 72.607c13.82 0 21.182 8.524 22.085 25.572 0.129 1.291 0.194 3.228 0.194 5.812s-0.065 4.521-0.194 5.812c-0.904 17.048-8.265 25.572-22.085 25.572-7.362 0-12.851-2.39-16.467-7.168s-5.553-10.59-5.812-17.436c-0.129-1.55-0.194-4.003-0.194-7.362s0.065-5.877 0.194-7.555c0.259-6.458 2.26-11.946 6.006-16.467s9.17-6.781 16.273-6.781zM395.74 51.684c-14.465 0-25.96 4.133-34.484 12.399-8.395 8.265-12.851 20.019-13.367 35.259l-0.194 4.843c0 16.145 4.197 28.866 12.592 38.165 8.524 9.299 20.277 13.949 35.259 13.949 15.37 0 27.187-4.65 35.453-13.949 8.395-9.299 12.592-21.698 12.592-37.196v-4.068c0-1.291-0.452-2.39-1.356-3.293s-2.066-1.356-3.487-1.356h-64.318v-1.55c0.259-7.233 2.196-13.239 5.812-18.017 3.746-4.65 8.847-6.974 15.305-6.974 7.362 0 13.367 2.971 18.017 8.912 1.162 1.421 2.066 2.26 2.712 2.518 0.646 0.387 1.744 0.581 3.293 0.581h17.048c1.162 0 2.131-0.322 2.906-0.969 0.904-0.646 1.356-1.55 1.356-2.712 0-3.1-1.872-6.781-5.618-11.043-3.616-4.133-8.847-7.749-15.692-10.849s-14.788-4.65-23.829-4.65zM416.857 112.903v0.387c0 7.62-1.937 13.69-5.812 18.211-3.746 4.65-8.912 6.974-15.498 6.974s-11.752-2.325-15.498-6.974c-3.746-4.521-5.618-10.59-5.618-18.211v-0.387h42.427zM513.746 51.684c-11.624 0-21.569 1.744-29.834 5.231-8.267 3.487-14.53 8.072-18.792 13.755s-6.523 11.883-6.781 18.598c0 1.034 0.387 1.937 1.162 2.712 0.775 0.904 1.744 1.356 2.906 1.356h17.629c1.42 0 2.582-0.322 3.487-0.969 0.904-0.646 1.744-1.55 2.518-2.712 1.291-4.391 4.197-8.072 8.718-11.043 4.65-2.971 10.978-4.456 18.986-4.456 9.040 0 15.821 1.485 20.342 4.456 4.65 3.1 6.974 7.297 6.974 12.592 0 3.487-1.162 6.393-3.487 8.718s-5.877 4.327-10.655 6.006c-4.65 1.809-11.624 3.94-20.923 6.393-15.241 3.616-26.412 8.395-33.515 14.336s-10.655 14.465-10.655 25.572c0 7.49 2.066 14.142 6.199 19.954 4.132 5.941 10.009 10.59 17.629 13.949 7.749 3.358 16.724 5.037 26.928 5.037 10.719 0 19.954-1.872 27.703-5.618 7.878-3.746 13.818-8.459 17.823-14.142 4.132-5.553 6.328-11.108 6.587-16.661 0-1.034-0.387-2.002-1.162-2.906-0.775-0.775-1.744-1.162-2.906-1.162h-18.404c-2.842 0-4.78 1.162-5.812 3.487-0.646 4.133-3.165 7.555-7.555 10.268-4.392 2.841-9.817 4.262-16.273 4.262-7.104 0-12.723-1.356-16.854-4.068-4.005-2.712-6.006-6.652-6.006-11.818 0-3.487 1.032-6.393 3.1-8.718 2.066-2.325 5.294-4.391 9.686-6.199 4.391-1.679 10.784-3.616 19.179-5.812 11.494-2.584 20.599-5.489 27.316-8.718 6.844-3.228 11.881-7.297 15.111-12.205 3.228-4.908 4.843-11.171 4.843-18.792 0-8.395-2.325-15.692-6.974-21.891-4.521-6.071-10.979-10.72-19.373-13.949-8.267-3.228-17.888-4.843-28.866-4.843zM632.227 51.684c-14.207 0-25.572 3.94-34.096 11.818-8.395 7.878-12.851 18.792-13.367 32.74l-0.194 7.749 0.194 7.749c0.516 13.949 4.972 24.862 13.367 32.74 8.524 7.878 19.889 11.818 34.096 11.818 10.203 0 18.792-1.809 25.766-5.424 7.103-3.616 12.334-8.072 15.692-13.367 3.487-5.166 5.359-10.139 5.618-14.917 0.129-1.291-0.324-2.39-1.356-3.293-0.905-0.904-2.002-1.356-3.293-1.356h-17.242c-1.421 0-2.455 0.259-3.1 0.775-0.646 0.646-1.292 1.744-1.937 3.293-1.937 4.908-4.521 8.459-7.749 10.655-3.1 2.196-7.104 3.293-12.011 3.293-6.587 0-11.754-2.066-15.498-6.199-3.617-4.133-5.555-10.461-5.812-18.986l-0.194-7.168 0.194-6.393c0.775-16.789 7.878-25.185 21.31-25.185 5.037 0 9.105 1.034 12.205 3.1 3.1 2.196 5.618 5.812 7.555 10.849 0.516 1.421 1.097 2.453 1.744 3.1 0.775 0.646 1.872 0.969 3.293 0.969h17.242c1.291 0 2.388-0.452 3.293-1.356 1.032-0.904 1.485-2.002 1.356-3.293-0.259-4.521-2.067-9.428-5.424-14.723-3.358-5.166-8.524-9.621-15.498-13.367s-15.692-5.618-26.154-5.618zM704.152 53.622c-1.292 0-2.39 0.452-3.293 1.356-0.905 0.904-1.356 2.002-1.356 3.293v91.247c0 1.421 0.451 2.584 1.356 3.487s2.001 1.356 3.293 1.356h15.886c1.42 0 2.582-0.452 3.487-1.356s1.356-2.066 1.356-3.487v-7.943c6.457 8.524 15.756 12.786 27.897 12.786h8.137c1.42 0 2.518-0.452 3.293-1.356 0.904-0.775 1.356-1.872 1.356-3.293v-14.142c0-1.291-0.452-2.39-1.356-3.293-0.775-0.904-1.874-1.356-3.293-1.356h-15.305c-6.071 0-10.849-1.744-14.336-5.231s-5.231-8.265-5.231-14.336v-53.082c0-1.291-0.452-2.39-1.356-3.293s-2.002-1.356-3.293-1.356h-17.242zM784.539 170.828c-1.291 0-2.39 0.452-3.293 1.356s-1.356 2.002-1.356 3.293v14.142c0 1.421 0.452 2.584 1.356 3.487s2.002 1.356 3.293 1.356h17.823c1.421 0 2.584-0.452 3.487-1.356s1.356-2.066 1.356-3.487v-14.142c0-1.291-0.516-2.39-1.55-3.293-0.904-0.904-2.002-1.356-3.293-1.356h-17.823zM785.314 53.622c-1.291 0-2.39 0.452-3.293 1.356s-1.356 2.002-1.356 3.293v91.44c0 1.421 0.452 2.518 1.356 3.293 0.904 0.904 2.002 1.356 3.293 1.356h16.467c1.291 0 2.39-0.452 3.293-1.356s1.356-2.002 1.356-3.293v-91.44c0-1.291-0.452-2.39-1.356-3.293s-2.002-1.356-3.293-1.356h-16.467zM836.778 16.813c-1.291 0-2.39 0.452-3.293 1.356-0.904 0.775-1.356 1.872-1.356 3.293v128.249c0 1.421 0.452 2.518 1.356 3.293 0.904 0.904 2.002 1.356 3.293 1.356h15.498c1.421 0 2.584-0.452 3.487-1.356s1.356-2.002 1.356-3.293v-7.749c6.846 9.558 17.113 14.336 30.803 14.336 13.045 0 23.054-4.133 30.028-12.399 6.974-8.137 10.72-19.114 11.236-32.934 0.129-1.55 0.194-3.875 0.194-6.974s-0.065-5.424-0.194-6.974c-0.387-13.561-4.133-24.539-11.236-32.934-6.974-8.265-16.983-12.399-30.028-12.399-12.915 0-22.795 4.584-29.641 13.755v-43.977c0-1.421-0.452-2.518-1.356-3.293-0.775-0.904-1.872-1.356-3.293-1.356h-16.854zM880.561 72.607c13.82 0 21.182 8.524 22.085 25.572 0.129 1.291 0.194 3.228 0.194 5.812s-0.065 4.521-0.194 5.812c-0.904 17.048-8.265 25.572-22.085 25.572-7.362 0-12.851-2.39-16.467-7.168s-5.553-10.59-5.812-17.436c-0.129-1.55-0.194-4.003-0.194-7.362s0.065-5.877 0.194-7.555c0.259-6.458 2.26-11.946 6.006-16.467s9.17-6.781 16.273-6.781zM995.898 53.622c-11.752 0-20.6 3.035-26.541 9.105-5.941 6.199-8.912 15.24-8.912 27.122v43.783h-15.305c-1.291 0-2.39 0.452-3.293 1.356s-1.356 2.002-1.356 3.293v11.43c0 1.291 0.452 2.39 1.356 3.293s2.002 1.356 3.293 1.356h15.305v32.159c0 1.421 0.452 2.518 1.356 3.293 0.904 0.904 2.002 1.356 3.293 1.356h16.080c1.421 0 2.518-0.452 3.293-1.356 0.904-0.775 1.356-1.872 1.356-3.293v-32.159h24.216c1.291 0 2.39-0.452 3.293-1.356s1.356-2.002 1.356-3.293v-11.43c0-1.291-0.452-2.39-1.356-3.293s-2.002-1.356-3.293-1.356h-24.216v-41.652c0-5.553 0.969-9.752 2.906-12.592s5.102-4.262 9.493-4.262h13.561c1.421 0 2.518-0.452 3.293-1.356 0.904-0.775 1.356-1.872 1.356-3.293v-12.205c0-1.291-0.452-2.39-1.356-3.293-0.775-0.904-1.872-1.356-3.293-1.356h-15.886z" />
<glyph unicode="&#xe91d;" d="M290.595 676.324v-193.73c0-15.285 12.39-27.676 27.676-27.676h387.473c15.285 0 27.676 12.39 27.676 27.676v387.473c0 15.285-12.39 27.676-27.676 27.676h-387.473c-15.285 0-27.676-12.391-27.676-27.676v-193.743zM647.452 693.968c11.243-2.809 19.823-7.805 27.696-15.955 4.082-4.359 10.122-12.302 10.614-14.198 0.138-0.554-19.117-13.492-30.789-20.736-0.415-0.277-2.11 1.543-4.013 4.359-5.694 8.303-11.665 11.88-20.805 12.509-13.423 0.913-22.141-6.116-22.002-17.851 0-3.446 0.484-5.48 1.896-8.303 2.954-6.116 8.441-9.77 25.655-17.228 31.702-13.63 45.264-22.625 53.691-35.425 9.41-14.267 11.527-37.044 5.134-53.981-7.030-18.418-24.458-30.928-48.986-35.079-7.59-1.335-25.586-1.128-33.737 0.346-17.782 3.162-34.65 11.949-45.056 23.476-4.082 4.497-12.018 16.239-11.527 17.090 0.208 0.277 2.041 1.405 4.082 2.602l16.446 9.479 12.731 7.382 2.671-3.944c3.722-5.694 11.88-13.492 16.799-16.093 14.128-7.452 33.529-6.393 43.084 2.179 4.082 3.722 5.763 7.59 5.763 13.284 0 5.134-0.623 7.382-3.3 11.243-3.446 4.912-10.475 9.064-30.443 17.712-22.846 9.839-32.685 15.955-41.68 25.655-5.203 5.625-10.122 14.62-12.163 22.141-1.688 6.255-2.11 21.933-0.775 28.257 4.705 22.141 21.366 37.466 45.409 42.032 7.805 1.474 25.946 0.913 33.598-0.982l0.007 0.028zM543.495 675.494l0.138-18.128h-57.635v-163.771h-40.766v163.771h-57.635v17.782l0.484 18.266c0.208 0.277 35.286 0.415 77.81 0.346l77.388-0.208 0.214-18.058z" />
<glyph unicode="&#xe91e;" d="M509 402.344c-0.869 0-1.609 0.305-2.218 0.913s-0.913 1.348-0.913 2.218v84.92c0 0.957 0.261 1.739 0.783 2.348 0.609 0.609 1.391 0.913 2.348 0.913h34.959c10.522 0 18.784-2.478 24.785-7.435s9.001-12.175 9.001-21.654c0-9.392-3-16.523-9.001-21.393-6.001-4.783-14.262-7.175-24.785-7.175h-19.176v-30.524c0-0.957-0.305-1.739-0.913-2.348-0.609-0.522-1.391-0.783-2.348-0.783h-12.523zM543.307 450.609c5.044 0 8.87 1.174 11.479 3.522 2.696 2.435 4.044 5.957 4.044 10.566 0 4.522-1.304 8.044-3.913 10.566-2.522 2.522-6.392 3.783-11.61 3.783h-18.784v-28.437h18.784zM608.715 401.039c-4.435 0-8.523 0.869-12.262 2.609-3.652 1.826-6.566 4.261-8.74 7.305-2.087 3.044-3.131 6.392-3.131 10.044 0 5.914 2.391 10.697 7.175 14.349s11.349 6.131 19.697 7.435l17.871 2.609v2.739c0 3.739-0.957 6.566-2.87 8.479s-4.957 2.87-9.131 2.87c-2.87 0-5.175-0.522-6.914-1.565s-3.174-2.131-4.305-3.261c-1.044-1.044-1.739-1.739-2.087-2.087-0.348-1.044-1.001-1.565-1.957-1.565h-10.175c-0.783 0-1.479 0.261-2.087 0.783-0.522 0.522-0.783 1.218-0.783 2.087 0.087 2.174 1.13 4.609 3.131 7.305 2.087 2.783 5.261 5.174 9.523 7.175 4.261 2.087 9.523 3.131 15.784 3.131 10.262 0 17.741-2.304 22.437-6.914s7.044-10.653 7.044-18.132v-40.96c0-0.869-0.305-1.609-0.913-2.218-0.522-0.609-1.261-0.913-2.218-0.913h-10.827c-0.87 0-1.609 0.305-2.218 0.913s-0.913 1.348-0.913 2.218v5.087c-1.914-2.783-4.609-5.087-8.088-6.914-3.479-1.739-7.827-2.609-13.045-2.609zM613.15 413.562c4.783 0 8.696 1.565 11.74 4.696s4.566 7.653 4.566 13.566v2.609l-13.045-2.087c-10.001-1.565-15.001-4.913-15.001-10.044 0-2.783 1.13-4.957 3.392-6.522 2.348-1.479 5.13-2.218 8.349-2.218zM666.278 481.264c-0.874 0-1.611 0.305-2.218 0.913-0.613 0.609-0.913 1.348-0.913 2.218v9.523c0 0.957 0.3 1.739 0.913 2.348 0.607 0.609 1.344 0.913 2.218 0.913h12.001c0.952 0 1.735-0.305 2.348-0.913 0.607-0.609 0.913-1.391 0.913-2.348v-9.523c0-0.869-0.352-1.609-1.044-2.218-0.613-0.609-1.35-0.913-2.218-0.913h-12.001zM666.8 402.344c-0.874 0-1.611 0.305-2.218 0.913-0.613 0.609-0.913 1.348-0.913 2.218v61.57c0 0.957 0.3 1.696 0.913 2.218 0.607 0.609 1.344 0.913 2.218 0.913h11.088c0.867 0 1.604-0.305 2.218-0.913 0.607-0.609 0.913-1.348 0.913-2.218v-61.57c0-0.869-0.307-1.609-0.913-2.218-0.613-0.609-1.35-0.913-2.218-0.913h-11.088zM701.323 402.344c-0.874 0-1.611 0.305-2.218 0.913-0.613 0.609-0.913 1.348-0.913 2.218v61.57c0 0.957 0.3 1.696 0.913 2.218 0.607 0.609 1.344 0.913 2.218 0.913h10.827c0.952 0 1.696-0.305 2.218-0.913 0.607-0.522 0.913-1.261 0.913-2.218v-5.348c5.303 6.522 12.562 9.783 21.784 9.783 7.996 0 14.349-2.609 19.045-7.827s7.044-12.392 7.044-21.524v-36.655c0-0.869-0.307-1.609-0.913-2.218-0.522-0.609-1.265-0.913-2.218-0.913h-11.74c-0.874 0-1.611 0.305-2.218 0.913-0.613 0.609-0.913 1.348-0.913 2.218v35.873c0 5.044-1.265 8.957-3.783 11.74-2.439 2.87-5.961 4.305-10.566 4.305-4.435 0-8.003-1.435-10.697-4.305-2.7-2.87-4.044-6.783-4.044-11.74v-35.873c0-0.869-0.307-1.609-0.913-2.218-0.522-0.609-1.265-0.913-2.218-0.913h-11.61zM809.736 402.344c-7.912 0-13.866 2.043-17.871 6.131-3.998 4.174-6.001 10.262-6.001 18.262v29.481h-10.305c-0.867 0-1.604 0.305-2.218 0.913-0.607 0.609-0.913 1.348-0.913 2.218v7.696c0 0.869 0.307 1.609 0.913 2.218 0.613 0.609 1.35 0.913 2.218 0.913h10.305v21.654c0 0.957 0.307 1.696 0.913 2.218 0.613 0.609 1.35 0.913 2.218 0.913h10.827c0.959 0 1.696-0.305 2.218-0.913 0.613-0.522 0.913-1.261 0.913-2.218v-21.654h16.306c0.874 0 1.611-0.305 2.218-0.913 0.613-0.609 0.913-1.348 0.913-2.218v-7.696c0-0.869-0.3-1.609-0.913-2.218-0.607-0.609-1.344-0.913-2.218-0.913h-16.306v-28.046c0-3.739 0.652-6.566 1.957-8.479s3.437-2.87 6.392-2.87h9.131c0.959 0 1.696-0.305 2.218-0.913 0.613-0.522 0.913-1.261 0.913-2.218v-8.218c0-0.869-0.3-1.609-0.913-2.218-0.522-0.609-1.259-0.913-2.218-0.913h-10.697zM837.743 481.264c-0.874 0-1.611 0.305-2.218 0.913-0.613 0.609-0.913 1.348-0.913 2.218v9.523c0 0.957 0.3 1.739 0.913 2.348 0.607 0.609 1.344 0.913 2.218 0.913h12.001c0.952 0 1.735-0.305 2.348-0.913 0.607-0.609 0.913-1.391 0.913-2.348v-9.523c0-0.869-0.352-1.609-1.044-2.218-0.613-0.609-1.35-0.913-2.218-0.913h-12.001zM838.265 402.344c-0.874 0-1.611 0.305-2.218 0.913-0.613 0.609-0.913 1.348-0.913 2.218v61.57c0 0.957 0.3 1.696 0.913 2.218 0.607 0.609 1.344 0.913 2.218 0.913h11.088c0.867 0 1.604-0.305 2.218-0.913 0.607-0.609 0.913-1.348 0.913-2.218v-61.57c0-0.869-0.307-1.609-0.913-2.218-0.613-0.609-1.35-0.913-2.218-0.913h-11.088zM872.787 402.344c-0.874 0-1.611 0.305-2.218 0.913-0.613 0.609-0.913 1.348-0.913 2.218v61.57c0 0.957 0.3 1.696 0.913 2.218 0.607 0.609 1.344 0.913 2.218 0.913h10.827c0.952 0 1.696-0.305 2.218-0.913 0.607-0.522 0.913-1.261 0.913-2.218v-5.348c5.303 6.522 12.562 9.783 21.784 9.783 7.996 0 14.349-2.609 19.045-7.827s7.044-12.392 7.044-21.524v-36.655c0-0.869-0.307-1.609-0.913-2.218-0.522-0.609-1.265-0.913-2.218-0.913h-11.74c-0.874 0-1.611 0.305-2.218 0.913-0.613 0.609-0.913 1.348-0.913 2.218v35.873c0 5.044-1.265 8.957-3.783 11.74-2.439 2.87-5.961 4.305-10.566 4.305-4.435 0-8.003-1.435-10.697-4.305-2.7-2.87-4.044-6.783-4.044-11.74v-35.873c0-0.869-0.307-1.609-0.913-2.218-0.522-0.609-1.265-0.913-2.218-0.913h-11.61zM981.84 373.646c-7.742 0-14.003 1.304-18.784 3.913-4.787 2.522-8.179 5.435-10.175 8.74-2.002 3.305-3 6.131-3 8.479 0 0.869 0.3 1.609 0.913 2.218 0.607 0.522 1.344 0.783 2.218 0.783h11.61c0.783 0 1.435-0.174 1.957-0.522 0.607-0.435 1.083-1.174 1.435-2.218 0.952-2.261 2.387-4.174 4.305-5.74 1.911-1.652 4.866-2.478 8.87-2.478 5.218 0 9.040 1.174 11.479 3.522 2.433 2.261 3.652 6.261 3.652 12.001v8.87c-4.696-5.565-11.349-8.349-19.958-8.349-9.046 0-15.875 2.739-20.48 8.218-4.526 5.479-6.959 12.958-7.305 22.437l-0.13 3.522 0.13 3.522c0.346 9.305 2.824 16.784 7.435 22.437 4.605 5.653 11.388 8.479 20.35 8.479 4.605 0 8.649-0.869 12.131-2.609 3.476-1.739 6.346-4.088 8.609-7.044v5.087c0 0.957 0.3 1.739 0.913 2.348 0.691 0.609 1.474 0.913 2.348 0.913h10.697c0.867 0 1.604-0.305 2.218-0.913 0.607-0.609 0.913-1.391 0.913-2.348l0.13-62.875c0-9.653-2.7-17.132-8.088-22.437-5.394-5.305-13.527-7.957-24.393-7.957zM981.318 416.693c4.866 0 8.518 1.565 10.957 4.696 2.433 3.131 3.783 6.957 4.044 11.479 0.085 0.696 0.13 2.087 0.13 4.174s-0.046 3.478-0.13 4.174c-0.261 4.522-1.611 8.349-4.044 11.479-2.439 3.131-6.092 4.696-10.957 4.696-9.392 0-14.349-5.74-14.871-17.219l-0.13-3.131c0-13.566 4.996-20.35 15.001-20.35z" />
<glyph unicode="&#xe91f;" d="M313.070 448c0-86.452-70.083-156.535-156.535-156.535s-156.535 70.083-156.535 156.535c0 86.452 70.083 156.535 156.535 156.535s156.535-70.083 156.535-156.535z" />
<glyph unicode="&#xe920;" d="M137.587 430.645c-0.845 2.027-2.831 3.345-5.027 3.339-2.198-0.007-4.174-1.336-5.008-3.368l-7.041-17.461-2.073-4.986c-1.957-4.751-1.563-10.144 1.062-14.561 2.406-4.135 6.641-6.872 11.399-7.368 0.557-0.058 1.117-0.087 1.677-0.087 0.558 0 1.117 0.029 1.672 0.086 4.761 0.494 8.999 3.231 11.406 7.369 2.626 4.416 3.019 9.81 1.061 14.561l-9.127 22.476zM140.985 396.388c-1.534-2.657-4.245-4.421-7.294-4.747-0.744-0.077-1.493-0.077-2.236 0-3.048 0.327-5.756 2.092-7.291 4.747-1.75 2.939-2.014 6.532-0.712 9.697l9.111 22.501 7.063-17.516 2.073-4.985c1.302-3.165 1.038-6.758-0.714-9.697z" />
<glyph unicode="&#xe921;" d="M94.56 440.461c-1.499 0-2.715-1.216-2.715-2.716v-2.716c0-1.499 1.216-2.715 2.715-2.715s2.716 1.216 2.716 2.715v2.716c0 1.5-1.216 2.716-2.716 2.716z" />
<glyph unicode="&#xe922;" d="M94.56 426.883c-1.499 0-2.715-1.216-2.715-2.716v-35.3c0-1.5 1.216-2.716 2.715-2.716s2.716 1.216 2.716 2.716v35.3c0 1.5-1.216 2.716-2.716 2.716z" />
<glyph unicode="&#xe923;" d="M226.013 444.597c-6.652 3.422-12.407 6.456-14.491 13.138l12.383 12.383c1.018 1.018 1.591 2.4 1.591 3.84s-0.573 2.822-1.591 3.84l-17.28 17.281c-1.266 1.267-3.076 1.825-4.836 1.495l-23.724 33.891c-0.921 1.316-2.375 2.157-3.975 2.297s-3.178-0.434-4.314-1.571l-30.824-30.824c-1.709-1.717-2.078-4.358-0.907-6.478l3.99-7.183-7.182 3.992c-2.122 1.167-4.759 0.797-6.479-0.909l-7.782-7.784c-0.336-0.345-0.625-0.734-0.858-1.156-11.814-0.648-41.464-3.269-41.464-13.238v-10.862c0.089-1.956 1.096-3.755 2.716-4.854v-68.973c0.016-0.154 0.047-0.305 0.092-0.455l0.007-0.037c0.037-0.243 0.106-0.479 0.206-0.702 3.257-9.317 33.184-11.874 51.287-11.874 19.163 0 51.593 2.86 51.593 13.577v46.946l9.879 9.879c6.68-2.084 9.716-7.838 13.138-14.491 1.786-3.838 4.020-7.451 6.652-10.766 2.391-2.782 5.841-4.427 9.506-4.536 0.167-0.005 0.334-0.009 0.501-0.009 3.637 0.004 7.125 1.447 9.699 4.016l3.767 3.765c2.69 2.698 4.142 6.391 4.006 10.2-0.107 3.665-1.754 7.115-4.534 9.504-3.316 2.634-6.93 4.867-10.768 6.653zM220.066 473.961l-42.243-42.244-17.28 17.281 42.243 42.242 17.28-17.279zM85.301 455.491c-0.617 0.305-1.163 0.737-1.6 1.268l-0.003-0.001v4.249c1.072-0.526 2.175-0.984 3.303-1.372l0.119-0.040 0.008-0.004c9.598-3.476 26.567-5.553 45.447-5.553 5.397 0 10.792 0.197 16.070 0.552l6.565-4.596c-0.016-0.078-0.012-0.159-0.023-0.239-7.513-0.77-15.060-1.152-22.612-1.148-21.050 0-40.476 2.825-47.275 6.885zM133.94 464.883l7.488-5.241c-2.938-0.111-5.894-0.174-8.852-0.174-11.338-0.098-22.664 0.81-33.843 2.716 11.179 1.904 22.505 2.813 33.843 2.714 0.464-0.007 0.912-0.011 1.363-0.015h0.001zM132.213 485.952l15.49-8.606c1.061-0.59 2.383-0.404 3.24 0.453 0.857 0.858 1.043 2.181 0.453 3.24l-8.605 15.491 11.81 11.809 17.296-20.757c0.613-0.771 1.596-1.149 2.567-0.988 0.972 0.16 1.781 0.834 2.113 1.76s0.139 1.961-0.508 2.703l-17.613 21.137 15.158 15.158 23.718-33.885-39.020-39.020-33.883 23.719 7.784 7.784zM119.758 475.403c0.393-0.666 0.924-1.241 1.557-1.685l4.96-3.471c-15.779-0.394-29.684-2.262-38.283-5.177-1.603 0.479-3.073 1.322-4.294 2.464v0.014c0.828 2.163 12.208 6.551 36.060 7.855zM132.575 375.289c-28.745 0-45.301 5.315-46.162 8.178v65.532c9.364-3.591 26.638-5.823 46.162-5.823 8.275-0.012 16.542 0.436 24.766 1.342l16.641-16.64c1.016-1.023 2.398-1.595 3.84-1.591 0.307 0.004 0.613 0.034 0.915 0.090v-42.903c-0.834-2.861-17.392-8.184-46.163-8.184zM233.469 422.079l-3.766-3.766c-1.631-1.621-3.861-2.496-6.16-2.417-2.154 0.058-4.185 1.021-5.594 2.652-2.347 2.995-4.339 6.252-5.936 9.706-3.144 6.114-6.641 12.913-13.731 16.242l9.002 9.003c3.33-7.091 10.127-10.586 16.242-13.732 3.454-1.597 6.711-3.589 9.706-5.936 1.631-1.409 2.594-3.439 2.654-5.593 0.080-2.3-0.794-4.53-2.418-6.16z" />
<glyph unicode="&#xe924;" d="M172.063 452.84l-1.92-1.92c-0.704-0.682-0.984-1.691-0.735-2.639s0.988-1.689 1.936-1.937c0.948-0.249 1.957 0.033 2.639 0.735l1.921 1.92c1.038 1.065 1.027 2.765-0.024 3.816s-2.752 1.062-3.816 0.024z" />
<glyph unicode="&#xe925;" d="M200.864 481.64l-21.119-21.12c-0.704-0.682-0.985-1.691-0.736-2.639s0.989-1.688 1.937-1.937c0.948-0.249 1.956 0.033 2.639 0.736l21.119 21.122c0.702 0.682 0.985 1.691 0.736 2.639s-0.989 1.688-1.937 1.936c-0.948 0.249-1.957-0.031-2.639-0.736z" />
<glyph unicode="&#xe926;" d="M884.915 466.56c0-202.877-159.795-367.341-356.922-367.341-197.117 0-356.912 164.464-356.912 367.341 0 202.881 159.795 367.346 356.912 367.346 197.126 0 356.922-164.469 356.922-367.349z" />
<glyph unicode="&#xe927;" d="M283.547 717.153c-62.622-64.472-101.373-153.489-101.373-251.969 0-98.448 38.751-187.478 101.373-251.946 62.654-64.454 148.997-104.234 244.456-104.234s181.808 39.776 244.461 104.234c62.614 64.464 101.373 153.491 101.373 251.946 0 98.48-38.762 187.497-101.373 251.969-62.653 64.446-148.998 104.219-244.461 104.229-95.459-0.006-181.802-39.783-244.456-104.229zM267.701 197.648c-66.554 68.486-107.701 163.13-107.701 267.536 0 104.422 41.147 199.062 107.694 267.553 66.539 68.508 158.642 110.964 260.302 110.95 101.664 0.013 193.776-42.443 260.301-110.95 66.563-68.491 107.715-163.14 107.702-267.553 0.010-104.403-41.139-199.046-107.702-267.536-66.525-68.499-158.637-110.957-260.301-110.957-101.658 0-193.763 42.458-260.296 110.957z" />
<glyph unicode="&#xe928;" d="M678.25 464.522l-54.394-8.208-73.421-8.211-47.59-1.366-46.23 1.366-35.35 10.947-31.27 34.202-24.477 69.776-5.44 15.053-32.63 10.941-19.036 31.469-13.598 45.148 14.956 39.678 35.355 12.313 28.554-13.686 13.594-30.097 16.317 2.739 5.44 6.836-5.44 31.469-1.357 39.678 8.157 54.723-0.317 31.259 24.79 39.879 43.51 31.469 76.141 32.835 84.304-12.313 73.424-53.357 33.99-54.727 21.76-39.675 5.434-98.506-16.314-84.828-29.914-75.245-28.554-39.677z" />
<glyph unicode="&#xe929;" d="M631.987 227.834l-194.435-8.211v-32.835l16.317-114.922-8.157-9.581-135.971 46.518-9.516 16.419-13.598 154.598-31.272 93.034-6.801 21.888 108.777 75.245 33.99 13.683 29.917-36.938 25.834-23.261 29.91-9.574 13.6-4.106 16.314-71.142 12.24-15.050 31.27 10.944-21.754-42.413 118.294-56.093-14.96-8.208z" />
<glyph unicode="&#xe92a;" d="M309.765 705.313l35.355 12.313 28.554-13.686 13.594-30.097 16.317 2.739 4.080 16.418-8.16 31.463 8.16 75.252-6.803 41.044 24.477 28.731 53.027 42.41-14.954 20.522-74.787-36.94-31.267-24.627-17.677-38.306-27.194-36.94-8.158-43.783 5.437-46.515z" />
<glyph unicode="&#xe92b;" d="M365.514 833.921c0 0 20.397 50.619 101.978 75.245s4.080 17.79 4.080 17.79l-88.384-34.211-33.99-34.198-14.957-27.365 31.274 2.739zM324.723 714.893c0 0-28.553 95.771 80.218 109.453l-4.080 16.418-74.781-17.79-21.752-71.141 5.437-46.515 14.958 9.575z" />
<glyph unicode="&#xe92c;" d="M368.227 587.651l17.805 17.357c0 0 8.032-0.938 9.389-10.512 1.36-9.584 5.437-95.776 63.91-142.294 5.328-4.243-43.514 6.848-43.514 6.848l-43.514 68.4-4.077 60.202zM618.419 613.645c0 0 3.174 41.47 14.275 38.282 11.098-3.188 11.098-14.359 11.098-14.359s-26.957-17.546-25.373-23.923zM731.27 765.508c0 0-22.419-4.761-24.474-24.627-2.067-19.869 24.474-4.104 28.554-2.732l-4.080 27.358zM566.746 764.138c0 0-29.91-4.104-29.91-23.257 0-19.149 33.99-17.787 43.514-9.578l-13.603 32.836zM381.827 675.21c0 0-51.67 31.469-57.107 1.372-5.443-30.103-17.68-51.991 8.16-83.46l-17.682 5.475-16.316 42.411-5.436 41.044 31.275 32.839 35.347-2.739 20.397-16.418 1.363-20.522v-0.003zM406.301 761.403c0 0 23.11 120.4 140.048 143.654 96.275 19.146 146.842-4.104 165.885-25.992 0 0-85.661 102.607-167.242 71.141-81.584-31.463-141.411-88.925-140.054-125.864 2.317-62.912 1.363-62.939 1.363-62.939zM721.754 865.386c0 0-39.427 1.366-40.794-34.208 0 0-0.003-5.47 2.723-10.941 0 0 31.277 35.571 50.307 16.418z" />
<glyph unicode="&#xe92d;" d="M549.069 816.536c0 0-6.787 54.602-53.034 22.857-29.907-20.522-27.187-49.253-21.754-54.724 5.443-5.477 3.962-16.496 8.102-8.931 4.134 7.565 2.771 32.192 17.731 39.028 14.947 6.843 39.459 14.484 48.954 1.77z" />
<glyph unicode="&#xe92e;" d="M421.229 446.746l-127.808-57.462c0 0 53.027-212.064 25.832-277.734l-19.031 6.835-1.364 80.723-35.348 153.229-14.959 42.416 133.251 90.294 39.427-38.301zM434.374 329.45l18.131-22.256v-82.086h-21.754c0 0-2.723 57.459-2.723 64.301 0 6.838 2.723 31.466 2.723 31.466l3.622 8.576zM434.832 212.787l-61.187-2.733 17.674-12.314 43.514-6.838z" />
<glyph unicode="&#xe92f;" d="M644.25 226.474l50.298 1.37 12.234-125.869-51.654-6.838-10.877 131.338z" />
<glyph unicode="&#xe930;" d="M657.846 226.461l76.141 4.102c0 0 31.274 79.354 31.274 83.459 0 4.102 27.197 114.922 27.197 114.922l-61.187 64.301-12.237 10.944-32.634-32.835v-127.238l-28.554-117.654z" />
<glyph unicode="&#xe931;" d="M691.837 236.038l-47.59-9.578 6.8-38.314c17.674-8.208 47.59 13.686 47.59 13.686l-6.8 34.205zM693.197 475.456l95.184-71.142 2.717 32.835-72.061 67.040-25.84-28.733z" />
<glyph unicode="&#xe932;" d="M482.045-43.072l-28.15 114.944-14 84.81-2.317 62.95 127.408 6.822 79.264 0.013-7.2-143.667 12.237-110.819-1.363-20.522-103.331-8.208-62.547 13.677z" />
<glyph unicode="&#xe933;" d="M626.573 227.837c0 0-6.803-142.285 13.594-243.53 0 0-40.79-25.997-100.621-32.835l114.218 4.106 13.6 8.208-16.317 224.371-4.080 47.891z" />
<glyph unicode="&#xe934;" d="M709.114 112.902l53.027 15.053 100.618 5.469 14.957 46.522-27.197 80.717-31.267 4.102-43.514-13.677-41.747-20.512-22.16 4.093-17.27-6.826z" />
<glyph unicode="&#xe935;" d="M708.157 140.272c0 0 35.347 16.416 40.79 15.046l-14.96 75.251 17.677 6.835c0 0 12.24-71.139 12.24-79.347 0 0 76.141-4.106 82.941-4.106 0 0 16.317 31.466 12.237 64.301l14.957-43.779 1.36-24.627-21.757-32.835-24.474-5.472-40.79 1.37-13.6 17.782-47.584-6.835-14.957-5.478z" />
<glyph unicode="&#xe936;" d="M654.704 237.395l-29.904 76.611-31.264 45.149c0 0 6.794 19.158 16.31 19.158h31.267l29.901-10.947-2.714-50.621-13.597-79.35z" />
<glyph unicode="&#xe937;" d="M660.547 263.402c0 0-38.058 73.875-38.058 84.819 0 0 6.794 16.416 16.31 12.314 9.514-4.106 29.904-15.046 29.904-15.046v25.994l-46.214 9.581-31.267-4.106 53.014-125.869 10.874-1.373z" />
<glyph unicode="&#xe938;" d="M494.259 443.978l-37.658 4.122-35.344 10.947v-12.314l17.27-19.168 54.374-24.627z" />
<glyph unicode="&#xe939;" d="M433.504 439.891c0 0 42.134-17.789 55.734-13.683l1.347-16.4-38.051 8.192-23.107 16.416 4.077 5.475z" />
<glyph unicode="&#xe93a;" d="M708.944 373.664c-23.066 0.682-43.901 3.44-62.147 8.618 1.242 7.53-1.082 14.918 0.784 20.342 5.082 3.686 13.61 3.629 21.293 4.493-6.65 3.29-15.984 4.586-23.654 2.691-0.182 5.226-2.512 8.461-3.923 12.55 12.97 4.662 43.581 35.2 60.803 25.085 8.205-4.81 11.693-32.282 12.33-45.638 0.531-11.091-0.995-22.272-5.482-28.141z" />
<glyph unicode="&#xe93b;" d="M598.611 411.606c-0.061-1.757-0.138-3.526-0.205-5.299-7.2-4.762-18.826-4.704-26.733-8.704 11.654-0.515 20.822-3.338 28.758-7.322l-0.512-13.27c-13.2-9.094-25.258-22.64-40.8-31.171-7.35-4.035-33.142-14.416-40.957-12.579-4.422 1.034-4.822 6.557-6.592 11.77-3.766 11.146-12.442 28.893-13.203 45.69-0.957 21.2-3.088 56.733 19.616 52.365 18.314-3.514 39.619-12.006 53.798-19.805 8.666-4.762 13.68-10.656 26.829-11.674z" />
<glyph unicode="&#xe93c;" d="M611.754 386.31c-2.022 11.546-4.349 14.845-3.45 24.925 30.611 20.534 36.355-35.283 3.446-24.925z" />
<glyph unicode="&#xe93d;" d="M611.754 386.31c-2.022 11.546-4.349 14.845-3.45 24.925 30.611 20.534 36.355-35.283 3.446-24.925h0.003z" />
<glyph unicode="&#xe93e;" d="M656.077 376.944c0 0-9.517 13.68-2.714 17.786 6.794 4.106 13.597-0.003 17.677 6.838 4.080 6.838 0 10.941 1.357 19.152 1.366 8.208 8.17 9.581 14.96 10.947 6.797 1.366 25.84 4.102 28.554-2.739l-8.157 24.627-16.317 5.475-51.67-30.102-2.717-15.046v-30.102l19.027-6.835zM513.312 331.795c-1.635 21.347-3.363 42.672-5.286 64.003-2.877 31.85 7.603 26.294 35.043 26.294 4.189 0 25.802-5.030 27.35-8.211 7.414-15.242-12.403-11.853 8.544-23.344 17.674-9.699 48.912 5.888 41.766 27.45-3.997 4.794-20.829 1.494-26.858 4.637l-31.866 16.624c-13.517 7.059-44.752 17.338-59.165 7.478-36.506-24.986 2.307-87.405 15.331-113.469z" />
<glyph unicode="&#xe93f;" d="M549.091 816.541c-37.059 8.685-55.472-15.607-66.704-40.798-10.032 2.446-6.038 16.172-3.504 23.165 6.634 18.355 33.366 42.788 55.206 39.475 9.398-1.422 22.118-10.070 15.002-21.842zM729.661 774.075l1.76-0.066c8.371-17.508 15.619-36.053 26.179-51.506-7.072-16.585-53.584-31.262-52.87-1.481 10.058 4.423 27.421 0.903 36.339 6.554-5.152 14.237-12.592 26.36-11.408 46.498zM568.067 773.622c7.946-14.658 10.534-30.058 21.827-41.136 5.088-4.988 14.979-11.065 10.074-24.935-1.146-3.27-9.517-10.563-14.358-11.995-17.658-5.244-58.803-1.084-44.87 21.071 14.611-0.686 34.234-9.542 45.149 1.12-8.378 13.485-23.318 40.157-17.821 55.876zM723.030 624.656c-26.586-17.19-56.234-35.875-99.798-31.539-9.309 8.144-12.858 26.266-3.814 38.234 4.71-8.144 1.75-23.12 14.867-25.376 24.72-4.256 53.491 15.216 71.277 22.026 11.021 18.704-0.957 25.583-10.886 37.62-20.33 24.666-47.61 55.236-46.621 92.159 8.221 5.996 8.928-9.154 10.109-11.913 10.618-25.001 37.338-56.982 56.842-78.381 4.787-5.27 12.672-10.327 13.549-13.811 2.531-10.14-6.579-22.279-5.52-29.019h-0.003zM372.522 642.747c-8.33 4.788-10.317 25.868-20.099 26.465-13.978 0.857-11.43-27.342-11.376-43.836-9.622 8.787-11.315 35.86-4.246 49.76-8.061 3.98-11.661-4.393-16.125-7.342 5.744 41.987 61.043 19.471 51.85-25.047h-0.003zM739.958 607.171c-12.374-23.706-29.882-49.808-66.198-50.566-0.736 7.651-1.306 19.302 0.042 23.917 27.763 2.678 44.902 16.896 66.157 26.65zM565.974 591.802c23.162-12.259 65.731-13.574 97.213-12.643 1.686-6.941 1.648-15.514 1.715-23.981-40.474-2.029-88.317 8.045-98.928 36.624zM561.571 568.95c16.019-40.467 71.069-35.808 117.491-34.691-2.042-5.254-6.474-11.459-11.978-13.706-14.88-6.090-55.91-10.71-76.566 0.33-13.098 7.002-21.507 22.832-28.688 32.112-3.462 4.483-20.72 15.933-0.259 15.958z" />
<glyph unicode="&#xe940;" d="M721.082 345.738c-18.794-32.39-36.768-65.664-59.066-94.237 9.347 27.664 13.347 73.955 14.758 109.251 19.555 9.206 36.298-2.077 44.307-15.014z" />
<glyph unicode="&#xe941;" d="M822.227 229.312c-21.040-4.24-35.821-24.819-56.346-23.498 11.28 16.006 31.046 22.752 56.346 23.498zM831.507 196.176c-17.146-1.83-37.286-4.621-54.678-3.181 8.23 12.659 39.952 8.291 54.678 3.181zM837.45 167.603c-19.27-0.422-43.226-0.035-61.539 1.51 10.832 11.715 49.040 4.349 61.539-1.51z" />
<glyph unicode="&#xe942;" d="M684.819 89.424c2.758-24.362 12.355-49.043 11.155-75.722-10.653-3.616-16.778-6.781-31.056-6.765-1.008 22.675-4.022 57.338-3.12 78.954 7.024-0.47 17.379 5.046 23.021 3.533z" />
<glyph unicode="&#xe943;" d="M653.725 448.435c-9.677-6.358-17.917-14.301-27.213-21.088-20.611-1.027-31.856 1.434-46.995 13.347 0.246 0.954 1.766 0.525 1.827 1.702 22.058-9.891 50.106 4.038 72.381 6.042z" />
<glyph unicode="&#xe944;" d="M537.901 297.078c6.064 26.432 29.811 40.125 51.379 54.688 22.262-28.435 35.802-65.008 50.71-100.298-35.226 10.688-71.216 28.029-102.090 45.61z" />
<glyph unicode="&#xe945;" d="M661.779 85.882c-0.899-21.616 2.112-56.275 3.12-78.954 14.288-0.019 20.406 3.142 31.066 6.765 1.206 26.678-8.397 51.363-11.158 75.722-5.645 1.514-16-4.003-23.027-3.533zM439.414 208.803c9.418-87.107 23.056-160.33 48.067-237.469 55.53-16.96 122.458-18.438 171.533-3.133-9.005 43.536-5.072 96.538-10.336 142.998-3.971 34.922-1.946 70.054-7.389 105.683-59.466 12.445-143.517 2.906-201.875-8.080zM655.344 216.326c-0.499-37.405 1.664-74.307 4.506-111.763 14.278 2.154 23.968 3.594 37.226 6.518-4.304 36.061-3.776 76.64-12.55 108.538-10.134-0.093-19.066 0.118-29.178-3.293h-0.003zM727.773 222.362c-6.778 1.562-14.666 0.064-21.139-0.064 3.043-30.499 10.426-64.154 13.024-96.163 10.189-0.317 15.629 4.515 24.006 6.141 0.448 28.099-2.448 66.813-15.891 90.086zM837.434 121.546c21.232 5.184 34.579 31.35 28.643 58.227-3.984 18.058-11.082 52.061-18.678 63.616-5.613 8.538-20.829 19.728-32.982 11.904-19.77-12.739-54.595-16.435-69.005-31.85 7.229-24.218 9.469-57.478 12.451-88.163 24.694-1.555 55.075 6.835 75.613-2.070-14.336-4.669-32.941-4.704-45.325-11.514 10.125-4.918 33.827-3.926 49.283-0.15zM639.994 251.469c-14.912 35.286-28.458 71.859-50.723 100.294-21.574-14.563-45.331-28.253-51.392-54.688 30.88-17.581 66.88-34.922 102.115-45.606zM676.755 360.742c-1.414-35.29-5.414-81.584-14.762-109.242 22.301 28.566 40.285 61.837 59.078 94.23-8.010 12.944-24.758 24.227-44.317 15.014v-0.003zM635.082 375.645c-8.448 0.918-15.616-9.773-26.608-5.149-2.512-2.8-4.8-5.837-7.363-8.57 24.262-29.421 35.283-71.162 54.026-105.741 10.054 33.213 8.896 69.597 11.11 105.85-13.814-0.877-21.482 12.576-31.165 13.61zM608.288 411.232c-0.902-10.077 1.427-13.379 3.446-24.928 32.912-10.352 27.168 45.466-3.446 24.925v0.003zM571.782 423.29c-14.182 7.798-35.494 16.294-53.814 19.808-22.71 4.374-20.579-31.171-19.616-52.368 0.758-16.794 9.43-34.544 13.203-45.693 1.773-5.206 2.166-10.733 6.592-11.766 7.818-1.834 33.616 8.547 40.97 12.582 15.546 8.528 27.61 22.070 40.813 31.168 0.173 4.426 0.339 8.848 0.515 13.274-7.939 3.974-17.114 6.803-28.768 7.315 7.904 4.006 19.536 3.949 26.739 8.71 0.067 1.773 0.141 3.536 0.205 5.296-13.155 1.011-18.166 6.906-26.838 11.674zM436.304 448.054c-11.773-12.026 33.014-28.413 47.283-29.302-0.083 7.616 4.307 14.784 3.424 20.243-16.941 2.992-39.2 1.018-50.71 9.059h0.003zM581.325 442.41c-0.061-1.178-1.581-0.749-1.827-1.709 15.142-11.91 26.397-14.371 47.011-13.344 9.296 6.787 17.539 14.726 27.216 21.085-22.285-2-50.336-15.93-72.4-6.032zM714.432 401.792c-0.637 13.363-4.125 40.832-12.33 45.638-17.229 10.125-47.846-20.422-60.819-25.085 1.411-4.083 3.741-7.322 3.917-12.55 7.674 1.898 17.018 0.602 23.664-2.691-7.683-0.864-16.214-0.81-21.299-4.49-1.866-5.421 0.458-12.81-0.784-20.342 18.25-5.181 39.094-7.939 62.166-8.618 4.483 5.878 6.013 17.059 5.482 28.141l0.003-0.003zM416.486 436.422c-3.693 2.653-28.704 35.392-32.125 34.032-45.254-17.955-87.565-49.008-125.379-78.374 36.052-77.834 50.606-173.197 53.175-265.104 41.296-19.44 77.571-47.456 133.612-50.381-6.49 46.166-12.413 87.357-16.090 130.819-14.080 5.978-34.282-0.269-47.456 1.856-0.109 15.974 20.128 7.002 21.811 17.741 1.267 8.128-11.139 8.742-7.098 21.539 10.304-3.77 15.712-12.086 26.694-15.216 10.042 22.099-0.134 61.2 1.306 79.67 0.275 3.466 1.725 19.206 9.443 16.451 6.832-2.445-0.39-41.875 0.358-59.357 0.682-16.106-1.936-31.686 4.547-41.802 54.154 7.421 109.181 12.214 167.773 13.83-12.89 5.568-28.202 10.829-44.992 20.352-9.104 5.162-37.795 15.907-40.422 24.605-4.186 13.859 10.995 21.245 13.594 33.126-27.334-15.005-32.669 14.374-39.133 35.187-5.859 18.851-9.197 32.934-10.634 43.805-23.546 11.296-48.72 22.736-68.986 37.219zM690.515 466.496c37.706 18.394 44.499-68.755 29.718-96.829 2.285-8.371 10.144-11.578 13.347-19.107-21.037-37.923-44.406-73.328-65.875-110.803 15.971 10.006 38.781 1.792 57.574 9.274 6.87 2.736 11.84 18.557 17.040 31.213 14.307 34.829 29.322 78.733 36.006 111.968 1.507 7.571 5.619 24.070 4.701 30.81-1.645 12.067-17.917 21.014-26.192 28.477-15.248 13.782-24.848 25.907-40.758 38.794-6.445-9.571-20.288-16.006-25.562-23.795zM330.259 802.924c-17.972-19.885-14.209-57.16-12.032-83.674 32.477 20.562 75.575-1.619 75.165-36.585 15.504 0.417 5.792 19.488 2.989 31.771-9.162 40.125 15.443 83.717 1.117 120.411-27.811-2.124-50.662-13.554-67.238-31.923zM458.806 918.363c-40.669-11.597-92.797-41.333-109.507-78.099 12.944 1.894 21.923 8.462 34.688 9.273 4.832 0.315 11.149-2.033 16.691-0.647 11.050 2.758 20.374 27.687 28.71 36.963 8.128 9.059 17.898 12.931 24.582 21.189 4.291 2.085 10.643 1.937 10.886 8.429-1.862 2.003-3.824 3.53-6.051 2.893zM670.522 907.455c-42.214 23.96-113.667 41.986-158.57 19.468-36.234-18.184-85.213-48.258-101.914-86.37 15.6-36.786-4.621-70.484-5.91-107.825-0.685-19.866 9.299-37.212 10.061-58.841-5.341-8.866-21.645-9.956-32.934-9.348-3.798 19.133-10.451 40.64-30.035 42.801-27.709 3.051-47.964-20.026-49.227-44.14-1.491-28.358 21.646-75.356 54.437-72.095 12.662 1.261 15.782 14.035 29.581 13.904 7.478-15.018-11.539-19.734-13.498-30.474-0.509-2.774 1.578-13.619 2.79-18.707 5.955-24.758 19.232-56.803 32.301-75.658 16.586-23.917 49.178-27.517 84.24-29.862 6.259 13.574 29.325 12.454 44.355 8.902-18.013 7.181-34.758 24.586-48.637 39.987-15.942 17.67-32.090 36.63-32.906 59.731 30.128-42.051 55.021-78.787 109.798-97.28 41.453-13.99 89.862 6.41 121.706 28.915 13.216 9.357 21.107 24.198 30.499 37.782 35.146 50.874 51.549 123.493 47.946 193.869-1.485 29.030-1.421 57.954-11.098 77.482-10.115 20.423-44.333 38.69-64.362 20.22-3.709 19.856 16.656 32.143 40.579 24.991-17.053 22.164-34.957 48.78-59.203 62.548zM749.171 252.525c32.989 16.499 94.621 44.413 115.302-0.064 7.632-16.394 16.586-44.102 20.541-61.030 5.578-23.872-6.054-74.058-30.448-82.067-21.536-7.075-46.675-6.65-72.621-1.398-3.053 2.557-6.458 7.011-8.835 11.658-18.528 0.723-35.878-1.005-50.512-8.666 1.386-13.782-7.882-15.997-16.57-18.835-6.442-25.699 12.886-59.261 8.259-82.694-3.299-16.691-23.709-19.274-38.714-22.397-0.49-9.277 0.659-17.021 1.68-24.867-3.427-12.723-18.816-19.962-33.398-21.734-47.962-5.795-120.794-8.406-166.928 8.291-12.874 31.776-23.018 70.432-33.741 106.707-44.998-4.835-81.392 19.536-115.699 35.501-11.878 5.542-28.316 8.598-32.747 18.109-4.304 9.216-2.545 26.867-3.612 43.546-2.715 42.589-5.042 83.674-16.219 127.28-5.019 19.571-13.771 36.842-19.873 55.696-5.639 17.475-15.491 39.075-18.065 56.499-3.808 25.83 20.359 27.267 35.814 38.461 23.897 17.306 42.651 26.88 68.526 42.499 7.664 4.63 30.771 16.336 33.402 21.731 5.226 10.691-8.97 25.763-12.765 34.147-6.006 13.251-9.136 24.512-9.997 37.594-21.706 3.446-38.16 16.451-48.1 31.104-16.444 24.256-27.849 69.136-13.621 103.275 1.116 2.686 6.683 7.972 7.505 12.1 1.615 8.13-3.051 18.946-3.338 27.591-1.494 44.367 7.46 82.594 37.144 95.978 12.051 48.307 55.181 64.367 95.818 88.373 15.19 8.974 31.936 14.707 49.229 21.11 62.035 22.972 157.213 18.647 208.701-20.535 21.83-16.615 56.723-51.696 69.206-77.094 32.97-67.050 30.624-179.117 7.571-260.679-3.101-10.954-7.597-27.050-13.875-40.208-4.378-9.184-17.981-27.565-16.33-35.677 1.699-8.381 31.021-30.781 37.302-36.88 11.322-10.986 32.829-25.571 34.566-39.437 1.875-14.755-6.461-34.938-10.688-49.181-14.099-47.52-27.869-91.443-43.872-133.805z" />
<glyph unicode="&#xe946;" d="M529.117 581.44c1.786 2.397 11.622 6.035 25.386-0.634 0 0-16.31-2.733-14.95-30.112l-6.797 1.373c-0.003 0-7.030 24.816-3.638 29.373z" />
<glyph unicode="&#xe947;" d="M648.326 346.179c0-1.994-0.787-3.907-2.189-5.318s-3.302-2.202-5.283-2.202c-1.984 0-3.885 0.79-5.286 2.202s-2.189 3.325-2.189 5.318c0 1.997 0.787 3.91 2.189 5.322s3.302 2.202 5.286 2.202c1.981 0 3.882-0.79 5.283-2.202s2.189-3.325 2.189-5.322zM655.805 311.293c-0.003-1.997-0.79-3.91-2.192-5.322-1.405-1.411-3.309-2.205-5.29-2.202-1.984 0-3.888 0.794-5.29 2.205-1.402 1.414-2.189 3.328-2.189 5.325 0.003 1.997 0.79 3.91 2.195 5.322 1.402 1.411 3.302 2.202 5.286 2.202s3.885-0.794 5.286-2.208c1.402-1.411 2.189-3.325 2.189-5.322z" />
<glyph unicode="&#xe948;" d="M0-63.997l515.2 515.2 508.8-515.2h-1024z" />
<glyph unicode="&#xe949;" d="M0 960h515.2l-515.2-553.6v553.6z" />
<glyph unicode="&#xe94a;" d="M515.2 960l-515.2-540.8v-483.2l1024 1024h-508.8z" />
<glyph unicode="&#xe94b;" glyph-name="landlord-1-1" d="M896-16.002v594.112l15.376-9.168c9.873-5.856 21.151-8.944 32.625-8.944 22.496 0 43.599 12.016 55.056 31.359 8.704 14.689 11.167 31.905 6.943 48.481-4.239 16.592-14.655 30.512-29.311 39.2l-64.671 38.576v178.384h-128v-102.048l-234.081 139.6c-22.943 13.68-52.976 13.664-75.873 0l-426.687-254.496c-14.704-8.704-25.12-22.641-29.36-39.216-4.256-16.576-1.776-33.792 6.928-48.481 11.472-19.343 32.592-31.359 55.072-31.359 11.472 0 22.752 3.088 32.656 8.976l15.328 9.119v-594.096h-112v-32h992v32h-112.001zM816.017 863.998h64v-127.311l-64 38.176v89.135zM96.336 596.477c-14.624-8.672-35.2-3.391-43.856 11.217-4.352 7.327-5.584 15.935-3.456 24.223s7.328 15.263 14.72 19.648l426.72 254.512c13.008 7.76 30.081 7.776 43.088 0l426.784-254.528c7.344-4.352 12.544-11.312 14.672-19.615 2.111-8.305 0.895-16.912-3.473-24.24-8.64-14.608-29.281-19.857-43.808-11.233l-377.792 225.105c-11.472 6.816-24.576 10.432-37.92 10.432s-26.463-3.616-37.936-10.448l-377.744-225.072zM464.001 687.998c0 26.463 21.536 47.999 47.999 47.999 26.465 0 48.001-21.536 48.001-47.999 0-26.465-21.536-48.001-48.001-48.001-26.463 0-47.999 21.536-47.999 48.001zM512 767.997c-44.111 0-79.999-35.887-79.999-79.999 0-18.081 6.255-34.592 16.416-48.001h-216.529l258.56 154.065c13.009 7.759 30.065 7.759 43.105 0l258.576-154.065h-216.544c10.16 13.409 16.416 29.92 16.416 48.001 0 44.112-35.888 79.999-80.001 79.999zM160 597.166l18.176 10.831h667.648l18.176-10.831v-613.168h-96v32c0 116.416-78.191 214.768-184.784 245.712 34.224 23.008 56.784 62.049 56.784 106.288 0 70.576-57.423 128-128 128s-128-57.424-128-128c0-44.24 22.56-83.28 56.784-106.288-106.591-30.944-184.784-129.296-184.784-245.712v-32h-96v613.168zM416 367.998h2.752c28.992 0 56.497 9.792 78.705 27.791l10.143-6.751c20.641-13.761 44.673-21.040 69.489-21.040h30.912c0-52.944-43.056-96-96-96s-96 43.056-96 96zM421.648 400.141c13.264 37.152 48.704 63.857 90.352 63.857 41.712 0 77.185-26.769 90.4-64h-25.328c-18.464 0-36.352 5.408-51.728 15.664l-31.391 20.928-9.264-9.28c-16.928-16.912-39.232-26.448-63.040-27.168zM534.704 161.902l54.832 63.968c5.12-1.905 10.161-3.92 15.088-6.176l-9.807-107.903-60.113 50.112zM555.776 235.646l-43.776-51.073-43.776 51.073c14.177 2.816 28.801 4.352 43.776 4.352 14.977 0 29.601-1.536 43.776-4.352zM434.464 225.87l54.832-63.968-60.128-50.096-9.808 107.903c4.944 2.24 9.984 4.272 15.104 6.16zM388.769 202.862l14.064-154.656 57.503 47.92-10.865-112.128h-161.472v32c0 78 40.128 146.736 100.769 186.864zM495.296 125.245l16.704 13.921 16.704-13.921 13.679-141.248h-60.767l13.679 141.248zM563.68 96.11l57.505-47.92 14.064 154.656c60.624-40.112 100.751-108.848 100.751-186.848v-32h-161.472l-10.849 112.112zM352 576h-160v-192h160v192zM320 416h-96v128h96v-128zM832 576h-160v-192h160v192zM800 416h-96v128h96v-128zM800 47.999h32v-31.999h-32v31.999zM800 175.999h32v-31.999h-32v31.999zM800 111.999h32v-31.999h-32v31.999zM192 288h32v-32h-32v32zM192 352h32v-32h-32v32zM192 224h32v-32h-32v32z" />
<glyph unicode="&#xe94c;" glyph-name="landlord-1" d="M288 687.993h-24.64c8.305 9.247 14.816 20.063 19.041 32h21.599c26.465 0 48.001 21.535 48.001 47.999 0 20.833-13.425 38.432-32 45.056v50.944c0 44.112-35.888 80-80.001 80h-95.999c-44.112 0-80-35.888-80-80v-50.944c-18.576-6.624-32-24.223-32-45.056 0-26.465 21.536-47.999 48-47.999h21.6c4.24-11.937 10.752-22.753 19.040-32h-24.64c-44.112 0-80-35.888-80-80.001v-239.999c0-26.465 21.536-48.001 48-48.001h16v-274.944c-18.576-6.624-32-24.223-32-45.056v-32c0-8.847 7.152-15.999 16-15.999h256c8.847 0 16.001 7.152 16.001 15.999v32c0 20.833-13.425 38.432-32.001 45.056v274.944h16.001c26.465 0 47.999 21.536 47.999 48.001v239.999c0 44.112-35.887 80.001-79.999 80.001zM241.68 584.842l10.849-21.681-31.008-31.008 30.96 123.841h19.52v-48.001h-16.001c-5.552 0-10.688-2.88-13.616-7.6-2.927-4.721-3.183-10.609-0.704-15.552zM141.616 600.393c-2.928 4.719-8.064 7.6-13.616 7.6h-16v48.001h19.52l30.959-123.857-31.008 31.008 10.848 21.681c2.48 4.959 2.208 10.847-0.704 15.568zM219.521 655.993l-27.521-110.033-27.521 110.033h55.041zM303.999 751.993h-15.999v32h15.999c8.833 0 16.001-7.168 16.001-16.001 0-8.831-7.168-15.999-16.001-15.999zM96 863.993c0 26.464 21.536 48 48 48h95.999c26.465 0 48.001-21.536 48.001-48v-45.264c-18.624 6.608-32 24.4-32 45.264 0 8.848-7.152 16-16.001 16-8.847 0-15.999-7.152-15.999-16 0-22.256-48.4-48-80-48h-48v48zM80 751.993c-8.832 0-16 7.168-16 15.999 0 8.833 7.168 16.001 16 16.001h16v-32h-16zM128 751.993v32h16c25.792 0 67.359 14.016 91.952 37.983 5.265-8.497 12.080-15.937 20.048-21.936v-48.048c0-35.297-28.704-64-64-64s-64 28.703-64 64zM80 653.049v-61.055c0-8.849 7.152-16.001 16-16.001h6.112l-4.416-8.847c-3.072-6.16-1.872-13.6 3.008-18.464l80-80.001c0.208-0.208 0.496-0.272 0.704-0.464 1.056-0.944 2.225-1.679 3.489-2.32 0.496-0.256 0.944-0.607 1.472-0.8 1.76-0.671 3.648-1.103 5.632-1.103s3.872 0.432 5.648 1.103c0.512 0.193 0.96 0.544 1.456 0.8 1.264 0.641 2.449 1.377 3.489 2.32 0.224 0.192 0.496 0.256 0.704 0.464l79.999 80.001c4.88 4.88 6.081 12.32 3.009 18.464l-4.416 8.847h6.112c8.847 0 15.999 7.152 15.999 16.001v61.055c18.577-6.624 32.001-24.223 32.001-45.056v-192h-32.001v96h-31.999v-96h-160.001v96h-32v-96h-32v192c0 20.833 13.424 38.432 32 45.056zM48 367.993v15.999h32v-32h-16c-8.832 0-16 7.168-16 16.001zM175.999-16.007h-95.999v15.999c0 8.833 7.168 16.001 16 16.001h79.999v-32zM175.999 351.993v-303.999h-63.999v335.999h160.001v-335.999h-64v303.999h-32.001zM303.999-16.007h-95.999v32h79.999c8.833 0 15.999-7.168 15.999-16.001v-15.999zM320 351.993h-16.001v32h32.001v-15.999c0-8.833-7.168-16.001-16.001-16.001zM790.401 572.799l-192.001-143.999 19.185-25.6 38.415 28.799v-96c0-8.847 7.153-15.999 16.001-15.999h256c8.847 0 15.999 7.152 15.999 15.999v96l38.401-28.799 19.184 25.6-192 143.999c-5.68 4.273-13.489 4.273-19.184 0zM815.999 352h-31.999v64h31.999v-64zM912.001 352h-64v79.999c0 8.849-7.153 16.001-16.001 16.001h-64c-8.847 0-16.001-7.152-16.001-16.001v-79.999h-64v103.999l112.001 84 112.001-84v-103.999zM655.999 799.999v-96c0-8.849 7.153-16.001 16.001-16.001h256c8.847 0 15.999 7.152 15.999 16.001v96l38.401-28.801 19.184 25.6-192 144c-5.68 4.288-13.505 4.288-19.184 0l-192.001-144 19.185-25.6 38.415 28.801zM815.999 719.998h-31.999v64h31.999v-64zM800 907.998l112.001-84v-104.001h-64v80.001c0 8.847-7.153 16-16.001 16h-64c-8.847 0-16.001-7.152-16.001-16v-80.001h-64v104.001l112.001 84zM790.401 204.8l-192.001-144.001 19.185-25.6 38.415 28.801v-96c0-8.849 7.153-16.001 16.001-16.001h256c8.847 0 15.999 7.152 15.999 16.001v96l38.401-28.801 19.184 25.6-192 144.001c-5.68 4.272-13.489 4.272-19.184 0zM815.999-16.001h-31.999v64h31.999v-64zM912.001-16.001h-64v80.001c0 8.847-7.153 15.999-16.001 15.999h-64c-8.847 0-16.001-7.152-16.001-15.999v-80.001h-64v104l112.001 84 112.001-84v-104zM480 800v-352h-79.999v-32h79.999v-368.001c0-8.847 7.152-15.999 15.999-15.999h80.001v32h-64v352h64v32h-64v336.001h64v31.999h-80.001c-8.847 0-15.999-7.153-15.999-16z" />
<glyph unicode="&#xe94d;" glyph-name="Laravel-1" d="M636.288 83.872c-5.427 0-10.598 2.79-13.517 7.654l-119.219 198.835-222.745-60.57c-7.117-1.946-14.592 1.306-18.048 7.808l-260.404 489.83c-2.432 4.557-2.458 10.010-0.102 14.592s6.81 7.731 11.93 8.422l221.261 29.773c6.247 0.845 12.391-2.125 15.616-7.526l267.238-445.644 310.374 84.403-103.654 146.125c-3.046 4.275-3.738 9.779-1.894 14.694s6.016 8.576 11.136 9.779l145.229 34.304c5.914 1.408 12.109-0.742 15.923-5.478l125.67-156.902c3.328-4.147 4.326-9.677 2.688-14.746s-5.734-8.934-10.854-10.317l-132.378-35.994 115.405-162.688c2.867-4.045 3.661-9.19 2.176-13.901-1.51-4.71-5.146-8.448-9.805-10.086l-346.778-121.421c-1.766-0.666-3.507-0.947-5.248-0.947zM535.142 298.963l108.058-180.198 314.906 110.259-110.003 155.034-312.96-85.094zM40.832 722.233l243.84-458.7 202.035 54.938-257.356 429.132-188.518-25.37zM764.262 556.73l96.819-136.474 120.346 32.717-104.422 130.355-112.742-26.598z" />
<glyph unicode="&#xe94e;" d="M512-64c282.771 0 512 229.229 512 512s-229.229 512-512 512c-282.77 0-512-229.23-512-512s229.23-512 512-512z" />
<glyph unicode="&#xe94f;" d="M154.667 805.328h714.668v-714.666h-714.668v714.666z" />
<glyph unicode="&#xe950;" d="M869.334 805.328l-357.334-714.666-357.333 714.666h714.668z" />
</font>
</defs>
</svg>
