<?xml version="1.0" standalone="no"?>
<!DOCTYPE svg PUBLIC "-//W3C//DTD SVG 1.1//EN" "http://www.w3.org/Graphics/SVG/1.1/DTD/svg11.dtd" >
<svg xmlns="http://www.w3.org/2000/svg">
<metadata>Generated by IcoMoon</metadata>
<defs>
<font id="iconportfolio" horiz-adv-x="1024">
<font-face units-per-em="1024" ascent="960" descent="-64" />
<missing-glyph horiz-adv-x="1024" />
<glyph unicode="&#x20;" horiz-adv-x="512" d="" />
<glyph unicode="&#xe900;" glyph-name="alarm" d="M885.622 234.97c-70.636 73.58-103.622 151.426-103.622 244.148v90.882c0 117.334-75.24 217.408-180 254.556v45.444c0 49.626-40.374 90-90 90s-90-40.374-90-90v-45.444c-104.76-37.148-180-137.222-180-254.556v-90.884c0-92.72-32.986-170.564-103.622-244.148-43.186-6.584-76.378-43.972-76.378-88.968 0-49.626 40.374-90 90-90h213.018c13.936-68.384 74.544-120 146.982-120s133.044 51.616 146.982 120h213.018c49.626 0 90 40.374 90 90 0 44.996-33.192 82.384-76.378 88.97zM482 870c0 16.542 13.458 30 30 30s30-13.458 30-30v-31.676c-9.854 1.094-19.86 1.676-30 1.676s-20.146-0.582-30-1.676v31.676zM302 479.118v90.882c0 115.794 94.206 210 210 210s210-94.206 210-210v-90.884c0-89.928 27.474-170 83.65-243.118h-587.302c56.178 73.12 83.652 153.192 83.652 243.12zM512-4c-39.11 0-72.456 25.284-84.84 60.2h169.678c-12.382-34.916-45.728-60.2-84.838-60.2zM872 116h-720c-16.542 0-30 13.458-30 30 0 16.54 13.456 29.998 29.994 30 0.006 0 0.010 0 0.016 0h719.99c16.542 0 30-13.458 30-30s-13.458-30-30-30z" />
<glyph unicode="&#xe901;" glyph-name="ap_diamond" d="M1018.404 600.078l-178.102 267.14c-6.292 9.436-16.866 14.868-27.782 14.868h-601.044c-11.122 0-21.604-5.602-27.782-14.868l-178.104-267.14c-8.408-12.6-7.248-29.464 2.912-40.806l478.624-534.278c13.21-14.748 36.484-14.802 49.744 0l478.624 534.278c9.986 11.15 11.468 27.982 2.91 40.806zM764.336 815.304l-61.85-164.938-123.704 164.938h185.554zM645.568 614.95h-267.14l133.57 178.092 133.57-178.092zM445.21 815.304l-123.702-164.938-61.852 164.938h185.554zM203.096 775.932l60.366-160.984h-167.694l107.328 160.984zM108.118 548.164h180.388l129.874-346.34-310.262 346.34zM511.996 142.382l-152.162 405.782h304.326l-152.164-405.782zM605.612 201.826l129.874 346.34h180.388l-310.262-346.34zM760.528 614.948l60.37 160.984 107.328-160.984h-167.698z" />
<glyph unicode="&#xe902;" glyph-name="ap_growth" d="M917.462 634.294c-55.892 0-101.366-45.472-101.366-101.366v-529.352h-67.576v394.198c0 55.892-45.472 101.366-101.366 101.366-55.892 0-101.366-45.472-101.366-101.366v-394.198h-67.576v259.046c0 55.892-45.472 101.366-101.366 101.366-55.892 0-101.366-45.472-101.366-101.366v-259.044h-67.576v123.892c0 55.892-45.472 101.366-101.366 101.366-55.892 0-101.366-45.472-101.366-101.366v-157.68c0-18.662 15.128-33.788 33.788-33.788 40.582 0 904.5 0 946.078 0 18.66 0 33.788 15.128 33.788 33.788v563.138c0.002 55.894-45.472 101.366-101.364 101.366zM140.328 3.576h-67.578v123.892c0 18.63 15.158 33.788 33.788 33.788s33.788-15.158 33.788-33.788v-123.892zM410.636 3.576h-67.576v259.046c0 18.63 15.158 33.788 33.788 33.788s33.788-15.158 33.788-33.788v-259.046zM680.942 3.576h-67.576v394.198c0 18.63 15.158 33.788 33.788 33.788s33.788-15.158 33.788-33.788v-394.198zM951.25 3.576h-67.576v529.352c0 18.63 15.158 33.788 33.788 33.788s33.788-15.158 33.788-33.788v-529.352zM957.048 912.756l-135.946 45.488c-17.694 5.922-36.842-3.624-42.762-21.32-5.922-17.696 3.624-36.842 21.32-42.762l57.972-19.396-767.808-383.906c-16.692-8.346-23.456-28.642-15.11-45.332 8.35-16.7 28.65-23.454 45.332-15.11l768.56 384.28-19.81-59.206c-5.922-17.696 3.624-36.842 21.32-42.762 17.71-5.924 36.848 3.638 42.766 21.32l45.486 135.944c5.92 17.696-3.624 36.842-21.32 42.762z" />
<glyph unicode="&#xe903;" glyph-name="ap_increase" d="M993.972-3.986h-89.998v661.982h89.998c26.606 0 40.034 32.234 21.3 51.124l-239.994 241.994c-11.73 11.828-30.87 11.828-42.6 0l-239.994-241.994c-18.736-18.892-5.304-51.124 21.3-51.124h89.998v-179.996h-213.992c-16.568 0-30-13.432-30-30v-149.996h-209.994c-16.568 0-30-13.432-30-30v-271.992h-89.996c-16.568 0-30-13.432-30-30s13.432-30 30-30h963.974c16.568 0 30 13.432 30 30-0.002 16.57-13.434 30.002-30.002 30.002zM359.99-3.986h-179.994v241.994h179.994v-241.994zM603.984-3.986h-183.994v421.988h183.994v-421.988zM843.976 687.996v-691.982h-179.994v691.982c0 16.568-13.432 30-30 30h-47.994l167.992 169.392 167.992-169.392h-47.994c-16.57-0.002-30.002-13.434-30.002-30z" />
<glyph unicode="&#xe904;" glyph-name="ap_line-chart" d="M990.608 2.782h-923.826v151.57l121.804 104.096c13.58-6.888 28.912-10.796 45.152-10.796 16.62 0 32.294 4.092 46.104 11.284l62.392-49.276c-5.342-12.24-8.324-25.736-8.324-39.92 0-55.236 44.938-100.174 100.174-100.174s100.174 44.938 100.174 100.174c0 14.714-3.214 28.684-8.938 41.278l130.976 114.092c13.522-6.812 28.772-10.674 44.918-10.674 16.62 0 32.294 4.092 46.104 11.284l62.392-49.276c-5.342-12.24-8.324-25.736-8.324-39.92 0-55.236 44.938-100.174 100.174-100.174s100.174 44.938 100.174 100.174-44.938 100.174-100.174 100.174c-16.62 0-32.294-4.092-46.104-11.284l-62.392 49.276c5.342 12.24 8.324 25.736 8.324 39.92 0 55.236-44.938 100.174-100.174 100.174s-100.174-44.938-100.174-100.174c0-14.714 3.214-28.684 8.938-41.278l-130.976-114.092c-13.522 6.812-28.772 10.674-44.918 10.674-16.62 0-32.294-4.092-46.104-11.284l-62.392 49.276c5.342 12.24 8.324 25.736 8.324 39.92 0 55.236-44.938 100.174-100.174 100.174s-100.174-44.938-100.174-100.174c0-14.61 3.17-28.488 8.818-41.016l-75.6-64.61v315.708l125.648 143.912c12.604-5.732 26.584-8.952 41.31-8.952 14.43 0 28.142 3.090 40.548 8.606l70.632-85.48c-7.016-13.68-11.006-29.16-11.006-45.562 0-55.236 44.938-100.174 100.174-100.174s100.174 44.938 100.174 100.174c0 16.062-3.822 31.24-10.57 44.708l136.016 153.548c12.658-5.788 26.706-9.040 41.51-9.040 14.43 0 28.142 3.090 40.548 8.606l70.632-85.48c-7.016-13.68-11.006-29.16-11.006-45.562 0-55.236 44.938-100.174 100.174-100.174s100.174 44.938 100.174 100.174c0 55.236-44.938 100.174-100.174 100.174-14.43 0-28.142-3.090-40.548-8.606l-70.632 85.48c7.016 13.68 11.006 29.158 11.006 45.562 0 55.24-44.938 100.178-100.174 100.178s-100.174-44.938-100.174-100.174c0-16.062 3.822-31.24 10.57-44.708l-136.016-153.548c-12.658 5.788-26.706 9.040-41.51 9.040-14.43 0-28.142-3.090-40.548-8.606l-70.632 85.48c7.016 13.68 11.006 29.158 11.006 45.562 0 55.236-44.938 100.174-100.174 100.174s-100.174-44.938-100.174-100.174c0-16.134 3.858-31.374 10.66-44.89l-77.444-88.702v267.154c0 18.442-14.95 33.392-33.39 33.392s-33.392-14.95-33.392-33.392v-957.218c0-18.44 14.95-33.39 33.392-33.39h957.218c18.44 0 33.392 14.95 33.392 33.392s-14.952 33.39-33.394 33.39zM901.566 269.914c18.412 0 33.392-14.98 33.392-33.392s-14.98-33.392-33.392-33.392-33.392 14.98-33.392 33.392 14.98 33.392 33.392 33.392zM701.218 448c18.412 0 33.392-14.98 33.392-33.392s-14.98-33.392-33.392-33.392-33.392 14.98-33.392 33.392c0 18.412 14.98 33.392 33.392 33.392zM434.086 203.13c18.412 0 33.392-14.98 33.392-33.392s-14.98-33.392-33.392-33.392c-18.412 0-33.392 14.98-33.392 33.392s14.982 33.392 33.392 33.392zM233.74 381.218c18.412 0 33.392-14.98 33.392-33.392s-14.98-33.392-33.392-33.392-33.392 14.98-33.392 33.392c0 18.412 14.98 33.392 33.392 33.392zM901.566 670.608c18.412 0 33.392-14.98 33.392-33.392s-14.98-33.392-33.392-33.392-33.392 14.98-33.392 33.392c0 18.414 14.98 33.392 33.392 33.392zM701.218 893.218c18.412 0 33.392-14.98 33.392-33.392s-14.98-33.392-33.392-33.392-33.392 14.98-33.392 33.392 14.98 33.392 33.392 33.392zM434.086 603.826c18.412 0 33.392-14.98 33.392-33.392s-14.98-33.392-33.392-33.392c-18.412 0-33.392 14.98-33.392 33.392 0.002 18.412 14.982 33.392 33.392 33.392zM233.74 826.434c18.412 0 33.392-14.98 33.392-33.392s-14.98-33.392-33.392-33.392-33.392 14.98-33.392 33.392 14.98 33.392 33.392 33.392z" />
<glyph unicode="&#xe905;" glyph-name="ap_location" d="M682.952 283.43c108.966 170.986 95.268 149.654 98.408 154.112 39.672 55.956 60.64 121.814 60.64 190.458 0 182.040-147.722 332-330 332-181.684 0-330-149.664-330-332 0-68.6 21.408-136.182 62.38-192.892l96.664-151.68c-103.35-15.882-279.044-63.212-279.044-167.428 0-37.99 24.796-92.13 142.924-134.318 82.484-29.458 191.538-45.682 307.076-45.682 216.050 0 450 60.944 450 180 0 104.234-175.488 151.514-279.048 167.43zM294.498 468.11c-0.33 0.516-0.674 1.020-1.034 1.516-34.094 46.904-51.464 102.492-51.464 158.374 0 150.036 120.812 272 270 272 148.878 0 270-122.018 270-272 0-55.972-17.042-109.674-49.292-155.342-2.89-3.812 12.188 19.612-220.708-345.836l-217.502 341.288zM512-4c-235.988 0-390 69.366-390 120 0 34.032 79.136 89.99 254.496 111.802l110.204-172.926c5.508-8.644 15.048-13.876 25.298-13.876s19.792 5.234 25.298 13.876l110.202 172.926c175.364-21.812 254.502-77.77 254.502-111.802 0-50.204-152.626-120-390-120zM512 778c-82.71 0-150-67.29-150-150s67.29-150 150-150c82.71 0 150 67.29 150 150s-67.29 150-150 150zM512 538c-49.626 0-90 40.374-90 90s40.374 90 90 90 90-40.374 90-90-40.374-90-90-90z" />
<glyph unicode="&#xe906;" glyph-name="ap_medical-result" d="M609.628 311.718h-62.916v62.916c0 19.17-15.543 34.713-34.713 34.713s-34.713-15.543-34.713-34.713v-62.916h-62.916c-19.17 0-34.713-15.543-34.713-34.713s15.543-34.713 34.713-34.713h62.916v-62.916c0-19.17 15.543-34.713 34.713-34.713s34.713 15.543 34.713 34.713v62.916h62.916c19.17 0 34.713 15.543 34.713 34.713s-15.543 34.713-34.713 34.713zM989.287 572.204h-24.948v323.253c0 19.17-15.543 34.713-34.713 34.713h-835.253c-19.17 0-34.713-15.543-34.713-34.713v-203.931h-24.948c-19.17 0-34.713-15.543-34.713-34.713v-540.865c0-82.775 67.343-150.118 150.118-150.118h723.765c82.775 0 150.118 67.343 150.118 150.118v421.543c0 19.17-15.543 34.713-34.713 34.713zM129.086 860.744h765.828v-288.544h-480.78l-50.069 100.131c-5.882 11.764-17.898 19.191-31.048 19.191h-203.931v169.222zM954.575 115.948c0-44.494-36.199-80.696-80.696-80.696h-723.761c-44.494 0-80.696 36.199-80.696 80.696v506.153h242.14l50.069-100.131c5.882-11.764 17.898-19.191 31.048-19.191h561.897v-386.831zM512 751.838h298.305c13.419 0 24.297 10.878 24.297 24.297s-10.878 24.297-24.297 24.297h-298.305c-13.419 0-24.297-10.878-24.297-24.297s10.878-24.297 24.297-24.297zM416.975 776.135c0 13.419-10.878 24.297-24.297 24.297h-119.322c-13.419 0-24.297-10.878-24.297-24.297s10.878-24.297 24.297-24.297h119.322c13.419 0 24.297 10.878 24.297 24.297zM512 632.517h298.305c13.419 0 24.297 10.878 24.297 24.297s-10.878 24.297-24.297 24.297h-298.305c-13.419 0-24.297-10.878-24.297-24.297s10.878-24.297 24.297-24.297z" />
<glyph unicode="&#xe907;" glyph-name="ap_rating" d="M1002.216 310.384c-36.156 45.57-102.496 52.19-146.91 14.92l-158.23-132.766h-74.218c37.036 15.156 63.796 50.846 64.934 92.356 1.594 58.15-44.974 105.862-102.952 105.862h-310.572v31.412c0 18.444-14.954 33.398-33.398 33.398h-207.472c-18.444-0.002-33.398-14.956-33.398-33.4v-427.51c0-18.444 14.954-33.398 33.398-33.398h207.474c18.444 0 33.398 14.954 33.398 33.398v54.656l65.39-54.86c18.012-15.114 40.884-23.436 64.398-23.436h312.998c23.516 0 46.388 8.324 64.402 23.438l205.142 172.124c42.936 36.032 49.944 100.54 15.616 143.806zM207.474 28.056h-140.678v360.714h140.678c0-21.478 0-345.344 0-360.714zM943.66 217.75l-205.142-172.126c-6.004-5.038-13.628-7.812-21.468-7.812h-312.996c-7.838 0-15.46 2.774-21.466 7.812l-108.322 90.88v187.454h310.572c20.268 0 36.746-16.648 36.184-37.238-0.532-19.384-17.412-35.154-37.63-35.154-14.524 0-118.23 0-131.378 0-18.444 0-33.398-14.954-33.398-33.398s14.954-33.398 33.398-33.398h59.18l51.736-43.406c12.010-10.074 27.256-15.626 42.934-15.626h91.214c15.676 0 30.924 5.548 42.936 15.628l158.23 132.766c15.52 13.022 38.848 10.864 51.648-5.268 12.052-15.188 9.258-38.12-6.232-51.114zM736.16 775.126l-134.13 19.488-59.984 121.544c-12.226 24.772-47.666 24.786-59.898 0l-59.984-121.544-134.13-19.488c-27.338-3.974-38.302-37.672-18.51-56.966l97.056-94.612-22.914-133.588c-4.672-27.226 23.99-48.068 48.458-35.208l119.972 63.072 119.968-63.070c24.314-12.784 53.16 7.796 48.458 35.208l-22.914 133.588 97.058 94.61c19.784 19.282 8.848 52.992-18.506 56.966zM603.252 545.366c-108.702 57.148-73.166 57.38-182.31 0 20.768 121.098 31.894 87.382-56.338 173.388 121.094 17.596 92.3-4.676 147.494 107.158 54.376-110.18 25.56-89.442 147.49-107.158-87.96-85.742-77.168-51.926-56.336-173.388z" />
<glyph unicode="&#xe908;" glyph-name="ap_responsive" d="M989.962 921.786h-839.69c-18.798 0-34.040-15.24-34.040-34.040v-265.673h-82.192c-18.798 0-34.040-15.24-34.040-34.040v-579.781c0-18.798 15.24-34.040 34.040-34.040h323.245c18.798 0 34.040 15.24 34.040 34.040v263.061h86.982v-47.462h-3.014c-18.8 0-34.040-15.24-34.040-34.040s15.24-34.040 34.040-34.040h189.644c18.798 0 34.040 15.24 34.040 34.040s-15.24 34.040-34.040 34.040h-3.012v47.462h328.035c18.798 0 34.040 15.24 34.040 34.040v582.395c0.002 18.798-15.238 34.038-34.038 34.038zM323.241 42.29h-255.16v67.884h93.16c-0.002-0.136-0.020-0.266-0.020-0.402 0-19.022 15.42-34.442 34.442-34.442s34.442 15.42 34.442 34.442c0 0.136-0.018 0.266-0.020 0.402h93.16v-67.884zM323.245 178.254h-255.164v278.151h255.164v-278.151zM323.245 524.487h-255.164v29.508h255.164v-29.508zM593.849 223.847h-47.462v47.462h47.462v-47.462zM955.92 339.389h-564.597v49.59h564.597v-49.59zM955.922 457.059h-564.599v130.976c0 18.798-15.24 34.040-34.040 34.040h-172.97v231.632h771.61v-396.649z" />
<glyph unicode="&#xe909;" glyph-name="ap_shopping-cart" d="M322.782 336.696c33.098 0 567.156 0 601.044 0 16.324 0 30.252 11.8 32.938 27.902l66.782 400.696c1.614 9.682-1.114 19.582-7.46 27.074-6.344 7.488-15.662 11.808-25.478 11.808h-743.684l-24.924 128.776c-3.040 15.706-16.788 27.048-32.782 27.048h-155.826c-18.442 0-33.392-14.95-33.392-33.392s14.95-33.392 33.392-33.392h128.278l98.984-511.422c-23.152-18.366-38.044-46.712-38.044-78.492 0-55.236 44.938-100.174 100.174-100.174h612.174c18.44 0 33.392 14.95 33.392 33.392s-14.95 33.392-33.392 33.392h-612.176c-18.412 0-33.392 14.98-33.392 33.392s14.98 33.392 33.392 33.392zM259.852 737.39h691.34l-55.652-333.912h-571.060l-64.628 333.912zM434.086 136.348c-55.236 0-100.174-44.938-100.174-100.174s44.94-100.174 100.174-100.174c55.236 0 100.174 44.938 100.174 100.174s-44.938 100.174-100.174 100.174zM434.086 2.782c-18.412 0-33.392 14.98-33.392 33.392s14.98 33.392 33.392 33.392c18.412 0 33.392-14.98 33.392-33.392s-14.98-33.392-33.392-33.392zM812.522 136.348c-55.236 0-100.174-44.938-100.174-100.174s44.938-100.174 100.174-100.174 100.174 44.938 100.174 100.174-44.938 100.174-100.174 100.174zM812.522 2.782c-18.412 0-33.392 14.98-33.392 33.392s14.98 33.392 33.392 33.392 33.392-14.98 33.392-33.392-14.98-33.392-33.392-33.392zM609.948 670.608c-18.44 0-33.392-14.95-33.392-33.392v-133.566c0-18.44 14.95-33.392 33.392-33.392 18.44 0 33.392 14.95 33.392 33.392v133.566c0 18.442-14.952 33.392-33.392 33.392zM810.296 670.608c-18.44 0-33.392-14.95-33.392-33.392v-133.566c0-18.44 14.95-33.392 33.392-33.392s33.392 14.95 33.392 33.392v133.566c-0.002 18.442-14.952 33.392-33.392 33.392zM411.826 670.608c-18.44 0-33.392-14.95-33.392-33.392v-133.566c0-18.44 14.95-33.392 33.392-33.392 18.44 0 33.392 14.95 33.392 33.392v133.566c0 18.442-14.952 33.392-33.392 33.392z" />
<glyph unicode="&#xe90a;" glyph-name="ap_target" d="M512 538c-49.626 0-90-40.374-90-90s40.374-90 90-90 90 40.374 90 90-40.374 90-90 90zM512 418c-16.542 0-30 13.458-30 30s13.458 30 30 30 30-13.458 30-30-13.458-30-30-30zM994 478h-93.142c-14.612 191.182-167.676 344.246-358.858 358.858v93.142c0 16.568-13.432 30-30 30s-30-13.432-30-30v-93.142c-191.182-14.612-344.246-167.676-358.858-358.858h-93.142c-16.568 0-30-13.432-30-30s13.432-30 30-30h93.142c14.612-191.182 167.676-344.246 358.858-358.858v-93.142c0-16.568 13.432-30 30-30s30 13.432 30 30v93.142c191.182 14.612 344.246 167.676 358.858 358.858h93.142c16.568 0 30 13.432 30 30s-13.432 30-30 30zM482 776.622v-60.298c-124.958-13.878-224.446-113.366-238.324-238.324h-60.298c14.314 158.070 140.552 284.308 298.622 298.622zM482 119.378c-158.070 14.314-284.308 140.552-298.622 298.622h60.298c13.878-124.958 113.366-224.446 238.324-238.324v-60.298zM512 298c-16.568 0-30-13.432-30-30v-27.848c-91.832 13.194-164.654 86.016-177.848 177.848h27.848c16.568 0 30 13.432 30 30s-13.432 30-30 30h-27.848c13.194 91.832 86.016 164.654 177.848 177.848v-27.848c0-16.568 13.432-30 30-30s30 13.432 30 30v27.848c91.832-13.194 164.654-86.016 177.848-177.848h-27.848c-16.568 0-30-13.432-30-30s13.432-29.8 30-29.8h27.848c-13.194-91.832-86.016-164.854-177.848-178.048v27.848c0 16.568-13.432 30-30 30zM542 119.378v60.298c124.958 13.878 224.446 113.568 238.324 238.524h60.298c-14.314-158.070-140.552-284.508-298.622-298.822zM780.324 478c-13.878 124.958-113.366 224.446-238.324 238.324v60.298c158.070-14.314 284.308-140.552 298.622-298.622h-60.298z" />
<glyph unicode="&#xe90b;" glyph-name="ap_time" d="M512 718c-182.174 0-330-149.64-330-332 0-181.964 148.112-330 330-330 181.964 0 330 148.114 330 330 0 181.188-146.864 332-330 332zM512 416c16.542 0 30-13.458 30-30s-13.458-30-30-30c-16.542 0-30 13.458-30 30s13.458 30 30 30zM722.858 217.568l-20.020 20.020c-11.714 11.716-30.71 11.716-42.426 0s-11.716-30.71 0-42.426l20.020-20.020c-38.848-31.094-86.432-51.692-138.432-57.466v28.324c0 16.568-13.432 30-30 30s-30-13.432-30-30v-28.324c-52 5.774-99.584 26.372-138.432 57.466l20.020 20.020c11.716 11.716 11.716 30.71 0 42.426-11.714 11.714-30.71 11.714-42.426 0l-20.020-20.020c-31.094 38.848-51.692 86.432-57.466 138.432h28.324c16.568 0 30 13.432 30 30s-13.432 30-30 30h-28.35c5.762 52.658 26.502 100.83 57.826 140.098l19.686-19.686c11.714-11.714 30.708-11.716 42.426 0 11.714 11.716 11.714 30.71 0 42.426l-19.778 19.778c38.802 31.216 86.3 51.89 138.19 57.696v-185.472c-34.918-12.384-60-45.73-60-84.84 0-13.878 3.162-27.028 8.796-38.778l-26.258-26.258c-11.716-11.716-11.716-30.71 0-42.426 5.858-5.858 13.536-8.786 21.212-8.786s15.356 2.93 21.212 8.788l26.258 26.258c11.752-5.636 24.902-8.798 38.78-8.798 49.626 0 90 40.374 90 90 0 39.11-25.082 72.456-60 84.84v185.472c51.89-5.806 99.388-26.48 138.19-57.696l-19.778-19.778c-11.716-11.716-11.716-30.71 0-42.426 11.714-11.716 30.71-11.716 42.426 0l19.686 19.686c31.324-39.266 52.064-87.44 57.826-140.098h-28.35c-16.568 0-30-13.432-30-30s13.432-29.8 30-29.8h28.324c-5.776-52-26.372-99.784-57.466-138.632zM893.838 727.412l21.212-21.214c11.718-11.718 30.714-11.712 42.426 0 11.716 11.716 11.716 30.71 0 42.426-10.074 10.074-74.524 74.524-84.852 84.854-11.714 11.716-30.71 11.716-42.426 0s-11.716-30.71 0-42.426l21.214-21.214-43.734-43.734c-74.604 65.73-167.134 104.346-265.678 110.876v63.020h90c16.568 0 30 13.432 30 30s-13.432 30-30 30h-240c-16.568 0-30-13.432-30-30s13.432-30 30-30h90v-63.020c-98.544-6.528-191.074-45.146-265.678-110.876l-43.734 43.734 21.214 21.214c11.716 11.716 11.716 30.71 0 42.426-11.714 11.716-30.71 11.714-42.426 0-10.074-10.074-74.524-74.524-84.852-84.854-11.716-11.716-11.716-30.71 0-42.426 11.714-11.716 30.71-11.716 42.426 0l21.214 21.214 43.802-43.802c-72.394-82.656-111.966-187.244-111.966-297.61 0-248.13 201.87-450 450-450s450 201.87 450 450c0 110.366-39.572 214.954-111.964 297.61l43.802 43.802zM902 386c0-215.046-174.954-390-390-390s-390 174.954-390 390c0 216.15 174.954 392 390 392s390-175.85 390-392z" />
<glyph unicode="&#xe90c;" glyph-name="ap_update-arrows" d="M994.606 848.602c-20.080 4.309-39.834-8.484-44.133-28.555l-27.012-126.052c-86.001 146.715-243.855 238.782-416.864 238.782-266.439 0-483.201-216.76-483.201-483.201 0-20.526 16.64-37.169 37.169-37.169 20.526 0 37.169 16.643 37.169 37.169 0 225.448 183.414 408.863 408.863 408.863 146.979 0 281.045-78.511 353.629-203.518l-123.92 26.557c-20.077 4.303-39.834-8.486-44.13-28.558-4.3-20.071 8.486-39.834 28.558-44.133l212.716-45.584c3.613-0.776 7.282-0.999 10.901-0.696 6.027 0.508 11.903 2.486 17.077 5.834 8.278 5.355 14.089 13.779 16.155 23.417l45.587 212.716c4.294 20.068-8.492 39.825-28.564 44.13zM957.205 498.295c-20.514-0.678-36.601-17.859-35.923-38.374 3.604-109.153-35.51-213.171-110.146-292.906-74.633-79.727-175.847-125.626-284.997-129.23-4.55-0.149-9.075-0.223-13.607-0.223-142.421 0.006-273.62 73.973-347.715 193.816l129.192-34.642c19.828-5.314 40.211 6.447 45.528 26.277 5.317 19.828-6.447 40.208-26.274 45.531l-210.123 56.337c-9.521 2.548-19.67 1.216-28.204-3.708-8.54-4.924-14.77-13.045-17.324-22.566l-56.334-210.129c-5.317-19.828 6.447-40.208 26.274-45.528 3.226-0.865 6.462-1.282 9.649-1.282 16.408 0 31.427 10.955 35.879 27.556l31.665 118.1c88.088-138.707 241.419-224.107 407.768-224.101 5.343 0 10.717 0.086 16.081 0.265 128.995 4.264 248.612 58.502 336.817 152.727s134.431 217.161 130.17 346.159c-0.675 20.512-17.865 36.649-38.377 35.92z" />
<glyph unicode="&#xe90d;" glyph-name="ap_user" d="M512 960c-281.94 0-512-230.1-512-512 0-284.51 232.752-512 512-512 135.97 0 264.648 53.396 361.624 150.376 96.972 96.97 150.376 225.398 150.376 361.624 0 281.94-230.1 512-512 512zM782 85.718c-18.912-14.13-38.976-26.792-60-37.87v98.152c0 16.568-13.432 30-30 30s-30-13.432-30-30v-124.382c-46.962-16.57-97.44-25.618-150-25.618s-103.038 9.048-150 25.618v124.382c0 16.568-13.432 30-30 30s-30-13.432-30-30v-98.152c-21.024 11.078-41.088 23.74-60 37.87v60.282c0 83.814 67.29 152 150 152 5.398 0 233.514 0 240 0 82.71 0 150-68.186 150-152v-60.282zM362 508c0 82.71 67.29 150 150 150 81.044 0 147.284-64.608 149.918-145.022-2.56-81.848-65.188-150.752-141.808-154.764-86.542-4.526-158.11 64.024-158.11 149.786zM842 139.476c0 123.804-88.126 206.56-187.484 217.302 3.912 3.834 7.71 7.838 11.376 12.016 35.106 40.012 56.108 92.67 56.108 149.392 0 2.102-0.216 4.154-0.628 6.134-8.356 108.198-99.070 193.68-209.372 193.68-115.794 0-210-94.206-210-210 0-57.798 22.954-111.568 64.646-151.55-97.816-11.938-184.646-93.906-184.646-216.974-75.624 80.836-122 189.358-122 308.524 0 249.234 202.766 452 452 452s452-202.766 452-452c0-119.166-46.376-227.688-122-308.524z" />
<glyph unicode="&#xe90e;" glyph-name="bars-chart" d="M988.28 759.962h-159.554c-19.728 0-35.72-15.994-35.72-35.72v-716.8h-85.73v466.752c0 19.728-15.994 35.72-35.72 35.72h-159.556c-19.728 0-35.72-15.994-35.72-35.72v-466.754h-88.112v214.326c0 19.728-15.994 35.72-35.72 35.72h-159.554c-19.728 0-35.72-15.994-35.72-35.72v-214.326h-85.732v915.9c0 18.336-13.434 34.422-31.658 36.436-21.546 2.376-39.784-14.432-39.784-35.498v-952.558c0-19.728 15.994-35.72 35.722-35.72h952.558c19.728 0 35.722 15.994 35.722 35.72v752.52c-0.002 19.728-15.996 35.722-35.722 35.722zM319.108 7.442h-88.112v178.604h88.112v-178.604zM635.832 7.442h-88.112v431.032h88.112v-431.032zM952.558 7.442h-88.112v681.078h88.112v-681.078z" />
<glyph unicode="&#xe90f;" glyph-name="calculator" d="M872 960h-720c-49.626 0-90-40.374-90-90v-844c0-49.626 40.374-90 90-90h720c49.626 0 90 40.374 90 90v844c0 49.626-40.374 90-90 90zM902 26c0-16.542-13.458-30-30-30h-720c-16.542 0-30 13.458-30 30v844c0 16.542 13.458 30 30 30h720c16.542 0 30-13.458 30-30v-844zM812 840h-600c-16.568 0-30-13.432-30-30v-244c0-16.568 13.432-30 30-30h600c16.568 0 30 13.432 30 30v244c0 16.568-13.432 30-30 30zM782 596h-540v184h540v-184zM692 718h-60c-16.568 0-30-13.432-30-30s13.432-30 30-30h60c16.568 0 30 13.432 30 30s-13.432 30-30 30zM812 476h-120c-16.568 0-30-13.432-30-30v-120c0-16.568 13.432-30 30-30h120c16.568 0 30 13.432 30 30v120c0 16.568-13.432 30-30 30zM782 356h-60v60h60v-60zM812 236h-120c-16.568 0-30-13.432-30-30v-120c0-16.568 13.432-30 30-30h120c16.568 0 30 13.432 30 30v120c0 16.568-13.432 30-30 30zM782 116h-60v60h60v-60zM572 476h-120c-16.568 0-30-13.432-30-30v-120c0-16.568 13.432-30 30-30h120c16.568 0 30 13.432 30 30v120c0 16.568-13.432 30-30 30zM542 356h-60v60h60v-60zM332 476h-120c-16.568 0-30-13.432-30-30v-120c0-16.568 13.432-30 30-30h120c16.568 0 30 13.432 30 30v120c0 16.568-13.432 30-30 30zM302 356h-60v60h60v-60zM332 236h-120c-16.568 0-30-13.432-30-30v-120c0-16.568 13.432-30 30-30h120c16.568 0 30 13.432 30 30v120c0 16.568-13.432 30-30 30zM302 116h-60v60h60v-60zM572 236h-120c-16.568 0-30-13.432-30-30v-120c0-16.568 13.432-30 30-30h120c16.568 0 30 13.432 30 30v120c0 16.568-13.432 30-30 30zM542 116h-60v60h60v-60z" />
<glyph unicode="&#xe910;" glyph-name="da_advanced_filters" d="M442.624-64c-7.040 0-13.747 1.408-19.968 4.198-6.4 2.867-11.955 7.040-16.538 12.442-9.754 11.494-13.901 27.187-11.827 44.493v419.482l-316.698 444.979c-11.827 17.741-13.491 40.934-4.454 62.029l0.819 1.894 1.024 1.792c11.52 20.147 32.64 32.691 55.117 32.691h762.778c11.802 0 23.194-3.098 32.947-8.934 10.778-6.477 19.098-15.974 24.013-27.469 9.037-21.094 7.373-44.262-4.454-62.029l-0.333-0.512-0.358-0.512-318.669-443.213v-315.981c0-16.461-6.579-32.102-18.509-44.032l-1.075-1.075-1.152-0.973c-0.307-0.256-31.616-26.675-63.539-53.274-67.046-55.91-70.989-58.086-75.162-60.39l-3.098-1.69-3.354-1.075c-5.888-1.894-11.802-2.842-17.51-2.842zM146.586 888.294l319.411-448.768v-407.219c24.218 20.019 57.062 47.462 88.32 73.779v334.874l260.173 361.677h0.358l61.466 85.658h-729.728z" />
<glyph unicode="&#xe911;" glyph-name="da_user" d="M512 960c-281.94 0-512-230.1-512-512 0-284.51 232.752-512 512-512 135.97 0 264.648 53.396 361.624 150.376 96.972 96.97 150.376 225.398 150.376 361.624 0 281.94-230.1 512-512 512zM782 85.718c-18.912-14.13-38.976-26.792-60-37.87v98.152c0 16.568-13.432 30-30 30s-30-13.432-30-30v-124.382c-46.962-16.57-97.44-25.618-150-25.618s-103.038 9.048-150 25.618v124.382c0 16.568-13.432 30-30 30s-30-13.432-30-30v-98.152c-21.024 11.078-41.088 23.74-60 37.87v60.282c0 83.814 67.29 152 150 152 5.398 0 233.514 0 240 0 82.71 0 150-68.186 150-152v-60.282zM362 508c0 82.71 67.29 150 150 150 81.044 0 147.284-64.608 149.918-145.022-2.56-81.848-65.188-150.752-141.808-154.764-86.542-4.526-158.11 64.024-158.11 149.786zM842 139.476c0 123.804-88.126 206.56-187.484 217.302 3.912 3.834 7.71 7.838 11.376 12.016 35.106 40.012 56.108 92.67 56.108 149.392 0 2.102-0.216 4.154-0.628 6.134-8.356 108.198-99.070 193.68-209.372 193.68-115.794 0-210-94.206-210-210 0-57.798 22.954-111.568 64.646-151.55-97.816-11.938-184.646-93.906-184.646-216.974-75.624 80.836-122 189.358-122 308.524 0 249.234 202.766 452 452 452s452-202.766 452-452c0-119.166-46.376-227.688-122-308.524z" />
<glyph unicode="&#xe912;" glyph-name="hippa_1" d="M981.406 96.208l-148.696 318.876c29.4 52.756 46.184 113.46 46.184 178.022 0 202.306-164.59 366.894-366.894 366.894s-366.896-164.588-366.896-366.894c0-64.56 16.784-125.266 46.184-178.022l-148.696-318.878c-12.528-26.872 13.78-55.578 41.636-45.438l145.96 53.124 53.124-145.96c10.132-27.838 48.998-29.656 61.572-2.688l127.362 273.128c13.062-1.414 26.32-2.162 39.754-2.162s26.692 0.748 39.754 2.162l127.362-273.128c12.548-26.914 51.416-25.216 61.572 2.688l53.124 145.96 145.96-53.124c27.798-10.12 54.18 18.526 41.634 45.44zM318.454 56.42l-36.992 101.634c-6.296 17.288-25.444 26.24-42.75 19.934l-101.632-36.992 98.468 211.16c44.588-51.092 103.076-89.746 169.506-110.028l-86.6-185.708zM512 292.92c-165.522 0-300.186 134.664-300.186 300.186s134.66 300.186 300.186 300.186c165.522 0 300.186-134.664 300.186-300.186s-134.664-300.186-300.186-300.186zM785.282 177.986c-17.292 6.296-36.448-2.624-42.75-19.934l-36.992-101.634-86.598 185.708c66.43 20.282 124.918 58.936 169.506 110.028l98.468-211.16-101.634 36.992zM672.046 676.948l-89.92 13.066-40.214 81.484c-12.212 24.738-47.6 24.754-59.82 0l-40.214-81.484-89.92-13.066c-27.294-3.966-38.252-37.624-18.484-56.89l65.062-63.426-15.36-89.558c-4.658-27.176 23.958-48.012 48.396-35.162l80.428 42.284 80.428-42.284c24.386-12.816 53.070 7.89 48.396 35.162l-15.36 89.558 65.068 63.426c19.75 19.252 8.832 52.922-18.486 56.89zM566.34 592.16c-7.86-7.662-11.448-18.702-9.59-29.522l6.902-40.23-36.13 18.994c-9.718 5.108-21.324 5.11-31.044 0l-36.13-18.994 6.902 40.23c1.856 10.82-1.73 21.86-9.59 29.522l-29.232 28.49 40.392 5.87c10.864 1.578 20.254 8.402 25.114 18.246l18.066 36.606 18.064-36.602c4.858-9.844 14.248-16.668 25.114-18.246l40.394-5.87-29.232-28.494z" />
<glyph unicode="&#xe913;" glyph-name="hippa_2" d="M754 658h240c16.568 0 30 13.432 30 30v242c0 16.568-13.432 30-30 30h-240c-16.568 0-30-13.432-30-30v-92h-150c-49.626 0-90-40.374-90-90v-270h-120v120c0 16.568-13.432 30-30 30h-304c-16.568 0-30-13.432-30-30v-300c0-16.568 13.432-30 30-30h304c16.568 0 30 13.432 30 30v120h120v-270c0-49.626 40.374-90 90-90h150v-92c0-16.568 13.432-30 30-30h240c16.568 0 30 13.432 30 30v242c0 16.568-13.432 30-30 30h-240c-16.568 0-30-13.432-30-30v-90h-150c-16.542 0-30 13.458-30 30v270h180v-90c0-16.568 13.432-30 30-30h240c16.568 0 30 13.432 30 30v240c0 16.568-13.432 30-30 30h-240c-16.568 0-30-13.432-30-30v-90h-180v270c0 16.542 13.458 30 30 30h150v-90c0-16.568 13.432-30 30-30zM784 900h180v-182h-180v182zM304 328h-244v240h244v-240zM784 178h180v-182h-180v182zM784 538h180v-180h-180v180z" />
<glyph unicode="&#xe914;" glyph-name="hippa_3" d="M958.874 448.333c-16.947 16.589-36.198 29.978-57.037 39.859-5.274 177.382-151.194 320.077-329.856 320.077-148.378 0-277.555-99.507-317.261-240.333-4.224 0.23-8.474 0.333-12.749 0.333-133.402-0.026-241.971-107.674-241.971-240.026s108.57-240 241.997-240h570.010c116.89 0 211.994 94.208 211.994 209.997 0 56.218-23.501 110.464-65.126 150.093zM812.006 148.25h-570.010c-100.352 0-181.99 80.742-181.99 179.994s81.638 179.994 181.99 179.994c45.082 0 91.469-16.896 127.283-52.71 5.862-5.862 13.542-8.781 21.222-8.781s15.36 2.918 21.222 8.781c11.725 11.725 11.725 30.72 0 42.419-27.75 27.75-61.133 47.872-97.536 59.29 34.278 112.23 138.47 191.002 257.843 191.002 139.392 0 254.464-106.189 268.544-241.92-9.395 1.28-18.918 1.92-28.544 1.92-56.090 0-108.826-21.837-148.48-61.517-11.725-11.725-11.725-30.72 0-42.419 11.725-11.725 30.72-11.725 42.419 0 28.339 28.339 65.997 43.93 106.061 43.93 79.898 0 152.013-67.43 152.013-149.99-0.051-82.688-68.224-149.99-152.038-149.99z" />
<glyph unicode="&#xe915;" glyph-name="hippa_4" d="M882.679 953.96c-8.384 6.016-19.072 7.68-28.799 4.352l-180.86-60.287-149.117 59.647c-7.616 3.072-16.128 3.072-23.743 0l-149.117-59.647-180.924 60.287c-9.792 3.328-20.48 1.664-28.799-4.352s-13.312-15.68-13.312-25.983v-959.978c0-10.304 4.928-19.968 13.312-25.983s19.008-7.616 28.799-4.352l180.86 60.287 149.181-59.647c7.616-3.072 16.128-3.072 23.743 0l149.181 59.647 180.86-60.287c3.264-1.152 6.656-1.664 10.048-1.664 6.656 0 13.184 2.048 18.688 6.016 8.384 6.016 13.312 15.68 13.312 25.983v959.978c0 10.304-4.928 19.968-13.312 25.983zM831.993 12.414l-149.82 49.919c-7.168 2.432-14.976 2.176-22.015-0.64l-148.157-59.199-148.157 59.263c-3.84 1.472-7.808 2.24-11.84 2.24-3.392 0-6.848-0.512-10.112-1.664l-149.884-49.919v871.148l149.884-49.919c7.168-2.496 14.912-2.24 22.015 0.64l148.093 59.199 148.093-59.263c6.976-2.816 14.848-3.136 22.015-0.64l149.884 49.983v-871.148zM543.999 767.981h-255.994c-17.664 0-31.999-14.336-31.999-31.999s14.336-31.999 31.999-31.999h255.994c17.664 0 31.999 14.336 31.999 31.999s-14.336 31.999-31.999 31.999zM480.001 511.987h-191.996c-17.664 0-31.999-14.336-31.999-31.999s14.336-31.999 31.999-31.999h191.996c17.664 0 31.999 14.336 31.999 31.999s-14.336 31.999-31.999 31.999zM480.001 319.991h-191.996c-17.664 0-31.999-14.336-31.999-31.999s14.336-31.999 31.999-31.999h191.996c17.664 0 31.999 14.336 31.999 31.999s-14.336 31.999-31.999 31.999zM735.995 639.984h-447.99c-17.664 0-31.999-14.336-31.999-31.999s14.336-31.999 31.999-31.999h447.99c17.664 0 31.999 14.336 31.999 31.999s-14.336 31.999-31.999 31.999zM671.996 351.99c-19.52 0-31.999 10.496-31.999 16s12.48 16 31.999 16c9.792 0 18.496-2.368 25.087-6.72 14.72-9.856 34.623-5.888 44.351 8.832 9.856 14.656 5.888 34.559-8.832 44.351-8.64 5.76-18.304 10.176-28.607 13.12v36.415c0 17.664-14.336 31.999-31.999 31.999s-31.999-14.336-31.999-31.999v-36.927c-37.183-11.008-63.999-40.319-63.999-75.070 0-44.095 43.071-79.998 95.998-79.998 19.52 0 31.999-10.496 31.999-16s-12.48-16-31.999-16c-9.792 0-18.496 2.368-25.087 6.72-14.656 9.792-34.623 5.888-44.351-8.832-9.856-14.656-5.888-34.559 8.832-44.351 8.704-5.824 18.368-10.176 28.671-13.12v-36.415c0-17.664 14.336-31.999 31.999-31.999s31.999 14.336 31.999 31.999v36.927c37.183 11.008 63.999 40.383 63.999 75.070-0.064 44.095-43.135 79.998-96.062 79.998z" />
<glyph unicode="&#xe916;" glyph-name="hippa_advanced_directives" d="M609.628 311.718h-62.916v62.916c0 19.17-15.543 34.713-34.713 34.713s-34.713-15.543-34.713-34.713v-62.916h-62.916c-19.17 0-34.713-15.543-34.713-34.713s15.543-34.713 34.713-34.713h62.916v-62.916c0-19.17 15.543-34.713 34.713-34.713s34.713 15.543 34.713 34.713v62.916h62.916c19.17 0 34.713 15.543 34.713 34.713s-15.543 34.713-34.713 34.713zM989.287 572.204h-24.948v323.253c0 19.17-15.543 34.713-34.713 34.713h-835.253c-19.17 0-34.713-15.543-34.713-34.713v-203.931h-24.948c-19.17 0-34.713-15.543-34.713-34.713v-540.865c0-82.775 67.343-150.118 150.118-150.118h723.765c82.775 0 150.118 67.343 150.118 150.118v421.543c0 19.17-15.543 34.713-34.713 34.713zM129.086 860.744h765.828v-288.544h-480.78l-50.069 100.131c-5.882 11.764-17.898 19.191-31.048 19.191h-203.931v169.222zM954.575 115.948c0-44.494-36.199-80.696-80.696-80.696h-723.761c-44.494 0-80.696 36.199-80.696 80.696v506.153h242.14l50.069-100.131c5.882-11.764 17.898-19.191 31.048-19.191h561.897v-386.831zM512 751.838h298.305c13.419 0 24.297 10.878 24.297 24.297s-10.878 24.297-24.297 24.297h-298.305c-13.419 0-24.297-10.878-24.297-24.297s10.878-24.297 24.297-24.297zM416.975 776.135c0 13.419-10.878 24.297-24.297 24.297h-119.322c-13.419 0-24.297-10.878-24.297-24.297s10.878-24.297 24.297-24.297h119.322c13.419 0 24.297 10.878 24.297 24.297zM512 632.517h298.305c13.419 0 24.297 10.878 24.297 24.297s-10.878 24.297-24.297 24.297h-298.305c-13.419 0-24.297-10.878-24.297-24.297s10.878-24.297 24.297-24.297z" />
<glyph unicode="&#xe917;" glyph-name="hippa_allergies" d="M990.458 241.179c-8.636 8.636-11.588 21.354-7.176 30.928 81.226 176.238 25.35 372.841-109.024 507.213-134.030 134.028-330.641 190.44-507.243 109.050-9.574-4.412-22.292-1.462-30.93 7.176-0.5 0.502-1.016 0.982-1.544 1.442-46.91 43.77-120.354 42.82-166.126-2.948-45.63-45.63-46.616-119.26-2.962-166.106 0.462-0.534 0.948-1.054 1.458-1.564 7.958-7.958 10.038-20.388 5.182-30.93-36.25-78.65-46.76-164.374-31-250.048h-111.188c-16.516 0-29.906-13.39-29.906-29.906 0-247.354 202.132-448.593 450.587-448.593 99.040 0 190.7 32.004 265.149 86.132 25.384 6.254 50.468 15.020 74.618 26.152 9.57 4.412 22.29 1.462 30.928-7.176 43.112-43.194 119.642-46.52 167.668 1.508 48.174 48.176 44.778 124.482 1.508 167.67zM238.73 247.707c-31.17 38.704-51.818 86.094-57.61 137.876h196.786l-139.176-137.876zM420.681 343.767v-195.788c-52.44 5.738-100.42 26.376-139.54 57.55l139.54 138.238zM450.587 26.71c-205.36 0-374.229 158.42-389.629 358.875h60.042c15.224-167.282 157.592-299.061 329.585-299.061 174.14 0 314.587 134.466 329.585 299.261h60.044c-15.398-200.458-184.268-359.075-389.627-359.075zM619.045 204.739c-38.94-30.736-86.554-51.070-138.552-56.76v195.312l138.552-138.552zM522.787 385.783h197.268c-5.844-52.222-26.794-100.176-58.408-139.058l-138.86 139.058zM946.656 115.804c-23.32-23.32-61.266-23.32-84.588 0-12.842 12.862-33.486 23.268-55.538 24.952 59.286 75.96 94.644 171.308 94.644 274.733 0 16.516-13.39 29.906-29.906 29.906-23.526 0-660.021 0-669.185 0-16.464 77.112-8.182 154.46 24.334 225.014 14.544 31.562 8.998 68.826-13.594 94.408-0.654 0.808-1.358 1.588-2.11 2.34-23.32 23.32-23.32 61.266-0.002 84.588 23.378 23.376 61.21 23.376 84.588 0 0.676-0.678 1.378-1.316 2.102-1.912 26.3-23.624 63.724-30.034 94.65-15.782 142.582 65.714 315.259 27.63 439.915-97.026 124.636-124.636 162.708-297.301 96.994-439.887-15.788-34.26-5.104-73.98 17.696-96.746 23.376-23.378 23.376-61.21 0-84.588z" />
<glyph unicode="&#xe918;" glyph-name="hippa_current_medications" d="M874 236h-214v272c0 72.438-51.62 133.048-120 146.986v63.014h30c16.568 0 30 13.432 30 30v182c0 16.568-13.432 30-30 30h-480c-16.568 0-30-13.432-30-30v-182c0-16.568 13.432-30 30-30h30v-63.014c-68.382-13.938-120-74.548-120-146.986v-482c0-49.626 40.374-90 90-90h784c82.71 0 150 67.29 150 150s-67.288 150-150 150zM480 900h60v-122c-21.712 0-38.29 0-60 0v122zM360 900h60v-122h-60v122zM240 900h60v-122h-60v122zM120 900h60v-122c-21.712 0-38.288 0-60 0v122zM150 598c16.568 0 30 13.432 30 30v90h300v-90c0-16.568 13.432-30 30-30 39.114 0 72.478-25.078 84.86-60h-529.72c12.382 34.922 45.748 60 84.86 60zM90-4c-16.542 0-30 13.458-30 30v30h423.018c4.516-22.158 13.934-42.548 27.064-60h-420.082zM483.018 115.998l-423.018 0.002v362h540v-245.020c-58.688-11.96-105.022-58.294-116.982-116.982zM722-4h-92c-49.626 0-90 40.374-90 90s40.374 90 90 90h92v-180zM874-4h-92v180h92c49.626 0 90-40.374 90-90s-40.372-90-90-90zM420 328h-60v60c0 16.568-13.432 30-30 30s-30-13.432-30-30v-60h-60c-16.568 0-30-13.432-30-30s13.432-30 30-30h60v-62c0-16.568 13.432-30 30-30s30 13.432 30 30v62h60c16.568 0 30 13.432 30 30s-13.432 30-30 30z" />
<glyph unicode="&#xe919;" glyph-name="hippa_pertinent_past_history" d="M353.214 227.212c-11.714 11.716-30.71 11.716-42.426 0l-99.132-99.132-40.792 39.476c-11.906 11.522-30.898 11.21-42.42-0.696s-11.21-30.898 0.696-42.42l61.998-59.998c11.768-11.39 30.498-11.234 42.076 0.344l120 120c11.716 11.716 11.716 30.71 0 42.426zM353.214 531.212c-11.714 11.716-30.71 11.716-42.426 0l-99.132-99.132-40.792 39.476c-11.906 11.522-30.898 11.21-42.42-0.696s-11.21-30.898 0.696-42.42l61.998-59.998c11.768-11.39 30.498-11.234 42.076 0.344l120 120c11.716 11.716 11.716 30.71 0 42.426zM634 540h-182c-16.568 0-30-13.432-30-30s13.432-30 30-30h182c16.568 0 30 13.432 30 30s-13.432 30-30 30zM634 236h-182c-16.568 0-30-13.432-30-30s13.432-30 30-30h182c16.568 0 30 13.432 30 30s-13.432 30-30 30zM634 116h-182c-16.568 0-30-13.432-30-30s13.432-30 30-30h182c16.568 0 30 13.432 30 30s-13.432 30-30 30zM634 420h-182c-16.568 0-30-13.432-30-30s13.432-30 30-30h182c16.568 0 30 13.432 30 30s-13.432 30-30 30zM694 780h-35.16c-12.384 34.918-45.73 60-84.84 60h-35.014c-13.938 68.382-74.548 120-146.986 120s-133.048-51.618-146.986-120h-33.014c-23.91 0-46.694-9.194-64.156-25.888-10.254-9.802-17.864-21.436-22.516-34.112h-35.328c-49.626 0-90-40.374-90-90v-664c0-49.626 40.374-90 90-90h604c49.626 0 90 40.374 90 90v664c0 49.626-40.374 90-90 90zM180 750c0 15.982 14.954 30 32 30h60c16.568 0 30 13.432 30 30 0 49.626 40.374 90 90 90s90-40.374 90-90c0-16.568 13.432-30 30-30h62c16.542 0 30-13.458 30-30v-30h-424v30zM724 26c0-16.542-13.458-30-30-30h-604c-16.542 0-30 13.458-30 30v664c0 16.542 13.458 30 30 30h30v-30c0-16.568 13.432-30 30-30h484c16.568 0 30 13.432 30 30v30h30c16.542 0 30-13.458 30-30v-664zM422 810c0-16.569-13.431-30-30-30s-30 13.431-30 30c0 16.569 13.431 30 30 30s30-13.431 30-30zM1022.46 699.486l-36 108c-7.656 22.97-28.248 37.812-52.46 37.812-24.21 0-44.804-14.842-52.462-37.812l-36-108c-1.020-3.058-1.54-6.262-1.54-9.486v-664c0.002-49.626 40.376-90 90.002-90s90 40.374 90 90v664c0 3.224-0.52 6.428-1.54 9.486zM964 26c0-16.542-13.458-30-30-30s-30 13.458-30 30v30h60v-30zM964 116h-60v60h60v-60zM964 236h-60v364h60v-364zM964 660h-60v25.132l30 90 30-90v-25.132z" />
<glyph unicode="&#xe91a;" glyph-name="hippa_recent_admissions" d="M812 238c-16.568 0-30-13.432-30-30v-47.574l-51.212-51.214c-11.716-11.716-11.716-30.71 0-42.426 11.714-11.716 30.712-11.716 42.426 0l60 60c5.626 5.628 8.786 13.258 8.786 21.214v60c0 16.568-13.432 30-30 30zM752 598h-120c-16.568 0-30-13.432-30-30v-120c0-16.568 13.432-30 30-30h120c16.568 0 30 13.432 30 30v120c0 16.568-13.432 30-30 30zM722 478h-60v60h60v-60zM512 358h-120c-16.568 0-30-13.432-30-30v-120c0-16.568 13.432-30 30-30h120c16.568 0 30 13.432 30 30v120c0 16.568-13.432 30-30 30zM482 238h-60v60h60v-60zM902 338.108v471.892c0 49.626-40.374 90-90 90h-35.16c-12.384 34.916-45.73 60-84.84 60s-72.456-25.084-84.84-60h-310.32c-12.384 34.916-45.73 60-84.84 60-23.91 0-46.696-9.194-64.158-25.888-10.252-9.802-17.862-21.436-22.514-34.112h-35.328c-49.626 0-90-40.374-90-90v-662c0-49.626 40.374-90 90-90h531.892c33.59-72.020 106.17-122 190.108-122 115.914 0 212 95.686 212 212 0 83.936-49.98 156.516-122 190.108zM662 870c0 16.542 13.458 30 30 30s30-13.458 30-30v-30h-60v30zM180 870c0 15.982 14.954 30 32 30 16.542 0 30-13.458 30-30v-30h-62v30zM60 810c0 16.542 13.458 30 30 30h30v-30c0-16.568 13.432-30 30-30h122c16.568 0 30 13.432 30 30v30h300v-30c0-16.568 13.432-30 30-30h120c16.568 0 30 13.432 30 30v30h30c16.542 0 30-13.458 30-30v-92h-782v92zM604.112 118h-514.112c-16.542 0-30 13.458-30 30v510h782v-302.112c-9.804 1.382-19.816 2.112-30 2.112-115.794 0-210-94.206-210-210 0-10.184 0.73-20.196 2.112-30zM812-4c-83.548 0-150 69.158-150 152 0 82.71 67.29 150 150 150 83.108 0 152-66.664 152-150 0-82.392-69.608-152-152-152zM272 598h-122c-16.568 0-30-13.432-30-30v-120c0-16.568 13.432-30 30-30h122c16.568 0 30 13.432 30 30v120c0 16.568-13.432 30-30 30zM242 478h-62v60h62v-60zM272 358h-122c-16.568 0-30-13.432-30-30v-120c0-16.568 13.432-30 30-30h122c16.568 0 30 13.432 30 30v120c0 16.568-13.432 30-30 30zM242 238h-62v60h62v-60zM512 598h-120c-16.568 0-30-13.432-30-30v-120c0-16.568 13.432-30 30-30h120c16.568 0 30 13.432 30 30v120c0 16.568-13.432 30-30 30zM482 478h-60v60h60v-60z" />
<glyph unicode="&#xe91b;" glyph-name="hippa_recent_vitals" d="M750.694 889.958c-102.451 0-191.923-56.653-238.694-140.314-46.771 83.635-136.243 140.314-238.694 140.314-150.707 0-273.306-122.598-273.306-273.28 0-88.141 26.906-175.488 79.923-259.61 41.523-65.869 99.098-129.843 171.162-190.208 121.472-101.76 241.331-157.824 246.374-160.154 4.608-2.15 9.574-3.2 14.541-3.2 5.171 0 10.342 1.152 15.104 3.456 5.043 2.432 124.698 61.005 245.99 163.917 71.962 61.056 129.459 125.133 170.931 190.464 53.069 83.61 79.974 169.523 79.974 255.334 0 150.682-122.598 273.28-273.306 273.28zM273.306 820.762c112.538 0 204.109-91.571 204.109-204.109 0-19.098 15.488-34.586 34.586-34.586s34.586 15.488 34.586 34.586c0 112.538 91.571 204.109 204.109 204.109s204.109-91.571 204.109-204.109c0-50.739-11.366-99.021-30.438-144.435h-170.368l-46.387 139.162c-4.582 13.773-17.306 23.219-31.795 23.654-14.438 0.538-27.75-8.243-33.126-21.734l-79.923-199.834-19.814 39.629c-6.246 12.518-19.43 20.070-33.408 19.046-13.952-0.998-25.933-10.291-30.362-23.578l-21.453-64.358-75.725 227.174c-4.71 14.131-17.92 23.654-32.819 23.654s-28.109-9.523-32.819-23.654l-46.387-139.162h-171.52c-18.202 44.902-29.261 93.21-29.261 144.435 0 112.563 91.546 204.109 204.109 204.109zM511.642 76.826c-35.123 17.946-126.848 68.019-217.318 144.026-55.398 46.541-116.48 108.339-161.050 182.17h161.638c14.899 0 28.109 9.523 32.819 23.654l21.453 64.358 75.725-227.174c4.71-14.131 17.92-23.654 32.819-23.654s28.109 9.523 32.819 23.654l27.853 83.584 16.922-33.843c6.093-12.186 18.79-19.661 32.384-19.098 13.619 0.563 25.626 9.062 30.694 21.709l73.472 183.654 24.397-73.216c4.71-14.131 17.92-23.654 32.819-23.654h159.258c-108.979-175.053-319.283-295.552-376.704-326.17z" />
<glyph unicode="&#xe91c;" glyph-name="increase" d="M993.972-3.986h-89.998v661.982h89.998c26.606 0 40.034 32.234 21.3 51.124l-239.994 241.994c-11.73 11.828-30.87 11.828-42.6 0l-239.994-241.994c-18.736-18.892-5.304-51.124 21.3-51.124h89.998v-179.996h-213.992c-16.568 0-30-13.432-30-30v-149.996h-209.994c-16.568 0-30-13.432-30-30v-271.992h-89.996c-16.568 0-30-13.432-30-30s13.432-30 30-30h963.974c16.568 0 30 13.432 30 30-0.002 16.57-13.434 30.002-30.002 30.002zM359.99-3.986h-179.994v241.994h179.994v-241.994zM603.984-3.986h-183.994v421.988h183.994v-421.988zM843.976 687.996v-691.982h-179.994v691.982c0 16.568-13.432 30-30 30h-47.994l167.992 169.392 167.992-169.392h-47.994c-16.57-0.002-30.002-13.434-30.002-30z" />
<glyph unicode="&#xe91d;" glyph-name="invoice" d="M680.256 446.864v52.463c4.003-1.384 7.215-3.019 10.091-4.484 4.512-2.299 9.176-4.679 14.929-4.679 16.148 0 25.079 16.387 25.079 27.716 0 21.125-27.024 30.773-50.098 34.18v1.688c0 11.81-10.575 21.789-23.096 21.789-12.735 0-23.096-9.775-23.096-21.789v-2.818c-37.848-7.363-59.975-32.867-59.975-70.296 0-47.309 32.436-63.14 59.975-73.238v-67.159c-10.727 3.171-16.378 9.052-21.194 14.057-4.574 4.757-10.268 10.678-19.31 10.678-14.538 0-25.401-14.625-25.401-27.704 0-21.11 27.304-44.653 65.902-49.99v-3.696c0-11.999 10.361-21.765 23.096-21.765 12.521 0 23.096 9.967 23.096 21.765v6.374c35.359 9.632 56.031 37.696 56.031 77.306 0.003 51.157-33.078 70.296-56.028 79.602zM634.734 465.020c-6.78 4.599-8.859 9.663-8.859 17.579 0 3.662 0 10.774 8.859 15.394v-32.973zM679.275 347.313v37.016c3.283-4.741 4.89-10.743 4.89-19.050 0-7.767-1.545-13.656-4.89-17.967zM906.954 960h-789.898c-25.706 0-46.545-20.84-46.545-46.545v-930.909c0-18.826 11.342-35.8 28.734-43.002s37.413-3.221 50.725 10.091l98.735 98.738 98.735-98.738c8.729-8.729 20.567-13.635 32.914-13.635 12.344 0 24.182 4.903 32.911 13.635l98.738 98.738 98.738-98.738c8.729-8.729 20.567-13.635 32.911-13.635 12.347 0 24.185 4.906 32.911 13.635l98.735 98.738 98.735-98.738c8.903-8.906 20.809-13.635 32.92-13.635 5.998 0 12.046 1.157 17.802 3.544 17.392 7.205 28.734 24.179 28.734 43.002v930.909c0.009 25.706-20.831 46.545-46.536 46.545zM860.414 94.919h-0.006l-52.19 52.19c-8.729 8.729-20.567 13.635-32.914 13.635s-24.185-4.906-32.911-13.635l-98.735-98.738-98.738 98.738c-9.089 9.089-20.998 13.635-32.911 13.635s-23.825-4.543-32.911-13.635l-98.738-98.738-98.735 98.738c-8.729 8.729-20.567 13.635-32.914 13.635s-24.185-4.906-32.914-13.635l-52.19-52.19v771.99h696.807v-771.99zM303.237 649.697h417.534c25.706 0 46.545 20.84 46.545 46.545s-20.84 46.545-46.545 46.545h-417.534c-25.706 0-46.545-20.84-46.545-46.545s20.84-46.545 46.545-46.545zM303.237 463.515h169.292c25.706 0 46.545 20.84 46.545 46.545s-20.84 46.545-46.545 46.545h-169.292c-25.706 0-46.545-20.84-46.545-46.545s20.84-46.545 46.545-46.545zM303.237 277.333h169.292c25.706 0 46.545 20.84 46.545 46.545s-20.84 46.545-46.545 46.545h-169.292c-25.706 0-46.545-20.84-46.545-46.545s20.84-46.545 46.545-46.545z" />
<glyph unicode="&#xe91e;" glyph-name="mm_medical-result" d="M609.628 311.718h-62.916v62.916c0 19.17-15.543 34.713-34.713 34.713s-34.713-15.543-34.713-34.713v-62.916h-62.916c-19.17 0-34.713-15.543-34.713-34.713s15.543-34.713 34.713-34.713h62.916v-62.916c0-19.17 15.543-34.713 34.713-34.713s34.713 15.543 34.713 34.713v62.916h62.916c19.17 0 34.713 15.543 34.713 34.713s-15.543 34.713-34.713 34.713zM989.287 572.204h-24.948v323.253c0 19.17-15.543 34.713-34.713 34.713h-835.253c-19.17 0-34.713-15.543-34.713-34.713v-203.931h-24.948c-19.17 0-34.713-15.543-34.713-34.713v-540.865c0-82.775 67.343-150.118 150.118-150.118h723.765c82.775 0 150.118 67.343 150.118 150.118v421.543c0 19.17-15.543 34.713-34.713 34.713zM129.086 860.744h765.828v-288.544h-480.78l-50.069 100.131c-5.882 11.764-17.898 19.191-31.048 19.191h-203.931v169.222zM954.575 115.948c0-44.494-36.199-80.696-80.696-80.696h-723.761c-44.494 0-80.696 36.199-80.696 80.696v506.153h242.14l50.069-100.131c5.882-11.764 17.898-19.191 31.048-19.191h561.897v-386.831zM512 751.838h298.305c13.419 0 24.297 10.878 24.297 24.297s-10.878 24.297-24.297 24.297h-298.305c-13.419 0-24.297-10.878-24.297-24.297s10.878-24.297 24.297-24.297zM416.975 776.135c0 13.419-10.878 24.297-24.297 24.297h-119.322c-13.419 0-24.297-10.878-24.297-24.297s10.878-24.297 24.297-24.297h119.322c13.419 0 24.297 10.878 24.297 24.297zM512 632.517h298.305c13.419 0 24.297 10.878 24.297 24.297s-10.878 24.297-24.297 24.297h-298.305c-13.419 0-24.297-10.878-24.297-24.297s10.878-24.297 24.297-24.297z" />
<glyph unicode="&#xe91f;" glyph-name="mm_medicines" d="M765.018 960c-127.3 0-230.869-103.569-230.869-230.869v-198.959c-54.596 41.708-120.956 64.357-190.829 64.357-84.196 0-163.35-32.789-222.884-92.322s-92.322-138.688-92.322-222.884 32.789-163.35 92.322-222.884 138.688-92.322 222.884-92.322c83.034 0 161.123 31.944 220.367 89.922 39.595-70.38 114.991-118.039 201.332-118.039 127.3 0 230.869 103.569 230.869 230.869v562.262c0 127.3-103.569 230.869-230.869 230.869zM765.018 891.847c89.719 0 162.716-72.994 162.716-162.716v-247.056h-325.432v247.056c0 89.722 72.997 162.716 162.716 162.716zM518.013 454.013c8.664-8.664 16.598-17.86 23.783-27.51 0.062-0.076 0.114-0.152 0.176-0.224 31.42-42.284 48.4-93.315 48.4-146.956 0-54.486-17.563-106.255-49.938-148.925l-346.036 346.040c42.667 32.378 94.436 49.938 148.925 49.938 65.988 0 128.028-25.697 174.69-72.363zM168.629 104.629c-46.666 46.663-72.363 108.703-72.363 174.694 0 54.486 17.563 106.255 49.938 148.925l346.040-346.043c-42.667-32.378-94.436-49.938-148.925-49.938-65.988 0-128.028 25.697-174.69 72.363zM765.018 4.153c-70.994 0-131.475 45.721-153.648 109.251 30.679 49.355 47.159 106.355 47.159 165.916 0 47.325-10.361 93.053-30.003 134.603h299.208v-247.056c0-89.719-72.994-162.713-162.716-162.713z" />
<glyph unicode="&#xe920;" glyph-name="mm_prescription" d="M303.19 667.757h29.93v-29.93c0-13.426 10.881-24.307 24.307-24.307s24.307 10.881 24.307 24.307v29.93h29.93c13.426 0 24.307 10.881 24.307 24.307s-10.881 24.307-24.307 24.307h-29.93v29.93c0 13.426-10.881 24.307-24.307 24.307s-24.307-10.881-24.307-24.307v-29.93h-29.93c-13.426 0-24.307-10.881-24.307-24.307s10.881-24.307 24.307-24.307zM864.684 787.727l-162.106 162.106c-6.513 6.509-15.343 10.168-24.552 10.168h-494.154c-19.177 0-34.723-15.546-34.723-34.723v-954.554c0-19.177 15.546-34.723 34.723-34.723h656.256c19.177 0 34.723 15.546 34.723 34.723v792.448c0 9.213-3.658 18.042-10.168 24.555zM712.749 841.447l43.553-43.553h-43.553v43.553zM218.595 5.446v885.108h424.708v-127.383c0-19.177 15.546-34.723 34.723-34.723h127.383v-723.006h-586.814zM720.81 531.965h-417.62c-13.426 0-24.307-10.881-24.307-24.307s10.881-24.307 24.307-24.307h417.623c13.426 0 24.307 10.881 24.307 24.307s-10.885 24.307-24.311 24.307zM720.81 412.646h-417.62c-13.426 0-24.307-10.881-24.307-24.307s10.881-24.307 24.307-24.307h417.623c13.426 0 24.307 10.881 24.307 24.307s-10.885 24.307-24.311 24.307zM720.81 293.324h-417.62c-13.426 0-24.307-10.881-24.307-24.307s10.881-24.307 24.307-24.307h417.623c13.426 0 24.307 10.881 24.307 24.307s-10.885 24.307-24.311 24.307zM720.81 174.006h-178.983c-13.426 0-24.307-10.881-24.307-24.307s10.881-24.307 24.307-24.307h178.983c13.426 0 24.307 10.881 24.307 24.307s-10.881 24.307-24.307 24.307z" />
<glyph unicode="&#xe921;" glyph-name="mm_pulse" d="M750.702 891.244c-102.452 0-191.919-56.665-238.702-140.305-46.783 83.637-136.251 140.305-238.702 140.305-150.697 0-273.298-122.601-273.298-273.298 0-88.147 26.893-175.494 79.927-259.617 41.519-65.857 99.1-129.851 171.156-190.212 121.47-101.748 241.33-157.813 246.374-160.151 4.617-2.138 9.581-3.206 14.543-3.206 5.168 0 10.333 1.158 15.101 3.468 5.034 2.441 124.687 60.995 245.984 163.923 71.956 61.057 129.465 125.138 170.932 190.464 53.072 83.609 79.982 169.515 79.982 255.331 0 150.697-122.601 273.298-273.298 273.298zM273.298 822.053c112.543 0 204.107-91.564 204.107-204.107 0-19.104 15.491-34.595 34.595-34.595s34.595 15.491 34.595 34.595c0 112.543 91.564 204.107 204.107 204.107s204.107-91.564 204.107-204.107c0-50.731-11.354-99.031-30.434-144.432h-170.36l-46.387 139.157c-4.592 13.774-17.294 23.214-31.803 23.642-14.45 0.534-27.748-8.251-33.137-21.732l-79.931-199.825-19.818 39.636c-6.258 12.516-19.428 20.077-33.396 19.039-13.957-0.99-25.941-10.295-30.368-23.569l-21.449-64.35-75.721 227.163c-4.71 14.129-17.929 23.655-32.82 23.655s-28.11-9.526-32.82-23.655l-46.383-139.161h-171.536c-18.191 44.904-29.262 93.212-29.262 144.432 0.003 112.543 91.567 204.107 204.11 204.107zM511.652 78.115c-35.113 17.942-126.855 68.018-217.322 144.029-55.389 46.539-116.477 108.344-161.044 182.179h161.633c14.891 0 28.11 9.526 32.82 23.655l21.449 64.35 75.721-227.163c4.71-14.129 17.929-23.655 32.82-23.655s28.11 9.526 32.82 23.655l27.858 83.578 16.918-33.837c6.092-12.185 18.784-19.666 32.382-19.094 13.612 0.565 25.621 9.068 30.682 21.718l73.466 183.665 24.404-73.218c4.71-14.129 17.929-23.655 32.82-23.655h159.261c-108.965-175.107-319.281-295.605-376.687-326.208z" />
<glyph unicode="&#xe922;" glyph-name="mm_speech-bubble" d="M525.286 813.21h367.437c6.579 0 11.93-5.35 11.93-11.93v-40.141c0-6.579-5.35-11.93-11.93-11.93h-367.437c-6.579 0-11.93 5.35-11.93 11.93v40.141c-0.026 6.579 5.325 11.93 11.93 11.93zM131.277 416.102h367.437c6.579 0 11.93-5.35 11.93-11.93v-40.141c0-6.579-5.35-11.93-11.93-11.93h-367.437c-6.579 0-11.93 5.35-11.93 11.93v40.141c0 6.579 5.35 11.93 11.93 11.93zM641.536 499.661h41.062c2.739 0 5.376-0.947 7.501-2.662l183.654-148.813c7.808-6.323 19.456-0.768 19.456 9.267v130.278c0 6.579 5.35 11.93 11.93 11.93h43.034c41.626 0 75.469 34.099 75.469 76.032v308.275c0 41.933-33.843 76.032-75.469 76.032h-478.31c-41.626 0-75.469-34.099-75.469-76.032v-308.275c0-0.051 0-0.077 0-0.128 0-6.63-5.299-12.006-11.93-12.006h-306.611c-41.626 0-75.469-34.099-75.469-76.058v-308.275c0-41.933 33.843-76.032 75.469-76.032h43.034c6.579 0 11.93-5.35 11.93-11.93v-130.253c0-10.035 11.648-15.59 19.456-9.267l183.654 148.813c2.125 1.715 4.787 2.662 7.501 2.662h212.71c41.626 0 75.469 34.099 75.469 76.032v308.48c0 6.605 5.325 11.93 11.93 11.93zM565.581 179.251c0-6.528-5.248-12.032-11.469-12.032h-235.392c-2.739 0-5.376-0.947-7.501-2.662l-96.947-78.541c-7.808-6.323-19.456-0.768-19.456 9.267v60.006c0 6.579-5.35 11.93-11.93 11.93h-107.034c-6.221 0-11.469 5.504-11.469 12.032v308.275c0 6.528 5.248 12.058 11.469 12.058h478.285c6.221 0 11.469-5.504 11.469-12.058l-0.026-308.275zM959.616 575.693c0-6.528-5.248-12.032-11.469-12.032h-107.034c-6.579 0-11.93-5.35-11.93-11.93v-60.006c0-10.035-11.648-15.59-19.456-9.267l-96.947 78.566c-2.125 1.715-4.787 2.662-7.501 2.662h-235.392c-6.221 0-11.469 5.504-11.469 12.032v308.25c0 6.528 5.248 12.032 11.469 12.032h478.285c6.221 0 11.469-5.504 11.469-12.032l-0.026-308.275z" />
<glyph unicode="&#xe923;" glyph-name="mm_webcam" d="M932.89 539.11c0 232.192-188.723 420.89-420.89 420.89s-420.89-188.698-420.89-420.89c0-217.754 166.144-397.261 378.266-418.79v-99.046h-117.248c-23.603 0-42.624-19.021-42.624-42.624s19.021-42.624 42.624-42.624h319.949c23.603 0 42.624 19.021 42.624 42.624s-19.021 42.624-42.624 42.624h-117.248v99.046c211.917 21.53 378.061 201.037 378.061 418.79zM176.384 539.11c0 184.934 150.477 335.616 335.616 335.616 184.934 0 335.616-150.477 335.616-335.616 0-184.934-150.477-335.616-335.616-335.616-184.934 0-335.616 150.682-335.616 335.616zM707.405 539.11c0 107.827-87.552 195.405-195.405 195.405s-195.405-87.782-195.405-195.405c0-107.827 87.552-195.405 195.405-195.405s195.405 87.578 195.405 195.405zM401.869 539.11c0 60.595 49.331 110.131 110.131 110.131 60.595 0 110.131-49.331 110.131-110.131 0-60.595-49.331-110.131-110.131-110.131-60.595 0-110.131 49.536-110.131 110.131v0z" />
<glyph unicode="&#xe924;" glyph-name="monitor" d="M934 903.29h-844c-49.626 0-90-40.374-90-90v-556.546c0-49.626 40.374-90 90-90h302.988v-114.032h-45.174c-16.568 0-30-13.432-30-30s13.432-30 30-30h328.374c16.568 0 30 13.432 30 30s-13.432 30-30 30h-45.174v114.032h302.986c49.626 0 90 40.374 90 90v556.546c0 49.626-40.374 90-90 90zM571.012 52.71h-118.024v114.032h118.024v-114.032zM964 256.742c0-16.542-13.458-30-30-30h-844c-16.542 0-30 13.458-30 30v45.606h904v-45.606zM964 362.348h-904v450.942c0 16.542 13.458 30 30 30h844c16.542 0 30-13.458 30-30v-450.942zM364.55 526.216l-81.266 55.482 81.266 55.482c13.684 9.342 17.204 28.008 7.862 41.692-9.34 13.682-28.008 17.202-41.692 7.862l-117.558-80.258c-8.188-5.59-13.084-14.864-13.084-24.776s4.896-19.19 13.084-24.78l117.558-80.258c5.174-3.534 11.062-5.226 16.888-5.226 9.58 0 18.996 4.58 24.804 13.088 9.342 13.684 5.822 32.35-7.862 41.692zM810.838 606.472l-117.558 80.258c-13.682 9.34-32.348 5.82-41.692-7.862-9.342-13.684-5.822-32.35 7.862-41.692l81.266-55.482-81.266-55.478c-13.684-9.342-17.204-28.008-7.862-41.692 5.81-8.51 15.222-13.088 24.804-13.088 5.826 0 11.714 1.694 16.888 5.226l117.558 80.258c8.188 5.59 13.084 14.864 13.084 24.776s-4.898 19.184-13.084 24.776zM586.916 714.968c-14.44 8.118-32.732 2.994-40.852-11.452l-120.436-214.246c-8.116-14.44-2.99-32.73 11.454-40.85 4.648-2.614 9.694-3.854 14.672-3.854 10.488 0 20.672 5.51 26.178 15.304l120.436 214.246c8.12 14.442 2.992 32.732-11.452 40.852z" />
<glyph unicode="&#xe925;" glyph-name="network" d="M512 960c-63.348 0-114.888-51.54-114.888-114.888s51.54-114.888 114.888-114.888 114.888 51.54 114.888 114.888-51.54 114.888-114.888 114.888zM512 805.152c-22.034 0-39.96 17.928-39.96 39.96s17.928 39.96 39.96 39.96 39.96-17.928 39.96-39.96-17.926-39.96-39.96-39.96zM587.96 727.726h-154.42c-49.008 0-88.878-39.872-88.878-88.878v-128.41c0-20.69 16.774-37.464 37.464-37.464h257.248c20.69 0 37.464 16.774 37.464 37.464v128.41c0.002 49.008-39.87 88.878-88.878 88.878zM601.912 547.902h-182.322v90.946c0 7.692 6.258 13.952 13.952 13.952h154.42c7.692 0 13.952-6.258 13.952-13.952v-90.946zM904.118 105.562v127.648c0 20.69-16.774 37.464-37.464 37.464h-317.19v104.898c0 20.69-16.774 37.464-37.464 37.464s-37.464-16.774-37.464-37.464v-104.898h-317.19c-20.69 0-37.464-16.774-37.464-37.464v-127.648c-30.88-13.878-52.448-44.906-52.448-80.898 0-48.89 39.774-88.664 88.664-88.664s88.664 39.774 88.664 88.664c0 35.016-20.408 65.352-49.952 79.75v91.334h279.726v-91.334c-29.544-14.398-49.952-44.734-49.952-79.75 0-48.89 39.774-88.664 88.664-88.664s88.664 39.774 88.664 88.664c0 35.992-21.568 67.020-52.448 80.898v90.184h279.726v-91.334c-29.544-14.398-49.952-44.734-49.952-79.75 0-48.89 39.774-88.664 88.664-88.664s88.664 39.774 88.664 88.664c0 35.994-21.568 67.020-52.448 80.9zM156.098 10.926c-7.576 0-13.736 6.162-13.736 13.736s6.162 13.736 13.736 13.736c7.576 0 13.736-6.162 13.736-13.736s-6.162-13.736-13.736-13.736zM513.248 10.926c-7.576 0-13.736 6.162-13.736 13.736s6.162 13.736 13.736 13.736 13.736-6.162 13.736-13.736-6.16-13.736-13.736-13.736zM867.902 10.926c-7.576 0-13.736 6.162-13.736 13.736s6.162 13.736 13.736 13.736 13.736-6.162 13.736-13.736-6.16-13.736-13.736-13.736z" />
<glyph unicode="&#xe926;" glyph-name="presentation" d="M966.554 872.586h-417.091v49.95c0 20.69-16.774 37.464-37.464 37.464s-37.464-16.774-37.464-37.464v-49.95h-417.089c-20.69 0-37.464-16.774-37.464-37.464v-681.831c0-20.69 16.774-37.464 37.464-37.464h389.595l-71.378-123.628c-10.344-17.918-4.206-40.83 13.712-51.174 17.918-10.348 40.83-4.206 51.174 13.712l71.448 123.754 71.448-123.754c10.35-17.928 33.268-24.052 51.174-13.712 17.918 10.344 24.056 33.258 13.712 51.174l-71.37 123.628h389.595c20.69 0 37.464 16.774 37.464 37.464v681.831c-0.004 20.69-16.778 37.464-37.466 37.464zM929.090 190.754c-24.082 0-812.938 0-834.182 0v606.905h834.182v-606.905zM319.689 565.387h-142.36c-20.69 0-37.464-16.774-37.464-37.464v-207.296c0-20.69 16.774-37.464 37.464-37.464h142.36c20.69 0 37.464 16.774 37.464 37.464v207.298c-0.002 20.688-16.774 37.462-37.464 37.462zM282.225 358.091h-67.434v132.37h67.434v-132.37zM584.427 705.25h-142.36c-20.69 0-37.464-16.774-37.464-37.464v-347.159c0-20.69 16.774-37.464 37.464-37.464h142.36c20.69 0 37.464 16.774 37.464 37.464v347.161c0 20.69-16.774 37.462-37.464 37.462zM546.965 358.091h-67.434v272.233h67.434v-272.233zM846.672 650.303h-142.36c-20.69 0-37.464-16.774-37.464-37.464v-292.213c0-20.69 16.774-37.464 37.464-37.464h142.36c20.69 0 37.464 16.774 37.464 37.464v292.215c-0.002 20.69-16.776 37.462-37.464 37.462zM809.208 358.091h-67.434v217.286h67.434v-217.286z" />
<glyph unicode="&#xe927;" glyph-name="ss_bill" d="M882.679 953.96c-8.384 6.016-19.072 7.68-28.799 4.352l-180.86-60.287-149.117 59.647c-7.616 3.072-16.128 3.072-23.743 0l-149.117-59.647-180.924 60.287c-9.792 3.328-20.48 1.664-28.799-4.352s-13.312-15.68-13.312-25.983v-959.978c0-10.304 4.928-19.968 13.312-25.983s19.008-7.616 28.799-4.352l180.86 60.287 149.181-59.647c7.616-3.072 16.128-3.072 23.743 0l149.181 59.647 180.86-60.287c3.264-1.152 6.656-1.664 10.048-1.664 6.656 0 13.184 2.048 18.688 6.016 8.384 6.016 13.312 15.68 13.312 25.983v959.978c0 10.304-4.928 19.968-13.312 25.983zM831.993 12.414l-149.82 49.919c-7.168 2.432-14.976 2.176-22.015-0.64l-148.157-59.199-148.157 59.263c-3.84 1.472-7.808 2.24-11.84 2.24-3.392 0-6.848-0.512-10.112-1.664l-149.884-49.919v871.148l149.884-49.919c7.168-2.496 14.912-2.24 22.015 0.64l148.093 59.199 148.093-59.263c6.976-2.816 14.848-3.136 22.015-0.64l149.884 49.983v-871.148zM543.999 767.981h-255.994c-17.664 0-31.999-14.336-31.999-31.999s14.336-31.999 31.999-31.999h255.994c17.664 0 31.999 14.336 31.999 31.999s-14.336 31.999-31.999 31.999zM480.001 511.987h-191.996c-17.664 0-31.999-14.336-31.999-31.999s14.336-31.999 31.999-31.999h191.996c17.664 0 31.999 14.336 31.999 31.999s-14.336 31.999-31.999 31.999zM480.001 319.991h-191.996c-17.664 0-31.999-14.336-31.999-31.999s14.336-31.999 31.999-31.999h191.996c17.664 0 31.999 14.336 31.999 31.999s-14.336 31.999-31.999 31.999zM735.995 639.984h-447.99c-17.664 0-31.999-14.336-31.999-31.999s14.336-31.999 31.999-31.999h447.99c17.664 0 31.999 14.336 31.999 31.999s-14.336 31.999-31.999 31.999zM671.996 351.99c-19.52 0-31.999 10.496-31.999 16s12.48 16 31.999 16c9.792 0 18.496-2.368 25.087-6.72 14.72-9.856 34.623-5.888 44.351 8.832 9.856 14.656 5.888 34.559-8.832 44.351-8.64 5.76-18.304 10.176-28.607 13.12v36.415c0 17.664-14.336 31.999-31.999 31.999s-31.999-14.336-31.999-31.999v-36.927c-37.183-11.008-63.999-40.319-63.999-75.070 0-44.095 43.071-79.998 95.998-79.998 19.52 0 31.999-10.496 31.999-16s-12.48-16-31.999-16c-9.792 0-18.496 2.368-25.087 6.72-14.656 9.792-34.623 5.888-44.351-8.832-9.856-14.656-5.888-34.559 8.832-44.351 8.704-5.824 18.368-10.176 28.671-13.12v-36.415c0-17.664 14.336-31.999 31.999-31.999s31.999 14.336 31.999 31.999v36.927c37.183 11.008 63.999 40.383 63.999 75.070-0.064 44.095-43.135 79.998-96.062 79.998z" />
<glyph unicode="&#xe928;" glyph-name="ss_speaker" d="M0 619.213v-342.426c0-11.981 9.728-21.709 21.709-21.709h239.386c4.454 0 8.806-1.382 12.442-3.917l315.597-220.928c14.387-10.061 34.176 0.23 34.176 17.792v799.949c0 17.562-19.763 27.853-34.176 17.792l-315.597-220.928c-3.661-2.56-7.987-3.917-12.442-3.917h-239.386c-11.981 0-21.709-9.702-21.709-21.709zM534.272 676.966v-457.933c0-17.562-19.763-27.853-34.176-17.792l-164.352 115.046c-5.811 4.070-9.267 10.701-9.267 17.792v227.84c0 7.091 3.456 13.722 9.267 17.792l164.352 115.046c14.387 10.061 34.176-0.23 34.176-17.792zM110.746 551.885h104.986c11.981 0 21.709-9.728 21.709-21.709v-164.352c0-11.981-9.728-21.709-21.709-21.709h-104.986c-11.981 0-21.709 9.728-21.709 21.709v164.352c0 11.981 9.728 21.709 21.709 21.709zM712.346 737.126v-45.773c0-11.238 8.576-20.634 19.789-21.632 113.51-10.035 202.829-105.651 202.829-221.747s-89.318-211.686-202.829-221.747c-11.213-0.998-19.789-10.368-19.789-21.632v-45.773c0-12.646 10.752-22.579 23.373-21.658 160.973 11.981 288.282 146.79 288.282 310.784s-127.309 298.854-288.282 310.835c-12.621 0.947-23.373-9.011-23.373-21.658zM845.901 448c0 64.768-46.336 118.912-107.597 131.021-13.44 2.662-25.958-7.603-25.958-21.299v-47.155c0-9.267 5.888-17.485 14.643-20.531 17.382-6.067 29.875-22.63 29.875-42.061s-12.493-35.994-29.875-42.061c-8.755-3.046-14.643-11.264-14.643-20.531v-47.155c0-13.696 12.518-23.962 25.958-21.299 61.261 12.16 107.597 66.304 107.597 131.072z" />
<glyph unicode="&#xe929;" glyph-name="ss_tag" d="M984.002 960h-472c-10.61 0-20.784-4.214-28.286-11.716l-472-472c-15.622-15.622-15.622-40.948 0-56.568l472-472c15.62-15.62 40.948-15.622 56.57 0l472 472c7.5 7.5 11.714 17.676 11.714 28.284v472c0.002 22.092-17.906 40-39.998 40zM512.002 32.568l-415.43 415.432 75.43 75.43 415.432-415.432-75.432-75.43zM944.002 464.568l-300-300-415.43 415.432 300 300h415.43v-415.432zM752.002 808c-66.168 0-120-53.832-120-120s53.834-120 120-120c66.168 0 120 53.832 120 120s-53.832 120-120 120zM752.002 648c-22.056 0-40 17.944-40 40s17.944 40 40 40 40-17.944 40-40-17.944-40-40-40z" />
<glyph unicode="&#xe92a;" glyph-name="wall-calendar" d="M944.356 850.958h-138.808v26.040c0 17.522-12.836 32.894-30.252 34.816-20.59 2.27-38.016-13.79-38.016-33.92v-26.938h-450.56v26.042c0 17.522-12.836 32.894-30.252 34.816-20.59 2.27-38.016-13.79-38.016-33.92v-26.938h-138.808c-43.986 0.002-79.644-35.656-79.644-79.644v-707.698c0-43.986 35.658-79.644 79.644-79.644h864.712c43.986 0 79.644 35.658 79.644 79.644v707.698c0 43.988-35.658 79.646-79.644 79.646zM955.734 63.616c0-6.286-5.096-11.378-11.378-11.378h-864.712c-6.282 0-11.378 5.094-11.378 11.378v537.030h887.466v-537.030zM955.734 668.912h-887.468v102.4c0 6.282 5.094 11.378 11.378 11.378h138.808v-26.042c0-17.522 12.836-32.894 30.252-34.816 20.59-2.274 38.016 13.788 38.016 33.918v26.94h450.56v-26.042c0-17.522 12.836-32.894 30.252-34.816 20.59-2.274 38.016 13.788 38.016 33.918v26.94h138.808c6.282 0 11.378-5.094 11.378-11.378v-102.4zM260.322 441.358h-81.846c-17.522 0-32.894-12.836-34.816-30.252-2.27-20.59 13.79-38.016 33.92-38.016h81.844c17.522 0 32.894 12.836 34.816 30.252 2.272 20.59-13.786 38.016-33.918 38.016zM455.69 441.358h-81.848c-17.522 0-32.894-12.836-34.816-30.252-2.27-20.59 13.788-38.016 33.92-38.016h81.848c17.522 0 32.894 12.836 34.816 30.252 2.27 20.59-13.79 38.016-33.92 38.016zM651.054 441.358h-81.848c-17.522 0-32.894-12.836-34.816-30.252-2.27-20.59 13.79-38.016 33.92-38.016h81.848c17.522 0 32.894 12.836 34.816 30.252 2.27 20.59-13.788 38.016-33.92 38.016zM846.42 441.358h-81.844c-17.522 0-32.894-12.836-34.816-30.252-2.27-20.59 13.788-38.016 33.92-38.016h81.844c17.522 0 32.894 12.836 34.816 30.252 2.27 20.59-13.788 38.016-33.92 38.016zM260.322 279.792h-81.846c-17.522 0-32.894-12.836-34.816-30.252-2.27-20.59 13.79-38.016 33.92-38.016h81.844c17.522 0 32.894 12.836 34.816 30.252 2.272 20.59-13.786 38.016-33.918 38.016zM455.69 279.792h-81.848c-17.522 0-32.894-12.836-34.816-30.252-2.27-20.59 13.788-38.016 33.92-38.016h81.848c17.522 0 32.894 12.836 34.816 30.252 2.27 20.59-13.79 38.016-33.92 38.016zM651.054 279.792h-81.848c-17.522 0-32.894-12.836-34.816-30.252-2.27-20.59 13.79-38.016 33.92-38.016h81.848c17.522 0 32.894 12.836 34.816 30.252 2.27 20.59-13.788 38.016-33.92 38.016zM846.42 279.792h-81.844c-17.522 0-32.894-12.836-34.816-30.252-2.27-20.59 13.788-38.016 33.92-38.016h81.844c17.522 0 32.894 12.836 34.816 30.252 2.27 20.59-13.788 38.016-33.92 38.016z" />
</font>
</defs>
</svg>
