<?xml version="1.0" standalone="no"?>
<!DOCTYPE svg PUBLIC "-//W3C//DTD SVG 1.1//EN" "http://www.w3.org/Graphics/SVG/1.1/DTD/svg11.dtd">
<svg xmlns="http://www.w3.org/2000/svg">
<metadata>Copyright (C) 2021 by original authors @ fontello.com</metadata>
<defs>
<font id="fontello" horiz-adv-x="1000" >
<font-face font-family="fontello" font-weight="400" font-stretch="normal" units-per-em="1000" ascent="850" descent="-150" />
<missing-glyph horiz-adv-x="1000" />
<glyph glyph-name="report-1" unicode="&#xe800;" d="M463 317h-42c-24 0-44-19-44-43v-86c0-24 20-43 44-43h42c24 0 44 19 44 43v86c0 24-20 43-44 43z m14-129c0-7-6-14-14-14h-42c-8 0-14 7-14 14v86c0 8 6 14 14 14h42c8 0 14-6 14-14v-86z m135 241h-43c-24 0-43-19-43-43v-198c0-24 19-43 43-43h43c24 0 43 19 43 43v198c0 24-19 43-43 43z m14-241c0-7-7-14-14-14h-43c-8 0-14 7-14 14v198c0 8 6 14 14 14h43c7 0 14-6 14-14v-198z m91-43h43c24 0 43 19 43 43v135c0 24-19 44-43 44h-43c-23 0-43-20-43-44v-135c0-24 20-43 43-43z m-14 178c0 8 7 14 14 14h43c8 0 14-6 14-14v-135c0-7-6-14-14-14h-43c-7 0-14 7-14 14v135z m-367-22c-7 4-16 1-20-6l-56-93-15 26c-5 7-14 9-21 5-6-4-9-13-4-20l28-47c3-4 8-7 13-7h0c5 0 10 3 12 7l68 115c4 6 2 15-5 20z m664 285v147c0 45-37 82-81 82h-7c-9 0-15-7-15-15 0-8 6-15 15-15h7c28 0 52-23 52-52v-147c0-29-24-52-52-52h-98c-3 0-7-2-10-5l-70-69c-6-7-14-5-16-4-3 1-10 5-10 14v49c0 8-6 15-14 15h-27c-29 0-53 23-53 52v147c0 29 24 52 53 52h180c8 0 15 7 15 15 0 8-7 15-15 15h-180c-45 0-82-37-82-82v-111h-79c-22 121-128 213-255 213-142 0-258-116-258-259 0-70 28-133 74-180v-355c-42-7-74-44-74-87 0-24 9-46 26-63 17-17 39-26 62-26h690c8 0 14 7 14 15 0 8-6 14-14 14h-690c-15 0-30 7-41 18-11 11-18 26-18 42 0 32 27 59 59 59 0 0 0 0 0 0h247c7-37 39-65 78-65h174c39 0 71 28 78 65h247c0 0 0 0 0 0 15 0 30-6 41-18 12-11 18-26 18-41 0-33-27-60-59-60h-76c-8 0-15-6-15-14 0-8 7-15 15-15h76c48 0 88 40 88 89 0 23-9 45-26 62-13 13-30 22-48 25v464c42 4 74 39 74 81z m-413-609h-174c-22 0-41 15-48 36h270c-6-21-26-36-48-36z m-484 65v328c14-10 29-20 45-27v-205c0-28 23-51 51-51h602c28 0 51 23 51 51v356c0 3 0 7-1 10h46v-462h-794z m571 462h12v-34c0-18 11-34 27-41 6-2 12-3 18-3 11 0 22 4 31 13l60 60c1-2 1-4 1-5v-356c0-12-10-22-22-22h-602c-12 0-22 10-22 22v193c26-8 53-13 81-13 123 0 226 86 252 200h118c13-9 29-14 46-14z m-82 88v-6c0-14 4-27 10-39h-87c1 10 2 20 2 29 0 6 0 11-1 16h76z m-105-1h-214v214c115-7 207-99 214-214z m-243 214v-44c-95-8-170-88-170-185 0-49 19-95 53-129 3-3 7-5 10-5 4 0 8 2 11 4 5 6 5 15 0 21-29 29-45 68-45 109 0 81 62 148 141 155v-155c0-8 6-14 14-14h155c-7-79-74-141-155-141-23 0-46 5-67 15-7 4-16 1-19-7-4-7-1-16 7-19 25-12 51-18 79-18 97 0 177 75 185 170h44c-8-120-107-215-229-215-126 0-229 103-229 229 0 122 95 221 215 229z m592-65h-160c-8 0-14-7-14-15 0-8 6-15 14-15h160c8 0 15 7 15 15 0 8-7 15-15 15z m60-30h20c8 0 14 7 14 15 0 8-6 15-14 15h-20c-8 0-15-7-15-15 0-8 7-15 15-15z m-60-27h-160c-8 0-14-7-14-15 0-8 6-15 14-15h160c8 0 15 7 15 15 0 8-7 15-15 15z m60-30h20c8 0 14 7 14 15 0 8-6 15-14 15h-20c-8 0-15-7-15-15 0-8 7-15 15-15z m-60-28h-160c-8 0-14-6-14-14 0-8 6-15 14-15h160c8 0 15 7 15 15 0 8-7 14-15 14z m60-29h20c8 0 14 7 14 15 0 8-6 14-14 14h-20c-8 0-15-6-15-14 0-8 7-15 15-15z" horiz-adv-x="1000" />

<glyph glyph-name="schedule-1" unicode="&#xe801;" d="M127 400h34c17 0 30 14 30 30v34c0 17-13 30-30 30h-34c-16 0-30-13-30-30v-34c0-16 14-30 30-30z m-1 64c0 0 1 1 1 1h34c0 0 1-1 1-1v-34c0 0-1-1-1-1h-34c0 0-1 1-1 1v34z m131-64h33c17 0 31 14 31 30v34c0 17-14 30-31 30h-33c-17 0-30-13-30-30v-34c0-16 13-30 30-30z m-1 64c0 0 0 1 1 1h33c1 0 1-1 1-1v-34c0 0 0-1-1-1h-33c-1 0-1 1-1 1v34z m130-64h34c16 0 30 14 30 30v34c0 17-14 30-30 30h-34c-16 0-30-13-30-30v-34c0-16 14-30 30-30z m-1 64c0 0 1 1 1 1h34c0 0 1-1 1-1v-34c0 0-1-1-1-1h-34c0 0-1 1-1 1v34z m164-64c17 0 30 14 30 30v34c0 17-13 30-30 30h-33c-17 0-31-13-31-30v-34c0-16 14-30 31-30h33z m-34 30v34c0 0 0 1 1 1h33c1 0 1-1 1-1v-34c0 0 0-1-1-1h-33c-1 0-1 1-1 1z m164-30c16 0 30 14 30 30v34c0 17-14 30-30 30h-34c-17 0-30-13-30-30v-34c0-16 13-30 30-30h34z m-35 30v34c0 0 1 1 1 1h34c0 0 1-1 1-1v-34c0 0-1-1-1-1h-34c0 0-1 1-1 1z m164-30c17 0 30 14 30 30v34c0 17-13 30-30 30h-33c-17 0-31-13-31-30v-34c0-16 14-30 31-30h33z m-34 30v34c0 0 0 1 1 1h33c1 0 1-1 1-1v-34c0 0 0-1-1-1h-33c-1 0-1 1-1 1z m-677-129c0-17 14-30 30-30h34c17 0 30 13 30 30v33c0 17-13 31-30 31h-34c-16 0-30-14-30-31v-33z m29 33c0 1 1 1 1 1h34c0 0 1 0 1-1v-33c0-1-1-1-1-1h-34c0 0-1 0-1 1v33z m101-33c0-17 13-30 30-30h33c17 0 31 13 31 30v33c0 17-14 31-31 31h-33c-17 0-30-14-30-31v-33z m29 33c0 1 0 1 1 1h33c1 0 1 0 1-1v-33c0-1 0-1-1-1h-33c-1 0-1 0-1 1v33z m100-33c0-17 14-30 30-30h34c16 0 30 13 30 30v33c0 17-14 31-30 31h-34c-16 0-30-14-30-31v-33z m29 33c0 1 1 1 1 1h34c0 0 1 0 1-1v-33c0-1-1-1-1-1h-34c0 0-1 0-1 1v33z m-288-162c0-17 14-31 30-31h34c17 0 30 14 30 31v33c0 17-13 30-30 30h-34c-16 0-30-13-30-30v-33z m29 33c0 1 1 1 1 1h34c0 0 1 0 1-1v-33c0-1-1-1-1-1h-34c0 0-1 0-1 1v33z m101-33c0-17 13-31 30-31h33c17 0 31 14 31 31v33c0 17-14 30-31 30h-33c-17 0-30-13-30-30v-33z m29 33c0 1 0 1 1 1h33c1 0 1 0 1-1v-33c0-1 0-1-1-1h-33c-1 0-1 0-1 1v33z m100-33c0-17 14-31 30-31h34c16 0 30 14 30 31v33c0 17-14 30-30 30h-34c-16 0-30-13-30-30v-33z m29 33c0 1 1 1 1 1h34c0 0 1 0 1-1v-33c0-1-1-1-1-1h-34c0 0-1 0-1 1v33z m518 73v428c0 44-36 79-79 79h-115v10c0 30-25 55-55 55-31 0-55-25-55-55v-10h-262v10c0 30-25 55-55 55-31 0-55-25-55-55v-10h-115c-44 0-80-35-80-79v-230c0-8 7-14 15-14 8 0 15 6 15 14v54h812v-224c-45 37-102 59-164 59-47 0-92-13-131-36v5c0 17-13 31-30 31h-33c-17 0-31-14-31-31v-32c0-16 12-29 27-31-37-44-59-102-59-164 0 0 0-1 0-1h-341c-28 0-50 22-50 50v262c0 8-7 14-15 14-8 0-15-6-15-14v-327c0-44 36-79 80-79h35c8 0 15 6 15 14 0 9-7 15-15 15h-35c-28 0-50 23-50 50v3c13-11 31-17 50-17h343c1-13 4-24 7-36h-256c-8 0-15-6-15-15 0-8 7-14 15-14h265c38-95 131-162 239-162 142 0 258 115 258 257 0 66-25 125-65 171z m-275 517c0 14 12 26 26 26 14 0 26-12 26-26v-81c0-14-12-26-26-26-14 0-26 12-26 26v81z m-372 0c0 14 11 26 26 26 14 0 25-12 25-26v-81c0-14-11-26-25-26-15 0-26 12-26 26v81z m-144-39h115v-35h-18c-8 0-15-7-15-15 0-8 7-15 15-15h22c9-19 28-32 51-32 22 0 41 13 50 32h22c9 0 15 7 15 15 0 8-6 15-15 15h-17v35h262v-35h-18c-8 0-15-7-15-15 0-8 7-15 15-15h23c8-19 27-32 50-32 22 0 41 13 50 32h23c8 0 14 7 14 15 0 8-6 15-14 15h-18v35h115c27 0 50-22 50-50v-82h-812v82c0 28 22 50 50 50z m-50-197v35h812v-35h-812z m453-225c0 1 0 1 1 1h33c0 0 1 0 1-1v-25c-3-3-7-6-10-9h-24c-1 0-1 1-1 2v32h0z m195-455c-125 0-228 103-228 228 0 126 103 228 228 228 126 0 228-102 228-228 0-125-102-228-228-228z m0 421c-106 0-192-86-192-193 0-106 86-192 192-192 107 0 193 86 193 192 0 107-86 193-193 193z m0-356c-90 0-163 73-163 163 0 90 73 164 163 164 90 0 164-74 164-164 0-90-74-163-164-163z m81 178h-36c-5 14-16 25-30 30v69c0 8-7 14-15 14-8 0-14-6-14-14v-69c-19-6-33-24-33-45 0-26 21-47 47-47 21 0 39 14 45 33h36c8 0 15 6 15 14 0 8-7 15-15 15z m-81-32c-9 0-17 8-17 17 0 10 8 18 17 18 10 0 18-8 18-18 0-9-8-17-18-17z" horiz-adv-x="1000" />

<glyph glyph-name="video-call-(1)-1" unicode="&#xe802;" d="M249 691c8 0 15 7 15 15 0 8-7 15-15 15-8 0-15-7-15-15 0-8 7-15 15-15z m67 0c8 0 15 7 15 15 0 8-7 15-15 15-8 0-15-7-15-15 0-8 7-15 15-15z m67 0c8 0 15 7 15 15 0 8-7 15-15 15-8 0-15-7-15-15 0-8 7-15 15-15z m82-764c8 0 15 7 15 15 0 8-7 14-15 14h-64c-8 0-15-6-15-14 0-8 7-15 15-15h64z m314 379c-8 0-15-7-15-15v-366c0-25-20-46-46-46h-570c-25 0-46 21-46 46v850c0 25 21 46 46 46h570c26 0 46-21 46-46v-109c0-8 7-15 15-15 8 0 14 7 14 15v109c0 41-33 75-75 75h-570c-41 0-75-34-75-75v-850c0-41 34-75 75-75h570c42 0 75 34 75 75v366c0 8-6 15-14 15z m94 306h-160v115c0 24-19 43-42 43h-475c-24 0-43-19-43-43v-688c0-23 19-43 43-43h475c23 0 42 20 42 43v306h160c30 0 54 24 54 54v159c0 29-24 54-54 54z m-691 115c0 8 6 14 14 14h475c7 0 13-6 13-14v-56h-502v56z m489-701h-475c-4 0-9 2-11 5 12 69 65 123 134 137l25 4c23-23 56-36 89-36h0c34 0 66 13 90 36l25-4c68-14 121-68 133-137-2-3-6-5-10-5z m-184 462l0 0c-1 0-1 0-1 0-7 0-15-1-22-3-19-6-43-6-62 0-7 2-15 3-22 3l-1 0c-28 0-51-23-50-51l0-38-19 7c-2 0-3 3-3 5v59c0 41 33 74 74 74h111c11 0 20-9 20-20 0-14 12-26 26-26h1c11 0 20-9 20-20v-67c0-2-1-5-3-5l-19-7 1 38c0 28-23 51-51 51z m-164-118c17-6 35 7 35 25l0 42c0 12 9 22 21 22l1 0h0c4 0 9-1 13-2 25-8 55-8 80 0 4 1 9 2 13 2l1 0c12 0 21-10 21-22l0-42c0-18 18-31 35-25l18 6c0 0 0 0 0 0l0-23c0-3-3-6-6-6l-8 0c-8 0-14-7-15-15 0-27-11-52-30-68-20-18-43-27-68-27-26 0-49 9-69 26-19 17-30 42-31 69 0 8-7 14-15 14 0 0 0 0 0 0l-8 0c0 0 0 0 0 0-3 0-6 3-6 6 0 24 0 23 0 24l18-6z m170-185c-17-13-38-20-60-20 0 0 0 0 0 0-22 0-42 7-59 20 8 8 14 19 15 30 14-5 29-7 45-7h0c0 0 0 0 0 0 15 0 29 2 43 7 1-11 7-22 16-30z m191-79c-29 46-75 80-131 90l-33 7c-7 1-14 9-14 16v11c5 3 10 7 15 12 22 19 36 46 40 76 7 1 14 5 19 10 7 7 10 16 10 25l0 23c0 7-2 13-5 19 2 5 4 10 4 16v67c0 26-22 48-48 49-1 26-23 47-49 47h-111c-57 0-104-47-104-104v-59c0-6 2-12 5-17-4-5-6-12-6-19l0-23c0-10 4-18 10-25 6-5 12-9 20-10 4-30 18-57 40-76 5-4 9-8 14-11v-11c0-7-6-15-14-16 0 0 0 0 0 0l-33-7c-55-10-102-44-131-90v536h502v-30c-30-1-54-25-54-54v-159c0-30 24-54 54-54v-239z m214 293c0-14-11-25-25-25h-189c-13 0-24 11-24 25v159c0 13 11 24 24 24h189c14 0 25-11 25-24v-159z m-66 132l-24-12c-2 12-12 21-24 21h-72c-13 0-24-11-24-24v-75c0-14 11-24 24-24h72c12 0 22 8 24 20l24-11c17-8 37 4 37 24v57c0 19-20 32-37 24z m-53-85h-62v65h62v-65z m61 8l-32 15v18l32 15v-48z" horiz-adv-x="1000" />

<glyph glyph-name="analysis-1" unicode="&#xe803;" d="M983 165l-18 11c-1 1-2 1-3 2l-40 70c0 1 0 2 0 3l-1 21c0 12-7 24-18 30l-35 21c-11 6-25 6-36 0l-18-10c-1-1-2-1-3-1h-9v381c0 4-2 7-5 10l-142 143c-3 2-7 4-10 4h-356c-8 0-15-7-15-15 0-8 7-14 15-14h341v-118c0-14 11-25 24-25h118v-366h-41c-1 0-2 0-3 1l-19 10c-11 6-24 6-35 0l-35-21c-11-6-18-18-18-30l-1-21c0-1 0-2-1-3l-39-70c-1-1-2-1-3-2l-18-11c-11-6-17-18-17-30v-41c0-13 6-25 17-31l18-11c1-1 2-1 3-2l39-70c1-1 1-2 1-3l1-21c0-12 7-24 18-30l35-21c6-3 12-4 18-4 6 0 12 1 17 4l19 10c1 1 2 1 3 1h41v-28c0-5-3-9-8-9h-726c-5 0-9 4-9 9v924c0 5 4 9 9 9h192c8 0 15 6 15 14 0 8-7 15-15 15h-192c-21 0-38-17-38-38v-924c0-21 17-38 38-38h726c21 0 38 17 38 38v28h9c1 0 2 0 3-1l18-10c11-6 25-6 36 0l35 21c11 6 18 18 18 30l1 21c0 1 0 2 0 3l40 70c1 1 2 1 3 2l18 11c10 6 17 18 17 31v41c0 12-7 24-17 30z m-324 635l93-92h-93v92z m312-706c0-3-1-5-3-6l-18-11c-6-3-10-7-13-13l-40-69c-3-5-5-11-5-17l0-21c0-3-1-5-3-6l-36-20c-2-1-4-2-6 0l-19 10c-5 3-11 4-17 4h-80c-6 0-12-1-17-4l-19-10c-2-2-4-1-6 0l-36 20c-2 1-3 3-3 6l0 21c0 6-2 12-5 17l-40 69c-3 6-7 10-13 13l-18 11c-2 1-3 3-3 6v41c0 2 1 4 3 5l18 11c6 3 10 8 13 13l40 69c3 5 5 11 5 17l0 21c0 3 1 5 3 6l36 20c2 1 4 1 6 0l19-10c5-3 11-4 17-4h80c6 0 12 1 17 4l19 10c2 1 4 1 6 0l36-20c2-1 3-3 3-6l0-21c0-6 2-12 5-17l40-69c3-5 7-10 13-13l18-11c2-1 3-3 3-5v-41h0z m-200 156c-75 0-136-61-136-136 0-75 61-136 136-136 33 0 65 12 89 34 7 5 7 15 2 21-6 6-15 6-21 1-19-17-44-26-70-26-59 0-106 47-106 106 0 59 47 106 106 106 59 0 106-47 106-106 0-13-2-26-7-38-2-7 1-16 9-18 8-3 16 1 19 8 6 15 9 32 9 48 0 75-61 136-136 136z m-544 39v205c0 8-7 15-15 15h-108c-8 0-15-7-15-15v-205c0-8 7-15 15-15h108c8 0 15 7 15 15z m-29 14h-79v177h79v-177z m51 94v-108c0-8 6-15 14-15h109c8 0 14 7 14 15v108c0 8-6 14-14 14h-109c-8 0-14-6-14-14z m29-15h79v-79h-79v79z m39 375c-8 0-14-7-14-15v-166c0-8 6-14 14-14h288c9 0 15 6 15 14 0 8-6 15-15 15h-273v151c0 8-6 15-15 15z m61-135l68 31 88-40c2-1 4-1 6-1 2 0 4 0 6 1l51 21c7 3 11 12 8 19-3 8-12 11-19 8l-45-18-89 39c-3 2-8 2-11 0l-75-33c-8-3-11-12-8-20 4-7 12-10 20-7z m-293 74h10c8 0 14 7 14 15 0 8-6 14-14 14h-10c-8 0-14-6-14-14 0-8 6-15 14-15z m43 15c0-8 7-15 15-15h107c8 0 14 7 14 15 0 8-6 14-14 14h-107c-8 0-15-6-15-14z m-43-78h10c8 0 14 7 14 15 0 8-6 14-14 14h-10c-8 0-14-6-14-14 0-8 6-15 14-15z m58 0h107c8 0 14 7 14 15 0 8-6 14-14 14h-107c-8 0-15-6-15-14 0-8 7-15 15-15z m-58-63h10c8 0 14 6 14 14 0 8-6 15-14 15h-10c-8 0-14-7-14-15 0-8 6-14 14-14z m179 14c0 8-6 15-14 15h-107c-8 0-15-7-15-15 0-8 7-14 15-14h107c8 0 14 6 14 14z m196-133h9c8 0 15 6 15 14 0 9-7 15-15 15h-9c-8 0-15-6-15-15 0-8 7-14 15-14z m164 29h-107c-8 0-14-6-14-15 0-8 6-14 14-14h107c8 0 15 6 15 14 0 9-7 15-15 15z m-164-92h9c8 0 15 6 15 14 0 8-7 15-15 15h-9c-8 0-15-7-15-15 0-8 7-14 15-14z m164 29h-107c-8 0-14-7-14-15 0-8 6-14 14-14h107c8 0 15 6 15 14 0 8-7 15-15 15z m-164-93h9c8 0 15 7 15 15 0 8-7 15-15 15h-9c-8 0-15-7-15-15 0-8 7-15 15-15z m179 15c0 8-7 15-15 15h-107c-8 0-14-7-14-15 0-8 6-15 14-15h107c8 0 15 7 15 15z m-460-168h-80c-8 0-15-6-15-14 0-8 7-15 15-15h80c9 0 15 7 15 15 0 8-6 14-15 14z m0-54h-80c-8 0-15-7-15-15 0-8 7-15 15-15h80c9 0 15 7 15 15 0 8-6 15-15 15z m0-55h-80c-8 0-15-7-15-15 0-8 7-14 15-14h80c9 0 15 6 15 14 0 8-6 15-15 15z m0-55h-80c-8 0-15-6-15-15 0-8 7-14 15-14h80c9 0 15 6 15 14 0 9-6 15-15 15z m229-45c-8-2-12-10-10-18 2-8 10-12 18-10 60 18 102 74 102 136 0 78-63 142-141 142-78 0-142-64-142-142 0-68 49-127 116-139 1 0 2 0 3 0 7 0 13 5 14 12 1 8-4 15-12 17-53 10-92 56-92 110 0 57 43 105 98 112v-112c0-8 7-14 15-14h111c-6-44-37-81-80-94z m-17 123v97c51-7 90-47 97-97h-97v0z" horiz-adv-x="1000" />

<glyph glyph-name="authentication-1" unicode="&#xe804;" d="M67 500c0 21 13 40 33 47v-264h33v417c0 28 23 50 50 50h450v33h-450c-46 0-83-37-83-83v-118c-39-8-67-42-67-82v-200h34v200z m916-517h-16v350h-34v-350h-293c-19 0-38-7-52-21-7-8-18-12-28-12h-120c-10 0-21 4-28 12-14 14-33 21-52 21h-293v67h-34v-67h-16c-9 0-17-7-17-16v-50c0-37 30-67 67-67h866c37 0 67 30 67 67v50c0 9-7 16-17 16z m-16-66c0-19-15-34-34-34h-866c-19 0-34 15-34 34v33h327c10 0 21-4 28-12 14-14 33-21 52-21h120c19 0 38 7 52 21 7 8 18 12 28 12h327v-33z m-100 416h33v-316h-33v316z m-767-283h33v-33h-33v33z m83 667h34v-34h-34v34z m67 0h33v-34h-33v34z m67 0h33v-34h-33v34z m-134-67h417v-33h-417v33z m257-117c54 25 117 19 165-15l19 27c-69 49-161 49-230 0l20-27c8 6 17 11 26 15z m170-524c37 39 66 84 86 133l-31 12c-18-45-45-86-79-122l24-23z m373 641h-16v50c0 83-67 150-150 150-83 0-150-67-150-150 0-9 7-17 16-17h67c9 0 17 8 17 17 0 28 22 50 50 50 27 0 50-22 50-50v-50h-217c-9 0-17-7-17-17v-151c-42 22-88 33-136 33h-2c-56 0-110-17-156-48l19-28c40 28 88 42 137 42h2c48 1 95-12 136-37v-41c-39 30-87 45-136 45h-2c-70 0-135-35-175-92l-8-11 28-19 8 11c33 48 88 77 147 78h2c63 0 120-29 154-77 11-16 20-35 26-55 9-31 9-64 0-95l32-9c10 37 10 76 0 114-7 23-17 45-31 65-2 3-5 6-7 9h312c10 0 17 7 17 16v250c0 10-7 17-17 17z m-166 133c-40 0-74-28-82-66h-34c9 63 69 108 132 99 58-9 100-58 100-116v-50h-33v50c0 46-37 83-83 83z m150-383h-300v217h300v-217z m-103 118c2 5 3 10 3 15 0 28-23 50-50 50-28 0-50-22-50-50 0-5 1-10 2-15-22-15-36-41-36-68 0-9 8-17 17-17h133c10 0 17 8 17 17 0 27-13 53-36 68z m-94-51c4 13 15 24 28 29 8 4 12 14 9 22-1 2-2 3-3 5-2 3-4 6-4 10 0 10 8 17 17 17 9 0 16-7 16-17 0-4-1-7-4-10-6-7-5-18 2-24 1-1 3-2 5-3 13-5 23-16 28-29h-94z m-753-384h337l-2-2 24-23 26 25h47l-47-46 23-24 84 84c33 32 57 72 71 115 7 24 3 50-12 70-15 21-39 33-64 33h-9c-34 0-64-22-75-55-2-4-3-7-4-10h-38c4 6 8 13 10 20 16 47 59 78 107 78h9c36 0 69-17 91-46 21-29 27-66 16-100-15-48-42-93-78-129l-62-61 24-24 62 62c39 40 69 88 86 142 14 44 6 92-21 130-28 37-72 59-118 59h-9c-62 0-118-40-138-100-3-7-7-14-13-19l-11-12h-316c-9 0-17-7-17-17v-133c0-9 8-17 17-17z m478 198h9c14 0 28-7 37-19 9-11 11-26 7-40-10-31-26-61-48-86v59c8 14 14 29 18 45 1 2-1 4-3 5 0 0 0 0 0 0l-32 5h-31c7 19 24 31 43 31z m-462-64h434v-100h-434v100z m34-34h33v-33h-33v33z m66 0h34v-33h-34v33z m67 0h33v-33h-33v33z m67 0h33v-33h-33v33z" horiz-adv-x="1000" />

<glyph glyph-name="bell-1" unicode="&#xe805;" d="M751 850c-103 0-187-84-187-187 0-103 84-187 187-187 103 0 186 84 186 187 0 103-83 187-186 187v0z m0-344c-87 0-158 70-158 157 0 87 71 158 158 158 86 0 157-71 157-158 0-87-71-157-157-157z m0 344h38v39h-38v-39z m0 0h-39v-38h39v38z m157-187h-38v0l38 0z m-157 226c-125 0-226-102-226-226h77c0 82 67 149 149 149v77z m-226-226c0-124 101-225 226-225v77c-82 0-149 66-149 148h-77z m226-225c124 0 225 101 225 225h-77c0-82-67-148-148-148v-77z m225 225c0 124-101 226-225 226v-77c81 0 148-67 148-149h77z m-187 187v0h-77v0h77z m-38-306c-66 0-120 54-120 119h-76c0-108 87-196 196-196v77z m-120 119c0 66 54 119 120 119v77c-109 0-196-88-196-196h76z m120 119c65 0 119-53 119-119h77c0 108-88 196-196 196v-77z m119-119c0-65-54-119-119-119v-77c108 0 196 88 196 196l-77 0z m-108 90h-33c-8 0-14-7-14-15 0-8 6-15 14-15h18v-137c0-9 7-15 15-15 8 0 15 6 15 15v152c0 8-7 15-15 15z m-15-30h39v39h-39v-39z m15 68h-33v-77h33v77z m-33 0c-29 0-53-24-53-53h77c0-13-10-24-24-24v77z m-53-53c0-29 24-53 53-53v77c14 0 24-11 24-24h-77z m53-53h18v77h-18v-77z m-20 38v-137h77v137h-77z m0-137c0-30 24-54 53-54v77c13 0 24-10 24-23h-77z m53-54c29 0 53 24 53 54h-77c0 13 11 23 24 23v-77z m53 54v152h-77v-152h77z m0 152c0 29-24 53-53 53v-77c-13 0-24 11-24 24h77z m-134-289c-3 8-12 11-19 8-7-3-11-11-8-19 13-31 19-62 19-95v-150c0-55 35-102 88-118 13-5 22-17 22-31l-102 405z m-18-7l0 0 0 0z m-125-498l0 0 0 0z" horiz-adv-x="1000" />

<glyph glyph-name="bill-(2)-1" unicode="&#xe806;" d="M710 217h-361c-8 0-15-7-15-15 0-8 7-15 15-15h361c8 0 15 7 15 15 0 8-7 15-15 15z m0 88h-361c-8 0-15-7-15-15 0-8 7-15 15-15h361c8 0 15 7 15 15 0 8-7 15-15 15z m0-176h-361c-8 0-15-7-15-15 0-8 7-15 15-15h361c8 0 15 7 15 15 0 8-7 15-15 15z m0-88h-361c-8 0-15-7-15-15 0-8 7-14 15-14h361c8 0 15 6 15 14 0 8-7 15-15 15z m140 132c8 0 15 6 15 14v609c0 30-24 54-54 54h-622c-30 0-54-24-54-54v-913c0-20 19-37 38-26l30 17c0 0 0 0 0 0 0 1 1 1 1 1 3 1 6 1 9-1l34-19c12-7 27-7 39 0l34 19c3 2 7 2 10 0l34-19c6-3 13-5 19-5 7 0 14 2 20 5l34 19c3 2 7 2 10 0l33-19c6-3 13-5 20-5 7 0 14 2 20 5l33 19c3 2 7 2 10 0l34-19c7-4 15-5 22-5 6 0 12 2 17 5l34 19c3 2 7 2 10 0l34-19c7-4 14-5 22-5 6 0 12 2 17 5l34 19c3 2 6 2 9 1 1 0 1 0 1-1 0 0 0 0 0 0l31-17c18-11 37 6 37 26v236c0 8-7 15-15 15-8 0-15-7-15-15v-233c-2 2-23 14-26 15-12 6-25 6-37-1l-34-19c-3-2-7-2-10 0l-33 19c-6 3-13 5-20 5-7 0-14-2-20-5l-33-19c-3-2-7-2-10 0l-34 19c-6 3-13 5-20 5-6 0-13-2-19-5l-34-19c-3-2-7-2-10 0l-34 19c-6 3-12 5-19 5-7 0-14-2-20-5l-34-19c-3-2-7-2-10 0l-33 19c-12 7-28 7-40 0l-33-19c-3-2-7-2-10 0l-34 19c-12 7-25 7-37 1-2-1-24-14-26-15v910c0 14 11 25 24 25h622c14 0 24-11 24-25v-609c0-8 7-14 15-14z m-560 132c-8 0-14-7-14-15 0-8 6-15 14-15 8 0 15 7 15 15 0 8-7 15-15 15z m0-88c-8 0-14-7-14-15 0-8 6-15 14-15 8 0 15 7 15 15 0 8-7 15-15 15z m0-176c-8 0-14-7-14-15 0-8 6-14 14-14 8 0 15 6 15 14 0 8-7 15-15 15z m0 88c-8 0-14-7-14-15 0-8 6-15 14-15 8 0 15 7 15 15 0 8-7 15-15 15z m170 280c-7 5-17 2-21-6-3-6-1-15 6-19 15-10 26-13 39-14v-11c0-8 6-15 14-15 9 0 16 6 16 14v13c27 7 44 29 48 52 5 29-11 54-39 64-3 1-6 2-9 3v55c4-1 7-3 9-4 7-4 16-3 20 4 7 8 1 17-7 22-5 3-13 7-22 8v10c0 8-7 15-15 15-8 1-15-6-15-14v-12c-1 0-2 0-4-1-19-5-32-21-36-41-4-19 2-37 15-47 7-5 15-9 25-14v-72c-8 1-14 4-24 10z m54 50c21-7 20-26 19-31-2-10-8-21-19-26v57z m-37 49c-4 4-6 11-4 18 1 6 4 13 11 17v-39c-2 1-5 3-7 4z m262 166v54c0 19-15 34-34 34h-248c-8 0-15-6-15-15 0-8 7-14 15-14h248c3 0 5-2 5-5v-54c0-3-2-5-5-5h-410c-3 0-5 2-5 5v54c0 3 2 5 5 5h94c8 0 14 6 14 14 0 9-6 15-14 15h-94c-19 0-34-15-34-34v-54c0-19 15-34 34-34h410c19 0 34 15 34 34z" horiz-adv-x="1000" />

<glyph glyph-name="blocked-1" unicode="&#xe807;" d="M808-8l-113-113h-390l-276 276v390l112 112c6 6 6 15 0 21-5 6-15 6-20 0l-117-117c-2-2-4-6-4-10v-402c0-4 2-8 4-10l285-285c2-3 6-4 10-4h402c4 0 8 1 10 4l118 118c6 5 6 15 0 20-6 6-15 6-21 0z m-578 32l91-91c3-3 7-4 11-4h336c4 0 8 1 11 4l238 238c3 3 4 7 4 11v336c0 4-1 8-4 11l-91 91c-6 6-15 6-21 0l-575-575c-6-6-6-15 0-21z m432-66h-324l-40 40h404l-40-40z m153 631l77-77v-324l-90-90c-12 30-31 57-55 78-31 28-68 47-109 54l-54 10v28c41 25 69 70 72 121h18c19 0 34 15 34 34v40c0 5-1 10-4 15l111 111z m-343-343c9-2 19-3 28-3 19 0 37 4 54 10v-26c0-30-24-54-54-54-14 0-28 6-38 16-9 8-14 19-16 31l26 26z m207 206v-29c0-3-3-5-5-5h-17v12l22 22z m-179-179c0 0-1 0-1 0l129 128v-1c0-70-58-127-128-127z m-59-105c16-16 37-24 59-24 40 0 74 28 82 66l31-5c-11-53-58-93-113-93-42 0-81 23-101 60l24 24c4-10 10-20 18-28z m-64-17c27-42 73-68 123-68 36 0 71 14 98 38 23 21 38 48 44 78 64-15 116-61 137-124l-48-48h-462l-8 8 116 116z m302 616c-3 3-7 4-11 4h-336c-4 0-8-1-11-4l-238-238c-2-3-4-7-4-11v-336c0-4 2-8 4-11l91-91c3-3 7-4 11-4 4 0 7 1 10 4l575 575c6 6 6 15 0 21l-91 91z m-353-349c-2 0-5 2-5 5v40c0 2 3 5 5 5h17v-50h-17v0z m47 50h143c15 0 29 6 39 17 1-1 1-1 2-2l-159-159c-17 22-25 48-25 76v68h0z m197 54v101c32-3 57-31 57-64v-5l-50-50c-4 4-7 11-7 18 0 0 0 0 0 0z m-29 0c0-14-12-25-25-25h-143v70c0 57 46 104 103 104h32c18 0 33-15 33-33 0 0 0 0 0 0v-116c0 0 0 0 0 0z m113 59c-9 39-44 69-86 72-6 27-31 47-60 47h-32c-73 0-133-60-133-133v-70h-17c-19 0-34-16-34-34v-40c0-19 15-34 34-34h18c2-32 13-61 33-86l-192-192-77 77v324l230 230h324l77-77-85-84z m342-20l-285 285c-2 3-6 4-10 4h-402c-4 0-8-1-10-4l-120-120c-5-5-5-15 0-20 6-6 15-6 21 0l115 115h390l276-276v-390l-114-114c-6-5-6-15 0-20 3-3 7-5 10-5 4 0 8 2 11 5l118 118c3 2 4 6 4 10v402c0 4-1 8-4 10z" horiz-adv-x="1000" />

<glyph glyph-name="calendar-(1)-1" unicode="&#xe808;" d="M942 104c8 0 15 6 15 14v497c0 60-38 112-94 131v41c0 35-28 63-63 63-35 0-64-28-64-63v-33h-73v33c0 35-28 63-63 63-35 0-64-28-64-63v-33h-72v33c0 35-29 63-64 63-35 0-63-28-63-63v-33h-73v33c0 17-7 32-19 44-12 12-28 19-45 19-35 0-63-28-63-63v-41c-56-19-94-71-94-131v-626c0-77 62-139 139-139h636c77 0 139 62 139 139v71c0 8-7 14-15 14-8 0-14-6-14-14v-71c0-61-50-110-110-110h-636c-60 0-109 49-109 110v532h855v-403c0-8 6-14 14-14z m-177 683c0 18 16 34 35 34 18 0 34-16 34-34v-105c0-19-16-34-34-34-19 0-35 15-35 34v105z m-199 0c0 18 15 34 34 34 19 0 34-16 34-34v-105c0-19-15-34-34-34-19 0-34 15-34 34v105z m-200 0c0 18 15 34 34 34 19 0 34-16 34-34v-105c0-19-15-34-34-34-19 0-34 15-34 34v105z m-293-237v65c0 44 25 82 64 100v-33c0-35 28-63 63-63 21 0 41 10 52 27 5 7 4 16-3 20-7 5-16 3-21-3-6-9-16-15-28-15-18 0-34 15-34 34v105c0 18 16 34 34 34 10 0 18-4 25-10 6-7 10-15 10-24v-75c0-9 6-15 14-15 8 0 15 6 15 15v12h73v-42c0-35 28-63 63-63 35 0 64 28 64 63v42h72v-42c0-35 29-63 64-63 35 0 63 28 63 63v42h73v-42c0-35 29-63 64-63 35 0 63 28 63 63v33c39-18 65-56 65-100v-65h-855z m273-86c-38 0-68-30-68-68 0-38 30-68 68-68 38 0 68 30 68 68 0 38-30 68-68 68z m0-107c-22 0-39 18-39 39 0 21 17 39 39 39 21 0 39-18 39-39 0-21-18-39-39-39z m154 107c-38 0-68-30-68-68 0-38 30-68 68-68 38 0 68 30 68 68 0 38-30 68-68 68z m0-107c-21 0-39 18-39 39 0 21 18 39 39 39 22 0 39-18 39-39 0-21-17-39-39-39z m154 107c-37 0-68-30-68-68 0-38 31-68 68-68 38 0 68 30 68 68 0 38-30 68-68 68z m0-107c-21 0-39 18-39 39 0 21 18 39 39 39 22 0 39-18 39-39 0-21-17-39-39-39z m154 107c-37 0-68-30-68-68 0-38 31-68 68-68 38 0 69 30 69 68 0 38-31 68-69 68z m0-107c-21 0-39 18-39 39 0 21 18 39 39 39 22 0 39-18 39-39 0-21-17-39-39-39z m-616-83c-38 0-69-30-69-68 0-38 31-68 69-68 37 0 68 30 68 68 0 38-31 68-68 68z m0-107c-22 0-39 17-39 39 0 21 17 39 39 39 21 0 39-18 39-39 0-22-18-39-39-39z m154 107c-38 0-68-30-68-68 0-38 30-68 68-68 38 0 68 30 68 68 0 38-30 68-68 68z m0-107c-22 0-39 17-39 39 0 21 17 39 39 39 21 0 39-18 39-39 0-22-18-39-39-39z m154 107c-38 0-68-30-68-68 0-38 30-68 68-68 38 0 68 30 68 68 0 38-30 68-68 68z m0-107c-21 0-39 17-39 39 0 21 18 39 39 39 22 0 39-18 39-39 0-22-17-39-39-39z m154 107c-37 0-68-30-68-68 0-38 31-68 68-68 38 0 68 30 68 68 0 38-30 68-68 68z m0-107c-21 0-39 17-39 39 0 21 18 39 39 39 22 0 39-18 39-39 0-22-17-39-39-39z m154 107c-37 0-68-30-68-68 0-38 31-68 68-68 38 0 69 30 69 68 0 38-31 68-69 68z m0-107c-21 0-39 17-39 39 0 21 18 39 39 39 22 0 39-18 39-39 0-22-17-39-39-39z m-616-83c-38 0-69-31-69-68 0-38 31-69 69-69 37 0 68 31 68 69 0 37-31 68-68 68z m0-107c-22 0-39 17-39 39 0 21 17 39 39 39 21 0 39-18 39-39 0-22-18-39-39-39z m154 107c-38 0-68-31-68-68 0-38 30-69 68-69 38 0 68 31 68 69 0 37-30 68-68 68z m0-107c-22 0-39 17-39 39 0 21 17 39 39 39 21 0 39-18 39-39 0-22-18-39-39-39z m154 107c-38 0-68-31-68-68 0-38 30-69 68-69 38 0 68 31 68 69 0 37-30 68-68 68z m0-107c-21 0-39 17-39 39 0 21 18 39 39 39 22 0 39-18 39-39 0-22-17-39-39-39z m154 107c-37 0-68-31-68-68 0-38 31-69 68-69 38 0 68 31 68 69 0 37-30 68-68 68z m0-107c-21 0-39 17-39 39 0 21 18 39 39 39 22 0 39-18 39-39 0-22-17-39-39-39z" horiz-adv-x="1000" />

<glyph glyph-name="file-1" unicode="&#xe809;" d="M727 417v189c0 6-3 11-7 15l-212 223c-4 4-9 6-15 6h-336c-62 0-112-51-112-113v-636c0-62 50-112 112-112h265c50-83 142-139 246-139 158 0 287 128 287 287 0 138-99 253-228 280z m-213 360l142-150h-92c-28 0-50 23-50 50v100z m-357-746c-39 0-70 31-70 70v636c0 39 31 71 70 71h315v-131c0-50 41-92 92-92h121v-162c-6 0-11 0-17 0-73 0-139-28-190-71h-265c-11 0-20-10-20-21 0-12 9-21 20-21h226c-14-21-27-42-36-65h-190c-11 0-20-9-20-20 0-12 9-21 20-21h176c-5-21-8-44-8-67 0-38 7-75 21-106h-245v0z m511-140c-135 0-245 110-245 245 0 135 110 245 245 245 135 0 245-110 245-245 0-135-110-245-245-245z m-455 523h212c11 0 20 10 20 21 0 12-9 21-20 21h-212c-11 0-20-9-20-21 0-11 9-21 20-21z m470-124c-4 4-10 7-15 7-6 0-12-3-16-7l-122-131c-8-8-7-22 1-29 9-8 22-8 30 1l86 92v-228c0-11 10-20 21-20 12 0 21 9 21 20v228l86-92c4-5 9-7 15-7 5 0 10 2 14 6 8 8 9 21 1 29l-122 131z" horiz-adv-x="1000" />

<glyph glyph-name="online-meeting-1" unicode="&#xe80a;" d="M149 662c-17 0-30-13-30-30v0-441 0 0c0-17 13-30 30-30h702c17 0 30 13 30 30v0 441c0 16-13 30-30 30l-702 0z m124-472c3 10 10 19 19 25 11 7 17 19 17 31 0 12-5 23-14 30-10 7-15 18-15 29 0 11 4 20 12 28 7 7 17 10 27 9 18-1 33-15 35-33 1-13-5-25-15-33-9-7-15-18-15-30 0-12 7-24 18-31 9-6 16-15 19-25h-88z m212 236h-12c-9 0-15-6-15-14 0-9 6-15 15-15h12v-207h-94c-4 21-16 39-34 50-2 1-3 4-3 6 0 3 1 5 3 6 18 14 28 36 26 59-3 32-29 58-62 61-18 1-36-5-49-18-14-13-22-30-22-49 0-20 10-40 27-53 2-1 3-3 3-6 0-2-1-5-3-6-18-11-31-29-35-50h-93c0 0 0 0 0 0-1 1-1 1-1 1v206h256c8 0 14 6 14 15 0 8-6 14-14 14h-13c-4 20-16 38-34 50-2 1-3 3-3 6 0 2 1 5 3 6 18 14 28 36 26 59-3 32-29 58-62 60-18 2-36-5-49-17-14-13-22-31-22-49 0-21 10-41 27-53 2-1 3-4 3-6 0-3-1-5-3-6-18-12-31-30-35-50h-94v206c0 0 1 1 1 1h336v-207h0z m-190 85c-10 7-15 18-15 30 0 11 4 20 12 27 7 7 17 11 27 10 18-1 33-16 35-34 1-12-5-25-15-33-9-6-15-18-15-29 0-13 7-24 18-31 9-6 16-15 19-25h-88c3 10 10 19 19 25 11 7 17 18 17 31 0 12-5 23-14 29z m344-321c3 10 10 19 20 25 10 7 17 19 17 31 0 12-6 23-15 30-9 7-15 18-15 29 0 11 4 20 12 28 8 7 18 10 28 9 18-1 33-15 34-33 1-13-4-25-14-33-10-7-15-18-15-30 0-12 6-24 17-31 9-6 16-15 19-25h-88z m213 1c0 0 0-1-1-1h-93c-4 21-16 39-34 50-3 1-4 4-4 6 0 3 1 5 3 6 19 14 28 36 26 59-2 32-29 58-61 61-19 1-36-5-50-18-13-13-21-30-21-49 0-20 10-40 27-53 1-1 3-3 3-6 0-2-2-5-4-6-18-11-30-29-34-50h-94v207h337v-206z m-191 320c-9 7-15 18-15 30 0 11 4 20 12 27 8 7 18 11 28 10 18-1 33-16 34-34 1-12-4-25-14-33-10-6-15-18-15-29 0-13 6-24 17-31 9-6 16-15 19-25h-88c4 10 10 19 20 25 10 7 17 18 17 31 0 12-6 23-15 29z m191 121v-206h-94c-4 20-16 38-34 50-3 1-4 3-4 6 0 2 1 5 3 6 19 14 28 36 26 59-2 32-29 58-61 60-19 2-36-5-50-17-13-13-21-31-21-49 0-21 10-41 27-53 1-1 3-4 3-6 0-3-2-5-4-6-18-12-30-30-34-50h-94v207h336c1 0 1-1 1-1z m121-501h-36c4 8 6 17 6 26v342c0 8-6 14-14 14-8 0-15-6-15-14v-342c0-14-11-26-25-26h-778c-14 0-25 12-25 26v509c0 14 11 25 25 25h778c14 0 25-11 25-25v-99c0-8 7-15 15-15 8 0 14 7 14 15v99c0 30-24 55-54 55h-778c-30 0-54-25-54-55v-509c0-9 2-18 6-26h-36c-15 0-27-12-27-26v-59c0-37 30-67 67-67h866c37 0 67 30 67 67v59c0 14-12 26-27 26z m-565-29h184v-8c0-13-11-24-25-24h-134c-14 0-25 11-25 24v8h0z m563-56c0-21-17-37-38-37h-866c-21 0-38 16-38 37v56h350v-8c0-29 24-53 54-53h134c30 0 54 24 54 53v8h350v-56h0z" horiz-adv-x="1000" />

<glyph glyph-name="online-payment-1" unicode="&#xe80b;" d="M289 640c-8 0-15-7-15-15v-705c0-12 10-21 22-21h459c11 0 21 9 21 21v860c0 12-10 21-21 21h-459c-12 0-22-9-22-21v-87c0-8 7-14 15-14 8 0 14 6 14 14v79h444v-844h-444v697c0 8-6 15-14 15z m73 112c-21 0-39-17-39-39 0-22 18-39 39-39 22 0 40 17 40 39 0 22-18 39-40 39z m0-49c-5 0-10 4-10 10 0 6 5 10 10 10 6 0 10-4 10-10 0-6-4-10-10-10z m-39-537c0-22 18-39 39-39h326c22 0 39 17 39 39v204c0 22-17 39-39 39h-326c-21 0-39-17-39-39v-204z m365-10h-326c-5 0-10 4-10 10v102h235c8 0 15 7 15 15 0 8-7 14-15 14h-235v28h346v-28h-42c-8 0-15-6-15-14 0-8 7-15 15-15h42v-102c0-6-5-10-10-10z m-326 224h326c5 0 10-4 10-10v-16h-346v16c0 6 5 10 10 10z m145-148h-29c-8 0-14-7-14-15 0-8 6-15 14-15h29c8 0 14 7 14 15 0 8-6 15-14 15z m77 0h-28c-9 0-15-7-15-15 0-8 6-15 15-15h28c8 0 15 7 15 15 0 8-7 15-15 15z m78 0h-29c-8 0-15-7-15-15 0-8 7-15 15-15h29c8 0 14 7 14 15 0 8-6 15-14 15z m-65 280c-44 27-100 27-144 0-22-13-25-43-8-60 13-13 33-16 48-6 20 11 44 11 64 0 15-10 35-7 48 6 17 17 14 47-8 60z m-13-40c-3-3-8-4-12-1-29 17-65 17-94 0-4-3-9-2-12 1-4 5-3 12 2 15 35 21 79 21 114 0 5-3 6-10 2-15z m91 50c16 16 15 43-4 58-42 33-92 50-146 50-54 0-104-17-146-50-18-15-20-42-3-58 13-14 36-16 51-4 28 22 62 34 98 34 36 0 70-12 98-34 15-12 38-10 52 4z m-266 19c-4-3-9-2-13 1-4 4-4 11 1 15 37 29 81 44 128 44 47 0 91-15 128-44 5-4 5-11 1-15-4-3-9-4-13-1-33 26-73 40-116 40-43 0-83-14-116-40z m59-505c-21 0-39-17-39-39 0-22 18-39 39-39h114c21 0 39 17 39 39 0 22-18 39-39 39h-114z m124-39c0-6-5-10-10-10h-114c-5 0-10 4-10 10 0 6 5 10 10 10h114c5 0 10-4 10-10z m-383 495c-19 0-34-15-34-33v-224c0-19 15-34 34-34h16v-289c0-34 28-62 63-62h474c35 0 63 28 63 62v65c0 9-7 15-15 15-8 0-15-6-15-15v-65c0-18-14-33-33-33h-474c-19 0-33 15-33 33v876c0 18 14 33 33 33h474c19 0 33-15 33-33v-742c0-8 7-15 15-15 8 0 15 7 15 15v742c0 34-28 62-63 62h-474c-35 0-63-28-63-62v-85h-16c-19 0-34-15-34-34v-124c0-18 15-33 34-33h16v-20h-16z m0-262c-3 0-4 2-4 5v224c0 2 1 4 4 4h16v-233h-16z m0 311c-3 0-4 2-4 4v124c0 3 1 5 4 5h16v-133h-16z" horiz-adv-x="1000" />

<glyph glyph-name="payment-method-(1)-1" unicode="&#xe80c;" d="M389 490c-13 4-26 9-34 15-2 2-3 6-2 10 1 2 2 9 10 11 14 4 23-3 24-4 6-5 15-4 20 2 5 7 5 16-2 21-2 2-9 8-21 10v5c0 8-7 15-15 15-8 0-14-7-14-15v-6c-1 0-1 0-1 0-15-4-27-17-30-34-2-15 2-29 13-38 9-7 21-13 42-20 13-5 13-15 12-19-2-9-9-19-22-19-13 0-17 1-27 7-6 5-15 3-20-4-4-7-2-16 4-20 11-7 19-10 29-11v-6c0-8 6-14 14-14 8 0 15 6 15 14v7c20 6 33 23 36 41 4 23-9 44-31 52z m513-77h-162v230c0 35-28 63-62 63 0 0-527 0-527 0 0 0-89 0-89 0-34 0-62-28-62-63v-336c0-34 28-62 62-62h309v-152c0-54 44-99 98-99h343c8 0 14 7 14 15 0 8-6 15-14 15h-343c-38 0-69 31-69 69v105h571v-105c0-38-31-69-69-69h-32c-8 0-14-7-14-15 0-8 6-15 14-15h32c54 0 98 45 98 99v222c0 54-44 98-98 98v0z m67-84h-567c7 31 34 55 67 55h433c33 0 60-24 67-55v0z m-477 84h-23c-46 0-84-32-95-74-1 0-3 0-4 0-75 0-136 61-136 136 0 75 61 137 136 137 75 0 137-62 137-137 0-22-6-43-15-62v0z m219 230v-73c-56 7-100 51-107 106h74c18 0 33-15 33-33v0z m-682-336v73c56-6 100-50 107-106h-74c-18 0-33 15-33 33v0z m136-33c-7 72-64 129-136 136v130c29 3 55 13 78 31 6 5 8 14 3 21-5 6-15 7-21 2-17-13-38-22-60-24v73c0 18 15 33 33 33h74c-2-14-6-29-13-42-4-7-1-16 6-20 2-1 4-1 7-1 5 0 10 3 13 8 9 17 14 36 16 55h410c7-71 64-129 136-136v-127h-187c8 20 12 41 12 62 0 92-75 166-166 166-91 0-166-74-166-166 0-91 75-166 166-166 0 0 1 0 1 0v-35h-206v0z m235-47v73h571v-73h-571z m40-63c-8 0-15-7-15-15 0-8 7-14 15-14h63c8 0 15 6 15 14 0 8-7 15-15 15h-63z m108 0c-9 0-15-7-15-15 0-8 6-14 15-14h63c8 0 14 6 14 14 0 8-6 15-14 15h-63z m107 0c-8 0-14-7-14-15 0-8 6-14 14-14h63c8 0 15 6 15 14 0 8-7 15-15 15h-63z m171 0h-63c-8 0-15-7-15-15 0-8 7-14 15-14h63c8 0 14 6 14 14 0 8-6 15-14 15z" horiz-adv-x="1000" />

<glyph glyph-name="record-1" unicode="&#xe80d;" d="M985 393c-8 0-14-7-14-15v-140c0-41-33-73-73-73h-795c-41 0-74 32-74 73v224c0 41 33 74 74 74h267c8 0 15 6 15 14 0 8-7 15-15 15h-267c-57 0-103-46-103-103v-224c0-57 46-103 103-103h795c56 0 102 46 102 103v140c0 8-7 15-15 15z m-87 172h-459c-8 0-14-7-14-15 0-8 6-14 14-14h459c40 0 73-33 73-74v-15c0-8 6-14 14-14 8 0 15 6 15 14v15c0 57-46 103-102 103z m-282-157c24 0 44 20 44 44 0 25-20 45-44 45h-87c-25 0-44-20-44-45v-204c0-25 19-44 44-44h87c24 0 44 19 44 44 0 24-20 44-44 44h-44v14h38c24 0 44 20 44 44 0 24-20 44-44 44h-38v14h44z m-58-43h52c8 0 14-7 14-15 0-8-6-15-14-15h-52c-8 0-15-6-15-14v-44c0-8 7-14 15-14h58c8 0 15-7 15-15 0-8-7-15-15-15h-87c-9 0-15 7-15 15v204c0 9 6 15 15 15h87c8 0 15-6 15-15 0-8-7-14-15-14h-58c-8 0-15-7-15-15v-43c0-9 7-15 15-15z m273 44c13 0 25-4 35-11 20-13 47-7 61 13 13 20 8 47-13 61-24 16-53 25-83 25-82 0-148-66-148-147 0-32 10-63 30-89 5-6 14-7 21-2 6 5 7 14 2 20-16 21-24 45-24 71 0 65 54 117 119 117 24 0 47-7 67-20 7-4 9-13 4-20-4-7-13-9-20-4-15 10-32 15-51 15-49 0-90-39-90-88 0-48 41-88 90-88 22 1 41 7 55 24 6 6 15 7 21 2 6-6 7-15 2-21-17-21-47-35-78-34-19 0-38 4-55 13-7 4-16 1-20-6-3-7 0-16 7-20 21-11 45-16 68-16 40 0 74 14 100 44 16 18 14 46-5 62-18 16-46 13-62-5-6-7-17-13-33-14-33 0-60 27-60 59 0 32 27 59 60 59z m-376-10c0 54-45 98-101 98h-56c0 0 0 0 0 0-24 0-44-20-44-44v-205c0-25 20-44 44-44 24 0 44 19 44 44v11l37-41c14-16 43-20 62-3 16 14 20 44 3 62l-36 40c29 18 47 49 47 82z m-76-63c-5-2-8-6-9-11-2-4 0-9 3-13l49-55c4-4 6-13-1-20-3-3-14-7-21 1l-62 69c-3 3-7 5-11 5-2 0-3-1-5-1-6-2-9-8-9-14v-49c0-9-7-15-15-15-8 0-15 6-15 15v205c0 8 7 14 15 14 0 0 0 0 0 0h56c40 0 72-30 72-68 0-28-19-53-47-63z m-25 102h-27c-4 0-7-2-10-4-3-3-4-7-4-11l0-48c0-4 1-7 4-10 3-3 7-4 11-4h0l26 0c23 0 43 17 43 38 0 22-20 39-43 39z m0-48l-12 0 0 19h12c7 0 13-5 13-10 0-4-6-9-13-9z m-263 4c-7 4-16 1-20-6-6-12-9-25-9-38 0-44 36-80 80-80 45 0 81 36 81 80 0 44-36 81-81 81-5 0-10-1-14-2-8-1-14-9-12-17 1-8 9-13 17-12 3 1 6 1 9 1 28 0 51-23 51-51 0-28-23-51-51-51-28 0-51 23-51 51 0 9 2 17 6 24 4 7 1 16-6 20z" horiz-adv-x="1000" />

<glyph glyph-name="referral-1" unicode="&#xe80e;" d="M329-71c-8 0-14-6-14-14 0-9 6-15 14-15h81c8 0 14 6 14 15 0 8-6 14-14 14h-81z m-132 0h-81c-8 0-15-6-15-14 0-9 7-15 15-15h81c8 0 14 6 14 15 0 8-6 14-14 14z m803 497v332c0 48-40 88-89 88h-382c-49 0-89-40-89-88v-332c0-49 40-89 89-89h250l155-117c26-20 60 12 42 39l-51 79c43 7 75 44 75 88z m-49-182l-123 93h63l60-93z m20 182c0-33-27-59-60-59-18 0-364 0-382 0-33 0-60 26-60 59v332c0 32 27 59 60 59h382c33 0 60-27 60-59v-332z m-129 239l15 19c20 24 15 59-10 77-22 16-54 11-71-10l-71-85c-27 0-43 3-60-12-14 11-23 9-73 9-20 0-37-17-37-37v-169c0-20 17-36 37-36 50 0 57-2 70 7 9-9 22-15 35-15h141c48 0 87 39 87 87v91c0 37-28 68-63 74z m-214-203c0-7-4-10-9-10h-47c-3 0-5 2-5 5v169c0 3 2 5 5 5h47c5 0 9-4 9-9v-160z m245 38c0-31-25-56-55-56h-141c-9 0-17 8-17 18v155c0 9 8 17 17 17h31c8 0 15 4 20 10l72 87c7 9 20 11 29 4 10-7 12-21 4-31 0 0-23-28-23-28-13-17-1-42 20-42 24 0 43-19 43-43v-91z m-650-308c0-22 18-39 40-39 22 0 40 17 40 39 0 9-7 15-15 15-8 0-15-6-15-15 0-5-4-10-10-10-6 0-11 5-11 10 0 9-6 15-14 15-8 0-15-6-15-15z m120 52c0-9-7-15-15-15-9 0-15 6-15 15 0 8 6 15 15 15 8 0 15-7 15-15z m-130 0c0-9-7-15-15-15-8 0-15 6-15 15 0 8 7 15 15 15 8 0 15-7 15-15z m98 19c10 2 29 3 38-2 2-2 5-2 8-2 14 0 20 19 8 27-22 14-57 7-60 6-8-2-14-9-12-17 2-8 10-13 18-12z m-142-4c3 0 6 0 8 2 9 5 28 4 38 2 8-1 16 4 18 12 1 8-4 15-12 17-3 1-38 8-60-6-12-8-7-27 8-27z m339-177c-68 10-94 70-102 92 23 10 39 32 39 58 0 27-17 50-41 58v28c13 2 23 13 23 27v83c0 63-50 114-111 114-116 0-112 0-122-2-8-1-14-8-13-16 2-8 9-14 17-13 8 2 3 1 118 1 37 0 68-26 78-61 4-14 3-16 3-104-8 0-16 3-22 9-11 7-12 14-25 43-9 20-39 19-47-2-4-10-8-24-23-34-40-26-91-35-138-32-8 0-13 7-13 14 0 77-2 89 3 106 4 15 11 28 22 38 6 6 6 15 1 21-6 6-15 6-21 1-23-23-35-54-35-80 0-4 0-1 0-86 0-16 9-31 23-38v-17c-24-8-41-31-41-58 0-26 16-48 39-58-8-22-34-82-102-92-15-3-23-20-15-33 12-18 35-47 67-51-15-25-24-58-24-93 0-28 23-51 51-51h332c28 0 51 23 51 51 0 2 0 4 0 6 0 8-7 14-15 14-8 0-14-7-14-15 0-2 0-3 0-5 0-12-10-22-22-22h-151v96c0 0 63 27 63 27l27-19c14-12 36-3 36 16 0 5 0 9-1 14 16-16 29-34 37-55 3-7 12-11 19-8 8 3 11 12 8 19-3 9-7 17-11 25 32 4 55 33 67 51 8 13 0 30-15 33z m-104 175c15-13 15-37 0-50v50z m-253 44c49-1 103 10 145 37 14 9 25 23 31 40 9-20 17-44 48-56 0-134 2-132-6-151-19-42-80-82-108-82-24 2-84 38-104 82-7 18-6 17-6 130z m57-273l-13 6c-8 4-18 3-24-2l-18-13c3 14 10 24 22 31 11 4 22 7 31 8 0-24-1-25 2-30z m-86 229v-50c-15 14-15 37 0 50z m-86-202c57 14 88 57 103 88 14-22 35-42 57-57-40-7-76-28-101-55v0c-23-12-44 3-59 24z m212-172h-151c-12 0-22 10-22 22 0 44 18 84 48 112-2-15-2-28 12-34 8-3 17-2 23 4l27 19c77-33 59-25 63-28v-95z m42 159l-28-31-26 30c0 9 0 16 0 25 21-8 33-8 54 0v-24z m28-14c2 5 2 6 2 30 2 0 17-3 31-8 12-7 19-17 22-31-28 20-25 22-55 9z m113 3c-28 30-64 48-101 55 22 15 43 35 57 57 15-31 45-74 103-88-16-21-36-36-59-24z" horiz-adv-x="1000" />

<glyph glyph-name="swift-1" unicode="&#xe80f;" d="M921 182c56 221-78 479-306 616 101-137 142-299 106-443-2-13-7-26-12-38-44 30-246 154-489 400-7 8 132-198 286-360-73 43-278 190-407 309 15-25 35-50 56-78 108-140 248-307 417-436-119-74-286-79-455 0-43 18-79 43-117 71 71-112 180-210 311-266 157-69 318-70 448 10 56 28 167 58 228-58 13-33 43 119-71 258 3 5 3 10 5 15z" horiz-adv-x="1000" />

<glyph glyph-name="webrtc-1" unicode="&#xe810;" d="M571 83c0-128-104-232-232-232-127 0-231 104-231 232 0 127 104 231 231 231 128 0 232-104 232-231z m457 323c0-127-104-231-231-231-128 0-232 104-232 231 0 128 104 232 232 232 127 0 231-104 231-232z m-565 6c0-128-104-232-232-232-127 0-231 104-231 232 0 127 104 231 231 231 128 0 232-104 232-231m462-329c0-128-103-232-231-232-128 0-231 104-231 232 0 127 103 231 231 231 128 0 231-104 231-231z m-180 534c0-128-103-231-231-231-128 0-231 103-231 231 0 128 103 231 231 231 128 0 231-103 231-231z m-180-211c0-4 1-9 1-14 103 24 179 115 179 225 0 5 0 10 0 15-103-24-180-116-180-226z m31-114c40-70 115-117 201-117 35 0 68 8 98 22-40 70-115 117-201 117-35 0-68-8-98-22z m-133-209c0-57 20-109 54-149 33 40 54 92 54 149 0 56-21 108-54 148-34-40-54-92-54-148z m-323 116c29-12 60-19 91-19 86 0 160 46 200 115-29 13-60 19-92 19-85 0-159-46-199-115z m144 438c-1-7-1-13-1-20 0-110 76-201 179-225 0 7 1 13 1 20 0 109-77 201-179 225z m21-526h-36c-32 0-58 26-58 58v327c0 32 26 58 58 58h454c32 0 58-26 58-58v-327c0-32-26-58-58-58h-155l-310-152 47 152v0z" horiz-adv-x="1031" />

<glyph glyph-name="amazon_web_services_logo" unicode="&#xe811;" d="M471 485c0-20 2-37 6-49 4-12 10-25 17-39 3-5 4-9 4-13 0-5-3-11-10-16l-35-23c-5-4-9-5-14-5-5 0-11 2-16 7-8 9-14 17-20 26-5 9-11 20-17 33-42-51-96-76-160-76-46 0-82 13-109 39-27 27-40 62-40 106 0 46 16 84 49 113 34 29 78 43 134 43 18 0 38-2 58-5 20-2 41-7 62-12v40c0 42-8 71-25 88-18 17-47 26-89 26-19 0-39-3-59-8-20-4-40-10-59-18-8-4-15-6-19-7-4-1-6-2-9-2-7 0-11 6-11 17v27c0 9 1 15 4 19 3 4 7 8 15 12 19 10 42 18 69 24 26 8 55 11 85 11 65 0 112-15 142-45 30-29 46-74 46-135v-178h1z m-221-83c18 0 36 3 56 10 19 6 37 18 51 35 9 10 16 22 19 35 3 13 5 29 5 48v23c-15 4-32 7-50 9-17 2-34 3-51 3-36 0-63-7-81-22-18-14-27-35-27-63 0-26 7-45 20-58 13-14 33-20 58-20z m437-60c-10 0-16 2-21 6-4 3-8 11-11 21l-128 425c-3 11-5 18-5 22 0 9 4 14 13 14h53c11 0 18-2 22-6 4-3 7-11 11-21l91-364 85 364c3 11 6 18 10 21 5 4 12 6 22 6h44c10 0 17-2 22-6 4-3 8-11 10-21l86-368 94 368c4 11 7 18 11 21 5 4 12 6 21 6h51c9 0 14-5 14-14 0-3-1-6-1-9-1-3-2-7-4-14l-131-424c-4-11-8-18-12-22-4-3-11-5-21-5h-46c-11 0-18 1-22 5-5 4-8 11-11 22l-84 355-84-354c-3-11-6-18-10-22-5-4-12-6-22-6h-47z m700-14c-28 0-57 3-84 9-27 7-48 14-62 22-9 5-15 11-17 16-2 5-4 10-4 15v28c0 12 5 17 13 17 3 0 7 0 10-1 3-2 8-4 13-6 19-8 39-15 60-19 22-5 43-7 65-7 34 0 61 6 80 18 18 12 28 30 28 53 0 15-5 28-15 38-9 10-28 20-55 29l-79 24c-39 13-69 32-87 56-18 25-27 51-27 80 0 23 5 43 15 61 9 18 22 33 39 45 16 13 35 22 56 29 22 6 45 9 69 9 12 0 25-1 37-2 12-2 24-4 35-6 11-3 21-6 31-9 10-3 18-7 23-10 8-4 13-9 16-14 4-4 5-10 5-18v-26c0-11-4-17-12-17-5 0-12 2-21 6-31 15-66 22-105 22-31 0-55-5-72-16-17-10-26-26-26-48 0-16 6-29 17-39 11-11 31-21 60-31l77-24c39-13 68-31 84-53 17-23 25-49 25-77 0-24-4-45-14-64-9-18-23-35-39-48-17-14-38-24-61-31-24-8-50-11-78-11z m103-268c-179-133-440-204-663-204-314 0-597 117-811 312-17 15-1 36 19 24 231-135 516-217 811-217 198 0 417 42 618 127 30 14 56-20 26-42z m75 86c-23 30-152 14-210 7-17-2-20 14-4 25 102 73 270 52 290 28 20-25-5-195-101-276-15-13-29-6-23 10 22 54 71 177 48 206z" horiz-adv-x="1656" />

<glyph glyph-name="amazon_web_services_logo-1" unicode="&#xe812;" d="M471 485c0-20 2-37 6-49 4-12 10-25 17-39 3-5 4-9 4-13 0-5-3-11-10-16l-35-23c-5-4-9-5-14-5-5 0-11 2-16 7-8 9-14 17-20 26-5 9-11 20-17 33-42-51-96-76-160-76-46 0-82 13-109 39-27 27-40 62-40 106 0 46 16 84 49 113 34 29 78 43 134 43 18 0 38-2 58-5 20-2 41-7 62-12v40c0 42-8 71-25 88-18 17-47 26-89 26-19 0-39-3-59-8-20-4-40-10-59-18-8-4-15-6-19-7-4-1-6-2-9-2-7 0-11 6-11 17v27c0 9 1 15 4 19 3 4 7 8 15 12 19 10 42 18 69 24 26 8 55 11 85 11 65 0 112-15 142-45 30-29 46-74 46-135v-178h1z m-221-83c18 0 36 3 56 10 19 6 37 18 51 35 9 10 16 22 19 35 3 13 5 29 5 48v23c-15 4-32 7-50 9-17 2-34 3-51 3-36 0-63-7-81-22-18-14-27-35-27-63 0-26 7-45 20-58 13-14 33-20 58-20z m437-60c-10 0-16 2-21 6-4 3-8 11-11 21l-128 425c-3 11-5 18-5 22 0 9 4 14 13 14h53c11 0 18-2 22-6 4-3 7-11 11-21l91-364 85 364c3 11 6 18 10 21 5 4 12 6 22 6h44c10 0 17-2 22-6 4-3 8-11 10-21l86-368 94 368c4 11 7 18 11 21 5 4 12 6 21 6h51c9 0 14-5 14-14 0-3-1-6-1-9-1-3-2-7-4-14l-131-424c-4-11-8-18-12-22-4-3-11-5-21-5h-46c-11 0-18 1-22 5-5 4-8 11-11 22l-84 355-84-354c-3-11-6-18-10-22-5-4-12-6-22-6h-47z m700-14c-28 0-57 3-84 9-27 7-48 14-62 22-9 5-15 11-17 16-2 5-4 10-4 15v28c0 12 5 17 13 17 3 0 7 0 10-1 3-2 8-4 13-6 19-8 39-15 60-19 22-5 43-7 65-7 34 0 61 6 80 18 18 12 28 30 28 53 0 15-5 28-15 38-9 10-28 20-55 29l-79 24c-39 13-69 32-87 56-18 25-27 51-27 80 0 23 5 43 15 61 9 18 22 33 39 45 16 13 35 22 56 29 22 6 45 9 69 9 12 0 25-1 37-2 12-2 24-4 35-6 11-3 21-6 31-9 10-3 18-7 23-10 8-4 13-9 16-14 4-4 5-10 5-18v-26c0-11-4-17-12-17-5 0-12 2-21 6-31 15-66 22-105 22-31 0-55-5-72-16-17-10-26-26-26-48 0-16 6-29 17-39 11-11 31-21 60-31l77-24c39-13 68-31 84-53 17-23 25-49 25-77 0-24-4-45-14-64-9-18-23-35-39-48-17-14-38-24-61-31-24-8-50-11-78-11z m103-268c-179-133-440-204-663-204-314 0-597 117-811 312-17 15-1 36 19 24 231-135 516-217 811-217 198 0 417 42 618 127 30 14 56-20 26-42z m75 86c-23 30-152 14-210 7-17-2-20 14-4 25 102 73 270 52 290 28 20-25-5-195-101-276-15-13-29-6-23 10 22 54 71 177 48 206z" horiz-adv-x="1656" />

<glyph glyph-name="android-1" unicode="&#xe813;" d="M146 517c-35 0-63-28-63-63v-292c0-34 28-62 63-62 34 0 62 28 62 62v292c0 35-28 63-62 63z m708 0c-34 0-62-28-62-63v-292c0-34 28-62 62-62 35 0 63 28 63 62v292c0 35-28 63-63 63z m-125 0h-458c-12 0-21-10-21-21v-334c0-49 35-92 83-102v-148c0-34 28-62 63-62 34 0 62 28 62 62v146h84v-146c0-34 28-62 62-62 35 0 63 28 63 62v148c48 10 83 53 83 102v334c0 11-9 21-21 21z m-78 247l51 50c9 8 9 21 1 30-8 8-21 8-30 0 0 0 0 0 0 0l-59-59c-73 31-155 31-228 0l-59 59c-8 8-21 7-29-1-8-8-8-21 0-29l51-50c-62-41-99-111-99-185 0-11 9-21 21-21h458c12 0 21 10 21 21 0 74-37 144-99 185z m-255-122c11 0 21 9 21 20 0 12-10 21-21 21-12 0-21-9-21-21 0-11 9-20 21-20z m208 0c12 0 21 9 21 20 0 12-9 21-21 21-11 0-21-9-21-21 0-11 10-20 21-20z" horiz-adv-x="1000" />

<glyph glyph-name="apache_feather_logo-1" unicode="&#xe814;" d="M426 845c-16-9-42-35-73-73l28-54c20 29 41 54 61 76 2 2 3 3 3 3-1-1-2-2-3-3-6-7-26-30-57-77 29 1 74 7 111 14 11 61-11 89-11 89 0 0-27 44-59 25z m-96-453c-4 0-8-1-12-2 0 0 0 0 0 0 2 1 4 1 6 1 2 1 4 1 6 1z m0 0c-4 0-8-1-12-2 0 0 0 0 0 0 2 1 4 1 6 1 2 1 4 1 6 1z m9 47c0 0 0 0 0 0 0 0 0 0 0 0 1 0 1 1 2 1 2 0 5 0 7 1-3-1-6-1-9-2z m0 0c0 0 0 0 0 0 0 0 0 0 0 0 1 0 1 1 2 1 2 0 5 0 7 1-3-1-6-1-9-2z m-42 140c9 16 18 32 27 47 9 16 18 32 28 47 0 1 1 1 1 2 10 15 19 29 28 43l-28 54c-2-3-4-5-7-8-8-10-16-21-25-33-10-13-20-27-31-42-9-14-19-28-29-43-8-13-16-26-24-39-1-1-1-1-1-1l37-74c8 16 16 31 24 47z m-169-414c-5-14-10-28-15-42 0 0 0 0 0 0-1-2-2-4-2-6-4-10-7-18-13-38 11-5 19-18 28-33-1 16-8 30-20 41 54-2 101 12 125 51 2 4 4 7 6 11-11-14-25-20-50-18 0 0 0 0 0 0 0 0 0 0 0 0 37 17 56 33 73 60 4 6 8 13 12 21-33-34-71-44-111-36l-30-4c-1-2-2-5-3-7z m14 67c6 17 13 34 20 51 6 16 13 33 20 49 7 17 14 34 21 50 8 17 15 34 23 51 7 17 15 33 23 50 3 6 5 11 8 17 5 10 10 20 15 30 0 1 1 2 1 2l-37 74c-1-1-1-2-2-3-9-15-17-29-26-44-8-15-17-30-25-45-7-13-14-27-20-40-2-3-3-5-4-8-8-17-16-33-22-48-8-18-14-34-20-50-4-11-7-21-11-31-2-8-5-16-7-24-5-20-10-39-14-59l37-74c5 14 10 27 15 41 2 3 3 7 5 11z m-58 20c-4-24-8-47-9-71 0-1-1-1-1-2-11 18-42 37-42 36 22-32 39-64 41-96-12-2-28 1-47 8 20-18 35-23 40-24-18-1-37-14-56-28 28 11 51 16 67 12-26-72-51-152-77-237 8 2 13 8 15 15 5 15 35 116 83 248 1 4 2 8 4 12 0 1 0 2 1 3 5 14 10 28 15 42 2 4 3 7 4 10 0 0 0 0 0 0l-37 74c0-1-1-1-1-2z m195 274c-1-2-2-5-3-7-4-6-7-13-10-20-4-8-7-15-11-23-2-4-4-8-6-12-5-12-11-25-16-38-8-15-15-32-22-49-7-16-14-33-21-51-7-16-14-33-21-51-6-16-12-32-18-48-1-1-1-2-1-3-6-16-13-33-19-51 0 0 0 0 0-1l30 3c-1 1-2 1-2 1 36 4 84 31 114 64 15 16 28 34 40 55 8 15 17 33 25 52 7 17 13 35 20 55-8-4-18-8-28-10-2 0-4-1-6-1-2 0-4 0-6-1 0 0 0 0 0 0 34 13 55 38 70 69-8-6-23-14-40-18-2-1-5-1-7-1-1 0-1-1-2-1 0 0 0 0 0 0 0 0 0 0 0 0 12 5 22 11 30 17 2 2 4 3 6 4 2 3 5 5 7 8 1 1 3 3 4 4 4 4 7 9 10 13 1 2 2 3 2 5 2 2 3 4 4 6 4 9 8 18 11 25 2 4 3 7 4 11 0 1 1 2 1 3 1 4 2 7 3 10 1 4 2 7 2 9-1 0-2-1-4-2-10-6-27-12-41-14l28 3-28-3c0 0-1 0-1 0-1-1-3-1-4-1 0 0 1 0 1 0l-95-10c0 0 0-1 0-1z m106 191c-8-13-17-28-27-44-1-1-1-2-2-3-8-14-17-30-27-47-8-15-17-31-26-48-7-15-15-31-24-48l95 10c27 13 40 24 52 41 3 4 6 9 9 14 10 15 19 32 28 49 8 16 15 32 21 46 3 9 6 17 8 25 2 6 3 13 4 19-37-7-82-13-111-14z m-61-326c-2 0-4 0-6-1 2 1 4 1 6 1z m0 0c-2 0-4 0-6-1 2 1 4 1 6 1z m0 0c-2 0-4 0-6-1 2 1 4 1 6 1z m15 48c1 0 1 1 2 1-1 0-1-1-2-1z m0 0c1 0 1 1 2 1-1 0-1-1-2-1z m0 0c1 0 1 1 2 1-1 0-1-1-2-1z m0 0c0 0 0 0 0 0 0 0 0 0 0 0z m0 0c0 0 0 0 0 0 0 0 0 0 0 0z m0 0c0 0 0 0 0 0 0 0 0 0 0 0z m186 319v-2h6v-19h3v19h7v2h-16z m37 0l-7-14-7 14h-4v-21h3v17l7-14h2l7 14v-17h3v21h-4z" horiz-adv-x="594" />

<glyph glyph-name="aws-vpc-1-1" unicode="&#xe815;" d="M421 349v500l418-207 1-293h-55l2 194-242 69v-261l-124-2z m0 501v-500h-222v388l222 112z m-420-500v294l120 57v-351h-121m121 351v-351l78 0v331l-78 20z m513-180v-172h152l1 194-153-22z m-89 91l242-69-153-22-89 20v71z m-541-349l117-21v-244l-120 60 3 205z m194-32v-271l222-110v348l-222 33z m639 32v-207l-417-206v348l417 65z m-286 15v-20l-353-27v-214l-77-19-1 249 431 31z m-547-15l452 24 95-9-431-37-116 22z m194-32l422 42 214-11-414-64-222 33z" horiz-adv-x="844" />

<glyph glyph-name="font_awesome_5_brands_jenkins-1" unicode="&#xe816;" d="M951 20c-2 22-37 45-55 62-10 10-56 45-59 59-3 13 19 42 26 56 10 21 17 46 22 64 37 129 40 306-12 412-20 41-75 96-110 122-82 62-234 69-332 33-28-10-55-19-79-34-64-38-133-63-152-139-48-22-62-82-60-152 1-14 8-31 6-44-2-7-10-15-12-19-23-54-5-125 22-164 15-23 42-44 76-49 1-21 7-38 16-59 6-14 29-37 20-54-4-9-41-27-53-35-41-24-71-40-109-67-25-18-63-20-57-61 4-27 20-61 29-89 1-4 2-8 4-12h824c9 30 19 60 28 92 7 23 20 55 17 78z m-549 764c4 1 7-1 10-4-1-11-11-10-18-14-10-13-26-19-39-33-13-15-28-54-45-59-9-2-19 2-27 1-20-1-35-12-55-15 26 59 109 106 174 124z m-204-183c26 30 62 47 107 51 22-58-17-127-2-191 4-19 20-49-5-50 1 55-68 91-120 58-3 42-9 101 20 132z m71-391c-2 8-5 26-4 30 3 17 33 24 21 48-22 0-27-20-47-22-52-5-89 69-87 114 2 38 35 75 79 70 31-3 42-37 48-68 18-1 44 1 52 15-1 34-17 62-16 93 2 59 34 113 9 171 27 60 105 108 163 137 71 35 185 7 252-31 39-22 67-64 95-99-38 11-71-8-65-40 32 29 86 1 103-32 15-31 15-77 17-123 6-111-20-226-76-306-15-22-28-45-49-60-51-36-128-68-194-46-87 29-127 88-174 154 1-36 27-67 52-94 22-25 49-52 77-64-24 6-60 8-70-14-56 4-108 10-134 47-21 31-42 81-52 120z m434-242c8 6 21 6 34 7-11 5-26 7-38 4 0 8-4 14-6 20 21 8 69 56 97 40 13-8 18-51 19-72 1-18-1-36-8-45-37 1-70 5-99 14 1 12-2 23 1 32z m-34 39c-33-1-51 2-75 21 1 2 3 1 3 3 35-16 80 6 116 9-16-9-29-22-44-33z m-23-65c-4 18-7 24-6 40 49 32 58-56 6-40z m-205 51c-22 2-93 28-75 47 19-13 54-10 81-15 1-8-6-19-6-32z m-328-114c-9 25-18 49-29 72 60 47 127 96 199 124 6 2 46-49 52-54 32-23 72-41 109-59 3-17 8-39 17-69 2-5 3-9 5-14h-353v0z m470-11h-2c1 0 1 1 2 1v-1z m14 11c4 3 9 6 13 8 2-2 4-5 6-8h-19z m30 48c-21-14-40-35-65-49-12-6-53-23-65-20-7 2-8 10-11 19-6 17-20 45-21 72-2 34-5 90 31 83 29-6 63-19 86-32 14-7 22-16 43-18-1-3-1-6-1-9-11-7-30-7-42-13 18-1 33-6 46-12-1-7-1-14-1-21z m104-48h-27c0 6-6 11-12 11-7 0-12-5-12-11h-34c-6 9-11 17-17 24 4 5 7 10 11 14 18-7 29 10 43 8 15-1 27-23 49-21l-1-25z m17 0c0 8 1 15 1 23 31 14 57-3 70-23h-71z m163 72c-5-22-11-47-19-72-1 0-1 0-2 0h-54c1 2 2 4 4 6-5 12-18 17-22 31 24 44 13 182-47 153 9 12 31 23 41 38 25-20 40-40 65-61 13-12 39-26 41-46 2-10-5-37-7-49z m-477 644c11 29 53 68 88 63 15-3 35-16 24-35-59 14-89-25-106-65-16 4-10 26-6 37z m360-123c16 7 43 1 57 10-8 23-20 42-18 74 1 0 2 0 3 0 13-28 25-57 42-82-11-26-85-49-84-2z m-189-5c-14 21-38 63-29 88 13-23 17-48 35-65 8-8 24-17 16-39-2-6-15-17-23-19-28-9-93-2-71 33 23-1 54-15 72 2z m53-137c7-13 3-37 23-40 40-7 86 24 114 34 18 30-2 41-17 60-33 39-76 88-75 146 13 9 15-15 16-19 17-40 60-90 91-124 7-8 20-16 21-22 4-16-10-35-8-46-43-27-90-57-159-50-15 13-21 42-6 61z m-393 18c-14 8-17 41-32 42-23 1-18-44-18-70-16 14-18 57-7 79-13 6-19-7-26-11 9 66 97 30 83-40z m585-56c-20-38-48-79-106-80-1 12-2 30 0 37 45 5 72 27 106 43z m-277-25c37-19 104-21 155-19 2-11 2-25 2-38-64-4-140 12-157 57z m180-91c-4-8-11-18-19-21-24-10-89-17-122 0-21 11-34 36-46 51-5 7-33 25 0 25 25-64 113-57 187-55z" horiz-adv-x="1000" />

<glyph glyph-name="google_material_design_logo-1" unicode="&#xe817;" d="M500-150c276 0 500 224 500 500 0 276-224 500-500 500-276 0-500-224-500-500 0-276 224-500 500-500z m-350 850h700v-700h-700v700z m700 0l-350-700-350 700h700z" horiz-adv-x="1000" />

<glyph glyph-name="gradle_icon_130917-1" unicode="&#xe818;" d="M946 671c-30 29-69 46-111 46-41 1-81-15-111-43-2-2-3-4-4-6-1-2-1-4-1-6 0-2 0-4 1-7 1-2 2-3 4-5l18-21c3-3 6-4 10-5 4 0 8 1 11 3 19 16 42 24 67 22 24-2 46-13 62-31 16-19 24-43 22-67-1-24-13-46-31-62-125-125-294 226-675 44-6-3-12-7-17-13-4-5-8-11-10-18-2-7-3-14-3-22 1-7 3-14 7-20l65-112c7-11 18-20 32-23 13-4 27-2 38 5h3l29 16c32 20 62 42 91 67 3 3 6 4 10 4 4 0 8-1 11-4 1-1 3-3 4-5 0-2 1-4 1-6 0-3-1-5-1-7-1-2-3-4-4-5-30-27-62-52-97-73l-28-16c-12-6-26-10-39-10-15 0-30 4-43 11-12 7-23 18-30 31l-65 113c-118-104-191-247-151-451 1-3 3-7 5-9 3-2 7-3 10-3h69c4 0 8 1 11 4 3 2 4 6 5 10 4 24 17 45 36 61 18 15 42 24 66 24 25 0 48-9 67-24 18-16 31-37 36-61 0-4 2-7 5-10 2-2 6-4 10-4h68c3 0 7 2 10 4 2 3 4 6 5 10 4 24 17 45 35 61 19 15 43 23 67 23 24 0 48-8 66-23 19-16 32-37 36-61 1-4 3-7 5-10 3-2 7-3 10-3h68c4 0 8 1 10 4 3 3 5 7 5 10 3 97 26 206 101 261 255 190 187 354 128 412l1 0z m-261-286l-49 23c-1 5 0 11 3 16 2 5 6 9 10 12 5 3 10 5 15 5 6 1 11 0 16-3 5-2 9-6 12-10 4-5 5-10 6-15 0-6-1-11-3-16-2-5-6-9-10-12z" horiz-adv-x="1000" />

<glyph glyph-name="iconfinder_nginx_4691563-1" unicode="&#xe819;" d="M500 850l-433-250v-500l433-250 433 250v500l-433 250z m250-691c0-30-27-54-64-54-26 0-56 11-75 34l-250 297v-277c0-30-23-54-53-54h-3c-30 0-54 25-54 54v382c0 30 27 54 63 54 27 0 57-11 76-34l249-297v277c0 30 25 54 54 54h3c30 0 53-25 53-54v-382h1z" horiz-adv-x="1000" />

<glyph glyph-name="kotlin-1" unicode="&#xe81a;" d="M0-150l503 503 497-503h-1000z m0 1000h503l-503-541v541z m503 0l-503-528v-472l503 503 497 497h-497z" horiz-adv-x="1000" />

<glyph glyph-name="laravel-1" unicode="&#xe81b;" d="M621-6c-5 0-10 3-13 8l-116 194-218-59c-7-2-14 1-17 8l-255 478c-2 4-2 10 0 14 3 5 7 8 12 8l216 29c6 1 12-2 15-7l261-435 303 82-101 143c-3 4-4 10-2 14 2 5 6 9 11 10l142 33c6 2 12 0 15-5l123-153c3-4 4-10 3-15-2-4-6-8-11-10l-129-35 113-159c2-4 3-9 2-13-2-5-5-8-10-10l-338-119c-2 0-4-1-6-1z m-98 210l105-175 308 107-108 152-305-84z m-483 414l238-448 197 54-251 419-184-25z m706-162l95-133 117 32-101 127-111-26z" horiz-adv-x="1000" />

<glyph glyph-name="mongodb-1" unicode="&#xe81c;" d="M234-140l-26 9c0 0 4 135-43 144-30 37 5 1578 116 5 0 0-38-20-45-54-7-33-2-104-2-104z m0 0l-26 9c0 0 4 135-43 144-30 37 5 1578 116 5 0 0-38-20-45-54-7-33-2-104-2-104z m13 130c0 0 221 152 169 467-49 229-167 304-180 333-14 20-28 56-28 56l10-637c0-1-19-195 29-219m0 0c0 0 221 152 169 467-49 229-167 304-180 333-14 20-28 56-28 56l10-637c0-1-19-195 29-219m-51-8c0 0-208 147-195 407 11 260 158 388 186 411 18 20 19 28 20 49 13-29 11-432 13-480 5-183-10-353-24-387z m0 0c0 0-208 147-195 407 11 260 158 388 186 411 18 20 19 28 20 49 13-29 11-432 13-480 5-183-10-353-24-387z" horiz-adv-x="438" />

<glyph glyph-name="mysql-1" unicode="&#xe81d;" d="M921 81c-54 1-96-4-132-19-10-4-26-4-28-17 6-6 6-14 11-22 8-14 23-32 36-42 14-10 28-21 43-31 27-16 57-26 82-42 15-10 30-22 45-32 8-5 13-14 22-18v2c-5 6-6 15-11 22-7 7-13 13-20 20-20 26-44 50-71 69-22 15-69 35-78 60 0 0-1 1-2 2 15 1 33 6 47 10 23 7 45 5 68 11 11 3 22 6 33 10v6c-12 12-21 29-34 40-35 30-73 59-112 84-21 13-48 22-71 34-8 4-22 6-26 13-13 15-19 34-28 52-20 37-39 79-56 118-12 27-20 53-35 78-70 116-146 186-263 254-25 15-55 21-87 28-17 1-34 2-51 3-11 5-22 18-31 24-39 24-139 77-168 7-18-44 28-88 43-110 12-16 27-33 35-51 5-12 6-24 11-36 11-30 21-63 35-91 8-14 16-29 25-42 6-8 15-11 17-24-9-13-10-34-15-51-25-76-15-172 19-228 11-17 37-54 72-40 30 12 24 51 32 85 3 8 1 13 5 19 0-1 0-1 0-1 10-19 19-38 28-57 21-33 58-68 89-91 16-12 29-33 49-41v2h-1c-4 6-10 9-16 14-12 12-26 27-35 41-29 38-54 80-76 123-11 21-21 45-30 66-4 8-4 20-11 24-10-15-25-28-32-46-13-29-14-65-19-103-3 0-2 0-3-1-22 5-29 28-37 47-21 48-24 126-6 181 4 15 25 60 17 73-5 13-18 21-26 31-8 13-18 29-24 43-16 38-25 81-42 119-8 17-23 36-34 52-13 18-28 31-38 53-3 8-8 20-2 28 1 5 4 7 9 9 9 7 34-2 43-6 25-11 46-20 67-34 10-7 20-20 32-23h15c21-5 46-2 66-8 36-11 69-29 98-47 89-56 163-137 212-232 9-16 12-30 19-47 15-33 32-67 47-100 14-32 28-64 48-91 10-14 51-22 69-29 14-6 35-12 47-19 23-14 46-31 68-46 11-9 45-26 47-39z m-694 591c-11 0-19-2-27-4 0 0 0 0 0-1h1c5-11 15-18 22-28 5-11 10-22 15-32 1 0 2 1 2 1 9 7 14 18 14 34-4 5-5 9-8 14-4 7-13 10-19 16z" horiz-adv-x="1000" />

<glyph glyph-name="npm-logo-1" unicode="&#xe81e;" d="M0 850h2462v-825h-1231v-137h-547v137h-684v825z m137-687h273v412h137v-412h137v550h-547v-550z m684 550v-688h273v138h274v550h-547z m273-138h137v-275h-137v275z m410 138v-550h274v412h137v-412h136v412h137v-412h137v550h-821z m-1367-550h273v412h137v-412h137v550h-547v-550z m684 550v-688h273v138h274v550h-547z m410-413h-137v275h137v-275z m273 413v-550h274v412h137v-412h136v412h137v-412h137v550h-821z" horiz-adv-x="2462" />

<glyph glyph-name="php-1" unicode="&#xe81f;" d="M500 629c-135 0-258-29-348-76-91-47-152-115-152-195 0-80 61-148 152-195 90-48 213-76 348-76 135 0 258 28 349 76 90 47 151 115 151 195 0 80-61 148-151 195-91 47-214 76-349 76z m0-42c129 0 246-28 329-71 83-43 129-100 129-158 0-58-46-115-129-158-83-44-200-71-329-71-129 0-246 27-329 71-83 43-129 100-129 158 0 58 46 115 129 158 83 43 200 71 329 71z m-52-42l-52-250h55l26 125h44c14 0 23-2 27-7 4-4 5-13 3-26l-20-92h55l22 100c5 24 1 41-10 52-12 11-33 15-64 15h-49l18 83-55 0z m-240-83l-42-229h55l11 62h35c71 0 110 17 125 78 12 53-20 89-73 89l-111 0z m438 0l-42-229h55l11 62h34c72 0 111 17 125 78 13 53-19 89-72 89l-111 0z m-390-42h43c35 0 43-16 41-34-5-46-34-49-64-49h-36l16 83z m437 0h43c36 0 43-16 41-34-4-46-33-49-64-49h-36l16 83z" horiz-adv-x="1000" />

<glyph glyph-name="stripe_logo,_revised_2016-1" unicode="&#xe820;" d="M2388 336c0 167-81 299-236 299-155 0-249-132-249-298 0-196 111-296 270-296 78 0 137 18 181 43v130c-44-22-95-36-160-36-63 0-119 23-127 100h320c0 8 1 42 1 58z m-323 62c0 74 45 105 87 105 40 0 82-31 82-105h-169z m-415 237c-64 0-105-30-128-51l-8 41h-144v-762l163 34 1 185c23-17 58-41 116-41 117 0 223 94 223 302 0 189-108 292-223 292z m-39-450c-39 0-61 14-77 31l-1 242c17 19 41 32 78 32 60 0 101-66 101-152 0-88-41-153-101-153z m-466 489l164 35v133l-164-35v-133z m164-50h-164v-572h164v572z m-340-48l-10 48h-142v-572h164v388c38 50 104 41 124 34v150c-21 8-97 23-136-48z m-327 190l-159-34-1-523c0-97 73-168 169-168 54 0 93 9 115 21v133c-21-9-124-39-124 58v232h124v139h-124l0 142z m-442-308c0 26 21 36 56 36 50 0 112-15 162-42v153c-54 22-108 30-162 30-133 0-221-69-221-185 0-180 248-151 248-229 0-30-26-40-62-40-55 0-124 22-179 52v-155c61-26 122-37 179-37 136 0 229 67 229 184-1 195-250 160-250 233z" horiz-adv-x="2438" />

<glyph glyph-name="subtract" unicode="&#xe821;" d="M1000 350c0-276-224-500-500-500-275 0-498 222-500 496h0v4 500h500 4v0c275-2 496-225 496-500z m-496-91c48 0 87 39 87 87 0 48-39 87-87 87-48 0-87-39-87-87 0-48 39-87 87-87z" horiz-adv-x="1000" />

<glyph glyph-name="phone-book-1" unicode="&#xe822;" d="M961 710c0 28-22 50-50 50h-12v6c0 46-37 84-84 84h-625c-46 0-84-38-84-84v-39h-16c-28 0-51-23-51-51 0-29 23-52 51-52h16v-59h-16c-28 0-51-24-51-52 0-29 23-52 51-52h16v-59h-16c-28 0-51-23-51-52 0-29 23-52 51-52h16v-59h-16c-28 0-51-23-51-52 0-28 23-51 51-51h16v-60h-16c-28 0-51-23-51-51 0-29 23-52 51-52h16v-39c0-46 38-84 84-84h625c47 0 84 38 84 84v56c0 8-6 15-14 15-8 0-15-7-15-15v-56c0-30-25-55-55-55h-625c-30 0-55 25-55 55v39h16c28 0 51 23 51 52 0 28-23 51-51 51h-16v60h16c28 0 51 23 51 51 0 29-23 52-51 52h-16v59h16c28 0 51 23 51 52 0 29-23 52-51 52h-16v59h16c28 0 51 23 51 52 0 28-23 52-51 52h-16v59h16c28 0 51 23 51 52 0 28-23 51-51 51h-16v39c0 30 25 55 55 55h625c30 0 55-25 55-55v-707c0-8 7-15 15-15 8 0 14 7 14 15v238h12c28 0 50 23 50 51v72c0 15-5 27-15 37 10 9 15 22 15 36v72c0 14-5 27-15 36 10 9 15 22 15 36v73h0z m-810-663c12 0 22-10 22-22 0-13-10-23-22-23h-61c-12 0-22 10-22 23 0 12 10 22 22 22h61z m0 163c12 0 22-10 22-23 0-12-10-22-22-22h-61c-12 0-22 10-22 22 0 13 10 23 22 23h61z m0 163c12 0 22-11 22-23 0-12-10-22-22-22h-61c-12 0-22 10-22 22 0 12 10 23 22 23h61z m0 162c12 0 22-10 22-22 0-13-10-23-22-23h-61c-12 0-22 10-22 23 0 12 10 22 22 22h61z m0 163c12 0 22-10 22-22 0-13-10-23-22-23h-61c-12 0-22 10-22 23 0 12 10 22 22 22h61z m781-350c0-12-10-21-21-21h-12v115h12c11 0 21-10 21-22v-72z m0 145c0-12-10-22-21-22h-12v116h12c11 0 21-10 21-22v-72z m0 144c0-12-10-21-21-21h-12v115h12c11 0 21-9 21-21v-73z m-506-219l34 22c26 15 34 48 19 73l-48 86c-14 26-46 35-72 22l-30-14c0-1 0-1 0-1-20-10-66-41-74-103-12-77 38-172 147-281 71-71 181-162 281-147 62 8 93 54 103 74 0 0 1 0 1 0l14 30c14 26 4 58-22 72l-86 48c-25 15-58 6-73-19l-22-34c-4-7-13-8-19-2l-155 155c-6 6-5 15 2 19z m219-153c7 12 22 16 34 9l86-48c12-7 16-22 10-34l-7-15-132 74 9 14z m-270 230l31-55c-19-15-20-44-3-62l155-155c18-17 47-16 62 3l133-75c-13-19-36-42-74-47-67-10-155 38-256 139-101 101-149 189-139 256 5 38 28 61 47 74l11-19c2-4 7-7 13-7 2 0 4 1 7 2 7 4 9 13 5 20l-10 19 15 7c12 6 27 2 34-10l48-86c7-12 3-27-9-34l-14-9-30 53c-4 7-13 10-20 6-7-4-10-13-6-20z" horiz-adv-x="1000" />

<glyph glyph-name="profile-1" unicode="&#xe823;" d="M795 796h-484c-8 0-15-7-15-15 0-8 7-15 15-15h484c8 0 15 7 15 15 0 8-7 15-15 15z m-382-496c0 19-16 35-35 35h-145c-19 0-34-16-34-35v-113c0-19 15-35 34-35h145c19 0 35 16 35 35v113z m-29-113c0-3-3-6-6-6h-145c-3 0-5 3-5 6v113c0 3 2 6 5 6h145c3 0 6-3 6-6v-113z m-6-71h-145c-19 0-34-16-34-35v-114c0-19 15-34 34-34h145c19 0 35 15 35 34v114c0 19-16 35-35 35z m6-149c0-2-3-5-6-5h-145c-3 0-5 3-5 5v114c0 3 2 5 5 5h145c3 0 6-2 6-5v-114z m389 349h-306c-8 0-15-7-15-15 0-8 7-14 15-14h306c8 0 15 6 15 14 0 8-7 15-15 15z m0-58h-306c-8 0-15-6-15-14 0-9 7-15 15-15h306c8 0 15 6 15 15 0 8-7 14-15 14z m0-58h-306c-8 0-15-6-15-14 0-8 7-15 15-15h306c8 0 15 7 15 15 0 8-7 14-15 14z m0-103h-306c-8 0-15-7-15-15 0-8 7-15 15-15h306c8 0 15 7 15 15 0 8-7 15-15 15z m0-58h-306c-8 0-15-7-15-15 0-8 7-14 15-14h306c8 0 15 6 15 14 0 8-7 15-15 15z m0-58h-306c-8 0-15-7-15-15 0-8 7-14 15-14h306c8 0 15 6 15 14 0 8-7 15-15 15z m-448 291l-25-25-13 13c-6 5-15 5-21 0-6-6-6-15 0-21l23-24c6-5 15-5 21 0l36 36c5 6 5 15 0 21-6 5-15 5-21 0z m0-220l-25-25-13 13c-6 6-15 6-21 0-6-5-6-15 0-20l23-24c6-6 15-6 21 0l36 36c5 5 5 15 0 20-6 6-15 6-21 0z m175 327c84 0 151 68 151 151 0 69-46 129-113 147-8 2-16-3-18-11-2-8 3-16 11-18 53-14 91-62 91-118 0-24-8-47-20-66v0c0 29-21 53-48 57 6 11 11 23 11 37 0 35-29 64-65 64-36 0-64-29-64-64 0-14 4-26 11-37-28-4-49-28-49-57v0c-12 19-20 42-20 66 0 56 38 104 92 118 7 2 12 10 10 18-2 8-10 13-18 11-66-18-113-78-113-147 0-83 67-151 151-151z m0 214c19 0 35-16 35-35 0-20-16-36-35-36-19 0-35 16-35 36 0 19 16 35 35 35z m-73-129c0 16 14 29 29 29h88c16 0 29-13 29-29v-31c-22-17-48-24-73-24-25 0-51 7-73 24v31h0z m-309 334v-896c0-29 23-52 52-52h660c29 0 53 23 53 52v414c0 8-7 15-15 15-8 0-15-7-15-15v-414c0-12-10-23-23-23h-660c-13 0-23 11-23 23v810h706v-328c0-8 7-14 15-14 8 0 15 6 15 14v414c0 29-24 52-53 52h-660c-29 0-52-23-52-52z m136 23h576c13 0 23-11 23-23v-57h-599v80z m-29-80h-78v57c0 12 10 23 23 23h55v-80z" horiz-adv-x="1000" />

<glyph glyph-name="video-call-(2)-1" unicode="&#xe824;" d="M985 26h-24v517c0 53-43 96-96 96h-109c-8 0-15-6-15-14 0-8 7-15 15-15h109c37 0 67-30 67-67v-517h-328c-10 0-20-5-25-13l-5-6c-4-6-10-10-18-10h-114c-7 0-14 4-18 10l-5 6c-5 8-15 13-25 13h-326v517c0 37 30 67 67 67h94c8 0 15 7 15 15 0 8-7 14-15 14h-94c-53 0-96-43-96-96v-517h-24c-8 0-15-6-15-14v-31c0-55 45-100 100-100h800c55 0 100 45 100 100v31c0 8-7 14-15 14z m-14-45c0-39-32-71-71-71h-800c-39 0-71 32-71 71v16h365c1 0 1 0 1 0l4-7c10-14 26-22 43-22h114c17 0 33 8 43 22l4 7 0 0c0 0 1 0 1 0h367v-16h0z m-869 93c0-8 6-14 14-14h768c8 0 15 6 15 14v469c0 19-15 34-34 34h-109c-8 0-15-7-15-15 0-8 7-15 15-15h109c2 0 4-1 4-4v-454h-213v60c0 32-12 62-35 84l-19 19c7 11 12 22 16 35 2 8-3 16-11 18-8 2-16-3-18-10-3-13-9-25-17-35 0 0 0 0 0 0-17-21-44-34-72-34-51 0-92 41-92 92 0 51 41 92 92 92 39 0 74-24 87-62 3-7 11-11 19-9 8 3 12 11 9 19-17 49-63 82-115 82-67 0-122-55-122-122 0-24 8-47 20-66l-19-19c-23-22-35-52-35-84v-60h-213v54c0 8-7 14-15 14-8 0-14-6-14-14v-69z m271 75c0 24 9 46 26 63l18 18c21-21 51-33 83-33 32 0 61 12 83 33l18-18c17-17 26-39 26-63v-60h-254v60z m-257 42c8 0 15 6 15 14v338c0 3 2 4 4 4h94c8 0 15 7 15 15 0 8-7 15-15 15h-94c-18 0-33-15-33-34v-338c0-8 6-14 14-14z m221 280h311c35 0 64 28 64 64v220c0 35-29 64-64 64h-311c-35 0-64-29-64-64v-30c0-9 7-15 15-15 8 0 15 6 15 15v30c0 19 15 35 34 35h311c19 0 35-16 35-35v-220c0-19-16-35-35-35h-311c-19 0-34 16-34 35v127c0 8-7 15-15 15-8 0-15-7-15-15v-127c0-36 29-64 64-64z m117 83c6 0 13 2 19 5l90 53c12 7 19 19 19 33 0 14-7 26-19 33l-90 53c-12 7-26 7-38 0-12-7-19-19-19-33v-106c0-14 7-26 19-33 6-3 12-5 19-5z m-9 144c0 4 3 7 4 7 1 1 3 2 5 2 1 0 2-1 4-2l90-53c4-2 4-6 4-7 0-2 0-5-4-7l-90-53c-4-3-7-1-9 0-1 0-4 2-4 7v106h0z" horiz-adv-x="1000" />

<glyph glyph-name="call-1" unicode="&#xe825;" d="M61-125c-9 0-18 4-25 11-9 9-12 22-9 34l45 168c0 2 0 4-1 5-45 76-70 163-71 252-1 67 12 133 38 195 25 60 61 114 108 161 46 46 99 83 159 109 62 26 127 40 195 40h0c81 0 161-20 232-57 69-36 129-89 175-152 4-7 3-16-4-20-6-5-15-4-20 3-88 123-231 197-383 197 0 0 0 0 0 0-126 0-244-50-334-141-89-90-138-209-137-335 1-84 24-166 67-237 5-8 7-18 4-27l-45-168c-1-6 2-9 8-8l168 45c9 2 19 1 27-4 8-5 16-9 25-14 7-3 10-12 6-19-4-8-13-10-20-7-9 5-17 10-26 15-1 1-3 1-5 1l-168-45c-3-1-6-2-9-2z m517 171c-65 0-129 25-178 74l-127 127c-26 26-46 57-59 92-2 8 1 16 9 19 8 3 16-1 19-9 11-31 28-58 52-82l126-127c83-82 216-86 303-10 13 8 25 21 36 32 10 10 10 25 0 35l-88 88c-5 5-11 7-18 7-6 0-12-2-17-7l-48-48c-11-10-16-25-15-39l0-10c2-12-10-23-22-20-25 5-49 18-67 36l-127 127c-18 18-30 41-36 67-2 11 8 23 20 22l10 0c15-1 29 4 39 14l49 49c4 4 7 10 7 17 0 7-3 13-7 17l-89 89c-10 10-25 10-35 0-11-11-24-24-32-36-39-45-58-103-54-162 1-8-5-15-13-16-8-1-15 5-16 13-5 68 16 133 60 184 9 12 21 24 32 35 20 23 58 25 79 3l88-89c10-10 16-24 16-38 0-14-6-28-16-38l-48-48c-15-15-36-24-57-24 0 0 0 0 0 0 5-14 13-28 24-39l127-126c11-11 24-20 38-25 0 22 9 42 24 58l48 48c10 10 24 16 38 16 15 0 28-6 38-16l89-89c10-10 16-23 16-38 0-14-6-28-16-38-12-11-24-25-38-34-47-41-106-61-164-61z m-93 532c-8 0-14 6-14 14 0 8-4 17-10 23-6 6-14 9-23 9-8 1-14 7-14 15 0 8 7 15 15 15 0 0 0 0 0 0 16-1 31-7 43-19 11-11 18-26 18-42 0-9-6-15-14-15 0 0-1 0-1 0z m68 8c-8 0-14 6-15 13-2 24-12 47-29 63-17 17-39 28-63 30-8 0-14 7-14 15 1 8 8 14 16 14 31-3 60-16 82-38 21-22 35-51 37-81 1-8-5-15-13-16-1 0-1 0-1 0z m-53-736c-2 0-4 0-5 0-57 1-113 11-166 30-8 3-12 11-9 19 3 7 11 11 19 9 50-19 102-28 156-29 2 0 3 0 5 0 124 0 241 49 330 137 91 90 141 208 141 334 0 78-20 155-56 223-4 7-2 16 5 20 8 4 16 1 20-6 39-72 60-154 60-237 0-68-14-133-40-195-26-60-63-113-109-160-47-46-101-82-161-107-61-25-124-38-190-38z" horiz-adv-x="1000" />

<glyph glyph-name="chat-1" unicode="&#xe826;" d="M769 386c0 183-192 302-384 302-193 0-385-120-385-302 0-69 30-136 85-190 2-2 3-5 2-8-17-63-58-120-75-141-5-7-6-16-2-23 4-8 11-12 20-12 0 0 0 0 0 0 82 2 177 25 235 82 2 2 5 3 8 3 36-9 74-13 112-13 193 0 384 120 384 302z m-489-261c-13 3-26 0-35-10-59-57-154-70-200-73 21 28 55 81 70 139 4 13 0 27-10 36-49 49-76 107-76 169 0 151 160 273 356 273 196 0 355-122 355-273 0-150-159-273-355-273-36 0-71 4-105 12z m584 18c85 43 136 116 136 196 0 114-102 210-243 230-8 1-16-4-17-12-1-8 5-16 13-17 126-18 218-102 218-201 0-68-45-132-121-170-14-8-22-24-19-40 7-34 23-65 35-86-87 15-119 56-130 74-6 11-18 18-31 18 0 0 0 0 0 0l-1 0c-17 0-33 1-49 3-8 2-15-4-16-12-1-8 4-15 12-17 17-2 35-3 53-3l1 0h0c2 0 5-1 6-3 40-69 131-87 168-91 8-1 16 3 21 10 4 7 4 15-1 22-11 18-31 53-39 91-1 3 1 6 4 8z m-707 295c-28 0-51-22-51-50 0-28 23-51 51-51 28 0 51 23 51 51 0 28-23 50-51 50z m0-72c-12 0-22 10-22 22 0 12 10 21 22 21 12 0 21-9 21-21 0-12-9-22-21-22z m145 72c-28 0-51-22-51-50 0-28 23-51 51-51 28 0 50 23 50 51 0 28-22 50-50 50z m0-72c-12 0-22 10-22 22 0 12 10 21 22 21 11 0 21-9 21-21 0-12-10-22-21-22z m144 72c-28 0-50-22-50-50 0-28 22-51 50-51 28 0 51 23 51 51 0 28-23 50-51 50z m0-72c-11 0-21 10-21 22 0 12 10 21 21 21 12 0 22-9 22-21 0-12-10-22-22-22z m145 72c-28 0-50-22-50-50 0-28 22-51 50-51 28 0 51 23 51 51 0 28-23 50-51 50z m0-72c-12 0-21 10-21 22 0 12 9 21 21 21 12 0 22-9 22-21 0-12-10-22-22-22z" horiz-adv-x="1000" />

<glyph glyph-name="login-1" unicode="&#xe827;" d="M252 303c0-11-9-20-19-20-11 0-20 9-20 20 0 11 9 19 20 19 10 0 19-8 19-19z m79 0c0-11-9-20-20-20-10 0-19 9-19 20 0 11 9 19 19 19 11 0 20-8 20-19z m79 0c0-11-9-20-20-20-11 0-19 9-19 20 0 11 8 19 19 19 11 0 20-8 20-19z m79 0c0-11-9-20-20-20-11 0-19 9-19 20 0 11 8 19 19 19 11 0 20-8 20-19z m79 0c0-11-9-20-20-20-11 0-20 9-20 20 0 11 9 19 20 19 11 0 20-8 20-19z m79 0c0-11-9-20-20-20-11 0-20 9-20 20 0 11 9 19 20 19 11 0 20-8 20-19z m-395-182c0-11-9-19-19-19-11 0-20 8-20 19 0 11 9 20 20 20 10 0 19-9 19-20z m79 0c0-11-9-19-20-19-10 0-19 8-19 19 0 11 9 20 19 20 11 0 20-9 20-20z m79 0c0-11-9-19-20-19-11 0-19 8-19 19 0 11 8 20 19 20 11 0 20-9 20-20z m79 0c0-11-9-19-20-19-11 0-19 8-19 19 0 11 8 20 19 20 11 0 20-9 20-20z m79 0c0-11-9-19-20-19-11 0-20 8-20 19 0 11 9 20 20 20 11 0 20-9 20-20z m79 0c0-11-9-19-20-19-11 0-20 8-20 19 0 11 9 20 20 20 11 0 20-9 20-20z m177 256h-68c-8 0-14-7-14-15 0-8 6-15 14-15h68c14 0 25-11 25-25v-39c0-14-11-25-25-25h-647c-13 0-24 11-24 25v39c0 14 11 25 24 25h510c8 0 15 7 15 15 0 8-7 15-15 15h-510c-30 0-54-25-54-55v-39c0-30 24-54 54-54h647c30 0 55 24 55 54v39c0 30-25 55-55 55z m0-182h-647c-30 0-54-24-54-54v-39c0-30 24-55 54-55h57c8 0 15 7 15 15 0 8-7 15-15 15h-57c-13 0-24 11-24 25v39c0 14 11 25 24 25h647c14 0 25-11 25-25v-39c0-14-11-25-25-25h-521c-8 0-15-7-15-15 0-8 7-15 15-15h521c30 0 55 25 55 55v39c0 30-25 54-55 54z m-177-195h-290c-30 0-54-25-54-54v-40c0-30 24-54 54-54h290c30 0 54 24 54 54v40c0 29-24 54-54 54z m24-94c0-13-11-25-24-25h-290c-14 0-25 12-25 25v40c0 13 11 24 25 24h290c13 0 24-11 24-24v-40z m-170 502c122 0 222 100 222 222 0 122-100 222-222 222-60 0-116-23-158-66-6-6-6-15 0-21 6-5 15-5 21 0 37 37 85 57 137 57 106 0 192-86 192-192 0-37-10-72-29-101-15 40-44 73-82 93 14 18 22 41 22 64 0 57-46 103-103 103-57 0-103-46-103-103 0-23 7-46 21-64-37-20-67-53-82-93-18 29-29 64-29 101 0 28 6 55 18 80 3 7 0 16-7 20-8 3-17 0-20-8-13-29-20-60-20-92 0-122 99-222 222-222z m-51 196c5 2 8 6 9 11 1 5-1 11-5 14-17 14-27 35-27 57 0 41 33 74 74 74 40 0 73-33 73-74 0-22-9-43-26-57-5-3-7-9-6-14 1-5 5-9 10-11 45-17 80-57 90-104-35-38-85-62-141-62-56 0-106 24-141 62 10 47 44 87 90 104z" horiz-adv-x="1000" />

<glyph glyph-name="bill-1" unicode="&#xe828;" d="M928 370h-145v461c0 7-5 15-12 18-7 3-16 1-21-5l-55-55-56 55c-7 8-20 8-27 0l-56-55-55 55c-8 8-20 8-28 0l-55-55-55 55c-8 8-20 8-28 0l-55-55-56 55c-7 8-20 8-27 0l-56-55-55 55c-7 8-20 8-27 0-4-4-6-9-6-14v-878c0-56 45-102 101-102h692c0 0 0 0 0 0 0 0 0 0 0 0 56 0 101 46 101 102v398c0 11-8 20-19 20z m-774-481c-34 0-62 28-62 63v831l36-35c7-8 20-8 27 0l56 55 55-55c8-8 20-8 28 0l55 55 55-55c8-8 20-8 28 0l55 55 55-55c8-8 20-8 28 0l55 55 56-55c7-8 20-8 27 0l36 35v-433c0 0 0 0 0 0v-398c0-24 8-46 22-63h-612z m754 63c0-35-28-63-62-63-35 0-63 28-63 63v379h125v-379z m-490 588c-19 0-35 13-35 30 0 16 16 30 35 30 19 0 35-14 35-30 0-11 9-20 20-20 10 0 19 9 19 20 0 32-23 59-54 67v13c0 11-9 19-20 19-11 0-20-8-20-19v-13c-31-8-54-35-54-67 0-38 33-69 74-69 19 0 35-14 35-30 0-17-16-30-35-30-19 0-35 13-35 30 0 10-9 19-20 19-10 0-19-9-19-19 0-32 23-59 54-67v-16c0-11 9-20 20-20 11 0 20 9 20 20v16c31 8 54 35 54 67 0 38-33 69-74 69z m196 0h-38c-11 0-19-9-19-20 0-11 8-19 19-19h38c11 0 20 8 20 19 0 11-9 20-20 20z m-354 0h-38c-11 0-20-9-20-20 0-11 9-19 20-19h38c11 0 19 8 19 19 0 11-8 20-19 20z m364-217h-309c-11 0-20-9-20-20 0-11 9-19 20-19h309c11 0 20 8 20 19 0 11-9 20-20 20z m-398-6c-4 4-9 6-14 6-5 0-10-2-14-6-4-4-6-9-6-14 0-5 2-10 6-14 4-3 9-5 14-5 5 0 10 2 14 5 3 4 5 9 5 14 0 5-2 10-5 14z m398-123h-309c-11 0-20-9-20-20 0-11 9-19 20-19h309c11 0 20 8 20 19 0 11-9 20-20 20z m-398-6c-4 4-9 6-14 6-5 0-10-2-14-6-4-4-6-9-6-14 0-5 2-10 6-14 4-3 9-5 14-5 5 0 10 2 14 5 3 4 5 9 5 14 0 5-2 10-5 14z m398-123h-309c-11 0-20-9-20-20 0-10 9-19 20-19h309c11 0 20 9 20 19 0 11-9 20-20 20z m-398-6c-4 4-9 6-14 6-5 0-10-2-14-6-4-3-6-9-6-14 0-5 2-10 6-13 4-4 9-6 14-6 5 0 10 2 14 6 3 3 5 8 5 13 0 5-2 11-5 14z" horiz-adv-x="1000" />

<glyph glyph-name="calendar-1" unicode="&#xe829;" d="M840-4l92 92c9 8 9 22 0 31l-27 28c-9 8-23 8-32 0l-48-49-21 21c-9 9-23 9-31 0l-28-28c-9-8-9-22 0-31l64-64c9-9 23-9 31 0z m-52 97l21-21c9-8 23-8 31 0l49 49 17-18-81-81-54 54 17 17z m153 109v212c0 9-6 15-14 15-9 0-15-6-15-15v-193c-14 7-29 12-44 15v298c0 11-9 19-19 19h-648c-10 0-18-8-18-19v-68h-91c-10 0-19-9-19-19v-341c0-10 9-19 19-19h431c10 0 19 9 19 19v69h168c-6-8-11-16-15-25-4-7-1-16 6-19 7-4 16-1 20 6 22 44 67 72 118 72 73 0 132-59 132-132 0-73-59-132-132-132-73 0-132 59-132 132 0 8-7 15-15 15-8 0-15-7-15-15 0-15 2-30 6-44h-650c-2 0-4 2-4 4v570h59c8 0 15 7 15 15 0 8-7 14-15 14h-59v75c0 2 2 4 4 4h27v-26c0-18 15-33 33-33h23c19 0 33 15 33 33v26h33v-26c0-18 15-33 33-33h22c18 0 33 15 33 33v26h35v-26c0-18 14-33 33-33h21c18 0 33 15 33 33v26h35v-26c0-18 15-33 33-33h21c19 0 33 15 33 33v26h35v-26c0-18 15-33 33-33h22c18 0 33 15 33 33v26h34v-26c0-18 15-33 33-33h22c18 0 33 15 33 33v26h35v-26c0-18 14-33 33-33h21c18 0 33 15 33 33v26h27c2 0 4-2 4-4v-75h-756c-8 0-14-6-14-14 0-8 6-15 14-15h756v-124c0-8 6-15 15-15 8 0 14 7 14 15 0 172 0 196 0 228 0 18-15 33-33 33h-27v7c0 18-15 33-33 33h-21c-19 0-33-15-33-33v-7h-35v7c0 18-15 33-33 33h-22c-18 0-33-15-33-33v-7h-34v7c0 18-15 33-33 33h-22c-18 0-33-15-33-33v-7h-35v7c0 18-14 33-33 33h-21c-18 0-33-15-33-33v-7h-35v7c0 18-15 33-33 33h-21c-19 0-33-15-33-33v-7h-35v7c0 18-15 33-33 33h-22c-18 0-33-15-33-33v-7h-33v7c0 18-14 33-33 33h-23c-18 0-33-15-33-33v-7h-27c-18 0-33-15-33-33v-674c0-18 15-33 33-33h662c27-53 81-88 144-88 89 0 161 72 161 161 0 50-23 95-59 125z m-430 2h-80v58h80v-58z m-190 0v58h80v-58h-80z m80-30v-57h-80v57h80z m-189 262h80v-58h-80v58z m546-87h80v-58h-80v58z m-29-58h-80v58h80v-58z m109 87h-80v58h80v-58z m-109 0h-80v58h80v-58z m-109 0h-80v58h80v-58z m-109 0h-80v58h80v-58z m29 88v58h80v-58h-80z m-29 0h-80v58h80v-58z m-110 0h-80v58h80v-58z m0-30v-58h-80v58h80z m0-87v-58h-80v58h80z m-109 0v-58h-80v58h80z m-109-58h-80v58h80v-58z m-80-29h80v-58h-80v58z m109 0h80v-58h-80v58z m219 29v58h80v-58h-80z m109 58h80v-58h-80v58z m109-87h80v-58h-80v58z m109 0h80v-23c-28 0-56-8-80-22v45z m80 204h-80v58h80v-58z m-109 0h-80v58h80v-58z m-437 58v-58h-80v58h80z m-109-88v-58h-80v58h80z m-80-262h80v-57h-80v57z m109 0h80v-57h-80v57z m219-57v57h81v-57h-81z m109 87v58h80v-58h-80z m283 547c0 2 2 4 4 4h21c2 0 4-2 4-4v-62c0-2-2-3-4-3h-21c-2 0-4 1-4 3v62z m-122 0c0 2 1 4 3 4h22c2 0 4-2 4-4v-62c0-2-2-3-4-3h-22c-2 0-3 1-3 3v62z m-123 0c0 2 2 4 4 4h22c2 0 3-2 3-4v-62c0-2-1-3-3-3h-22c-2 0-4 1-4 3v62z m-122 0c0 2 2 4 4 4h21c2 0 4-2 4-4v-62c0-2-2-3-4-3h-21c-2 0-4 1-4 3v62z m-122 0c0 2 2 4 4 4h21c2 0 4-2 4-4v-62c0-2-2-3-4-3h-21c-2 0-4 1-4 3v62z m-122 0c0 2 1 4 3 4h22c2 0 4-2 4-4v-62c0-2-2-3-4-3h-22c-2 0-3 1-3 3v62z m-123 0c0 2 2 4 4 4h23c2 0 4-2 4-4v-62c0-2-2-3-4-3h-23c-2 0-4 1-4 3v62z" horiz-adv-x="1000" />

<glyph glyph-name="video-call-1" unicode="&#xe82a;" d="M249 691c8 0 15 7 15 15 0 8-7 15-15 15-8 0-15-7-15-15 0-8 7-15 15-15z m67 0c8 0 15 7 15 15 0 8-7 15-15 15-8 0-15-7-15-15 0-8 7-15 15-15z m67 0c8 0 15 7 15 15 0 8-7 15-15 15-8 0-15-7-15-15 0-8 7-15 15-15z m82-764c8 0 15 7 15 15 0 8-7 14-15 14h-64c-8 0-15-6-15-14 0-8 7-15 15-15h64z m314 379c-8 0-15-7-15-15v-366c0-25-20-46-46-46h-570c-25 0-46 21-46 46v850c0 25 21 46 46 46h570c26 0 46-21 46-46v-109c0-8 7-15 15-15 8 0 14 7 14 15v109c0 41-33 75-75 75h-570c-41 0-75-34-75-75v-850c0-41 34-75 75-75h570c42 0 75 34 75 75v366c0 8-6 15-14 15z m94 306h-160v115c0 24-19 43-42 43h-475c-24 0-43-19-43-43v-688c0-23 19-43 43-43h475c23 0 42 20 42 43v306h160c30 0 54 24 54 54v159c0 29-24 54-54 54z m-691 115c0 8 6 14 14 14h475c7 0 13-6 13-14v-56h-502v56z m489-701h-475c-4 0-9 2-11 5 12 69 65 123 134 137l25 4c23-23 56-36 89-36h0c34 0 66 13 90 36l25-4c68-14 121-68 133-137-2-3-6-5-10-5z m-184 462l0 0c-1 0-1 0-1 0-7 0-15-1-22-3-19-6-43-6-62 0-7 2-15 3-22 3l-1 0c-28 0-51-23-50-51l0-38-19 7c-2 0-3 3-3 5v59c0 41 33 74 74 74h111c11 0 20-9 20-20 0-14 12-26 26-26h1c11 0 20-9 20-20v-67c0-2-1-5-3-5l-19-7 1 38c0 28-23 51-51 51z m-164-118c17-6 35 7 35 25l0 42c0 12 9 22 21 22l1 0h0c4 0 9-1 13-2 25-8 55-8 80 0 4 1 9 2 13 2l1 0c12 0 21-10 21-22l0-42c0-18 18-31 35-25l18 6c0 0 0 0 0 0l0-23c0-3-3-6-6-6l-8 0c-8 0-14-7-15-15 0-27-11-52-30-68-20-18-43-27-68-27-26 0-49 9-69 26-19 17-30 42-31 69 0 8-7 14-15 14 0 0 0 0 0 0l-8 0c0 0 0 0 0 0-3 0-6 3-6 6 0 24 0 23 0 24l18-6z m170-185c-17-13-38-20-60-20 0 0 0 0 0 0-22 0-42 7-59 20 8 8 14 19 15 30 14-5 29-7 45-7h0c0 0 0 0 0 0 15 0 29 2 43 7 1-11 7-22 16-30z m191-79c-29 46-75 80-131 90l-33 7c-7 1-14 9-14 16v11c5 3 10 7 15 12 22 19 36 46 40 76 7 1 14 5 19 10 7 7 10 16 10 25l0 23c0 7-2 13-5 19 2 5 4 10 4 16v67c0 26-22 48-48 49-1 26-23 47-49 47h-111c-57 0-104-47-104-104v-59c0-6 2-12 5-17-4-5-6-12-6-19l0-23c0-10 4-18 10-25 6-5 12-9 20-10 4-30 18-57 40-76 5-4 9-8 14-11v-11c0-7-6-15-14-16 0 0 0 0 0 0l-33-7c-55-10-102-44-131-90v536h502v-30c-30-1-54-25-54-54v-159c0-30 24-54 54-54v-239z m214 293c0-14-11-25-25-25h-189c-13 0-24 11-24 25v159c0 13 11 24 24 24h189c14 0 25-11 25-24v-159z m-66 132l-24-12c-2 12-12 21-24 21h-72c-13 0-24-11-24-24v-75c0-14 11-24 24-24h72c12 0 22 8 24 20l24-11c17-8 37 4 37 24v57c0 19-20 32-37 24z m-53-85h-62v65h62v-65z m61 8l-32 15v18l32 15v-48z" horiz-adv-x="1000" />
</font>
</defs>
</svg>
